<svg version="1.1" id="Capa_1" xmlns="http://www.w3.org/2000/svg" xmlns:xlink="http://www.w3.org/1999/xlink" x="0" y="0" viewBox="0 0 1984.25 1417.32" style="enable-background:new 0 0 1984.25 1417.32" xml:space="preserve"><style>.st1{clip-path:url(#SVGID_2_);fill:#562f27}.st10{clip-path:url(#SVGID_23_);fill:none;stroke:#000;stroke-width:3.852;stroke-linecap:round;stroke-linejoin:round;stroke-miterlimit:10}.st12,.st14{clip-path:url(#SVGID_25_);fill:#995745}.st14{fill:#562f27}.st16,.st17,.st20{clip-path:url(#SVGID_30_)}.st17,.st20{fill:#fff}.st20{fill:none;stroke:#000;stroke-width:7.232;stroke-linecap:round;stroke-linejoin:round;stroke-miterlimit:10}</style><defs><path id="SVGID_1_" d="M0 0h1984.25v1417.32H0z"/></defs><clipPath id="SVGID_2_"><use xlink:href="#SVGID_1_" style="overflow:visible"/></clipPath><path d="M1742.95 968.41c-4.08-4.28-9.53-10.76-12.01-14.4-8.27-12.17-12.73-25.31-12.82-25.71-.5-2.28 3.36-.38 5.74-.17 2.38.21 8.8 3.52 9.31 5.79l-1.85.45c.85 5.52 2.1 11.53 10.2 21.6 8.85 11.01 23.83 23.46 38.44 28.47 19.98 6.85 35.42 6.26 46.17 2.18 18.29-6.95 33.55-22.92 36.09-38.64 1.51-9.33-1.73-19.91-8.87-29.03-6.44-8.22-15.32-14.22-24.36-16.46-17.25-4.26-28.12 9.53-30.14 15.04-1.52 4.18-2.26 10.42.91 15.67 3.07 5.07 7.69 9.08 12.68 11 2.49.96 5.92 2.7 5.49 4.83-.41 1.99-3.58.85-5.93-.07-7.51-2.94-13.47-6.92-17.93-14.28-4.6-7.6-5.93-15.52-3.67-21.74 2.93-8.02 13.27-25.58 38.31-18.45 11.65 3.32 23.01 10.51 31.19 20.96 8.88 11.34 12.9 24.47 11.04 36.02-2.85 17.64-17.17 35.86-37.28 43.49-12.13 4.6-33.21 6.86-55.99-3.04-17.18-7.46-26.32-14.7-34.72-23.51" style="clip-path:url(#SVGID_2_);fill:#e6007e"/><path class="st1" d="M1470.26 483.32c-2.1-1.87-4.4-3.51-6.82-4.93-3.24-1.86-7.93-3.41-11.92-3.47-.74-.08-3.49.24-4.58.57 2.56-.43-.25.14-1.06.52-3.44 1.68-6.25 4.37-9.08 6.92-9.03 8.67-16.81 20.34-22.01 32.41 25.9 19.98 51.17 40.79 75.72 62.41 1.16-31.49 3.33-70.37-20.25-94.43M100.81 526.19c-8.25 9.64-9.21 22.73-10.53 35-3.6 39.12 7.98 78.49 30.59 110.39 24.67 35.62 59.64 63.03 96.25 85.41 5.38 3.29 3.29 10.82-2.71 11.53-12.76 1.51-25.64 1.03-38.29-1.22-10.12-1.8-19.94-4.81-29.57-8.33 4.59 16.53 16.74 30.69 26.74 44.43 40.98 54.51 125.9 82.96 183.24 37.55 2.06-1.7 5.63-.99 7.44.71 4.55 4.4-.21 10.13-3.13 13.98-17.99 22.4-49.16 24.75-72.72 37.84l-.08.09c-2.63 2.02-.2 3.25.34 3.72 9.1 7.97 26.49 9.51 37.9 11.5 36.31 3.83 73.96-4.23 106.2-20.89 21.39-11.17 47.36-33.35 62.72-51.91-15.58-70.19-18.85-137.45 5.49-205.16-129.56 41.86-315.19 8.81-399.88-104.64M751.26 977.72c-1 1.29-1.61 2.83-1.75 4.46-1.63 19.07-6.21 61.91-7.41 78.73-.34 9.84-1.94 20.36-.05 30.14.67 3.48 3.56 6.08 7.06 6.59 20.12 2.92 40.52 4.07 60.87 3.97 5-.03 8.86-4.4 8.31-9.37-.75-6.77-2.21-13.49-5.41-19.44-1.97-3.42 3.2-6.69 5.18-3.27 3.92 7.23 5.62 15.41 6.45 23.62.46 4.57 4.43 7.95 9.01 7.62 4.78-.34 9.57-.8 14.32-1.4 5.5-.69 8.85-6.47 6.69-11.57-4.44-10.48-10.4-20.3-17.77-29.02-2.52-2.98 1.63-7.49 4.18-4.48a122.304 122.304 0 0 1 20.94 35.45c1.51 3.98 5.73 6.24 9.86 5.22l.18-.04c5.36-1.33 8.05-7.34 5.41-12.2-4.77-8.77-12.27-22.8-18.61-37.9-9.42-22.41 12.08-46.97 25.11-66.27 32.73-48.49 66.08-58.01 98.03-89.81 4.15-4.13-12.92-12.52-18.25-14.94-73.13-33.21-168.75 47.9-212.35 103.91"/><path d="M1765.06 939.68c-.1-.25-3.79-14.21-13.94-26.5-91.99-111.39-109.99-170.4-192.62-290.39-43.79-63.59-110.23-110.33-176.92-149.36-15.81-9.25-31.55-17.98-47.29-26.16l.02.01-.03-.01c-9.1-4.73-18.21-9.28-27.32-13.64-46.33-23.84-144.28-71.76-267.36-91.34 10.09 7.38 13.61 17.07 13.61 17.07s-31.51-13.32-65.88-15.4c0 0 14.64 11.44 17.16 15.68.39.37-5.38-1.2-16.39-2.76-25.66-3.64-79.77-7.28-150.68 13.46-.79.26 8.31 1.1 13.65 6.68-4.62.79-9.27 1.6-13.95 2.46-202.23 33.53-362.17 169.8-360.4 386.3 1.09 57.61 18.3 116.72 87.39 211.08 20.39 36.25 11.58 78.87 6.17 117.87-1.97 18.76-5.55 38.79-.6 57.31.38.99.41.98.95 1.96.14.24 1.1.98.49.66.12.07.19.11.23.14 20.8 3.88 42.12 6.61 63.78 7.08 4.05.09 7.36-3.22 7.3-7.27-.12-7.74-.4-15.54-2.5-22.96-1.2-3.78 4.65-5.58 5.84-1.83 2.27 7.96 2.63 16.34 2.77 24.64.07 4.1 3.55 7.28 7.64 7.03 6.99-.42 13.92-1.17 20.76-2.28 4.27-.69 6.95-5 5.7-9.15-3.41-11.38-10.17-21.96-19.05-29.46-3.02-2.55 1.17-7.02 4.18-4.48 10.01 8.45 17.48 20.53 21.07 33.41 1.11 3.96 5.27 6.21 9.16 4.86l4.87-1.69c3.95-1.37 5.91-5.85 4.16-9.65-5.39-11.68-12.89-22.32-18.25-34.05-.12-.27-.23-.55-.33-.83-8.19-24.69 15.36-56.13 26.41-77.58 52.02-93.84 252.08-264.51 306.61-59.24 12.3-73.65 171.35-287.33 402.69-190.79 0 0 98.98 44.82 116.4 55.18 72.29 42.34 123.55 80.27 191.6 129.09.34.24.69.47 1.09.6.54.18 1.56.91 2.65 1.71a7.136 7.136 0 0 0 7.73.49c21.55-12.03 24.72-19.79 21.43-27.95" style="clip-path:url(#SVGID_2_);fill:#995745"/><defs><path id="SVGID_3_" d="M1637.4 897.82c42.27 28.9 76.87 54.22 77.93 54.99.6.43 1.21.85 1.81 1.28 3.04 2.15 6.11 4.33 9.24 6.57.03.01.05.03.07.04-31.8-22.84-60.08-43.34-88.86-63.12-.06.09-.12.16-.19.24"/></defs><clipPath id="SVGID_4_"><use xlink:href="#SVGID_3_" style="overflow:visible"/></clipPath><linearGradient id="SVGID_5_" gradientUnits="userSpaceOnUse" x1="0" y1="1417.352" x2="1" y2="1417.352" gradientTransform="scale(478.9577 -478.9577) rotate(-50.309 -1509.016 704.874)"><stop offset="0" style="stop-color:#9f847c"/><stop offset="0" style="stop-color:#9f847c"/><stop offset="1" style="stop-color:#c8a496"/></linearGradient><path style="clip-path:url(#SVGID_4_);fill:url(#SVGID_5_)" d="m1690.13 853.82 67.35 81.14-83.76 69.52-67.34-81.15z"/><defs><path id="SVGID_6_" d="M837.13 379.47C634.89 413 474.96 549.27 476.73 765.78c1.09 57.6 73.88 184.44 87.39 211.08 20.39 36.25 11.59 78.87 6.17 117.87-1.98 18.76-5.55 38.79-.6 57.31.38.99.41.98.95 1.96.14.24 1.1.98.49.66.12.07.19.11.23.14 20.8 3.88 42.12 6.61 63.78 7.08 4.05.09 7.36-3.22 7.3-7.27-.12-7.74-.4-15.54-2.5-22.96-1.2-3.78 4.65-5.58 5.84-1.83 2.27 7.96 2.63 16.34 2.77 24.64.07 4.1 3.55 7.28 7.64 7.03 6.99-.43 13.92-1.17 20.76-2.28 4.27-.69 6.95-5 5.7-9.15-3.41-11.38-10.16-21.96-19.05-29.46-3.02-2.55 1.17-7.02 4.18-4.48 10.01 8.45 17.48 20.53 21.07 33.41 1.11 3.96 5.27 6.21 9.16 4.86l4.87-1.69c3.95-1.37 5.91-5.85 4.16-9.65-5.39-11.68-12.89-22.32-18.25-34.05-.12-.27-.23-.55-.33-.83-8.19-24.69 15.36-56.13 26.41-77.58 52.03-93.84 252.08-264.51 306.61-59.24 12.3-73.65 165.52-287.14 402.69-190.79 0 0 38.04 18.92 98.98 44.83 97.68 63.86 140.98 90.63 209.02 139.44.34.24.69.47 1.09.6.54.18 1.56.91 2.65 1.71a7.138 7.138 0 0 0 7.73.49c21.51-12.04 24.68-19.79 21.39-27.96-4.06-14.66-11.9-24.91-21.55-37.61-87.98-115.84-134.69-203.59-185.02-279.28-42.75-64.3-110.23-110.33-176.91-149.36-119.86-70.16-235.81-110.17-378.05-110.17-51.51 0-106.48 5.25-166.37 16.22"/></defs><clipPath id="SVGID_7_"><use xlink:href="#SVGID_6_" style="overflow:visible"/></clipPath><path d="M1726.46 960.71c-.03-.01-.05-.03-.07-.04a2158.7 2158.7 0 0 0-11.06-7.85c-1.07-.78-35.66-26.1-77.93-55 .07-.08.14-.15.21-.23 28.76 19.78 57.04 40.27 88.85 63.12" style="clip-path:url(#SVGID_7_);fill:#8f98cc"/><defs><path id="SVGID_8_" d="M1637.4 897.82c.07-.08.14-.15.21-.23-24.97-17.17-50.32-33.79-78.67-50.93 25.21 15.35 53.2 33.9 78.46 51.16"/></defs><clipPath id="SVGID_9_"><use xlink:href="#SVGID_8_" style="overflow:visible"/></clipPath><linearGradient id="SVGID_10_" gradientUnits="userSpaceOnUse" x1="0" y1="1417.293" x2="1" y2="1417.293" gradientTransform="scale(478.9577 -478.9577) rotate(-50.309 -1509.016 704.874)"><stop offset="0" style="stop-color:#5d6c43"/><stop offset="0" style="stop-color:#5d6c43"/><stop offset="1" style="stop-color:#808750"/></linearGradient><path style="clip-path:url(#SVGID_9_);fill:url(#SVGID_10_)" d="m1605.52 807.99 57.23 68.96-71.73 59.53-57.23-68.96z"/><defs><path id="SVGID_11_" d="M1765.06 939.68c-.48-1.72-1.01-3.38-1.58-5-.01-.02-.02-.04-.02-.06l-.03-.09c-.02-.04-.03-.09-.05-.13 0-.01-.01-.02-.01-.02 0-.01 0-.01-.01-.02-.14-.27-.28-.54-.42-.82 1.44 3.63 2.08 6.03 2.12 6.14"/></defs><clipPath id="SVGID_12_"><use xlink:href="#SVGID_11_" style="overflow:visible"/></clipPath><linearGradient id="SVGID_13_" gradientUnits="userSpaceOnUse" x1="0" y1="1417.474" x2="1" y2="1417.474" gradientTransform="scale(478.9577 -478.9577) rotate(-50.309 -1509.016 704.874)"><stop offset="0" style="stop-color:#9f847c"/><stop offset="0" style="stop-color:#9f847c"/><stop offset="1" style="stop-color:#c8a496"/></linearGradient><path style="clip-path:url(#SVGID_12_);fill:url(#SVGID_13_)" d="m1764.19 932.49 3.89 4.68-4.28 3.55-3.89-4.68z"/><defs><path id="SVGID_14_" d="M837.13 379.47C634.89 413 474.96 549.27 476.73 765.78c1.09 57.6 73.88 184.44 87.39 211.08 20.39 36.25 11.59 78.87 6.17 117.87-1.98 18.76-5.55 38.79-.6 57.31.38.99.41.98.95 1.96.14.24 1.1.98.49.66.12.07.19.11.23.14 20.8 3.88 42.12 6.61 63.78 7.08 4.05.09 7.36-3.22 7.3-7.27-.12-7.74-.4-15.54-2.5-22.96-1.2-3.78 4.65-5.58 5.84-1.83 2.27 7.96 2.63 16.34 2.77 24.64.07 4.1 3.55 7.28 7.64 7.03 6.99-.43 13.92-1.17 20.76-2.28 4.27-.69 6.95-5 5.7-9.15-3.41-11.38-10.16-21.96-19.05-29.46-3.02-2.55 1.17-7.02 4.18-4.48 10.01 8.45 17.48 20.53 21.07 33.41 1.11 3.96 5.27 6.21 9.16 4.86l4.87-1.69c3.95-1.37 5.91-5.85 4.16-9.65-5.39-11.68-12.89-22.32-18.25-34.05-.12-.27-.23-.55-.33-.83-8.19-24.69 15.36-56.13 26.41-77.58 52.03-93.84 252.08-264.51 306.61-59.24 12.3-73.65 165.52-287.14 402.69-190.79 0 0 38.04 18.92 98.98 44.83 97.68 63.86 140.98 90.63 209.02 139.44.34.24.69.47 1.09.6.54.18 1.56.91 2.65 1.71a7.138 7.138 0 0 0 7.73.49c21.51-12.04 24.68-19.79 21.39-27.96-4.06-14.66-11.9-24.91-21.55-37.61-87.98-115.84-134.69-203.59-185.02-279.28-42.75-64.3-110.23-110.33-176.91-149.36-119.86-70.16-235.81-110.17-378.05-110.17-51.51 0-106.48 5.25-166.37 16.22"/></defs><clipPath id="SVGID_15_"><use xlink:href="#SVGID_14_" style="overflow:visible"/></clipPath><path d="M1765.06 939.68c-.04-.1-.68-2.5-2.12-6.15.15.28.28.55.42.82.62 1.71 1.19 3.49 1.7 5.33" style="clip-path:url(#SVGID_15_);fill:#8f98cc"/><defs><path id="SVGID_16_" d="M1546.07 838.96c-1.81-1.07-3.63-2.14-5.47-3.22-1.05-.62-2.4-1.37-4.01-2.23 3.09 1.74 6.25 3.56 9.48 5.45"/></defs><clipPath id="SVGID_17_"><use xlink:href="#SVGID_16_" style="overflow:visible"/></clipPath><linearGradient id="SVGID_18_" gradientUnits="userSpaceOnUse" x1="0" y1="1417.249" x2="1" y2="1417.249" gradientTransform="scale(478.9577 -478.9577) rotate(-50.309 -1509.016 704.874)"><stop offset="0" style="stop-color:#5d6c43"/><stop offset="0" style="stop-color:#5d6c43"/><stop offset="1" style="stop-color:#808750"/></linearGradient><path style="clip-path:url(#SVGID_17_);fill:url(#SVGID_18_)" d="m1542.2 828.85 6.55 7.89-8.29 6.88-6.55-7.89z"/><defs><path id="SVGID_19_" d="M1406.04 700.43c-6.88-26.2 10.83-44.41 29.92-44.41 10.56 0 21.54 5.58 29.01 18.47 6.88 26.2-10.83 44.41-29.92 44.41-10.57-.01-21.54-5.58-29.01-18.47m-18.95-34.81c-17.05 73.98 82.25 132.41 125.67 155.3 3.39 1.46 6.87 2.95 10.42 4.46 2.31 1.51 4.6 3.01 6.85 4.48l.01.01c2.14 1.17 4.33 2.38 6.55 3.64 1.61.86 2.95 1.61 4.01 2.23 1.84 1.08 3.66 2.15 5.47 3.22 4.19 2.45 8.48 5.02 12.87 7.69 28.35 17.15 53.69 33.77 78.67 50.93 28.77 19.78 57.05 40.28 88.86 63.12 4.47 2.4 9.89 4.43 15.43 4.43 3.88 0 7.83-.99 11.56-3.54.14-.1.28-.19.42-.29a61.9 61.9 0 0 0 4.06-3.09c5.94-5.04 8.59-10.13 7.91-16.1-.18-.79-.43-1.57-.75-2.36v-.01c-.01-.02-.02-.05-.03-.07-.04-.1-.68-2.5-2.12-6.15-12.36-23.34-62.84-60.79-152.76-143.68-58.35-53.79-88.92-142.91-131.23-166.22-11.45-6.31-24.2-10.09-36.57-10.09-24.03.01-46.59 14.29-55.3 52.09"/></defs><clipPath id="SVGID_20_"><use xlink:href="#SVGID_19_" style="overflow:visible"/></clipPath><linearGradient id="SVGID_21_" gradientUnits="userSpaceOnUse" x1="0" y1="1417.355" x2="1" y2="1417.355" gradientTransform="scale(478.9577 -478.9577) rotate(-50.309 -1509.016 704.874)"><stop offset="0" style="stop-color:#764136"/><stop offset="0" style="stop-color:#764136"/><stop offset="1" style="stop-color:#995745"/></linearGradient><path style="clip-path:url(#SVGID_20_);fill:url(#SVGID_21_)" d="m1604.81 418.69 334.5 403.04-407.55 338.25-334.51-403.04z"/><defs><path id="SVGID_22_" d="M837.13 379.47C634.89 413 474.96 549.27 476.73 765.78c1.09 57.6 73.88 184.44 87.39 211.08 20.39 36.25 11.59 78.87 6.17 117.87-1.98 18.76-5.55 38.79-.6 57.31.38.99.41.98.95 1.96.14.24 1.1.98.49.66.12.07.19.11.23.14 20.8 3.88 42.12 6.61 63.78 7.08 4.05.09 7.36-3.22 7.3-7.27-.12-7.74-.4-15.54-2.5-22.96-1.2-3.78 4.65-5.58 5.84-1.83 2.27 7.96 2.63 16.34 2.77 24.64.07 4.1 3.55 7.28 7.64 7.03 6.99-.43 13.92-1.17 20.76-2.28 4.27-.69 6.95-5 5.7-9.15-3.41-11.38-10.16-21.96-19.05-29.46-3.02-2.55 1.17-7.02 4.18-4.48 10.01 8.45 17.48 20.53 21.07 33.41 1.11 3.96 5.27 6.21 9.16 4.86l4.87-1.69c3.95-1.37 5.91-5.85 4.16-9.65-5.39-11.68-12.89-22.32-18.25-34.05-.12-.27-.23-.55-.33-.83-8.19-24.69 15.36-56.13 26.41-77.58 52.03-93.84 252.08-264.51 306.61-59.24 12.3-73.65 165.52-287.14 402.69-190.79 0 0 38.04 18.92 98.98 44.83 97.68 63.86 140.98 90.63 209.02 139.44.34.24.69.47 1.09.6.54.18 1.56.91 2.65 1.71a7.138 7.138 0 0 0 7.73.49c21.51-12.04 24.68-19.79 21.39-27.96-4.06-14.66-11.9-24.91-21.55-37.61-87.98-115.84-134.69-203.59-185.02-279.28-42.75-64.3-110.23-110.33-176.91-149.36-119.86-70.16-235.81-110.17-378.05-110.17-51.51 0-106.48 5.25-166.37 16.22"/></defs><clipPath id="SVGID_23_"><use xlink:href="#SVGID_22_" style="overflow:visible"/></clipPath><path class="st10" d="M1686.59 921.99s-1.29-1.42 11.83-3.7c8.14-1.42 13.82 2.03 13.82 2.03"/><path class="st10" d="M1697.56 918.79s1.05 13.59 9.71 24.16c8.09 9.89 17.36 16.45 17.36 16.45"/><defs><path id="SVGID_24_" d="M0 0h1984.25v1417.32H0z"/></defs><clipPath id="SVGID_25_"><use xlink:href="#SVGID_24_" style="overflow:visible"/></clipPath><path d="M1108.41 1106.34c97.09 4.44 141.51-13.98 151.58-133.64 5.24-62.22 8.65-124.6 13.92-186.82.54-5.98.41-30.49 1.13-36.47-212.19-2.23-166.02 353.57-166.63 356.93" style="clip-path:url(#SVGID_25_);fill:#c3998a"/><path class="st12" d="M1160.41 1007.6c.01 5.2.78 16.16.7 21.35-.14 10.23-.91 14.97-1.97 25.37 46.58 1.62 57.23-52.3 1.27-46.72"/><path d="M906.76 586.1c-24.95 3.04-57.79-.09-72.77 24.47-27.69 50.08 85.9 142.83 115.69 183.69 47.13 60.95 53.89 93.77 71.82 177.09 4.3 21.59 6.27 43.11 7.07 64.92.28 27.39 1.03 41.47-1.57 69.67-3.9 17.99-16.78 28.21-42.86 43.55-3.86 3.37-11.49 9.45-11.74 14.01 3.39 7.03 16.96 9.62 24.22 11.61 5.53.69 13.04 3.45 18.13 3.14 130.49 11.94 148.08-38.87 146.09-157.5 2.15-38.81 5.57-70.8 13.32-108.9 16.34-90.93 56.08-186.17 200.54-146.3 4.64.69 23.59 6.7 30.9 9.06 10.3 3.32 8.09 2.98 18.58 5.95-124.77-128.95-344.82-205.48-517.42-194.46" style="clip-path:url(#SVGID_25_);fill:#d5ab9c"/><path class="st14" d="M877.89 625.42c45.25-10.53 137.75-.99 137.64-2.56-.69-9.96-12.84-15.45-11.84-15.42 105.43 5.73 161.95 47.01 161.13 45.43-.98-4.83-10.98-20.49-10.98-20.49 31.72 13.39 57.02 36.42 57.02 36.42s-.1-10.32-7.17-20.63c0 0 86.93 50.67 137.73 82.37 47.77 29.8 68.67 45.69 68.67 45.69s-103.9-40.14-159.43-3.83c-44.57 29.15-61.8 86.71-63.39 87.48-19.84-34.86-49.7-113.36-164.01-179.72-57.85-33.58-142.17-48.71-150.67-53.43 1.78-.45 3.54-.87 5.3-1.31"/><path class="st12" d="M1062.8 1040.46c-11.31-.29-22.75.9-34.06 1.9.45 19.12-.08 38.29-1.14 57.35 21.65-3.54 46.67-5.1 63.42-20.81 17.6-20.31-7.58-39.64-28.22-38.44"/><path class="st14" d="M1381.44 609.05c-5.36-26.08-8.89-62.95-34.96-86.65-19.82-16.32-47.13-14.77-54.79 12.72-5.1 24.93 5.19 53.89 40.58 81.49 7.82 5.67 20.52 13.58 24.72 11.19 1.42-2.07 12.82-10.2 17.97-13.46 4.16-1.75 6.48-5.29 6.48-5.29"/><defs><path id="SVGID_26_" d="M1319.83 532.47c-10.45 2.76-10.41 10.66-10.09 20.32 3.32 26.8 32 53.73 51.65 71.2 3.02-2.29 5.23-4.09 8.43-6.39-3.55-9.86-8.27-28.98-12.27-40.1-3.58-8.33-16.74-45.47-34.42-45.47-1.08 0-2.18.14-3.3.44"/></defs><clipPath id="SVGID_27_"><use xlink:href="#SVGID_26_" style="overflow:visible"/></clipPath><linearGradient id="SVGID_28_" gradientUnits="userSpaceOnUse" x1="0" y1="1417.33" x2="1" y2="1417.33" gradientTransform="scale(-100.4614 100.4614) rotate(-58.107 -1276.902 723.997)"><stop offset="0" style="stop-color:#995745"/><stop offset=".141" style="stop-color:#995745"/><stop offset="1" style="stop-color:#da9d90"/></linearGradient><path style="clip-path:url(#SVGID_27_);fill:url(#SVGID_28_)" d="m1326.25 651.1-58.12-93.4 84.82-52.78 58.12 93.4z"/><defs><path id="SVGID_29_" d="M0 0h1984.25v1417.32H0z"/></defs><clipPath id="SVGID_30_"><use xlink:href="#SVGID_29_" style="overflow:visible"/></clipPath><path class="st16" d="M1410.54 644.72c-10.25-.67-16.55 11.33-17.06 22.74-.34 7.51.8 9.59 3.75 9.79 2.33.16 5.49-5.65 10.7-14.18 5.21-8.51 12.86-17.68 2.61-18.35"/><path class="st17" d="M1447.6 687.3c-2.47-6.13-7.37-9.92-10.95-8.47-3.58 1.45-4.48 7.59-2.02 13.71 2.47 6.13 7.37 9.92 10.95 8.47 3.58-1.44 4.49-7.58 2.02-13.71"/><path class="st17" d="M1464.96 674.48c10.69 40.7-37.97 62.13-58.92 25.95-10.69-40.7 37.97-62.13 58.92-25.95"/><path class="st16" d="M1427.3 669.72c-13.33 6.27-13.35 26.82 1.84 34.68 9.66 5 22.35 2.44 28.14-2.79 17.19-15.54-8.53-41.98-29.98-31.89"/><path class="st17" d="M1449.66 688.31c-2.3.83-4.48 3.01-4.09 5.45.41 2.56 3.53 3.81 6.01 3.16 1.79-.47 3.44-1.76 4.06-3.54.63-1.77.05-3.99-1.51-4.95-1.32-.8-3.02-.64-4.47-.12"/><path d="M1442.19 686.35c-1.14 0-2.31-.67-2.65-1.79.25-1.28 1.24-2.47 2.5-2.67.11-.02.22-.03.34-.03 1.16 0 2.31.94 2.32 2.13 0 .62-.29 1.23-.73 1.67-.48.47-1.13.69-1.78.69" style="clip-path:url(#SVGID_30_);fill:#ededed"/><path d="M1690.81 844.28c-.35 0-.71-.15-.98-.52-18.62-25.56-41-49.49-59.34-74.49 2.04 4.77 4.12 9.51 6.31 14.19.38.81.48 2.39-.36 2.39-.2 0-.46-.09-.78-.31-5.46-3.59-31.32-39.14-39.2-51.71-5.32-8.52-10.97-17.63-16.13-27.08.88 4.91 1.35 9.76.92 14.45-.02.12-.08.16-.18.16-.03 0-.06 0-.09-.01-12.49-29.82-33.99-57.85-55.1-81.85-13.25-15.05-28.05-28.58-42.8-42.16-3.64-3.57-8.5-8.06-13.44-12.51-6.34-5.98-12.57-12.07-18.57-18.38 16.18 6.81 29.01 16.78 41.34 29.4 1.72 1.77 3.33 3.58 4.91 5.45-4.78-8.4-10.78-16.01-15.99-24.11-.47-.75-.91-3.05.07-3.05.21 0 .48.1.82.34 20.53 14.13 35.88 32.83 49.57 52.99-1.35-2.9-2.76-5.79-4.19-8.66-4.26-8.51-7.18-18.36-12.1-26.49-1.04-1.73-.65-2.84.21-2.84.56 0 1.32.47 2.01 1.55.17.28.4.55.58.89 17.9 21.54 37.01 41.87 53.67 64.48 17.78 24.08 34.56 50.12 51.03 74.97 16.6 25.08 51.68 81.03 68.91 111.02.56.98-.25 1.89-1.1 1.89" style="clip-path:url(#SVGID_30_);fill:#b2705c"/><path class="st20" d="M1033.51 1129.24s-5.26 12.48-23.11 16.81c-17.85 4.32-27.29-.7-27.29-.7M1047.86 1150.83s-4.84 8.67-21.41 19.56c-8.66 5.69-22.58 8.37-22.58 8.37M833.38 1048.56s10.43 11.05 20.24 29.81c5.35 10.25 7.94 21.71 7.94 21.71M811.81 1063.31s5.9 8.63 7.86 19.39.78 23.64.78 23.64M659.81 1111.65s15.3 13.93 20.49 25.39c5.19 11.46 7.99 23.47 7.99 23.47M639.32 1122.75s5.29 14.3 6.47 25.85c1.38 13.46.65 19.63.65 19.63"/></svg>