<svg version="1.1" id="Capa_1" xmlns="http://www.w3.org/2000/svg" xmlns:xlink="http://www.w3.org/1999/xlink" x="0" y="0" viewBox="0 0 1984.25 1417.32" style="enable-background:new 0 0 1984.25 1417.32" xml:space="preserve"><style>.st2{clip-path:url(#SVGID_11_);fill:#f39200}.st5{clip-path:url(#SVGID_16_)}.st6{clip-path:url(#SVGID_18_)}.st7{clip-path:url(#SVGID_20_)}.st8{clip-path:url(#SVGID_22_)}.st12,.st13,.st9{clip-path:url(#SVGID_24_);fill:#b96b00}.st12,.st13{fill:#f18700}.st13{fill:#f5b3bd}.st14{fill:#faceb9}.st14,.st15,.st16{clip-path:url(#SVGID_24_)}.st16{fill:none;stroke:#000;stroke-width:.53;stroke-miterlimit:10}.st18{clip-path:url(#SVGID_26_)}.st22,.st24{clip-path:url(#SVGID_30_)}.st24{fill:#fff}</style><defs><path id="SVGID_1_" d="M0 0h1984.25v1417.32H0z"/></defs><clipPath id="SVGID_2_"><use xlink:href="#SVGID_1_" style="overflow:visible"/></clipPath><defs><path id="SVGID_3_" d="M0 1.41h1984.25v1415.91H0z"/></defs><clipPath id="SVGID_4_"><use xlink:href="#SVGID_3_" style="overflow:visible"/></clipPath><defs><path id="SVGID_5_" d="m1203.81 1081.74-.04.09c-1.09 23.51-10.46 44.62-7.9 44.63 32.27-6.64 46.68 14.63 46.11 39.79l.21.1c12.81-2.67 26.22-.97 37.86 5.06 10.44 5.41 19.4 16.92 19.33 28.93-.06 10.79-11.19 17.43-19.99 21.78-19.71 9.73-42.77 10.66-64.04 13.26a922.858 922.858 0 0 1-119.84 6.72c-38-.34-74.89-11.88-112.49-16.09-12.85-1.44-20.91.06-31.02 8.71-8.18 6.99-14.21 17.46-12.26 28.5 3.86 21.93 31.54 32.41 49.57 37.95 29.82 9.17 60.28 13.71 91.52 16.03 58.56 4.34 117.75.34 176.16-4.14 46.66-3.57 108.96-19.84 129.73-67.1 14.24-32.4 6.82-72.68-10.45-101.41-15.79-26.27-40.13-48.05-68.89-60-20.67-8.59-39.96-11.33-56.14-11.33-28.52.02-47.43 8.52-47.43 8.52"/></defs><clipPath id="SVGID_6_"><use xlink:href="#SVGID_5_" style="overflow:visible"/></clipPath><linearGradient id="SVGID_7_" gradientUnits="userSpaceOnUse" x1="0" y1="1417.317" x2="1" y2="1417.317" gradientTransform="matrix(454.8532 0 0 -454.8532 939.371 645868.625)"><stop offset="0" style="stop-color:#ffdc88"/><stop offset=".06" style="stop-color:#ffd77e"/><stop offset=".36" style="stop-color:#fbbe4d"/><stop offset=".627" style="stop-color:#f8ac25"/><stop offset=".849" style="stop-color:#f6a000"/><stop offset="1" style="stop-color:#f59c00"/></linearGradient><path style="clip-path:url(#SVGID_6_);fill:url(#SVGID_7_)" d="M937.79 1073.24h463.16v248.3H937.79z"/><defs><path id="SVGID_8_" d="M0 0h1984.25v1417.32H0z"/></defs><clipPath id="SVGID_9_"><use xlink:href="#SVGID_8_" style="overflow:visible"/></clipPath><path d="M768.73 1021.01s-51.14 40.58-19.78 104.44c-.66-1.33-6.25-1.54-7.44-1.65-6.63-.61-11.56-.11-17.87 2.25-6.87 2.56-11.94 7.36-15.56 13.65-.99 1.72-1.86 3.52-2.61 5.36-4.45 10.89-5.05 23.33-2.66 34.79 1.89 9.08 5.84 18.07 12.47 24.73 12.32 12.35 36.92 18.16 53.02 10.74 9.29-4.28 140.21-20.55 164.76-17.09 24.55 3.46 57.34 3.63 87.09-2.64 49.29-13.44 123.61 13.05 145.43 14.46 21.82 1.42 53.19 8.96 64.1-5.26 23.44-30.55 15.68-88.85-33.41-78.75-4.77-.01 32.05-67.85-21.14-103.28 0 0-59.33-56.45-203.2-59.55-143.87-3.11-203.2 57.8-203.2 57.8" style="clip-path:url(#SVGID_9_);fill:#f39200"/><defs><path id="SVGID_10_" d="M768.73 1021.01s-51.14 40.58-19.78 104.44c-.65-1.33-6.25-1.54-7.44-1.65-6.63-.62-11.56-.11-17.87 2.25-6.87 2.56-11.94 7.36-15.55 13.65-.99 1.72-1.86 3.52-2.61 5.36-4.45 10.89-5.05 23.33-2.66 34.79 1.89 9.08 5.83 18.07 12.47 24.73 12.32 12.35 36.92 18.16 53.02 10.74 9.29-4.28 140.21-20.55 164.76-17.09 24.55 3.46 57.34 3.63 87.09-2.65 49.28-13.44 123.61 13.05 145.43 14.46 21.82 1.42 53.19 8.96 64.1-5.26 23.44-30.55 15.68-88.85-33.41-78.75-4.77-.01 32.05-67.85-21.14-103.28 0 0-59.33-56.45-203.2-59.55-3.57-.08-7.1-.11-10.56-.11-136.24-.01-192.65 57.92-192.65 57.92"/></defs><clipPath id="SVGID_11_"><use xlink:href="#SVGID_10_" style="overflow:visible"/></clipPath><path class="st2" d="m1253.13 963.86-552.71-1.48v-2.63l552.71 1.49z"/><path class="st2" d="m1253.13 975-552.71-1.49v-11.13l552.71 1.48z"/><path class="st2" d="m1253.13 986.13-552.71-1.48v-11.14l552.71 1.49z"/><path class="st2" d="m1253.13 997.27-552.71-1.49v-11.13l552.71 1.48z"/><path class="st2" d="m1253.13 1008.4-552.71-1.48v-11.14l552.71 1.49z"/><path class="st2" d="m1253.13 1019.53-552.71-1.48v-11.14l552.71 1.49zM1253.13 1030.67l-552.71-1.49v-11.13l552.71 1.48z"/><path class="st2" d="m1253.13 1041.8-552.71-1.48v-11.14l552.71 1.49z"/><path class="st2" d="m1253.13 1052.94-552.71-1.49v-11.13l552.71 1.48z"/><path class="st2" d="m1253.13 1064.07-552.71-1.49v-11.13l552.71 1.49z"/><path class="st2" d="m1253.13 1075.2-552.71-1.48v-11.14l552.71 1.49z"/><path class="st2" d="m1253.13 1086.34-552.71-1.49v-11.13l552.71 1.48z"/><path class="st2" d="m1253.13 1097.47-552.71-1.48v-11.14l552.71 1.49z"/><path class="st2" d="m1253.13 1108.61-552.71-1.49v-11.13l552.71 1.48z"/><path class="st2" d="m1253.13 1119.74-552.71-1.49v-11.13l552.71 1.49z"/><path class="st2" d="m1253.13 1130.87-552.71-1.48v-11.14l552.71 1.49z"/><path class="st2" d="m1253.13 1142.01-552.71-1.49v-11.13l552.71 1.48z"/><path class="st2" d="m1253.13 1153.14-552.71-1.48v-11.14l552.71 1.49z"/><path class="st2" d="m1253.13 1164.28-552.71-1.49v-11.13l552.71 1.48z"/><path class="st2" d="m1253.13 1175.41-552.71-1.49v-11.13l552.71 1.48z"/><path class="st2" d="m1253.13 1186.54-552.71-1.48v-11.14l552.71 1.49z"/><path class="st2" d="m1253.13 1197.68-552.71-1.49v-11.13l552.71 1.48z"/><path class="st2" d="m1253.13 1208.81-552.71-1.48v-11.14l552.71 1.49z"/><path class="st2" d="m1253.13 1219.94-552.71-1.48v-11.14l552.71 1.49z"/><path class="st2" d="m700.42 1218.46 552.71 1.48v4.14l-552.71-1.49z"/><defs><path id="SVGID_12_" d="M910.57 984.1c-5.09 9.04-5.26 193.7-2.89 200.94 2.38 7.24 13.07 12.03 13.07 12.03s9.17 5.74 49.9 5.37c40.74-.37 38.7-3.23 51.43-7.01 12.73-3.78 26.48-13.27 26.48-30.89 0-17.63 4.07-177.68-11.2-179.62-9.94-1.27-58.52-5.06-92.62-5.06-18.28-.01-32.39 1.08-34.17 4.24"/></defs><clipPath id="SVGID_13_"><use xlink:href="#SVGID_12_" style="overflow:visible"/></clipPath><linearGradient id="SVGID_14_" gradientUnits="userSpaceOnUse" x1="0" y1="1417.314" x2="1" y2="1417.314" gradientTransform="matrix(0 -222.547 -223.6357 -.6013 317940.938 2054.762)"><stop offset="0" style="stop-color:#ffdc88"/><stop offset=".06" style="stop-color:#ffd77e"/><stop offset=".36" style="stop-color:#fbbe4d"/><stop offset=".627" style="stop-color:#f8ac25"/><stop offset=".849" style="stop-color:#f6a000"/><stop offset="1" style="stop-color:#f59c00"/></linearGradient><path style="clip-path:url(#SVGID_13_);fill:url(#SVGID_14_)" d="M905.31 1202.81V979.46l147.33.39v223.35z"/><defs><path id="SVGID_15_" d="M0 0h1984.25v1417.32H0z"/></defs><clipPath id="SVGID_16_"><use xlink:href="#SVGID_15_" style="overflow:visible"/></clipPath><path d="M1173.7 1168.14c-11.74-15.79-19.69-32.38-15.89-52.5 1.82-9.62 5.84-18.92 8.31-28.42 9.08-34.98 12.2-71.31 11.18-107.39-.83-29.18-4.37-58.23-9.78-86.92-9.75-51.8-45.52-121.46-49.58-135.22-4.06-13.76 9.95-53.65 9.95-53.65l.27-1c-2.77 1.77-5.79 3.63-8.48 5.31-23.49 14.61-46.29 29.68-67.69 47.27-16.44 13.52-35.95 32.03-57.4 31.97-34.51-.09-61.15-22.19-90.1-37.57-26.44-14.04-48.18-26.15-76.34-37.72l-2.55 3.9s8.35 38.13 4.29 51.87c-4.06 13.74-41.64 72.05-51.4 123.79-5.4 28.66-8.95 57.7-9.78 86.87-1.02 36.07 2.1 72.43 11.18 107.45 2.46 9.51 6.49 18.83 8.31 28.46 3.8 20.14-4.15 36.69-15.89 52.42-4.55 6.1-7.89 13.14-9.31 20.64-1.82 9.57-.24 19.64 5.61 27.61 9.23 12.55 26.62 13.2 39.14 8.27 0 0 21.9 26.73 54.82 4.15.17-.11 3.32 1.93 3.59 2.07 3.02 1.57 6.2 2.86 9.46 3.82 8.97 2.62 18.76 2.39 26.77-2.8 3.68-2.38 6.73-5.6 9.23-9.17 1.45-2.07 2.92-4.36 3.97-6.66.46-1 .99-2.69 1.41-4.18.47-1.62.82-3 .82-3s4.24 1.22 5.63 1.35c8.21.77 15.93-3.2 19.51-10.7 3.48-7.29 1.71-15.49-2.09-22.31-4.03-7.24-10.05-13.3-16.35-18.61 0 0-9.58-8.18-8.75-23.94s18.95-80.25 3.95-148.83c0 0 28.1 9.5 53.23 9.57 25.13.07 53.31-9.28 53.31-9.28-15 68.5 3.12 133.09 3.95 148.85.83 15.76-8.75 23.89-8.75 23.89-6.3 5.27-12.32 11.31-16.35 18.52-3.79 6.79-5.57 14.99-2.09 22.3 3.59 7.52 11.3 11.53 19.51 10.81 1.39-.12 5.63-1.32 5.63-1.32s1.28 5.1 2.23 7.2c1.05 2.31 2.52 4.6 3.96 6.68 2.49 3.58 5.55 6.82 9.23 9.22 8.01 5.23 17.8 5.51 26.77 2.94 3.27-.94 6.44-2.21 9.46-3.77.27-.14 3.42-2.16 3.59-2.05 32.92 22.76 54.82-3.85 54.82-3.85 12.52 4.99 29.92 4.44 39.14-8.06 5.86-7.94 7.43-18.01 5.61-27.58-1.38-7.51-4.72-14.57-9.27-20.7" style="clip-path:url(#SVGID_16_);fill:#f59c00"/><path class="st5" d="M934.76 1082.36c.76-.39 1.93.18 3.26 1.31 1.35 1.14 2.94 2.88 4.43 5.17 1.49 2.31 2.46 4.81 2.68 6.76.19 1.98-.25 3.27-1.05 3.47-.84.22-1.86-.57-2.95-1.81-1.13-1.25-2.46-2.98-3.84-5.13-1.41-2.15-2.51-4.39-2.97-6.21-.47-1.85-.31-3.19.44-3.56M965.36 1097.54c1.69.02 3.22 3.92 3.39 8.72.12 5.05-1.17 9.09-2.86 9.02-1.69-.07-3.16-3.98-3.27-8.73-.18-4.99 1.05-9.03 2.74-9.01M1007.15 1080.17c.7.48.54 2.02-.28 4.13-.83 2.1-2.28 4.7-4 7.37-.74 1.34-1.72 2.63-2.33 3.68-.32.51-.66 1.02-.99 1.61-.34.56-.64 1.03-1.02 1.54-.36.49-.71.91-1.04 1.26-.37.36-.76.65-1.08.84-.66.39-1.16.44-1.5.19-.34-.25-.5-.78-.54-1.44-.02-.33 0-.67.03-1.08.01-.44.05-.92.12-1.44.07-.49.17-1.13.3-1.76.11-.62.33-1.36.61-2.15.54-1.6 1.36-2.93 2.23-4.5 1.88-2.93 3.95-5.2 5.67-6.65 1.71-1.42 3.12-2.08 3.82-1.6M1015.4 1100.58c.81.31 1.35 1.09 1.7 2.11.35 1.04.52 2.48.28 4.18-.29 1.73-.92 3.37-2.05 4.46-.45.51-1.16.86-1.64.95-.51.1-.91-.03-1.22-.31-.32-.28-.53-.68-.71-1.09-.18-.43-.28-.73-.41-1.27-.18-.86-.29-2.17-.04-3.66.22-1.54.75-3.05 1.54-4.11.79-1.08 1.78-1.56 2.55-1.26M986.12 1118.51c1.73.26 2.61 4.81 2.78 10.52.22 5.8-1.1 10.72-2.78 10.67-1.71-.05-3.12-4.62-3.35-10.52-.19-6.02 1.73-10.92 3.35-10.67M937.95 1116.8c.63-.55 2.03.06 3.89 1.71.86.84 1.65 1.94 2.54 3.22.81 1.26 1.54 2.7 2.25 4.19.7 1.43 1.23 2.91 1.76 4.14.25.67.49 1.31.72 1.92.22.62.4 1.23.52 1.85.12.6.22 1.14.25 1.63-.01.53-.05.98-.13 1.35-.16.74-.47 1.14-.88 1.22-.42.08-.91-.17-1.42-.58-.25-.21-.51-.47-.76-.76-.3-.3-.64-.64-.97-1.02-.34-.4-.7-.84-1.09-1.31-.39-.48-.78-1.01-1.22-1.66-.9-1.26-1.59-2.69-2.35-4.23-.71-1.49-1.25-2.93-1.74-4.23-.51-1.23-.85-2.45-1.16-3.44-.68-1.89-.84-3.45-.21-4M967.49 1152.1c1.58-.51 4.27 3.26 5.45 8.69.42 2.77.6 5.29.04 7.2-.46 1.88-1.18 2.95-2.02 2.93-.85-.03-1.67-1.1-2.31-2.69-.53-1.58-1.35-3.77-1.72-6.25-1.07-4.94-1.08-9.35.56-9.88M1001.03 1148.48c.7.51.52 2.1-.08 4.23-.54 2.18-1.39 5.01-2.42 8.28-1.01 3.29-2.23 6.34-3.5 8.43-1.3 2.1-2.54 3.18-3.32 2.87-.8-.32-1-1.92-.81-4.22.18-2.32.7-5.45 1.77-8.94 1.1-3.5 2.79-6.59 4.46-8.5 1.75-1.87 3.23-2.63 3.9-2.15M972.82 1071.86c1.73-.06 3.29 3.07 4.12 7.02.89 3.95.69 7.5-.93 8.09-1.56.57-4.09-2.42-5.07-6.82-.93-4.43.22-8.24 1.88-8.29M933.69 1139.3c.7-.46 1.77-.1 2.99.99 1.32 1.1 2.31 2.86 3.16 4.92.76 1.93 1.08 3.84 1.19 5.17.07 1.4-.23 2.54-.95 2.97-.73.43-1.78.02-2.95-1.09-1.24-1.13-2.22-2.86-3.03-4.9-.77-1.88-1.08-3.77-1.25-5.06-.11-1.38.14-2.54.84-3M1015.4 1124.95c.7.49.96 1.5.99 2.6.08 1.14-.01 2.4-.28 3.92-.44 3.08-1.91 6.12-3.64 5.93-1.64-.19-2.98-2.96-2.41-6.97.34-2.01 1.34-3.82 2.44-4.79 1.15-.98 2.22-1.17 2.9-.69M848.97 904.22c-3.34.35-6.9.03-10.6-1.08-13.98-4.18-16.07-20.34-18.97-32.5-2.13-8.96.26-19.6 2.25-26.82 4.41-16.04 14.37-17.74 18.45-17.73 1.19 0 2.4.14 3.6.4 10.33 2.24 13.64 13.5 15.61 20.23.29.98.56 1.91.83 2.73.6 1.81 1.3 3.64 2.01 5.5 3.64 9.51 11 18.49 8.11 29.49-2.92 11.16-11.02 18.7-21.29 19.78m-8.87-64.01c-1.61 0-3.57 3.03-4.76 7.38-.91 3.3-3.67 13.35-2.13 19.84 2.37 9.94 6.97 17.81 11.19 19.13l.16.02c2.05.01 6.53-4.59 7.67-8.57 1.54-5.37-.82-11.54-3.32-18.07-.79-2.06-1.57-4.11-2.23-6.11-.32-.96-.63-2.04-.97-3.19-.87-2.96-2.9-9.91-4.97-10.35a4.13 4.13 0 0 0-.64-.08M1167.77 1026.71c7.55 7.46 7.59 18.72 2.52 27.56-7.16 12.5-31.52 34.54-47.16 23.57-11.44-8.03-4.67-20.76.77-29.93 8.43-14.22 24.96-39.87 43.87-21.2m-37.92 40.37c6.17 8.3 22.92-11.53 25.74-15.47 1.96-2.74 3.53-6.06 2.95-9.38-2.56-14.81-18 4.09-20.62 8.6-1.79 3.08-10.68 12.43-8.17 16.12l.1.13zM1052.5 963.43c8.89-.95 16.31 5.01 19.45 13.01 4.43 11.31 6.06 38.88-9.41 43.23-11.32 3.18-16.11-7.99-19.27-16.41-4.9-13.05-13.03-37.45 9.23-39.83m6.51 46.14c8.72.4 4.52-21.05 3.42-24.98-.76-2.73-2.12-5.52-4.61-6.91-11.09-6.2-6.82 13.89-5.24 17.99 1.08 2.8 2.53 13.56 6.28 13.89l.15.01zM1133.13 1140.46l-.24.16c-8.35 5.5-19.76 1.57-26.27-5.05-9.89-10.07-21.75-48.37-7.25-60.01 10.6-8.52 18.35 10.84 25.56 18.4 6.21 6.51 15.74 11.32 19.22 20.02 3.72 9.32-3.23 21.19-11.02 26.48m-27.86-46.12c-9.47 3.52 4.79 24.52 7.76 28.23 2.06 2.57 4.78 4.93 8.06 5.29 14.65 1.61.92-17.91-2.63-21.58-2.43-2.5-8.89-13.33-13.04-11.99l-.15.05zM900.93 917.94c-2.4-9.31-13.29-18.56-23.18-16.02-7.78 2-14.82 8.76-19.01 15.34-4.57 7.18-5.23 16.2-6.35 24.42-1.09 7.96-1.54 16.89 3.07 23.95 3.35 5.13 12.25 5.31 17.37 3.4 1.84-.69 3.56-1.76 5.16-3.09 6.3-5.22 10.91-14.47 14.85-20.61 4.92-7.64 10.56-17.79 8.09-27.39m-25.79 30.92c-1.77 1.26-3.63 1.84-5.47 1.39-4.8-1.18-4.97-8.35-4.39-12.19.94-6.31 8.02-23.26 17.08-17.48 8.97 5.74-1.21 23.99-7.22 28.28M867.19 1058.57c-.51 8.54 6.2 19.32 15.28 19.85 7.14.41 14.97-3.41 20.32-7.84 5.85-4.84 8.86-12.3 12.06-18.97 3.1-6.45 5.92-13.89 3.94-21.11-1.44-5.25-8.94-7.82-13.81-7.58-1.75.09-3.5.53-5.22 1.22-6.77 2.72-13.21 9.3-18.23 13.43-6.25 5.13-13.82 12.2-14.34 21m30.33-19.2c1.85-.59 3.58-.58 5.02.3 3.75 2.3 1.93 8.41.39 11.51-2.53 5.09-13.16 17.53-19.27 10.18-6.04-7.28 7.59-19.99 13.86-21.99M817.93 957.73c7.54-.31 20.81-8.4 20.42-16.34-.3-6.25-1.45-14.64-5.84-18.9-4.8-4.65-14.57-4.69-20.71-6.88-5.95-2.12-12.75-3.92-18.9-1.56-4.48 1.71-6.03 8.46-5.37 12.68.24 1.51.79 3 1.56 4.43 3.02 5.65 8.52 12.27 12.61 16.27 5.1 4.98 8.46 10.62 16.23 10.3m-15.26-25.97c-.69-1.56-.84-3.07-.21-4.39 1.67-3.47 7.21-2.42 10.07-1.36 4.71 1.75 16.61 9.89 10.73 15.85-5.81 5.9-18.24-4.82-20.59-10.1M897.89 1132.58c7.61-4.17 15-16.76 12.7-26.11-1.8-7.35-7.51-13.07-13.01-15.98-6-3.18-13.43-2.1-20.22-1.65-6.57.44-13.93 1.69-19.64 7.62-4.15 4.31-4.12 13.19-2.44 17.93.6 1.7 1.52 3.2 2.65 4.54 4.43 5.27 12.13 8.08 17.26 10.83 6.39 3.44 14.86 7.11 22.7 2.82m-25.96-19.75c-1.08-1.52-1.59-3.26-1.26-5.17.87-5 6.77-6.53 9.94-6.69 5.21-.27 19.3 3.53 14.73 13.65-4.53 10.01-19.76 3.38-23.41-1.79M1099.66 889.71c-19.57-11.63-40.81 15.14-36.4 33.82 1.55 6.54 3.67 11.23 10.66 12.29 11.6 1.77 24.94-6.62 29.92-16.91 4.33-8.94 5.81-23.26-4.18-29.2m-7.71 23.28c-1.98 4.08-8.91 9.17-13.68 7.39-11.67-4.38 1.13-26.51 11.85-20.14 4.36 2.6 3.72 8.85 1.83 12.75M1105.21 1047.41c25.91-3.81 31.26-40.38 16.13-52.74-5.3-4.33-10.09-6.73-17.56-2.82-12.4 6.49-20.62 22.51-19.56 34.39.93 10.33 7.76 23.12 20.99 21.17m-5.9-24.44c-.42-4.71 3.43-13.65 9.14-15.44 13.97-4.38 14.22 22.6.03 24.68-5.78.86-8.76-4.73-9.17-9.24M1080.78 1114.99c6.34-7.88.26-19.98-7.76-27.35-11.08-10.17-42.79-15.7-39.71 7.15 1.12 8.3 9.64 17.04 16.58 21.79 5.56 3.8 15.53 12.82 22.41 11.28 4.21-.93 6.44-10.34 8.48-12.87m-23.28-8.18c-1.25-.82-2.33-1.78-3.11-2.77-5.88-7.42-1.29-17.36 8.18-13.07 5.45 2.47 11.5 9.9 6.98 15.71-2.94 3.78-8.26 2.62-12.05.13M792.93 960.28c-27.58 2.81-31.02 43.36-13.99 58.01 5.97 5.13 11.26 8.09 19.03 4.14 12.91-6.55 20.72-23.99 18.83-37.32-1.64-11.59-9.79-26.27-23.87-24.83m7.88 27.63c.75 5.29-2.82 15.05-8.84 16.73-14.73 4.11-16.7-26.04-1.59-27.58 6.15-.62 9.71 5.79 10.43 10.85M841.31 1095.88c-7.27-10.61-35.51-16.92-42.72-3.01-.71 1.37-1.1 2.86-1.08 4.44.06 6.17 3.46 11.84 4.95 17.8 1.42 5.72-.88 9.74-3.5 14.97-.8 1.59-1.47 3.28-1.28 4.99.26 2.36 2.16 4.44 4.51 5.88 7.69 4.7 16.21 3.2 24.99 2.22 12.18-1.35 18.92-12.25 20.64-21.2 1.73-8.96-1.2-18.35-6.51-26.09m-7.43 23.61c-.82 4.97-3.29 9.7-6.8 12.57-5.27 4.32-12.6 2.49-12.31-4.2.09-2.1.94-4.11 1.57-6.15 1.34-4.3-2.89-18.06 2.55-20.44 1.96-.86 4.46-.58 6.44.26 7.5 3.17 9.74 10.8 8.55 17.96M1127.46 962.1c7.91-9.39 5.45-33.07-9.93-33.44-1.52-.04-3.05.22-4.54.81-5.85 2.3-10.21 6.95-15.43 10.26-5 3.17-9.52 2.9-15.27 2.83-1.75-.02-3.55.09-5.12.86-2.16 1.06-3.58 3.26-4.24 5.57-2.16 7.54 1.81 13.44 5.37 19.73 4.93 8.72 17.3 9.84 26.32 7.86 9.03-1.98 17.07-7.63 22.84-14.48m-24.66 3.02c-4.96 1.19-10.21 1.06-13.98-.54-5.68-2.41-6.14-8.63.3-10.86 2.02-.7 4.19-.8 6.31-1.06 4.49-.56 16.3-8.8 20.18-5.55 1.4 1.17 1.89 3.16 1.68 4.97-.75 6.83-7.33 11.31-14.49 13.04M847.49 972.94c-5.17-.02-10.04 1.52-14.65 5.07-6.7 5.17-12.08 14.51-6.46 22.44 4.25 6 11.55 6.27 17.76 9.18 4.79 2.25 9.26 5.2 13.18 8.74 3.67 3.31 6.41 7.84 12.09 5.74 7.38-2.73 9.78-9.4 12.75-15.98 7.57-16.76-12.69-30.24-26.49-34.01-2.81-.75-5.53-1.17-8.18-1.18m16.98 17.9c3.26 2.4 5.99 5.43 7.39 8.8 3.04 7.27-2.8 11.74-9.17 8.5-5.22-2.66-8.73-7.79-13.83-10.54-1.49-.8-3.03-1.57-4.27-2.71-1.25-1.14-2.19-2.74-2.1-4.42.29-5.41 5.68-5.71 9.92-4.97 3.96.69 8.35 2.61 12.06 5.34M1055.27 1029.25c-5.17-.02-10.04 1.52-14.65 5.07-6.7 5.17-12.08 14.51-6.46 22.44 4.25 6 11.55 6.27 17.76 9.18 4.79 2.25 9.26 5.2 13.18 8.74 3.67 3.31 6.42 7.85 12.09 5.74 7.38-2.73 9.78-9.41 12.75-15.98 7.57-16.76-12.69-30.24-26.49-34.01-2.81-.76-5.53-1.18-8.18-1.18m16.98 17.9c3.26 2.4 5.98 5.43 7.39 8.8 3.04 7.27-2.8 11.74-9.17 8.5-5.22-2.66-8.73-7.79-13.83-10.54-1.49-.8-3.03-1.57-4.27-2.71-1.25-1.14-2.19-2.74-2.1-4.42.29-5.41 5.68-5.71 9.92-4.97 3.95.69 8.35 2.61 12.06 5.34M854.35 1035.47l-.03-.05c-3.66-5.91-10.17-3.73-15.91-5.04-7.6-1.73-14.34-6.19-22.28-6.31-7.23-.11-14.59 2.56-19.66 7.76-11.46 11.73-9.02 33.1 5.36 41.29 11.42 6.51 27.13 3.51 37.49-3.53 9.19-6.25 22.19-22.44 15.03-34.12m-51.85 23.43c-2.24-4.48 1.58-10.88 5.4-13.22 4.66-2.85 9.45-2.2 14.56-2.15h.56c4.27.01 15.26-1.98 14.6 5.52-1.1 12.55-28.49 23.1-35.12 9.85M919.87 958.8c-1.28-.41-2.8-.32-4.57 0-5.37.97-10.66 1.5-15.74 3.64-4.74 2-9 4.95-11.37 9.63-4.76 9.39.26 23.61 12.16 23.76 7.95.1 15.9-6.47 19.88-13.65 2.94-5.3 5.17-13.95 2.9-19.85-.78-2.03-1.87-3.08-3.26-3.53m-22.7 28.84c-1.65-.95-2.42-2.94-1.27-6.4 1.07-3.2 15.79-17.35 18.27-10.08 1.74 5.09-2.69 11.22-6.31 14.35-2.74 2.36-7.94 3.71-10.69 2.13M837.27 734.22c1.63 1.03 3.2 2.51 4.07 3.64 4.06 5.25 11.05 11.93 10.57 19.32-.79 12.23-11.71 4.76-14.41-2.04-2.11-5.32-6.09-12.41-6.1-18.21-.02-4.98 3.03-4.51 5.87-2.71M906.14 761.28c1.63 1.03 3.2 2.51 4.07 3.64 4.06 5.25 11.05 11.93 10.57 19.32-.79 12.23-11.71 4.76-14.41-2.04-2.11-5.32-6.09-12.41-6.1-18.21-.02-4.99 3.03-4.52 5.87-2.71M943.86 789.85c1.67 1.43 3.19 3.34 3.99 4.75 3.71 6.56 10.48 15.21 8.74 23.44-2.89 13.63-13.96 3.46-15.89-4.63-1.51-6.32-4.82-14.94-3.9-21.47.8-5.61 4.15-4.58 7.06-2.09M950.41 841.54c1.96 1.24 3.84 3.01 4.89 4.37 4.87 6.3 13.26 14.32 12.68 23.18-.95 14.68-14.05 5.72-17.3-2.45-2.54-6.38-7.3-14.89-7.33-21.85-.01-5.98 3.65-5.41 7.06-3.25M1043.29 952.45c.16-1.43.63-2.96 1.1-3.92 2.2-4.44 4.38-11.3 9.53-13.41 8.52-3.49 7.1 6.26 3.41 10.3-2.89 3.16-6.35 8.15-10.26 10.06-3.36 1.65-4.05-.54-3.78-3.03M949.34 921.72c-.94-1.1-1.72-2.5-2.09-3.5-1.72-4.65-5.22-10.98-3.21-16.14 3.32-8.55 9.44-.79 9.84 4.67.32 4.26 1.56 10.21.27 14.36-1.11 3.54-3.18 2.52-4.81.61M924.33 821.08c-.94-1.1-1.72-2.5-2.09-3.5-1.72-4.65-5.22-10.98-3.21-16.14 3.32-8.55 9.44-.79 9.84 4.67.32 4.26 1.56 10.21.27 14.36-1.11 3.55-3.18 2.53-4.81.61M991.09 931.56c-.36-1.69-.39-3.61-.21-4.87.84-5.87.77-14.51 5.84-18.81 8.4-7.13 10.42 4.51 7.72 10.49-2.11 4.67-4.19 11.63-7.93 15.27-3.19 3.1-4.8.86-5.42-2.08M998.55 1034.85c-.36-1.69-.39-3.61-.21-4.87.84-5.87.77-14.51 5.84-18.81 8.4-7.13 10.42 4.51 7.72 10.49-2.11 4.67-4.19 11.63-7.93 15.27-3.19 3.11-4.8.86-5.42-2.08M941.49 1029.93c-1.84-1.48-3.54-3.48-4.44-4.97-4.21-6.92-11.77-15.97-10.17-24.87 2.64-14.73 14.86-4.19 17.21 4.44 1.83 6.74 5.68 15.88 4.91 22.92-.67 6.04-4.31 5.05-7.51 2.48M946.71 978.26c-1.81-1.43-3.47-3.37-4.36-4.81-4.13-6.7-11.55-15.47-10-24.07 2.57-14.25 14.55-4.03 16.87 4.32 1.8 6.52 5.59 15.37 4.84 22.17-.64 5.85-4.2 4.88-7.35 2.39M970.99 1020.81c-.99-1.67-1.72-3.67-1.98-5.05-1.22-6.4-4.42-15.43-.56-21.37 6.39-9.84 12.76 1.8 12.04 8.82-.56 5.49-.27 13.38-2.95 18.24-2.29 4.17-4.82 2.27-6.55-.64M961.31 1059.83c-.99-1.67-1.72-3.67-1.98-5.05-1.22-6.4-4.42-15.43-.56-21.37 6.39-9.84 12.76 1.8 12.04 8.82-.56 5.49-.27 13.38-2.95 18.24-2.29 4.18-4.82 2.27-6.55-.64M981.24 1066.59c-.5-1.31-.78-2.82-.8-3.83-.09-4.7-1.28-11.51 2.19-15.27 5.74-6.23 8.87 2.81 7.5 7.72-1.07 3.84-1.82 9.49-4.31 12.62-2.13 2.7-3.7 1.04-4.58-1.24M1005.79 1060.55c-.01-1.4.26-2.91.6-3.86 1.56-4.43 2.85-11.21 7.43-13.53 7.58-3.83 7.32 5.72 4.32 9.84-2.35 3.22-5.04 8.24-8.48 10.31-2.96 1.77-3.85-.32-3.87-2.76M940.38 1068.43c-.99-1-1.85-2.28-2.27-3.2-1.98-4.27-5.8-10.05-4.14-14.88 2.75-8.01 9.24-.96 9.97 4.09.57 3.94 2.16 9.43 1.14 13.3-.88 3.32-2.98 2.43-4.7.69M974.09 901.62c-.73-1.58-1.19-3.44-1.3-4.69-.5-5.82-2.51-14.18 1.48-19.13 6.62-8.2 11.23 2.78 9.93 8.98-1.01 4.85-1.49 11.92-4.33 16.02-2.43 3.51-4.51 1.58-5.78-1.18M1108.84 798.01c.02-1.59.38-3.31.79-4.41 1.93-5.1 3.6-12.86 9.01-15.71 8.97-4.73 8.45 6.11 4.83 10.94-2.83 3.77-6.09 9.6-10.17 12.12-3.49 2.15-4.49-.18-4.46-2.94M1094.14 778.87c.02-2.02.48-4.22 1.01-5.62 2.47-6.5 4.59-16.4 11.49-20.03 11.44-6.03 10.78 7.8 6.16 13.95-3.6 4.8-7.77 12.24-12.97 15.45-4.46 2.75-5.73-.23-5.69-3.75M1098.28 740.2c.02-1.8.43-3.77.9-5.02 2.2-5.8 4.1-14.63 10.26-17.88 10.21-5.38 9.62 6.96 5.5 12.45-3.22 4.29-6.93 10.93-11.58 13.79-3.99 2.46-5.12-.2-5.08-3.34M860.35 772.28c6.22-.69 14.33 6.83 18.06 11.6 6.64 8.52 16.19 32.27 2.24 39.3-5.05 2.54-13.5-2.03-17.17-5.23-6.25-5.45-6.64-12.31-8.11-19.78-1.19-6.09-3.62-12.61-1.73-18.8 1.45-4.76 3.88-6.77 6.71-7.09M907.65 826.26c-4.09 7.61 1.52 26.04 2.75 30.89 1.87 7.37 10.96 15.59 17.14 6.98 4.51-6.28-1.96-23.11-4.64-29.55-2-4.81-10.4-17.36-15.25-8.32M910.97 885.38c-4.09 7.61 1.52 26.04 2.75 30.89 1.86 7.37 10.96 15.59 17.14 6.98 4.51-6.28-1.96-23.11-4.64-29.55-2.01-4.81-10.4-17.36-15.25-8.32M1062.16 889.57c8.39-2.21 18.07-18.85 20.78-23.04 4.13-6.37 3.93-18.59-6.62-17.21-7.69 1-15.62 17.16-18.51 23.51-2.14 4.72-5.6 19.37 4.35 16.74M1083.95 838.05c8.65-2.93 14.62-21.63 16.44-26.36 2.75-7.19-.94-20.47-12.23-18.32-8.23 1.57-12.39 19.65-13.79 26.73-1.03 5.28-.69 21.43 9.58 17.95M890.24 842.09c2.73 4.87 3.2 10.35 4.37 15.69 1.24 5.64 7.64 16.23-.64 19.02-13.29 4.48-21.96-24.91-18.31-33.77 1.86-4.51 7.49-6.57 11.78-4.01 1.15.7 2.06 1.76 2.8 3.07M1033.24 869.35c-3.69-7.04-2.51-15.54.45-22.59 1.58-3.78 9.37-18.64 14.98-15.42 4.91 2.82 4.19 13.05 3.3 17.6-.82 4.23-8.83 31.77-17.09 22.78-.65-.72-1.19-1.51-1.64-2.37M1057.4 777.03c4.76 7.66 4.15 17.37 1.41 25.59-1.47 4.41-9.02 21.87-15.63 18.71-5.79-2.77-5.84-14.41-5.22-19.63.57-4.86 7.29-36.68 17.4-27.2.77.74 1.46 1.59 2.04 2.53M1012.05 844.34c6.14 8.32 6.19 18.35 3.64 26.67-1.36 4.46-8.77 21.99-16.7 18.19-6.95-3.33-7.92-15.4-7.61-20.77.28-5 5.59-37.49 18.09-26.86.98.82 1.83 1.75 2.58 2.77M1009.64 957.92c4.29 7.17 3.54 15.71.83 22.77-1.45 3.78-8.8 18.63-14.89 15.29-5.34-2.93-5.17-13.23-4.5-17.8.62-4.25 7.46-31.88 16.7-22.66.71.72 1.33 1.53 1.86 2.4M876.6 740.09c5.67 2.3 11.79 16.36 9.73 21.98-1.72 4.7-6.91 7.09-11.31 4.41-6.22-3.79-10.73-9.68-13.8-16.18-1.25-2.65-7.27-16.86-3.41-17.26 3.88-.4 18.79 7.05 18.79 7.05M978.36 918.64c4.9 8.78 4.8 18.94 3.24 28.79-.93 5.89-3.62 18.53-11.09 15.66-13.1-5.02-12.58-33.78-7.31-45.38 3.45-7.59 11.91-4.89 15.16.93M1041.25 894.94c1.85 9.86-1.49 19.46-6.11 28.3-2.77 5.29-9.35 16.41-15.53 11.33-10.83-8.9-1.17-35.98 7.54-45.3 5.71-6.1 12.87-.86 14.1 5.67M982.64 807.5c2.23 9.77 6.95 22.28 3.38 32.2-1.94 5.39-7.37 8.86-12.27 5.02-6.88-5.4-6.94-13.21-7.32-21.02-.33-6.8-2.87-15.37 1.03-21.63 5.16-8.3 13.56-1.66 15.18 5.43M1016.84 798.35c4.71 8.22 1.98 19.97-3.6 27.07-4.94 6.29-12.17 8.58-12.52-1.78-.43-12.67 3.59-27.74 8.68-28.54 3.55-.55 6.04.82 7.44 3.25M1088.73 750.24c4.79 9.28 2.01 22.56-3.66 30.58-5.02 7.11-12.37 9.69-12.73-2.01-.44-14.31 3.65-31.34 8.83-32.24 3.6-.62 6.14.93 7.56 3.67M748.28 1047.03c-3.34 5.89-5.95 13.47-7.71 21.03 6.12-3.84 11.54.15 13.94 6.53 2.12 7.47-.21 19.7-9.84 20.08-2.17.09-3.97-.62-5.44-1.81.5 4.21 1.59 10.92 3.95 18.44 12.69-1.13 22.89-15.44 23.48-29.14.52-12.64-7.3-30.28-18.38-35.13M789.03 1128.15c.21-2.86.05-7.06-.21-9.12-.06-.48-.17-1.19-.31-2.01-2 .33-3.85.36-5.23.05-1.82-.41-3.37-1.36-4.42-3.01-2.72-4.3.61-9.37 2.85-11.61.63-.63 1.54-1.34 2.62-2.04-.05-.15-.11-.3-.16-.45-1.05-2.72-3.2-10.03-4.05-12.99-3.26 2.48-6.13 5.7-8.97 8.62-4.57 4.71-9.17 10.55-9.41 18.77-.17 5.97 5.84 12.56 10.27 14.96 1.59.86 3.28 1.37 5.02 1.61 3.88.55 7.99-.2 11.87-1.2.04-.4.08-.91.13-1.58"/><defs><path id="SVGID_17_" d="M1119.67 708.35c-23.49 14.61-46.29 29.68-67.69 47.27-16.44 13.51-35.95 32.03-57.4 31.97-34.51-.09-61.14-22.19-90.1-37.57-26.44-14.04-48.18-26.15-76.34-37.72l-2.55 3.9s8.35 38.13 4.29 51.86c-4.06 13.74-41.64 72.05-51.4 123.79-5.4 28.66-8.95 57.7-9.78 86.87-1.02 36.07 2.1 72.43 11.18 107.45 2.47 9.51 6.49 18.83 8.31 28.46 3.8 20.14-4.15 36.69-15.89 52.42-4.55 6.1-7.89 13.14-9.31 20.64-1.82 9.57-.24 19.64 5.62 27.61 9.23 12.55 26.62 13.2 39.14 8.27 0 0 21.91 26.73 54.83 4.15.16-.11 3.32 1.93 3.59 2.07 3.02 1.57 6.2 2.87 9.46 3.82 8.97 2.62 18.76 2.39 26.77-2.8 3.67-2.38 6.73-5.6 9.23-9.17 1.45-2.07 2.92-4.36 3.96-6.65.46-1 .99-2.69 1.42-4.18.47-1.62.81-3 .81-3s4.24 1.22 5.63 1.35c8.22.77 15.93-3.2 19.52-10.71 3.48-7.29 1.71-15.49-2.09-22.31-4.03-7.24-10.05-13.3-16.35-18.61 0 0-9.58-8.18-8.75-23.94.83-15.76 18.96-80.25 3.96-148.83 0 0 28.1 9.5 53.23 9.57 25.13.07 53.31-9.28 53.31-9.28-15 68.5 3.12 133.09 3.95 148.85.83 15.76-8.75 23.89-8.75 23.89-6.3 5.27-12.32 11.3-16.35 18.52-3.8 6.79-5.57 14.99-2.09 22.3 3.59 7.52 11.3 11.53 19.51 10.81 1.39-.12 5.63-1.32 5.63-1.32s1.28 5.11 2.23 7.2c1.05 2.31 2.52 4.6 3.96 6.68 2.49 3.58 5.55 6.82 9.23 9.22 8.01 5.23 17.8 5.51 26.77 2.94 3.27-.94 6.44-2.21 9.46-3.77.27-.14 3.43-2.16 3.59-2.05 32.92 22.76 54.82-3.85 54.82-3.85 12.52 4.99 29.92 4.44 39.14-8.06 5.86-7.94 7.43-18.01 5.61-27.58-1.43-7.5-4.76-14.56-9.31-20.69-11.74-15.79-19.69-32.38-15.89-52.5 1.82-9.62 5.84-18.92 8.31-28.42 9.08-34.97 12.2-71.31 11.18-107.39-.83-29.18-4.38-58.23-9.78-86.92-9.76-51.79-45.52-121.46-49.58-135.22-4.06-13.76 9.95-53.65 9.95-53.65l.27-1c-2.76 1.78-5.78 3.64-8.47 5.31"/></defs><clipPath id="SVGID_18_"><use xlink:href="#SVGID_17_" style="overflow:visible"/></clipPath><path class="st6" d="M837.98 782.38c-.71-5.25-3.55-9.38-8.22-11.93-1.49-.82-2.98-1.33-4.45-1.58-4.25 7.87-20.64 38.33-29.22 55.85l.92.47c1.3.67 2.75 1.07 4.3 1.17 8.85.63 19.37-8.59 22.38-11.43 5.78-5.43 15.92-20.58 14.29-32.55m-21.89 24.88c-3.19 3.01-7.03 5.71-10.04 7.23 2.15-4.51 4.37-9.08 6.63-13.69 2.41-4.89 4.99-10.1 7.74-15.24.35-.66.7-1.36 1.05-2.07.59-1.19 1.63-3.31 2.36-4.05.15.05.36.14.64.3 1.63.89 2.43 2.08 2.69 3.98.99 7.21-6.61 19.34-11.07 23.54M1110.93 867.36c4.97 8.25 22.23 18.18 30.97 12.94 6.87-4.13 15.66-10.5 17.78-18 2.32-8.19-3.63-19.14-4.92-27.35-1.25-7.94-3.38-16.64-9.82-22.1-4.68-3.97-13.25-1.61-17.61 1.69-1.56 1.18-2.9 2.7-4.06 4.43-4.53 6.8-8.64 16.98-10.65 23.98-2.51 8.73-6.82 15.91-1.69 24.41m19.98-32.83c1.33-1.71 2.95-2.8 4.84-2.89 4.94-.23 7.15 6.59 7.71 10.44.91 6.32-.99 24.59-11.33 21.62-10.24-2.94-5.74-23.34-1.22-29.17M1157.3 887.69c-8.36-2.4-22.54 1.33-27.54 9.55-3.93 6.46-3.92 14.51-2.08 20.42 2.01 6.46 8.06 10.92 13.21 15.36 4.98 4.3 11.1 8.58 19.36 8.39 6-.13 12.28-6.44 14.44-10.96.77-1.63 1.19-3.33 1.34-5.07.59-6.83-2.89-14.23-4.59-19.77-2.11-6.91-5.53-15.45-14.14-17.92m4.46 32.19c-.31 1.83-1.18 3.42-2.77 4.54-4.17 2.92-9.44-.13-11.81-2.24-3.9-3.47-11.21-16.04-.79-19.99 10.31-3.9 16.43 11.48 15.37 17.69"/><defs><path id="SVGID_19_" d="M0 0h1984.25v1417.32H0z"/></defs><clipPath id="SVGID_20_"><use xlink:href="#SVGID_19_" style="overflow:visible"/></clipPath><path class="st7" d="M808.79 872.82c-1.94-7.32-7.76-12.92-13.3-15.73-2.28-1.15-4.75-1.69-7.3-1.89-.8 2.67-2.47 8.29-3.94 13.28 5.89 1.39 12.66 5.28 9.44 12.77-2.46 5.72-8.43 6.15-13.84 4.53-.9 4.33-1.87 9.18-2.55 12.65 5.88 2.61 12.84 4.41 19.29.73 7.52-4.3 14.67-17.04 12.2-26.34M1175.93 955.72c-5.97-3.23-13.08-3.52-18.54-2.16-6.59 1.64-11.36 7.39-16.08 12.26-4.57 4.71-9.17 10.55-9.41 18.77-.17 5.97 5.84 12.56 10.27 14.96 1.59.86 3.28 1.37 5.02 1.61 6.83.97 14.43-2.08 20.07-3.45 3.28-.8 6.89-1.9 10.14-3.66.25-16.16-.88-31.54-1.47-38.33m-22.5 31.57c-1.82-.41-3.37-1.36-4.42-3.01-2.72-4.3.61-9.37 2.85-11.61 3.68-3.68 16.67-10.24 20.1.33 3.4 10.48-12.35 15.7-18.53 14.29M1200.68 1105.84l.09-.41c-1.56.38-3.24.59-4.86.34-6.18-.97-8.22-7.74-7.77-13.61.15-1.93.57-3.77 1.21-5.26 3.01-7.12 8.39-8.95 14.97-7.88.02-9.2-1.81-18.62-3.07-21.89-3.94-.19-8.42 1.22-13.4 4.89-8.81 6.47-14.67 16.77-15.73 27.63-.85 8.69-.29 18 5.83 24.85 3.74 4.19 7.88 6.43 12.07 7.16 2.39.41 4.62.59 6.34-.13 1.06-4.09 3.51-12.17 4.32-15.69"/><defs><path id="SVGID_21_" d="m1203.81 1081.74-.04.09c-1.09 23.51-10.46 44.62-7.9 44.63 32.28-6.64 46.68 14.63 46.11 39.79l.21.1c12.81-2.67 26.22-.97 37.86 5.06 10.44 5.41 19.4 16.92 19.33 28.93-.06 10.79-11.19 17.43-19.99 21.78-19.71 9.73-42.77 10.66-64.04 13.26a922.858 922.858 0 0 1-119.84 6.72c-38-.34-74.89-11.88-112.49-16.09-12.85-1.44-20.91.06-31.02 8.71-8.18 6.99-14.21 17.46-12.26 28.5 3.86 21.93 31.54 32.41 49.57 37.95 29.82 9.17 60.28 13.71 91.52 16.03 58.56 4.34 117.75.34 176.16-4.14 46.66-3.57 108.96-19.84 129.73-67.1 14.24-32.4 6.82-72.68-10.45-101.41-15.79-26.27-40.13-48.05-68.89-60-20.67-8.59-39.96-11.33-56.14-11.33-28.52.02-47.43 8.52-47.43 8.52"/></defs><clipPath id="SVGID_22_"><use xlink:href="#SVGID_21_" style="overflow:visible"/></clipPath><path class="st8" d="M1146.42 1309.87c-2.43 2.29-5.46 4.19-9.06 5.54-13.64 5.11-25.15-6.51-34.85-14.45-7.15-5.85-11.73-15.77-14.56-22.73-4.53-11.16-3.29-23.9 10.35-27.03 6.61-1.52 13.64.25 19.6 3.48 17.91 9.69 51.01 33.98 28.52 55.19m-44.92-44.27c-.34.27-.64.58-.92.96-1.76 2.44-1.55 5.88-.25 8.61 5.1 10.71 14.37 19.46 25.76 23.14 14.24 4.59 4.48-15.43.67-19.51-4.14-4.44-18.18-18.76-25.26-13.2M1226.9 1263.35c-.2-3.33.29-6.86 1.56-10.48 4.82-13.69 21.15-14.94 33.48-17.2 9.09-1.66 19.66 1.26 26.82 3.6 15.9 5.2 17.16 15.19 16.96 19.24-.06 1.18-.25 2.38-.57 3.56-2.71 10.16-14.17 12.87-21.01 14.49-1 .24-1.94.46-2.78.69-1.84.5-3.71 1.11-5.61 1.72-9.71 3.13-19.05 9.99-29.97 6.56-11.06-3.48-18.25-11.91-18.88-22.18m64.65-5.56c.08-1.6-2.88-3.7-7.19-5.11-3.27-1.07-13.24-4.33-19.81-3.12-10.09 1.85-18.19 6.03-19.71 10.15l-.03.16c-.1 2.04 4.31 6.72 8.25 8.06 5.32 1.81 11.62-.23 18.29-2.39 2.11-.68 4.19-1.35 6.24-1.91.98-.27 2.08-.53 3.25-.81 3.02-.71 10.07-2.38 10.62-4.41.05-.23.08-.43.09-.62M1275.98 1091.56c2.67 10.24-3.08 19.92-11.99 24.93-12.59 7.08-44.88 13.6-52.71-3.77-5.73-12.71 6.64-20.19 16.04-25.29 14.56-7.91 41.97-21.51 48.66 4.13m-53.38 15.34c1.05 10.27 25.65 1.77 30.11-.18 3.09-1.35 6.15-3.41 7.36-6.55 5.4-14.01-17.6-5.65-22.16-3.11-3.12 1.73-15.58 5.23-15.32 9.68l.01.16zM1232.29 1297.86c-.35 8.89-7.36 15.29-15.77 17.17-11.88 2.65-39.52.08-41.59-15.8-1.51-11.62 10.29-14.65 19.12-16.48 13.69-2.85 39.13-7.16 38.24 15.11m-46.8-.58c-1.67 8.52 20.25 7.64 24.33 7.15 2.83-.34 5.79-1.25 7.53-3.49 7.78-9.97-12.81-8.81-17.11-7.88-2.94.64-13.84.44-14.72 4.08l-.03.14zM1023.8 1274.26c6.18-7.63 7.09-22.14-1.07-28.63-6.42-5.11-16.3-6.72-24.28-6.12-8.71.66-16.52 5.63-23.97 9.73-7.21 3.97-14.83 9.05-17.8 17.1-2.16 5.85 3.15 13.21 7.88 16.21 1.7 1.08 3.63 1.82 5.71 2.32 8.16 1.94 18.59.05 26.05-.48 9.31-.67 21.12-2.27 27.48-10.13m-41.25-2.14c-2.13-.67-3.75-1.83-4.5-3.6-1.98-4.63 3.81-9.13 7.32-11.01 5.77-3.08 24.04-7.66 24.85 3.24.81 10.8-20.45 13.65-27.67 11.37M1357.06 1270.33c7.61-4.17 15-16.76 12.7-26.11-1.8-7.35-7.51-13.07-13.01-15.98-6-3.18-13.44-2.1-20.22-1.65-6.57.44-13.93 1.69-19.64 7.62-4.15 4.31-4.12 13.19-2.44 17.93.6 1.7 1.52 3.2 2.65 4.54 4.43 5.27 12.13 8.08 17.26 10.83 6.39 3.44 14.86 7.11 22.7 2.82m-25.96-19.75c-1.08-1.52-1.59-3.26-1.26-5.17.87-5 6.77-6.53 9.94-6.69 5.21-.27 19.3 3.53 14.73 13.65-4.53 10.01-19.76 3.38-23.41-1.79M1042.5 1258.36c-19.94 16.86-5.07 50.78 14.32 53.33 6.79.9 12.12.42 16.38-6.83 7.07-12.03 5.53-29.99-1.68-39.53-6.25-8.29-18.83-15.58-29.02-6.97m17.98 17.68c2.86 3.78 4.34 13.41.44 17.94-9.52 11.07-24.05-11.74-13.12-20.98 4.45-3.77 9.94-.58 12.68 3.04M1305.48 1094.17c-5.17-.02-10.04 1.52-14.65 5.07-6.7 5.17-12.08 14.51-6.46 22.44 4.25 6 11.55 6.27 17.76 9.18 4.79 2.25 9.26 5.2 13.18 8.74 3.67 3.31 6.42 7.84 12.09 5.74 7.38-2.73 9.78-9.41 12.75-15.98 7.56-16.76-12.69-30.24-26.49-34.01-2.81-.75-5.54-1.17-8.18-1.18m16.97 17.91c3.26 2.4 5.99 5.43 7.39 8.8 3.04 7.27-2.8 11.74-9.17 8.5-5.22-2.66-8.73-7.79-13.83-10.54-1.49-.8-3.03-1.57-4.27-2.7-1.25-1.14-2.19-2.74-2.1-4.42.29-5.41 5.68-5.71 9.92-4.97 3.96.68 8.36 2.6 12.06 5.33M1358.35 1152.08c-1.63-1.29-3.62-2.44-5.79-3.33-7.1-2.91-16.1-3.04-20.42 3.7-4.35 6.8-15.27 12.22-18.46 20.83-3.19 8.61-3.65 16.33 0 25.1 3.65 8.78 15.51 13.06 26.45 14.91 10.95 1.84 24.17-8.1 31.19-28.13 4.18-11.92-3.62-25.65-12.97-33.08m-2.45 36.14c-3.35 6.43-19.13 9.18-19.87-.36-.46-5.89 3.17-17.41 9.74-19.66 1.8-.62 3.82-.54 6.04.54 6.74 3.28 7.14 13.63 4.09 19.48M1290.73 1137.84c-17.49-10.4-36.3 9.62-36.95 27.39 2.46.09 5.44-.19 13.52 1.49-7.89-6.13 3.9-24.29 13.89-18.35 4.36 2.59 3.72 8.85 1.83 12.75-1.54 3.19-5.57 6.67-9.77 7.33 4.02 1.43 10.34 4.42 14.3 7.96 3.13-2.69 5.71-5.96 7.37-9.38 4.33-8.94 5.81-23.25-4.19-29.19M1393.2 1223.04c-2.85.52-4.74.4-6.72-.74-2.57-1.47-3.77-4.57-1.97-9.95.7-2.1 4.17-7.24 9.41-11.62-.38-5.39-1.23-12.57-2.67-17.98-.45.17-.59.21-1.04.4-7.37 3.1-13.98 7.69-17.67 14.96-7.36 14.52-.12 36.48 18.2 36.91.89-3.1 1.69-6.65 2.46-11.98M1211.85 1255.02c-2.27-6.54-7.4-12.46-13.66-16.44-13.35 1.27-35.41 2.9-45.17 3.46-2.78 2.96-4.64 6.64-4.88 11.12-1.48 27.21 39.04 34.98 56.54 19.97 6.13-5.26 9.95-10.09 7.17-18.11m-47.12 2.46c.33-6.07 7.38-8.84 12.61-8.99 5.47-.16 14.8 4.39 15.56 10.45 1.85 14.81-28.98 13.45-28.17-1.46M1314.02 1302.58c2.35-.6 7.46-2.2 17.09-6.48-1.34-5.87-4.89-11.34-10.27-13.44-7.49-2.92-17.19-1.57-24.46 1.3-7.95 3.14-13.79 10.04-19.55 16.04-3.16 3.29-6.72 7.89-9.02 12.13 4.54-.55 10.84-1.48 18.76-3.05.84-1.54 2.09-3.71 2.85-4.49 4.49-4.55 20.21-14.12 24.16-4.16.22.57.36 1.4.44 2.15"/><defs><path id="SVGID_23_" d="M0 0h1984.25v1417.32H0z"/></defs><clipPath id="SVGID_24_"><use xlink:href="#SVGID_23_" style="overflow:visible"/></clipPath><path class="st9" d="M807.9 1223.71c-.5 0-1-.19-1.4-.56-.17-.16-17.01-16.36.29-37.93.71-.88 1.99-1.02 2.87-.32.88.7 1.03 1.99.33 2.86-14.91 18.58-1.28 31.87-.69 32.42.82.78.86 2.06.08 2.88-.4.44-.94.66-1.48.65M862.93 1227.23c-.32 0-.65-.08-.96-.24-.19-.1-19.1-10.49-8.77-34.26a2.048 2.048 0 0 1 2.69-1.06c1.04.45 1.52 1.65 1.07 2.68-8.8 20.26 6.3 28.7 6.94 29.05.99.54 1.37 1.77.83 2.76-.36.68-1.07 1.07-1.8 1.07M918.62 1207.91a2.032 2.032 0 0 1-2.04-2.64c3.94-12.49-9.16-22.44-9.29-22.54a2.04 2.04 0 0 1-.42-2.85 2.04 2.04 0 0 1 2.86-.41c.64.47 15.57 11.76 10.75 27.03-.26.83-1.02 1.38-1.86 1.41M1029.09 1208.77c-.91 0-1.74-.61-1.98-1.53-6.44-24.8 18.93-36.04 19.18-36.15 1.03-.45 2.24.03 2.69 1.06.45 1.03-.02 2.23-1.05 2.68-.92.4-22.41 10-16.86 31.41a2.024 2.024 0 0 1-1.98 2.53M1082.57 1228.44c-.41 0-.82-.12-1.17-.37-.35-.24-8.5-6.08-9.99-16.31-1.04-7.19 1.46-14.63 7.45-22.1.7-.88 1.99-1.02 2.88-.32.88.7 1.03 1.99.33 2.86-5.26 6.56-7.48 12.95-6.6 18.99 1.23 8.51 8.22 13.5 8.29 13.55.92.65 1.15 1.92.5 2.84-.41.56-1.04.86-1.69.86M1138.26 1224.86c-.46 0-.92-.16-1.3-.47-.87-.72-.99-2-.27-2.87 4.81-5.77 6.96-11.69 6.38-17.6-.95-9.66-8.92-16.24-9-16.31a2.025 2.025 0 0 1-.3-2.86c.71-.87 2-1 2.87-.29.38.31 9.35 7.67 10.49 19.04.71 7.04-1.75 13.99-7.29 20.64-.41.47-1 .72-1.58.72M734.91 1215.71c-.36 0-.72-.1-1.05-.29-.18-.11-17.61-10.81-8.31-31.85a2.054 2.054 0 0 1 2.7-1.04c1.03.45 1.51 1.66 1.05 2.68-7.82 17.7 6.07 26.36 6.66 26.72.96.59 1.28 1.83.7 2.8-.38.63-1.06.99-1.75.98M1197.57 1212.43c-.7 0-1.38-.36-1.76-1-.58-.97-.26-2.21.71-2.79.62-.37 14.48-8.96 6.66-26.68-.46-1.03.02-2.23 1.05-2.68 1.04-.45 2.24.02 2.7 1.05 9.3 21.09-8.13 31.7-8.31 31.81-.33.19-.69.29-1.05.29"/><path d="M719.8 590.09c-2.27-7.88-3.78-16.12-6.46-24.33-22.97-70.29 13.08-136.34 64.34-183.57 50.34-46.37 116.16-66.84 184.2-66.06 106.55 1.23 244.08 54.62 249.92 176.73 1.26 26.3.73 60.42-5.29 94.68-8.04 45.79 15.7 131.54-71.01 162.25-50.58 17.91-88.5 22.53-88.5 22.53s-53.68 22.65-76.49 22.65c-24.15 0-50.42-7.64-75.16-19.59-22.86-11.04-99.21-8.44-143.5-51.89-28.36-27.82-22.76-101.13-32.05-133.4" style="clip-path:url(#SVGID_24_);fill:#f7a600"/><path d="M754.2 674.16c3.84 70.9 73.89 83.95 137.12 85.86 26.89.81 41.5 12.73 78.44 12.73 34.07 0 52.07-14.41 82.22-17.13 59.58-5.37 117.56-20.6 123.33-78.7 1.83-18.47-3.27-49.52-24.85-63.55-38.91-25.31-114.95-27.08-183.81-25.69-78.94 1.58-217.12.4-212.45 86.48" style="clip-path:url(#SVGID_24_);fill:#fffad2"/><path class="st9" d="M967.91 628.41c-16.83-.14-61.65-25.97-62.69-27.57-3.29-5.03 1.93-33.54 1.99-43.12.04-6.95-.01-13.03.05-16.1.39-17.89-15.76-33.3-15.92-33.46-.72-.68 20.37 14.14 20.02 33.4-.05 2.98 0 8.66-.02 15.21-.03 9.89-5.13 37.61-2.38 41.78 1.01 1.13 108.77 4.79 112.77 1.09 4.83-4.47 2.06-4.9-1.42-23.82-1.64-8.91-2.47-25.17-2.95-29.95-1.68-16.68 19.65-35.72 19.02-34.98-.16.19-16.5 19.48-14.89 34.83.49 4.64 1.33 20.84 2.98 29.67 5.82 31.05 6.37 21.81.46 27.31-4.68 4.37-28.93 25.95-57.02 25.71M970.1 641.64c-.14-1.24-1.28-2.16-2.59-2.03-1.29.11-2.22 1.21-2.08 2.45 1.36 12.35-1.09 22.25-12.64 28.1-6.37 3.23-15.66 2.73-23.3-1.19-.25-.13-1.28.71-1.48 1.3a3.32 3.32 0 0 0 1.86 4.15c4.13 1.71 8.51 2.61 12.75 2.66 4.47.06 8.76-.83 12.4-2.68 13.69-6.95 16.73-18.32 15.08-32.76"/><path class="st9" d="M1003.43 673.62a2.503 2.503 0 0 0-2.57-1.16c-5.55.98-11.18.36-15.5-1.91-11.64-6.13-14.28-16.09-13.06-28.42.12-1.24-.82-2.35-2.11-2.49-1.31-.15-2.44.74-2.57 1.98-1.49 14.4 1.76 25.84 15.55 33.14 3.67 1.94 7.99 2.93 12.48 2.99 1.98.02 3.99-.07 5.99-.32 1.78-.23 2.75-2.22 1.81-3.76l-.02-.05z"/><path class="st12" d="M1211.8 492.87c.4 8.48.11 16.86-.43 25.22 16.36-18.39 117.81-137.24 58.18-191.83-59.24-54.24-143.31 14.24-157.07 26.18 54.47 28.45 96.16 74.38 99.32 140.43"/><path class="st13" d="M1248.39 351.68c-26.02 1.45-59.45 25.4-73.69 47.09l1.42 3.18c17.93 21.33 30.3 46.89 34.38 76.96 47.73-38.99 74.92-127.13 37.89-127.23"/><path class="st12" d="M707.08 507.04c5.08-47.69 33.94-91.08 70.6-124.85a236.343 236.343 0 0 1 36.49-27.59l.01-.01s-94.33-87.66-159.02-28.77c-64.69 58.89 51.91 181.24 51.91 181.24l.01-.02z"/><path class="st13" d="M713.43 477.11c8.36-26.26 23.48-50.71 42.29-72.35l.57-1.26c-14.24-21.77-56.16-54.36-82.17-55.95-35.45-.1-12.1 80.84 39.31 129.56"/><path class="st14" d="M833.9 713.22c-25.31 0-45.84-20.52-45.84-45.83s20.52-45.84 45.84-45.84c25.31 0 45.83 20.52 45.83 45.84.01 25.3-20.51 45.83-45.83 45.83"/><path class="st15" d="M658.8 616.16c.03-.21 2.7-.02 7.51.49 4.81.52 11.76 1.36 20.34 2.48 17.14 2.39 40.72 6.37 66.57 11.65 6.48 1.24 12.75 2.73 18.83 4.03 6.07 1.36 11.94 2.59 17.5 3.93 11.11 2.67 21.13 5.04 29.48 7.28 8.37 2.16 15.1 4.04 19.73 5.43 4.64 1.36 7.16 2.27 7.1 2.47-.06.21-2.69-.31-7.41-1.32l-19.96-4.48c-8.4-1.97-18.46-4.12-29.59-6.64-5.56-1.26-11.44-2.43-17.51-3.75-6.08-1.26-12.34-2.73-18.81-3.96-25.81-5.27-49.27-9.57-66.28-12.5-8.52-1.38-15.41-2.55-20.17-3.43-4.74-.88-7.35-1.47-7.33-1.68"/><path class="st16" d="M658.8 616.16c.03-.21 2.7-.02 7.51.49 4.81.52 11.76 1.36 20.34 2.48 17.14 2.39 40.72 6.37 66.57 11.65 6.48 1.24 12.75 2.73 18.83 4.03 6.07 1.36 11.94 2.59 17.5 3.93 11.11 2.67 21.13 5.04 29.48 7.28 8.37 2.16 15.1 4.04 19.73 5.43 4.64 1.36 7.16 2.27 7.1 2.47-.06.21-2.69-.31-7.41-1.32l-19.96-4.48c-8.4-1.97-18.46-4.12-29.59-6.64-5.56-1.26-11.44-2.43-17.51-3.75-6.08-1.26-12.34-2.73-18.81-3.96-25.81-5.27-49.27-9.57-66.28-12.5-8.52-1.38-15.41-2.55-20.17-3.43-4.74-.88-7.35-1.47-7.33-1.68z"/><path class="st15" d="M675.18 675.94c-.03-.21 2.6-.7 7.38-1.41 4.78-.71 11.72-1.64 20.3-2.72 17.18-2 40.99-4.07 67.36-5.46 6.59-.43 13.03-.56 19.25-.83 6.22-.21 12.21-.49 17.93-.59 11.44-.21 21.73-.43 30.38-.36 8.65-.01 15.65.12 20.49.29 4.84.15 7.51.4 7.51.6 0 .22-2.67.38-7.5.59-4.84.16-11.82.39-20.45.68-8.64.21-18.91.66-30.32 1.02-5.71.17-11.69.52-17.9.77-6.2.31-12.64.46-19.21.9-26.31 1.39-50.1 3.12-67.3 4.56-8.59.8-15.55 1.4-20.38 1.75-4.83.32-7.51.42-7.54.21"/><path class="st16" d="M675.18 675.94c-.03-.21 2.6-.7 7.38-1.41 4.78-.71 11.72-1.64 20.3-2.72 17.18-2 40.99-4.07 67.36-5.46 6.59-.43 13.03-.56 19.25-.83 6.22-.21 12.21-.49 17.93-.59 11.44-.21 21.73-.43 30.38-.36 8.65-.01 15.65.12 20.49.29 4.84.15 7.51.4 7.51.6 0 .22-2.67.38-7.5.59-4.84.16-11.82.39-20.45.68-8.64.21-18.91.66-30.32 1.02-5.71.17-11.69.52-17.9.77-6.2.31-12.64.46-19.21.9-26.31 1.39-50.1 3.12-67.3 4.56-8.59.8-15.55 1.4-20.38 1.75-4.83.32-7.51.42-7.54.21z"/><path class="st15" d="M656.16 721.79c-.07-.2 2.42-1.15 6.98-2.71 4.56-1.56 11.2-3.72 19.42-6.32 16.5-5.05 39.5-11.38 65.13-17.49 6.39-1.61 12.69-2.9 18.75-4.29 6.07-1.33 11.91-2.68 17.51-3.81 11.2-2.26 21.27-4.34 29.78-5.82 8.49-1.57 15.4-2.7 20.18-3.4 4.78-.72 7.45-.96 7.49-.76.04.22-2.56.85-7.26 1.93-4.72 1.03-11.54 2.51-19.96 4.35-8.44 1.76-18.45 4.05-29.59 6.46-5.57 1.2-11.39 2.61-17.43 3.98-6.04 1.42-12.33 2.73-18.7 4.34-25.58 6.1-48.62 12.08-65.25 16.59-8.29 2.34-15.01 4.18-19.69 5.39-4.68 1.18-7.3 1.76-7.36 1.56"/><path class="st16" d="M656.16 721.79c-.07-.2 2.42-1.15 6.98-2.71 4.56-1.56 11.2-3.72 19.42-6.32 16.5-5.05 39.5-11.38 65.13-17.49 6.39-1.61 12.69-2.9 18.75-4.29 6.07-1.33 11.91-2.68 17.51-3.81 11.2-2.26 21.27-4.34 29.78-5.82 8.49-1.57 15.4-2.7 20.18-3.4 4.78-.72 7.45-.96 7.49-.76.04.22-2.56.85-7.26 1.93-4.72 1.03-11.54 2.51-19.96 4.35-8.44 1.76-18.45 4.05-29.59 6.46-5.57 1.2-11.39 2.61-17.43 3.98-6.04 1.42-12.33 2.73-18.7 4.34-25.58 6.1-48.62 12.08-65.25 16.59-8.29 2.34-15.01 4.18-19.69 5.39-4.68 1.18-7.3 1.76-7.36 1.56z"/><path class="st15" d="M866.42 683.49c1.26 1.16 1.68 2.96.89 3.98-.55 1.17-2.38 1.65-4.02 1.1-1.64-.55-2.27-2.47-1.35-4.26 1.18-1.63 3.22-1.98 4.48-.82M817.74 671c1.26 1.16 1.68 2.96.89 3.98-.55 1.17-2.38 1.65-4.02 1.1-1.64-.55-2.27-2.47-1.35-4.26 1.18-1.63 3.22-1.97 4.48-.82M795.38 655.49c1.26 1.16 1.68 2.96.89 3.98-.55 1.17-2.38 1.65-4.02 1.1-1.64-.55-2.27-2.47-1.35-4.26 1.19-1.63 3.22-1.98 4.48-.82M874.77 671.3c-1.73 0-3.13-1.38-3.13-3.06 0-1.69 1.4-3.05 3.13-3.04 1.73 0 3.13 1.38 3.13 3.06 0 1.68-1.41 3.05-3.13 3.04M831.74 644.37c-1.73 0-3.13-1.38-3.13-3.06 0-1.69 1.4-3.05 3.13-3.04 1.73 0 3.13 1.38 3.13 3.06 0 1.68-1.4 3.04-3.13 3.04M826.57 703.02c-.63.58-1.4.96-1.96 1.22-.51.23-1.07.4-1.45.17-.96-.38-1.74-2.05-1.17-3.64.56-1.58 2.01-2.61 3.7-1.94.88.44 1.51 1.13 1.67 2.03.16.84-.16 1.58-.79 2.16M802.89 690.65c-.63.58-1.4.96-1.96 1.22-.51.23-1.08.4-1.45.17-.96-.38-1.74-2.05-1.18-3.64.56-1.58 2.01-2.61 3.7-1.94.88.44 1.51 1.13 1.67 2.03.17.84-.15 1.58-.78 2.16M841.29 660.04c-.63.58-1.4.96-1.96 1.22-.51.23-1.08.4-1.45.18-.96-.38-1.74-2.05-1.18-3.64.56-1.58 2.01-2.61 3.7-1.94.88.44 1.51 1.13 1.67 2.03.17.84-.15 1.58-.78 2.15M812.06 659.96c-.63.58-1.4.96-1.96 1.22-.51.24-1.07.4-1.45.18-.96-.38-1.74-2.05-1.18-3.65.56-1.58 2.01-2.61 3.7-1.94.88.44 1.51 1.13 1.67 2.03.16.85-.16 1.59-.78 2.16M841.03 688.51c-.63.58-1.4.96-1.96 1.22-.51.23-1.07.4-1.45.17-.96-.38-1.74-2.05-1.18-3.64.56-1.58 2.01-2.61 3.7-1.94.88.44 1.51 1.13 1.67 2.03.17.85-.15 1.59-.78 2.16M850.82 703.08c-.63.58-1.4.96-1.96 1.22-.51.24-1.07.4-1.45.18-.96-.38-1.74-2.05-1.17-3.64.56-1.58 2.01-2.61 3.7-1.94.88.44 1.51 1.13 1.67 2.03.15.84-.17 1.58-.79 2.15M859.79 653.96c-.63.58-1.4.96-1.96 1.22-.51.24-1.07.4-1.45.18-.96-.38-1.74-2.05-1.18-3.64.56-1.58 2.01-2.61 3.7-1.94.88.44 1.51 1.13 1.67 2.03.17.83-.15 1.57-.78 2.15"/><path class="st14" d="M1096.72 707.92c-25.31 0-45.84-20.52-45.84-45.83 0-25.32 20.52-45.83 45.84-45.83 25.31 0 45.83 20.52 45.83 45.83s-20.52 45.83-45.83 45.83"/><path class="st15" d="M1283.51 621.81c-.02-.21-2.7-.08-7.52.32-4.82.41-11.78 1.09-20.38 2.01-17.17 1.99-40.82 5.43-66.76 10.12-6.5 1.09-12.79 2.43-18.9 3.6-6.09 1.22-11.98 2.32-17.56 3.53-11.16 2.42-21.21 4.56-29.6 6.61-8.4 1.97-15.17 3.7-19.82 4.98-4.66 1.26-7.2 2.11-7.14 2.3.06.21 2.69-.25 7.43-1.15 4.74-.95 11.58-2.33 20.03-4.03 8.44-1.78 18.53-3.69 29.7-5.96 5.58-1.14 11.48-2.17 17.57-3.35 6.1-1.12 12.39-2.44 18.88-3.53 25.89-4.67 49.42-8.44 66.48-10.98 8.54-1.19 15.45-2.2 20.22-2.97 4.76-.77 7.39-1.29 7.37-1.5"/><path class="st16" d="M1283.51 621.81c-.02-.21-2.7-.08-7.52.32-4.82.41-11.78 1.09-20.38 2.01-17.17 1.99-40.82 5.43-66.76 10.12-6.5 1.09-12.79 2.43-18.9 3.6-6.09 1.22-11.98 2.32-17.56 3.53-11.16 2.42-21.21 4.56-29.6 6.61-8.4 1.97-15.17 3.7-19.82 4.98-4.66 1.26-7.2 2.11-7.14 2.3.06.21 2.69-.25 7.43-1.15 4.74-.95 11.58-2.33 20.03-4.03 8.44-1.78 18.53-3.69 29.7-5.96 5.58-1.14 11.48-2.17 17.57-3.35 6.1-1.12 12.39-2.44 18.88-3.53 25.89-4.67 49.42-8.44 66.48-10.98 8.54-1.19 15.45-2.2 20.22-2.97 4.76-.77 7.39-1.29 7.37-1.5z"/><path class="st15" d="M1268.73 680.67c.03-.21-2.59-.76-7.35-1.58-4.77-.82-11.69-1.9-20.25-3.18-17.14-2.39-40.91-5.01-67.24-7.01-6.58-.58-13.02-.86-19.23-1.28-6.21-.35-12.2-.77-17.92-1-11.43-.47-21.72-.93-30.37-1.06-8.65-.21-15.65-.24-20.49-.17-4.84.04-7.52.23-7.52.43 0 .22 2.67.44 7.49.76 4.83.27 11.81.66 20.43 1.15 8.63.4 18.9 1.09 30.3 1.71 5.7.31 11.68.79 17.88 1.18 6.2.45 12.62.75 19.19 1.34 26.28 1.99 50.03 4.27 67.2 6.1 8.57 1 15.53 1.76 20.34 2.22 4.83.44 7.51.59 7.54.39"/><path class="st16" d="M1268.73 680.67c.03-.21-2.59-.76-7.35-1.58-4.77-.82-11.69-1.9-20.25-3.18-17.14-2.39-40.91-5.01-67.24-7.01-6.58-.58-13.02-.86-19.23-1.28-6.21-.35-12.2-.77-17.92-1-11.43-.47-21.72-.93-30.37-1.06-8.65-.21-15.65-.24-20.49-.17-4.84.04-7.52.23-7.52.43 0 .22 2.67.44 7.49.76 4.83.27 11.81.66 20.43 1.15 8.63.4 18.9 1.09 30.3 1.71 5.7.31 11.68.79 17.88 1.18 6.2.45 12.62.75 19.19 1.34 26.28 1.99 50.03 4.27 67.2 6.1 8.57 1 15.53 1.76 20.34 2.22 4.83.44 7.51.59 7.54.39z"/><path class="st15" d="M1281.9 725.04c.07-.2-2.4-1.21-6.94-2.87-4.54-1.66-11.13-3.97-19.31-6.77-16.4-5.43-39.29-12.28-64.81-18.98-6.36-1.76-12.64-3.19-18.67-4.71-6.04-1.47-11.86-2.96-17.43-4.21-11.15-2.52-21.18-4.82-29.67-6.51-8.46-1.76-15.34-3.05-20.12-3.86-4.77-.83-7.44-1.13-7.48-.93-.04.22 2.54.91 7.23 2.09 4.7 1.14 11.49 2.78 19.88 4.8 8.41 1.95 18.38 4.47 29.47 7.13 5.55 1.33 11.34 2.87 17.36 4.38 6.01 1.56 12.28 3.01 18.62 4.77 25.47 6.69 48.4 13.19 64.94 18.09 8.24 2.53 14.94 4.52 19.59 5.84 4.66 1.31 7.26 1.94 7.34 1.74"/><path class="st16" d="M1281.9 725.04c.07-.2-2.4-1.21-6.94-2.87-4.54-1.66-11.13-3.97-19.31-6.77-16.4-5.43-39.29-12.28-64.81-18.98-6.36-1.76-12.64-3.19-18.67-4.71-6.04-1.47-11.86-2.96-17.43-4.21-11.15-2.52-21.18-4.82-29.67-6.51-8.46-1.76-15.34-3.05-20.12-3.86-4.77-.83-7.44-1.13-7.48-.93-.04.22 2.54.91 7.23 2.09 4.7 1.14 11.49 2.78 19.88 4.8 8.41 1.95 18.38 4.47 29.47 7.13 5.55 1.33 11.34 2.87 17.36 4.38 6.01 1.56 12.28 3.01 18.62 4.77 25.47 6.69 48.4 13.19 64.94 18.09 8.24 2.53 14.94 4.52 19.59 5.84 4.66 1.31 7.26 1.94 7.34 1.74z"/><path class="st15" d="M1074.76 684.36c-1.28 1.13-1.74 2.92-.96 3.96.53 1.19 2.35 1.7 4 1.19s2.31-2.42 1.43-4.22c-1.16-1.66-3.19-2.06-4.47-.93M1123.65 672.99c-1.28 1.13-1.74 2.92-.96 3.96.53 1.19 2.35 1.7 4 1.19s2.31-2.42 1.43-4.22c-1.16-1.66-3.19-2.06-4.47-.93M1146.27 657.99c-1.28 1.13-1.74 2.92-.96 3.96.53 1.18 2.35 1.7 4 1.19s2.31-2.42 1.43-4.22c-1.16-1.66-3.19-2.06-4.47-.93M1066.63 671.98c1.73.04 3.15-1.3 3.18-2.99.03-1.69-1.35-3.08-3.08-3.12-1.73-.04-3.15 1.3-3.18 2.99-.03 1.69 1.35 3.09 3.08 3.12M1110.12 646.04c1.73.03 3.15-1.3 3.18-2.99.03-1.69-1.35-3.08-3.08-3.12-1.73-.04-3.15 1.3-3.18 2.99-.03 1.69 1.35 3.08 3.08 3.12M1114.26 704.8c.62.59 1.38.99 1.94 1.27.51.25 1.07.42 1.45.21.96-.36 1.78-2.01 1.24-3.62-.53-1.59-1.96-2.66-3.66-2.02-.89.42-1.53 1.09-1.7 1.99-.2.83.11 1.58.73 2.17M1138.14 692.97c.62.59 1.38.99 1.94 1.27.51.25 1.07.42 1.45.21.96-.36 1.78-2.01 1.24-3.62-.53-1.59-1.96-2.66-3.66-2.02-.89.42-1.53 1.09-1.7 1.99-.19.83.12 1.58.73 2.17M1100.29 661.49c.62.59 1.38.99 1.94 1.27.51.25 1.07.42 1.44.21.96-.36 1.78-2.01 1.24-3.62-.53-1.59-1.96-2.66-3.66-2.02-.89.42-1.53 1.09-1.7 1.99-.19.83.12 1.58.74 2.17M1129.52 662.08c.62.59 1.38.99 1.94 1.27.51.25 1.07.42 1.45.21.96-.36 1.78-2.01 1.24-3.62-.53-1.59-1.96-2.66-3.66-2.02-.89.42-1.53 1.09-1.7 1.99-.19.83.11 1.58.73 2.17M1100.05 689.96c.62.59 1.38.99 1.94 1.27.51.25 1.07.42 1.44.21.96-.36 1.78-2.01 1.24-3.62-.53-1.59-1.96-2.66-3.66-2.02-.89.42-1.53 1.09-1.7 1.99-.18.84.13 1.58.74 2.17M1090.01 704.31c.62.59 1.38.99 1.94 1.27.51.25 1.07.42 1.44.21.96-.36 1.78-2.01 1.24-3.62-.53-1.59-1.96-2.66-3.66-2.02-.89.42-1.53 1.09-1.7 1.99-.18.83.13 1.58.74 2.17M1081.9 654.98c.62.59 1.38.99 1.94 1.27.51.25 1.07.42 1.45.21.96-.36 1.78-2.01 1.24-3.62-.53-1.59-1.96-2.66-3.66-2.02-.89.42-1.53 1.09-1.7 1.99-.19.84.11 1.58.73 2.17M776.99 606.15c-2.78 1.87-6.08 3.24-9.86 3.99-14.3 2.83-23.75-10.5-32.03-19.9-6.1-6.93-9-17.46-10.65-24.77-3.66-16.25 4.32-22.4 7.92-24.29 1.05-.55 2.18-1 3.37-1.33 10.17-2.84 18.38 5.58 23.29 10.61.72.74 1.39 1.43 2.02 2.03 1.38 1.32 2.86 2.61 4.36 3.92 7.69 6.71 18.41 11.22 21.05 22.31 2.68 11.24-.91 21.68-9.47 27.43m-37.96-52.49c-1.42.75-1.72 4.35-.73 8.75.75 3.35 3.05 13.53 7.46 18.54 6.77 7.69 14.54 12.5 18.88 11.7l.15-.05c1.82-.95 3.6-7.1 2.73-11.15-1.17-5.47-6.16-9.83-11.44-14.43-1.67-1.46-3.32-2.9-4.85-4.37-.73-.7-1.52-1.51-2.36-2.37-2.16-2.22-7.23-7.41-9.26-6.84-.22.06-.42.14-.58.22M1210.59 510.38c-.08-2.56-.13-5.11-.17-7.67-2.91 4.16-17.13 21.4-23.2 13.3l-.1-.14c-2.53-3.67 5.33-12.19 6.86-15.05 1.83-3.43 11.23-15.68 16.3-12.15-.06-4.59-.17-9.18-.43-13.76-14.18-6.99-23.01 11.08-29.18 22.42-4.64 8.53-10.36 20.4.78 28.67 10.02 7.44 21.36 2.81 29.68-4.55-.23-3.68-.42-7.38-.54-11.07M1209.89 560.19s-1.59-3.3-1.79-3.63c-4.34-7.21-12.19-13.5-19.56-13.09-7.65.43-14.65 5.63-18.84 11.21-4.58 6.1-5.34 14.74-6.55 22.53-1.17 7.53-1.73 16.14 2.69 23.9 3.22 5.65 11.94 7.56 16.99 6.7 1.82-.31 3.51-1.02 5.1-2 6.25-3.85 10.89-11.96 14.83-17.15 2.16-2.84 5.62-11.81 5.62-11.81l1.51-16.66zm-24.53 28.45c-1.75.88-3.59 1.09-5.38.29-4.69-2.09-4.76-9.09-4.14-12.72 1.01-5.96 8.17-21.07 16.98-13.67 8.72 7.32-1.5 23.1-7.46 26.1M747.19 491.38c-1.41-.46-3.1-.35-5.05 0-5.93 1.07-11.78 1.66-17.39 4.03-5.24 2.21-9.95 5.47-12.57 10.64-5.26 10.37.29 26.09 13.44 26.26 8.79.11 17.57-7.15 21.97-15.09 3.25-5.86 5.72-15.42 3.21-21.94-.87-2.24-2.08-3.41-3.61-3.9m-25.1 31.88c-1.82-1.04-2.68-3.25-1.4-7.08 1.18-3.53 17.45-19.18 20.2-11.14 1.92 5.62-2.98 12.41-6.98 15.86-3.03 2.61-8.77 4.11-11.82 2.36M848.35 480.07c-1.73.01-3.62-.36-4.83-.79-5.6-2.02-14.09-3.7-17.28-9.52-5.28-9.64 6.57-9.25 11.89-5.4 4.15 3 10.57 6.46 13.38 10.84 2.39 3.75-.15 4.86-3.16 4.87M999.78 557.84c-.36-1.69-.39-3.61-.21-4.87.84-5.87.77-14.51 5.84-18.81 8.4-7.13 10.42 4.52 7.72 10.49-2.11 4.67-4.19 11.63-7.93 15.27-3.19 3.11-4.8.86-5.42-2.08M1055.07 521.25c.65-1.6 1.69-3.21 2.55-4.15 3.98-4.4 8.76-11.6 15.38-12.37 10.97-1.26 6.15 9.51.56 12.98-4.36 2.7-10 7.33-15.14 8.27-4.39.81-4.48-1.94-3.35-4.73M1115.89 521.42c.65-1.6 1.69-3.21 2.55-4.15 3.98-4.4 8.76-11.61 15.38-12.37 10.97-1.26 6.15 9.52.56 12.98-4.36 2.7-9.99 7.33-15.13 8.27-4.41.81-4.49-1.95-3.36-4.73M759.18 385.9c-1.94-.72-3.91-1.9-5.07-2.88-5.4-4.55-14.19-9.95-15.25-17.68-1.76-12.81 11.35-7.43 15.65-.99 3.36 5.04 9.06 11.51 10.31 17.5 1.07 5.13-2.25 5.3-5.64 4.05M790.26 361.3c-.96-1.07-1.78-2.43-2.17-3.41-1.83-4.54-5.46-10.69-3.58-15.77 3.11-8.42 9.4-.88 9.93 4.47.41 4.17 1.8 9.98.61 14.06-1.02 3.49-3.12 2.51-4.79.65M1160.61 474.94c.22-1.43.76-2.94 1.27-3.87 2.38-4.33 4.86-11.1 10.07-12.92 8.62-3.01 6.78 6.7 2.92 10.55-3.01 3.01-6.68 7.81-10.65 9.51-3.4 1.47-3.99-.78-3.61-3.27M1143.46 364c-.61-2.06-.85-4.44-.75-6.03.45-7.38-.52-18.09 5.34-23.95 9.7-9.69 13.39 4.56 10.65 12.25-2.14 6.01-4.02 14.87-8.29 19.75-3.65 4.2-5.88 1.57-6.95-2.02M1072.92 364.54c-.35-1.69-.37-3.61-.18-4.87.88-5.87.86-14.5 5.95-18.77 8.44-7.08 10.4 4.57 7.66 10.54-2.13 4.65-4.26 11.61-8.02 15.22-3.21 3.08-4.8.82-5.41-2.12M1257.51 347.63c.34-1.26 1.01-2.6 1.59-3.42 2.72-3.84 5.76-9.82 11.02-11.45 8.72-2.69 6.04 5.9 1.92 9.31-3.22 2.66-7.24 6.92-11.29 8.44-3.46 1.3-3.84-.68-3.24-2.88M928.29 515.06c-1.84-1.48-3.54-3.47-4.44-4.97-4.21-6.92-11.77-15.97-10.17-24.87 2.64-14.73 14.86-4.19 17.21 4.44 1.83 6.73 5.68 15.88 4.91 22.92-.66 6.04-4.31 5.05-7.51 2.48M731.66 348.15c-2-1.25-3.92-3.04-4.99-4.42-4.99-6.39-13.56-14.5-13.02-23.52.89-14.94 14.26-5.89 17.61 2.41 2.61 6.48 7.51 15.11 7.57 22.19.04 6.08-3.69 5.52-7.17 3.34M906.97 458.7c-1.8-1.43-3.47-3.37-4.36-4.81-4.13-6.7-11.55-15.47-10-24.07 2.57-14.25 14.55-4.03 16.87 4.32 1.81 6.52 5.59 15.37 4.84 22.17-.64 5.84-4.2 4.88-7.35 2.39M955.78 565.4c-1.63-1.62-3.07-3.73-3.79-5.26-3.36-7.11-9.75-16.65-7.25-25.02 4.15-13.87 14.92-2.39 16.28 6.16 1.07 6.67 3.84 15.89 2.33 22.57-1.28 5.72-4.72 4.37-7.57 1.55M890.34 529.37c-1.85-.6-3.73-1.62-4.85-2.48-5.18-3.99-13.59-8.65-14.67-15.66-1.79-11.6 10.72-7.08 14.87-1.33 3.24 4.49 8.72 10.22 9.97 15.62 1.07 4.65-2.09 4.89-5.32 3.85M985.78 569.44c-.5-1.31-.78-2.82-.8-3.83-.09-4.7-1.28-11.51 2.19-15.27 5.74-6.23 8.87 2.81 7.5 7.72-1.07 3.84-1.82 9.49-4.31 12.62-2.13 2.7-3.7 1.04-4.58-1.24M920.85 555.82c-1.18-1.28-2.19-2.91-2.68-4.07-2.27-5.4-6.76-12.75-4.48-18.68 3.78-9.83 11.54-.78 12.21 5.53.53 4.93 2.26 11.81.82 16.58-1.23 4.08-3.81 2.87-5.87.64M782.38 442.35c5.36-1.52 13.54 3.03 17.48 6.14 7.03 5.55 18.75 22.47 7.5 30.13-4.08 2.77-12.14.56-15.81-1.35-6.26-3.24-7.57-8.5-9.9-14.06-1.91-4.53-4.96-9.2-4.17-14.31.61-3.91 2.46-5.86 4.9-6.55M1099.15 470.62c-.81-2.38 2.09-6.23 4.04-8.12 3.48-3.36 13.88-9.21 18.25-4.36 1.58 1.76.09 5.48-1.13 7.21-2.07 2.94-8.62 5.43-12.11 4.55-2.85-.72-2.16 2.92-5.21 2.73-2.34-.15-3.47-.93-3.84-2.01M862.82 427.44c-5.95 1.92-15.41-3.83-20.02-7.76-8.22-7.02-22.35-28.4-10.11-38.08 4.43-3.5 13.63-.71 17.87 1.7 7.22 4.09 8.99 10.74 11.93 17.77 2.4 5.73 6.09 11.63 5.48 18.08-.47 4.95-2.44 7.42-5.15 8.29M949.76 456.9c-4.09 7.61 1.52 26.04 2.75 30.89 1.86 7.37 10.96 15.59 17.14 6.98 4.51-6.28-1.96-23.11-4.65-29.55-2-4.81-10.39-17.35-15.24-8.32M806.51 416.57c-1.61 8.49 9.29 24.41 11.92 28.67 4 6.48 15.14 11.62 18.44 1.55 2.41-7.34-8.82-21.48-13.32-26.84-3.36-3.98-15.14-13.45-17.04-3.38M1048.51 489.47c8.66.53 23.07-12.23 26.96-15.36 5.92-4.76 9.56-16.41-.89-18.42-7.62-1.46-20.21 11.4-24.95 16.52-3.52 3.81-11.4 16.63-1.12 17.26M1141.11 465.45c8.39-2.21 18.07-18.85 20.78-23.04 4.13-6.37 3.93-18.58-6.62-17.21-7.69 1-15.62 17.16-18.51 23.51-2.15 4.72-5.61 19.37 4.35 16.74M975.89 534.63c-3.69-7.04-2.51-15.54.45-22.59 1.58-3.78 9.37-18.64 14.98-15.43 4.91 2.82 4.19 13.05 3.3 17.6-.82 4.23-8.83 31.77-17.09 22.78-.64-.7-1.19-1.5-1.64-2.36M997.94 386.17c4.76 7.66 4.15 17.37 1.41 25.6-1.47 4.41-9.02 21.87-15.63 18.71-5.79-2.77-5.84-14.41-5.22-19.63.57-4.86 7.28-36.68 17.39-27.2.79.73 1.47 1.58 2.05 2.52M1016.08 433.99c6.14 8.32 6.19 18.35 3.64 26.67-1.37 4.46-8.77 21.99-16.7 18.19-6.95-3.33-7.92-15.4-7.61-20.77.28-5 5.59-37.49 18.09-26.86.97.82 1.83 1.75 2.58 2.77M947.28 399.01c7.55 7.07 9.44 16.93 8.45 25.58-.53 4.63-4.6 23.22-13.09 20.92-7.44-2.02-10.6-13.72-11.28-19.06-.63-4.97-1.36-37.9 12.87-29.7 1.11.63 2.13 1.4 3.05 2.26M1114.11 421.43c2.29 8.02-.65 16.08-5.1 22.2-2.38 3.28-13.34 15.73-18.36 10.94-4.4-4.2-1.56-14.1.27-18.34 1.71-3.95 15.48-28.86 22.02-17.59.5.87.89 1.81 1.17 2.79M1031.09 486.27c4.29 7.17 3.54 15.72.83 22.77-1.45 3.78-8.8 18.63-14.89 15.29-5.34-2.93-5.17-13.23-4.5-17.8.62-4.25 7.46-31.88 16.69-22.66.73.72 1.35 1.52 1.87 2.4M676.64 314.59c8.31-1 15.87 3.16 21.27 8.49 2.89 2.86 13.6 15.58 8.08 19.77-4.83 3.67-14.24-.67-18.17-3.14-3.66-2.29-26.32-19.74-14.14-24.4.95-.37 1.94-.6 2.96-.72M1106.99 370.58c1.85 9.86-1.49 19.46-6.11 28.3-2.77 5.29-9.35 16.41-15.53 11.33-10.83-8.9-1.17-35.98 7.54-45.3 5.71-6.1 12.87-.86 14.1 5.67M1200.21 351.96c-1.75 9.87-8.27 17.68-15.73 24.33-4.46 3.98-14.56 12.07-18.55 5.16-7.01-12.11 11.62-34.06 23.07-39.72 7.51-3.72 12.37 3.68 11.21 10.23M1050.2 381.91c2.68 7.4.3 14.14-3.38 20.21-2.21 3.63-7.59 11.19-14.04 6.92-11.31-7.5-4.36-26.49 3.24-32.54 4.98-3.97 12.4.51 14.18 5.41M904.41 381.59c6.96 3.73 9.73 10.33 11.08 17.31.8 4.17 1.9 13.4-5.76 14.51-13.42 1.94-21.05-16.83-19.48-26.41 1.04-6.28 9.55-7.88 14.16-5.41M872.04 448.97c6.96 7.23 17.48 15.52 19.54 25.87 1.12 5.62-1.73 11.39-7.91 10.61-8.68-1.09-12.77-7.75-17.14-14.26-3.79-5.66-10.4-11.7-10.3-19.07.13-9.77 10.76-8.4 15.81-3.15M768.26 326.86c4.57 8.93 12.24 19.91 11.22 30.41-.55 5.7-4.95 10.4-10.64 7.87-8-3.55-9.99-11.11-12.28-18.6-2-6.51-6.57-14.2-4.35-21.24 2.95-9.31 12.74-4.92 16.05 1.56M1059.1 421.88c4.79 9.28 2.01 22.56-3.66 30.58-5.02 7.11-12.37 9.69-12.73-2.01-.44-14.31 3.65-31.34 8.83-32.24 3.61-.62 6.14.93 7.56 3.67M1246.77 322.22c-.52 10.41-9.62 20.49-18.58 24.59-7.94 3.63-15.61 2.2-10.02-8.09 6.83-12.58 18.96-25.25 23.9-23.44 3.44 1.26 4.86 3.86 4.7 6.94M1143.76 371.88c-14.24 3.2-25.64 22-22.29 36.16 1.55 6.54 3.66 11.23 10.66 12.29 11.6 1.77 24.94-6.62 29.92-16.91 1.82-3.77 3.13-8.49 3.29-13.14-6.66-6.6-13.89-12.72-21.58-18.4m6.4 25.62c-1.98 4.08-8.91 9.17-13.68 7.39-11.67-4.38 1.13-26.51 11.85-20.14 4.36 2.59 3.72 8.85 1.83 12.75M1201.76 460.12c1.45-1.12 2.73-2.47 3.87-3.95-2.04-6.84-4.53-13.42-7.45-19.73-.13 4-1.6 8.39-4.7 9.89-11.2 5.4-18.56-19.11-6.55-22.45 1.83-.51 3.56-.16 5.08.7-2.76-4.78-5.77-9.39-9.01-13.84-18.61 8.13-13.41 39.34 2.49 48.6 5.83 3.4 10.7 5.1 16.27.78M1059.59 331.13c-21.06-6.33-42.73-10.59-63.89-12.91-.84 3.13-.88 6.57-.28 9.18.44 1.91 1.27 3.75 2.38 5.52 4.35 6.94 11.96 14.91 17.53 19.65 6.95 5.92 11.74 12.81 21.62 11.72 9.59-1.06 25.8-12.54 24.6-22.65-.38-3.25-.98-6.94-1.96-10.51m-17.24 12.43c-6.91 8.04-23.71-4.55-27.17-11.08-1.02-1.92-1.35-3.84-.65-5.59 1.82-4.57 8.98-3.72 12.72-2.62 6.16 1.82 22.08 11.17 15.1 19.29M972.27 320.59c-.27-.82-.54-1.74-.83-2.73-.14-.47-.29-.97-.44-1.49-3.06-.12-6.1-.2-9.11-.23-1.97-.02-3.94-.03-5.91-.01.79 2.04 1.45 4.28 1.85 5.65.34 1.15.66 2.23.97 3.19.66 2.01 1.45 4.05 2.24 6.12 2.5 6.53 4.87 12.7 3.32 18.07-1.14 3.98-5.61 8.57-7.67 8.57l-.16-.02c-4.22-1.33-8.82-9.19-11.19-19.13-1.54-6.48 1.22-16.54 2.13-19.84.24-.88.52-1.69.82-2.45-5.04.15-10.07.44-15.07.83-1.83 7.08-3.62 16.56-1.68 24.68 2.9 12.15 4.98 28.32 18.97 32.49 3.69 1.1 7.26 1.43 10.6 1.08 10.28-1.09 18.37-8.62 21.3-19.78 2.89-11.01-4.47-19.99-8.11-29.5-.73-1.86-1.44-3.7-2.03-5.5M898.87 321.83c-15 2.99-29.66 7.19-43.83 12.63-1.72 2.44-3.04 5.24-3.9 8.51-2.37 8.95-.8 20.65 9.36 23.85 7.7 2.43 14.22-2.17 21.57-3.73a59.068 59.068 0 0 1 17.29-1.09c5.4.46 10.81 2.6 14.34-2.98 4.59-7.27 2.22-14.67.41-22.37-1.97-8.36-7.93-12.86-15.24-14.82m-1.68 27.69c-6.31 1.13-12.78-1.02-19.05-.05-1.83.28-3.68.63-5.52.46-1.84-.17-3.73-.94-4.78-2.47-3.35-4.91 1.13-8.74 5.3-10.9 3.89-2.01 9-3.24 14.04-3.31 4.44-.06 8.83.78 12.3 2.79 7.49 4.34 5.41 12.1-2.29 13.48M813.72 354.87c3.8 11.19-3.03 30.8-15.34 28.97-4.97-.74-8.07-7.53-7.82-12 .02-.26.07-.49.09-.74-4.42 3.52-8.76 7.21-12.97 11.09-.27.25-.53.5-.8.75 7.16 10.06 21.21 15.08 32.84 9.6 11.87-5.6 18.34-20.14 18.44-32.64.03-3.51-.56-7.91-1.8-12.31-4.28 2.3-8.49 4.72-12.64 7.28M770.95 388.61c-3.31 3.24-6.54 6.56-9.68 9.96 2.59 8.18 9.03 17.68 10.97 20.83 4 6.48 15.14 11.62 18.44 1.56 2.41-7.34-8.82-21.49-13.32-26.84-1.26-1.5-3.73-3.78-6.41-5.51M756.49 416.55c-1.63-1.29-3.62-2.44-5.79-3.33-.51-.21-1.03-.4-1.55-.57-13.87 17.29-25.28 36.21-32.84 56.27 5.41 4.8 13.93 7.48 21.97 8.84 10.95 1.84 24.17-8.1 31.19-28.13 4.16-11.91-3.64-25.65-12.98-33.08m-2.45 36.14c-3.35 6.43-19.13 9.18-19.87-.36-.46-5.89 3.17-17.41 9.75-19.66 1.8-.62 3.82-.54 6.04.54 6.73 3.28 7.13 13.63 4.08 19.48M730.16 594.21c-2.54-1.47-5.82-2.59-9.38-3.29.59 3.1 1.12 6.2 1.61 9.29 5.49 1.89 11.4 7.32 8.55 13.35-1.2 2.55-3.76 3.29-6.39 3.39.6 5.15 1.31 10.38 1.63 15.98 4.4 1.54 4.23 2.18 7.42.72 3.98-1.83 8.68-11.5 10.11-14.41 4.46-9.07-4.11-19.57-13.55-25.03M659.09 343.19c-1.02-4.88-4.61-9.75-7.8-13.57-1.14 1.33-4.2 4.6-7.16 9.38 1.8 1.83 4.06 3.43 6.05 5.14.97.84 2.61 1.85 4.23 2.47 2.82 1.08 5.59.95 4.68-3.42M1165.6 318.07c-.41 1.73-.47 5.97-.56 6.59-.89 6.5 4.36 17.1 10.39 7.89 3.45-5.27 1.36-12.97.4-18.77-3.62 1.43-8.49 3.53-10.23 4.29M1193.29 308.37c-.48.68-.89 1.56-1.21 2.73-1.84 6.69-1.41 14.74 4.94 18.95 6.45 4.28 11.83-3.29 14.04-6.92 3.24-5.32 5.41-11.17 4.09-17.52-11.54.35-19.54 2.17-21.86 2.76M1283.03 344.85c-2.07 2.36-3.74 5.17-5.27 7.32-.59.83-1.25 2.16-1.59 3.42-.6 2.2-.22 4.18 3.25 2.88 2.32-.87 4.63-2.65 6.79-4.5-.92-3.65-2.33-7.16-3.18-9.12"/><path d="M968.18 643.79c10.19-.12 20.07-5.43 28.49-9.83 16.3-8.53 36.12-24.21 32.39-41.57-3.41-15.85-18.46-11.69-33.49-10.04-15.03 1.65-49.86 2.08-69.44-.37-10.93-1.37-25.52-.06-23.7 13.46 3.41 25.25 44.84 48.6 65.75 48.35" style="clip-path:url(#SVGID_24_);fill:#ef798a"/><defs><path id="SVGID_25_" d="M820.56 491.58c-27.66 6.56-57.28 11.4-58.7 14.81-2.07 4.97 9.54 45.52 15.58 65.02 8.63 27.88 42.55 54.59 79.51 43.7 34.99-10.31 53.67-45.91 43.62-80.02-8.79-29.82-35.11-45.53-62.83-45.53-5.71 0-11.49.67-17.18 2.02"/></defs><clipPath id="SVGID_26_"><use xlink:href="#SVGID_25_" style="overflow:visible"/></clipPath><path class="st18" d="M900.57 535.09c10.05 34.11-8.63 69.71-43.62 80.02-36.97 10.89-70.88-15.82-79.51-43.7-6.04-19.5-15.58-57.91-13.5-62.87 1.42-3.41 29.66-9.01 56.62-16.96 32.82-9.67 69.42 7.54 80.01 43.51"/><path d="M909.02 554.34c0 36.56-29.91 66.19-66.8 66.19s-66.8-29.63-66.8-66.19 29.91-66.19 66.8-66.19 66.8 29.63 66.8 66.19" style="clip-path:url(#SVGID_26_);fill:#f7a600"/><path d="M902.38 554.64c0 34.01-27.37 61.59-61.14 61.59-33.77 0-61.14-27.57-61.14-61.59 0-34.01 27.37-61.58 61.14-61.58 33.77-.01 61.14 27.57 61.14 61.58" style="clip-path:url(#SVGID_26_);fill:#fff"/><path class="st18" d="M890.95 555.96c0 24.08-19.38 43.6-43.28 43.6-23.9 0-43.28-19.52-43.28-43.6 0-24.08 19.38-43.6 43.28-43.6 23.9 0 43.28 19.52 43.28 43.6"/><defs><path id="SVGID_27_" d="M0 0h1984.25v1417.32H0z"/></defs><clipPath id="SVGID_28_"><use xlink:href="#SVGID_27_" style="overflow:visible"/></clipPath><path d="M876.43 544.11c0 5.3-4.3 9.6-9.6 9.6s-9.6-4.3-9.6-9.6 4.3-9.6 9.6-9.6 9.6 4.3 9.6 9.6" style="clip-path:url(#SVGID_28_);fill:#fff"/><defs><path id="SVGID_29_" d="M1033.51 528.11c-10.21 34.07 8.31 69.75 43.25 80.22 36.92 11.06 70.95-15.5 79.71-43.34 6.13-19.47 15.19-58.78 13.14-63.76-1.41-3.41-27.99-9.51-55.89-16.27-5.8-1.41-11.7-2.1-17.52-2.1-27.59 0-53.81 15.59-62.69 45.25"/></defs><clipPath id="SVGID_30_"><use xlink:href="#SVGID_29_" style="overflow:visible"/></clipPath><path class="st22" d="M1036.05 527.09c-10.21 34.07 8.31 69.75 43.25 80.22 36.92 11.06 70.95-15.5 79.71-43.33 6.13-19.47 12.98-55.77 10.93-60.75-1.41-3.41-26.75-11.21-53.68-19.28-32.78-9.83-69.45 7.21-80.21 43.14"/><path d="M1028.6 549.64c0 36.24 29.55 65.5 66.01 65.37 36.46-.14 66.01-29.63 66.01-65.86 0-36.24-29.55-65.5-66.01-65.36-36.46.12-66.01 29.61-66.01 65.85" style="clip-path:url(#SVGID_30_);fill:#f7a600"/><path class="st24" d="M1031.37 548.22c0 34.01 27.37 61.59 61.14 61.59 33.77 0 61.14-27.57 61.14-61.59s-27.37-61.59-61.14-61.59c-33.77 0-61.14 27.57-61.14 61.59"/><path class="st22" d="M1043.34 554.51c3.45 23.83 25.42 40.37 49.08 36.94 23.65-3.42 40.03-25.52 36.58-49.35-3.45-23.83-25.43-40.37-49.08-36.94-23.65 3.42-40.03 25.52-36.58 49.35"/><path class="st24" d="M1072.9 540.04c0 5.3-4.3 9.6-9.6 9.6s-9.6-4.3-9.6-9.6 4.3-9.6 9.6-9.6 9.6 4.3 9.6 9.6"/></svg>