<svg id="SBDT_IlustracionesAnimales_12" xmlns="http://www.w3.org/2000/svg" xmlns:xlink="http://www.w3.org/1999/xlink" width="1984.25" height="1417.32" viewBox="0 0 1984.25 1417.32">
  <defs>
    <clipPath id="clip-path">
      <rect id="Rectangle_5" data-name="Rectangle 5" width="1984.25" height="1417.32"/>
    </clipPath>
  </defs>
  <g id="Group_9" data-name="Group 9">
    <g id="Group_5" data-name="Group 5" clip-path="url(#clip-path)">
      <path id="Path_5" data-name="Path 5" d="M844.4,442.97c8.83-8.15,25.04-7.84,42.45,12.23,15.03,17.32,17.7,31.29,11.72,37.69-7.13,7.64-29.05-.16-46.35-14.26-27.51-22.41-7.82-35.66-7.82-35.66" fill="#005fa8"/>
    </g>
    <g id="Group_6" data-name="Group 6" clip-path="url(#clip-path)">
      <path id="Path_6" data-name="Path 6" d="M1325.58,395.73c7.98,5.76,17.73,18.18-1.77,38.13s-40.35,21.38-46.11,16.45-1.77-28.42,15.96-47.49,31.92-7.09,31.92-7.09" fill="#005fa8"/>
    </g>
    <g id="Group_7" data-name="Group 7" clip-path="url(#clip-path)">
      <path id="Path_7" data-name="Path 7" d="M1143.06,428.36c5.6-4.91,18.85-1.85,22.41,8.34s2.55,24.45-11.21,22.92-18.34-11.21-17.32-20.89,6.12-10.37,6.12-10.37" fill="#4bbecf"/>
    </g>
    <g id="Group_8" data-name="Group 8" clip-path="url(#clip-path)">
      <path id="Path_8" data-name="Path 8" d="M851.7,394.58c8.66-4.14,16.34-2.55,17.85,7.64s-1.53,13.75-8.92,15.28-11.47-5.18-14.02-12.52,5.09-10.4,5.09-10.4" fill="#4bbecf"/>
    </g>
  </g>
  <g id="Group_22" data-name="Group 22" clip-path="url(#clip-path)">
    <path id="Path_21" data-name="Path 21" d="M781.77,882.09c5.96-13.85-36.93-24.91-66.07-42.79s-110.94-84.89-130.22-84.99c-8.21-.04-12.04,10.77-10.24,18.78s6.75,15.35,6.77,23.56c.05,30.92-55.43,27.21-32.2,121.9,30.82,125.56,119.41,105.77,136.07,68.33,20.86-46.87-39.61-85.54-42.98-131.85,33.72,32.83,121.5,68.35,127.02,56.76,2.76-5.8-4.33-9.24-15.24-16.05,11.06.94,22.44,7.68,24.1,1.27s-14.55-10.65-17-13.11c11.4,2.54,17.22,4.64,19.99-1.81" fill="#c96201"/>
  </g>
  <g id="Group_23" data-name="Group 23" clip-path="url(#clip-path)">
    <path id="Path_22" data-name="Path 22" d="M754.68,895.74c8.69,5.42,14.94,8.71,15.73,12.75-5.86,9.03-45.76-13.53-64.94-24.06-23.26-12.77-45.39-26.26-65.36-43.92-23.18-20.5-58.22-47.71-64.68-76.53,1.34-5.28,4.79-9.7,10.04-9.67,19.28.09,101.08,67.11,130.22,84.99s72.03,28.94,66.07,42.79c-2.77,6.45-8.59,4.34-19.99,1.81,2.45,2.46,18.66,6.7,17,13.11s-13.02-.33-24.09-1.27" fill="#f39655"/>
  </g>
  <g id="Group_24" data-name="Group 24" clip-path="url(#clip-path)">
    <path id="Path_23" data-name="Path 23" d="M1190.57,889.79c7.22-55.81,10.29-107.56,2.94-163.35,34.92-48.56,67.65-79.62,67.65-79.62l5.92-95.31s-20.89-32.39-1.87-68.23c2.03-3.82,4.06-7.84,7.6-10.32s18.26-3.62,19.73,7.22c1.91-5.41,5.77-7.05,11.49-7.37s11.36,7.54,8.98,11.77c.18-6.92,14.43-6.23,18.59-1.09s-.82,18.03-.82,18.03,1.37,8.63,1.04,13.32a122.769,122.769,0,0,1-9.04,37.53s7.45,69.07,7.89,74.17c1.49,17.05-2.59,51.64-14.14,80.08-29.4,72.39-95.68,165.68-125.96,183.17" fill="#c56b21"/>
  </g>
  <g id="Group_25" data-name="Group 25" clip-path="url(#clip-path)">
    <path id="Path_24" data-name="Path 24" d="M1286.25,504.65c-24.91,21.44,3.92,54.38,20.89,34.13,14.31-17.07-1.55-50.77-20.89-34.13" fill="#f39655"/>
  </g>
  <g id="Group_26" data-name="Group 26" clip-path="url(#clip-path)">
    <path id="Path_25" data-name="Path 25" d="M1283.9,493.34c6.87-4.49,2.1-17.17-3.04-15.5-7.86,2.55-8.38,22.97,3.04,15.5" fill="#f39655"/>
  </g>
  <g id="Group_27" data-name="Group 27" clip-path="url(#clip-path)">
    <path id="Path_26" data-name="Path 26" d="M1307.6,482.75c-2.23-5.97-7.58-4.46-9.85,1.34-6.19,15.79,15.13,12.77,9.85-1.34" fill="#f39655"/>
  </g>
  <g id="Group_28" data-name="Group 28" clip-path="url(#clip-path)">
    <path id="Path_27" data-name="Path 27" d="M1319.95,500.48c8.12-1.42,5.27-13.82.77-14.58-7.11-1.22-11.75,16.49-.77,14.58" fill="#f39655"/>
  </g>
  <g id="Group_29" data-name="Group 29" clip-path="url(#clip-path)">
    <path id="Path_28" data-name="Path 28" d="M1216.28,455.31c-17.58-25.83-26.74-35.02-29.34-37.73-3.48-3.62,4.79,4.34,20.38-.46,7.61-2.34,17.47-9.34,31.94-3.96,14.54,5.41,13.54,14.94,9.48,23.56-5.82,12.34-20.22,15.88-32.46,18.59" fill="#d85509"/>
  </g>
  <g id="Group_30" data-name="Group 30" clip-path="url(#clip-path)">
    <path id="Path_29" data-name="Path 29" d="M1234.3,420.64c-12.87-2.7-25.22,5.28-37.79,7.78,3.56,4.36,8.08,10.23,13.66,18.1,6.14-.1,12.34-.85,17.65-3.59,6.63-3.44,21.83-19.08,6.48-22.29" fill="#f39655"/>
  </g>
  <g id="Group_31" data-name="Group 31" clip-path="url(#clip-path)">
    <path id="Path_30" data-name="Path 30" d="M940.7,456.98c22.8-20.34,35.39-27.57,40.32-29.89-9.55.87-5.38,7.26-24.79-2.93-5.7-2.99-27.92-27.49-43.61-6.25-5.32,7.2-.61,17.98,5.78,24.24s14.85,9.89,22.3,14.83" fill="#d85509"/>
  </g>
  <g id="Group_32" data-name="Group 32" clip-path="url(#clip-path)">
    <path id="Path_31" data-name="Path 31" d="M929.94,421.14c-10,.06-5.38,12.03-1.44,16.56a42.961,42.961,0,0,0,12.67,10.02c2.17,1.13,4.38,2.14,6.62,3.08,6.91-5.9,12.71-10.43,17.48-13.89a45,45,0,0,1-11.21-4.76c-7.15-4.16-15.4-11.06-24.12-11.01" fill="#f39655"/>
  </g>
  <g id="Group_33" data-name="Group 33" clip-path="url(#clip-path)">
    <path id="Path_32" data-name="Path 32" d="M1215.82,663.7c-3.56-26.64-14.1-56.52-11.19-81.29.23-14.72,21.61-49.28,25.28-66.42,5.3-24.72,4.15-44.99-5.92-68.09-16.5-37.84-59.68-54.42-99.63-63.3,4.41-3.39,21.75-12.68,26.16-16.07-10.92,3.22-41.09,10.23-52.29,8.17,3.19-2.14,5.91-5.42,6.3-7.03-5.5,1.71-12.5,5.28-18.26,5.39,3.5-2.19,5.36-6.37,7.13-10.1-16.75,9-34.76,8.48-52.57,14.57-91.66,9.78-124.56,84.65-114.99,137.23,7.25,39.88,24.74,51.01,34.04,90.46,2.55,10.8,4.76,21.45,6.53,32.05,2.29,32.45-3.5,64.2-9.69,97.62-12.09,65.35-73.58,186.01-98.28,222.79-20.52,30.55-218.59,25.2-308.25-65.47-52.31-52.9-79.54-144.63-64.86-252.61,1.68-9.5,3.61-19.57,4.8-28.16a495.135,495.135,0,0,1,29.67-93.88C373.86,644,364.77,834.75,363.39,857.75c-27.86,464.56,961.73,687.55,852.43-194.05" fill="#ec6608"/>
  </g>
  <g id="Group_34" data-name="Group 34" clip-path="url(#clip-path)">
    <path id="Path_33" data-name="Path 33" d="M1105.17,736.24q-18.345.2-36.68,1.31l-4.48.31c-1.6.12-3.2.25-4.81.38q-4.785.405-9.56.88-8.67.87-17.32,2a429.168,429.168,0,0,0-71.35,15.26,12.6,12.6,0,0,1-4.3.55c-9.49,103.03-72.3,190.29-95.07,223.04-16.48,23.72-166.08,31.39-277.72-43.88-85.54-57.68-145.84-207.64-79.7-386.27,1.48-3.99,3.74-9.94,6.42-15.5,2.32-4.81,1.1-5.41-2.08-2.07-245.02,257.55-99.16,653.98,258.54,674.1,352.21,19.81,460.72-310.45,445.44-511.54-37.19-3.99-69.94,41.03-107.33,41.43" fill="#f3975f"/>
  </g>
  <g id="Group_35" data-name="Group 35" clip-path="url(#clip-path)">
    <path id="Path_34" data-name="Path 34" d="M982.45,601.84c7.84,33.25.83,75.8-8.38,109.42-3.34,54.21,50.55,228.18,78.04,233.54,11.24,4.73,190.51-143.58,154.73-281.23-4.62-34.59-27.4-51.03-14.65-94.49,4.27-14.55,34.11-50.57,30.81-78.05-2.1-17.44-20.01-30.08-39.55-25.61-13.19,3.02-23.78,17.99-65.31,18.83-9.78.2-18.03-2.6-26.38-5.39-15.06-5.04-30.48-10.08-55.84,2.42-33.12,12.63-41.97-.71-66.05-8.85-17.76-6.01-47.91,5.75-30.66,50.87,10.07,26.34,39.43,53.25,43.24,78.54" fill="#fac075"/>
  </g>
  <g id="Group_36" data-name="Group 36" clip-path="url(#clip-path)">
    <path id="Path_35" data-name="Path 35" d="M1039.75,518.76c18.02,8.29,30.42,4.58,36.59-5.27,5.27-8.42,3.28-3.58,6.52,1.4,7.14,10.94,21.18,11.75,36.03,4.9.73-.34,1.11.45.56,1.11-11.07,13.06-34.03,9.47-42.36-3.4l3.51-.27c-11.16,13.89-29.16,16.22-41.9,3.25-1.04-1.1-.2-2.3,1.05-1.72"/>
  </g>
  <g id="Group_37" data-name="Group 37" clip-path="url(#clip-path)">
    <path id="Path_36" data-name="Path 36" d="M1171.16,454.81a23.162,23.162,0,1,1-21.57-24.52,23.11,23.11,0,0,1,21.57,24.52" fill="#fff"/>
  </g>
  <g id="Group_38" data-name="Group 38" clip-path="url(#clip-path)">
    <path id="Path_37" data-name="Path 37" d="M1171.38,454.93a23.162,23.162,0,1,1-21.57-24.53,23.11,23.11,0,0,1,21.57,24.53" fill="#fff"/>
  </g>
  <g id="Group_39" data-name="Group 39" clip-path="url(#clip-path)">
    <path id="Path_38" data-name="Path 38" d="M1132.74,462.61c10.78,11.7,34.69,2.88,27.96-14.69-7.11-18.57-44.86-3.64-27.96,14.69"/>
  </g>
  <g id="Group_40" data-name="Group 40" clip-path="url(#clip-path)">
    <path id="Path_39" data-name="Path 39" d="M1081.78,508.44c.34-5.05,2.4-10.06,1.63-15.11-.31-2.05-3.13-1.88-3.78-.18-2.36,6.16-2.44,25.6-1.69,25.22.46,1.87,3.12.79,3.84-9.93"/>
  </g>
  <g id="Group_41" data-name="Group 41" clip-path="url(#clip-path)">
    <path id="Path_40" data-name="Path 40" d="M1114.96,465.49c27.66,18.27-22.05,38.64-34.69,38.93-9.57.69-70.13-18.66-38.01-39.47,15.49-10.04,64.38-4.95,72.7.54"/>
  </g>
  <g id="Group_42" data-name="Group 42" clip-path="url(#clip-path)">
    <path id="Path_41" data-name="Path 41" d="M1019.4,457.96a23,23,0,1,1-21.42-24.49,23,23,0,0,1,21.42,24.49" fill="#fff"/>
  </g>
  <g id="Group_43" data-name="Group 43" clip-path="url(#clip-path)">
    <path id="Path_42" data-name="Path 42" d="M986.5,445.97c-8.02,7.37-3.26,21.64,9.37,23.65,8.03,1.28,16.46-3.37,19.36-8.32,8.62-14.68-15.82-27.19-28.73-15.33"/>
  </g>
  <g id="Group_44" data-name="Group 44" clip-path="url(#clip-path)">
    <path id="Path_43" data-name="Path 43" d="M1006.72,453.81c-1.44,1.1-2.49,3.11-1.64,4.71.89,1.68,3.4,1.84,5.01.83a4.288,4.288,0,0,0,2.07-3.38,3.109,3.109,0,0,0-2.23-3.09,3.98,3.98,0,0,0-3.21.93" fill="#fff"/>
  </g>
  <g id="Group_45" data-name="Group 45" clip-path="url(#clip-path)">
    <path id="Path_44" data-name="Path 44" d="M1000.25,454.25a1.939,1.939,0,0,1-1.6-.75,2.389,2.389,0,0,1,1.16-2.42,1.709,1.709,0,0,1,.77-.18,1.67,1.67,0,0,1,1.61,1.03,1.691,1.691,0,0,1-.13,1.32,2.035,2.035,0,0,1-1.81,1" fill="#ededed"/>
  </g>
  <g id="Group_46" data-name="Group 46" clip-path="url(#clip-path)">
    <path id="Path_45" data-name="Path 45" d="M1136.78,450.47a3.381,3.381,0,0,0-3.07.92,3.068,3.068,0,0,0-.63,1.83,4.042,4.042,0,0,0,3.87,4.1,3.514,3.514,0,0,0,3.19-4.38,4.123,4.123,0,0,0-3.36-2.47" fill="#fff"/>
  </g>
  <g id="Group_47" data-name="Group 47" clip-path="url(#clip-path)">
    <path id="Path_46" data-name="Path 46" d="M1053.05,479.01a5.825,5.825,0,0,1-5.47-5.9,4.355,4.355,0,0,1,.9-2.63,4.435,4.435,0,0,1,3.46-1.4,6.426,6.426,0,0,1,5.79,3.63c1,2.86-1.56,6.23-4.58,6.3h-.1" fill="#e9e9e8"/>
  </g>
  <g id="Group_48" data-name="Group 48" clip-path="url(#clip-path)">
    <path id="Path_47" data-name="Path 47" d="M1146.59,451.54a1.273,1.273,0,0,1-.2-.01,2.83,2.83,0,0,1-2.1-.9,2.085,2.085,0,0,1,1.74-3.24,2.737,2.737,0,0,1,2.56,2.09,1.807,1.807,0,0,1-.1,1.17,2.045,2.045,0,0,1-1.9.89" fill="#ededed"/>
  </g>
  <g id="Group_49" data-name="Group 49" clip-path="url(#clip-path)">
    <path id="Path_48" data-name="Path 48" d="M1001.5,418.12c-4.74-3.24-10.32-1.73-14.94,1.05-3.56,2.14-7.98,5.52-8.66,9.88a2.38,2.38,0,0,0,1.5,2.42c2.83,1.38,7.34-.17,10.04-1.2,4.24-1.61,8.64.16,12.24-3.44,2.4-2.4,3-6.54-.18-8.71" fill="#b05007"/>
  </g>
  <g id="Group_50" data-name="Group 50" clip-path="url(#clip-path)">
    <path id="Path_49" data-name="Path 49" d="M1170.55,426c-2.2-8.21-16.43-16.45-23.65-9.7-1.86,1.74-2.84,5.09-.79,7.17,2.92,2.95,5.96,3.74,9.98,4.29,3.53.48,6.71,2.36,10.27,2.72,2.31.23,4.85-2.03,4.19-4.48" fill="#b05007"/>
  </g>
  <g id="Group_51" data-name="Group 51" clip-path="url(#clip-path)">
    <path id="Path_50" data-name="Path 50" d="M1204.98,702.41c.45-4.37.27-8.85.37-13.24.07-2.76-4.22-4.2-5.03-1.18-.03.1-.06.21-.08.31-.03.13-.05.25-.07.37l-.01.1a2.476,2.476,0,0,0-.01.47c-.08,4.2.07,8.48-.37,12.67-.35,3.34,4.85,3.85,5.2.5" fill="#f39655"/>
  </g>
  <g id="Group_52" data-name="Group 52" clip-path="url(#clip-path)">
    <path id="Path_51" data-name="Path 51" d="M1202.78,733.7c.37-1.95.6-3.92.91-5.88.35-2.19.28-4.39.59-6.58.47-3.33-4.72-3.83-5.2-.5-.27,1.91-.15,3.84-.44,5.75-.34,2.24-.64,4.49-1.07,6.71-.62,3.3,4.58,3.78,5.21.5" fill="#f39655"/>
  </g>
  <g id="Group_53" data-name="Group 53" clip-path="url(#clip-path)">
    <path id="Path_52" data-name="Path 52" d="M1195.08,716.58c-.3-1.29.28-3.14.38-4.47.14-1.9.21-3.79.43-5.68a2.685,2.685,0,0,0-1.67-2.69c-.1-.06-.21-.11-.31-.17-2.14-1.13-3.68,1.09-3.28,3-.18,1.67-.27,3.35-.38,5.03-.12,1.89-.76,3.95-.34,5.82.77,3.27,5.92,2.45,5.17-.84" fill="#f39655"/>
  </g>
  <g id="Group_54" data-name="Group 54" clip-path="url(#clip-path)">
    <path id="Path_53" data-name="Path 53" d="M992.97,683.02c1.22-4.77.88-9.73,1.73-14.52.58-3.31-4.61-3.8-5.2-.5-.76,4.3-.32,8.87-1.41,13.15-.81,3.23,4.05,5.13,4.88,1.87" fill="#f39655"/>
  </g>
  <g id="Group_55" data-name="Group 55" clip-path="url(#clip-path)">
    <path id="Path_54" data-name="Path 54" d="M1000.28,648.1c1.21-5.01.86-10.28,2.04-15.33.76-3.27-4.44-3.74-5.2-.5-1.07,4.58-.62,9.45-1.72,13.97-.78,3.22,4.09,5.13,4.88,1.86" fill="#f39655"/>
  </g>
  <g id="Group_56" data-name="Group 56" clip-path="url(#clip-path)">
    <path id="Path_55" data-name="Path 55" d="M1006.82,668.48a58.042,58.042,0,0,1,1.16-7.53c.42-2.05.3-4.79,1.12-6.68,1.34-3.09-3.54-4.94-4.87-1.87-.81,1.86-.67,3.94-1.02,5.91a96,96,0,0,0-1.59,9.67c-.24,3.35,4.96,3.87,5.2.5" fill="#f39655"/>
  </g>
  <g id="Group_57" data-name="Group 57" clip-path="url(#clip-path)">
    <path id="Path_56" data-name="Path 56" d="M1014.29,623.66c.84-3.22-4.03-5.12-4.87-1.86a16.163,16.163,0,0,0-.33,5.8c.09.97.18,1.95.27,2.92.06.62.38,1.43.14,2.02-1.31,3.1,3.57,4.96,4.87,1.87,1.42-3.37-.98-7.28-.08-10.75" fill="#f39655"/>
  </g>
  <g id="Group_58" data-name="Group 58" clip-path="url(#clip-path)">
    <path id="Path_57" data-name="Path 57" d="M998.76,607.36a8.705,8.705,0,0,1,.09-3.37c.13-1.71-.22-3.39.14-5.09a2.615,2.615,0,0,0-2.35-2.85,2.677,2.677,0,0,0-2.85,2.35c-.39,1.83-.03,3.7-.18,5.56a13.053,13.053,0,0,0,.38,5.53c1.1,3.18,5.86,1.03,4.77-2.13" fill="#f39655"/>
  </g>
  <g id="Group_59" data-name="Group 59" clip-path="url(#clip-path)">
    <path id="Path_58" data-name="Path 58" d="M1058.23,849.09c-14.28-14.8-33.19-19.39-50.02-20.25-21.6-1.51-51.86,3.37-64.59,9.82,77.69-139.91,38.38-164.52-.27-138.03-46.89,32.15-104.59,133.72-81.23,204.94,2.85,8.69,8.44,19.76,18.82,19.12,10.23-.64,63.45-30.94,86.2-42.8,6.47,5.21,15.81,13.05,18.62,15.63,13.88,12.75,43.85,20.88,52.32,14.41s7.49-15.51,1.94-19.31a10.3,10.3,0,0,0,14.92-3.19c3.54-5.72,2.61-11.9-2.64-14.06,6.45,2.32,22.04-9.58,5.93-26.28" fill="#c56b21"/>
  </g>
  <g id="Group_60" data-name="Group 60" clip-path="url(#clip-path)">
    <path id="Path_59" data-name="Path 59" d="M1037.28,505.08l-.61-.23a2.608,2.608,0,1,0-1.87,4.87l.61.23a2.608,2.608,0,0,0,1.87-4.87" fill="#be6b2c"/>
  </g>
  <g id="Group_61" data-name="Group 61" clip-path="url(#clip-path)">
    <path id="Path_60" data-name="Path 60" d="M1045.1,498.42c-3.14-1.2-5.01,3.67-1.87,4.87s5.01-3.67,1.87-4.87" fill="#be6b2c"/>
  </g>
  <g id="Group_62" data-name="Group 62" clip-path="url(#clip-path)">
    <path id="Path_61" data-name="Path 61" d="M1058.26,505.67a2.637,2.637,0,0,0-3.45-1.32c-.28.12-.56.25-.84.38a2.612,2.612,0,0,0,2.13,4.77l.84-.38a2.637,2.637,0,0,0,1.32-3.45" fill="#be6b2c"/>
  </g>
  <g id="Group_63" data-name="Group 63" clip-path="url(#clip-path)">
    <path id="Path_62" data-name="Path 62" d="M1104.57,505.71c-3.14-1.2-5.01,3.67-1.87,4.87s5.01-3.66,1.87-4.87" fill="#be6b2c"/>
  </g>
  <g id="Group_64" data-name="Group 64" clip-path="url(#clip-path)">
    <path id="Path_63" data-name="Path 63" d="M1116.16,495.48a2.638,2.638,0,0,0-3.37,1.5l-.23.61a2.613,2.613,0,0,0,4.88,1.87l.23-.61a2.638,2.638,0,0,0-1.51-3.37" fill="#be6b2c"/>
  </g>
  <g id="Group_65" data-name="Group 65" clip-path="url(#clip-path)">
    <path id="Path_64" data-name="Path 64" d="M1121.2,507.89l-.61-.23a2.608,2.608,0,0,0-1.87,4.87l.61.23a2.608,2.608,0,0,0,1.87-4.87" fill="#be6b2c"/>
  </g>
  <g id="Group_66" data-name="Group 66" clip-path="url(#clip-path)">
    <path id="Path_65" data-name="Path 65" d="M519.89,884.07c-.07-.06-.71-1.62-1.04-2.09a27.141,27.141,0,0,1-1.72-2.64,32.851,32.851,0,0,1-1.55-3.08,16.608,16.608,0,0,0-.86-2.28c-1.33-2.19-4.03-1.58-5.01.6l-.11.24a2.428,2.428,0,0,0,.68,2.65c.17.47.3.96.49,1.42a33.153,33.153,0,0,0,1.87,3.66,19.144,19.144,0,0,0,1.85,2.69c.63.8.58,1.82,1.4,2.59,2.52,2.37,6.53-1.39,4-3.76" fill="#cb6d29"/>
  </g>
  <g id="Group_67" data-name="Group 67" clip-path="url(#clip-path)">
    <path id="Path_66" data-name="Path 66" d="M519.89,884.07c-.07-.06-.71-1.62-1.04-2.09a27.141,27.141,0,0,1-1.72-2.64,32.851,32.851,0,0,1-1.55-3.08,16.608,16.608,0,0,0-.86-2.28c-1.33-2.19-4.03-1.58-5.01.6l-.11.24a2.428,2.428,0,0,0,.68,2.65c.17.47.3.96.49,1.42a33.153,33.153,0,0,0,1.87,3.66,19.144,19.144,0,0,0,1.85,2.69c.63.8.58,1.82,1.4,2.59C518.41,890.2,522.42,886.44,519.89,884.07Z" fill="none" stroke="#f3975f" stroke-miterlimit="10" stroke-width="1.038"/>
  </g>
  <g id="Group_68" data-name="Group 68" clip-path="url(#clip-path)">
    <path id="Path_67" data-name="Path 67" d="M536.76,904.88c-1.92-1.1-3.29-3.03-4.66-4.72s-2.72-3.92-4.54-5.12c-2.9-1.91-5.77,2.78-2.88,4.68.69.46,1.26,1.71,1.79,2.36.72.87,1.49,1.69,2.2,2.57a19.469,19.469,0,0,0,5.2,4.92c3.02,1.71,5.91-2.97,2.89-4.69" fill="#cb6d29"/>
  </g>
  <g id="Group_69" data-name="Group 69" clip-path="url(#clip-path)">
    <path id="Path_68" data-name="Path 68" d="M536.76,904.88c-1.92-1.1-3.29-3.03-4.66-4.72s-2.72-3.92-4.54-5.12c-2.9-1.91-5.77,2.78-2.88,4.68.69.46,1.26,1.71,1.79,2.36.72.87,1.49,1.69,2.2,2.57a19.469,19.469,0,0,0,5.2,4.92C536.89,911.28,539.78,906.6,536.76,904.88Z" fill="none" stroke="#f3975f" stroke-miterlimit="10" stroke-width="1.038"/>
  </g>
  <g id="Group_70" data-name="Group 70" clip-path="url(#clip-path)">
    <path id="Path_69" data-name="Path 69" d="M518.26,901.62c-.79-1.58-2.11-2.77-2.99-4.3a25.679,25.679,0,0,1-2.85-5.69c-.96-3.34-6.26-2.02-5.29,1.34a22.639,22.639,0,0,0,2.6,5.86c.57.91,1.12,1.83,1.69,2.73a32.673,32.673,0,0,1,2.03,2.69c1.56,3.12,6.37.47,4.81-2.63" fill="#cb6d29"/>
  </g>
  <g id="Group_71" data-name="Group 71" clip-path="url(#clip-path)">
    <path id="Path_70" data-name="Path 70" d="M518.26,901.62c-.79-1.58-2.11-2.77-2.99-4.3a25.679,25.679,0,0,1-2.85-5.69c-.96-3.34-6.26-2.02-5.29,1.34a22.639,22.639,0,0,0,2.6,5.86c.57.91,1.12,1.83,1.69,2.73a32.673,32.673,0,0,1,2.03,2.69C515.01,907.37,519.82,904.72,518.26,901.62Z" fill="none" stroke="#f3975f" stroke-miterlimit="10" stroke-width="1.038"/>
  </g>
  <g id="Group_72" data-name="Group 72" clip-path="url(#clip-path)">
    <path id="Path_71" data-name="Path 71" d="M557.94,924.53c-.57-1.91-1.75-2.53-3.35-3.47a18.9,18.9,0,0,1-5.28-4.92c-1.95-2.83-6.77-.22-4.81,2.64a24.106,24.106,0,0,0,4.14,4.48c.79.7,1.61,1.36,2.43,2.02a7.247,7.247,0,0,0,1.03.71c.79.45.81.82.54-.1,1,3.31,6.29,1.99,5.3-1.36" fill="#cb6d29"/>
  </g>
  <g id="Group_73" data-name="Group 73" clip-path="url(#clip-path)">
    <path id="Path_72" data-name="Path 72" d="M557.94,924.53c-.57-1.91-1.75-2.53-3.35-3.47a18.9,18.9,0,0,1-5.28-4.92c-1.95-2.83-6.77-.22-4.81,2.64a24.106,24.106,0,0,0,4.14,4.48c.79.7,1.61,1.36,2.43,2.02a7.247,7.247,0,0,0,1.03.71c.79.45.81.82.54-.1C553.64,929.2,558.93,927.88,557.94,924.53Z" fill="none" stroke="#f3975f" stroke-miterlimit="10" stroke-width="1.038"/>
  </g>
  <g id="Group_74" data-name="Group 74" clip-path="url(#clip-path)">
    <path id="Path_73" data-name="Path 73" d="M538.76,922.15a26.773,26.773,0,0,1-3.86-3c-.55-.49-1.1-.96-1.68-1.41-.21-.16-.82-.94-.72-.58-.87-3.38-6.16-2.05-5.29,1.34.46,1.8,1.73,2.84,3.13,3.93a69.695,69.695,0,0,0,5.55,4.41c2.93,1.82,5.81-2.87,2.87-4.69" fill="#cb6d29"/>
  </g>
  <g id="Group_75" data-name="Group 75" clip-path="url(#clip-path)">
    <path id="Path_74" data-name="Path 74" d="M538.76,922.15a26.773,26.773,0,0,1-3.86-3c-.55-.49-1.1-.96-1.68-1.41-.21-.16-.82-.94-.72-.58-.87-3.38-6.16-2.05-5.29,1.34.46,1.8,1.73,2.84,3.13,3.93a69.695,69.695,0,0,0,5.55,4.41C538.82,928.66,541.7,923.97,538.76,922.15Z" fill="none" stroke="#f3975f" stroke-miterlimit="10" stroke-width="1.038"/>
  </g>
  <g id="Group_76" data-name="Group 76" clip-path="url(#clip-path)">
    <path id="Path_75" data-name="Path 75" d="M701.1,1146.62c-1.98-.29-4,.06-6-.1a62.045,62.045,0,0,0-7.44-.62c-3.36.14-2.49,5.29.83,5.15a48.036,48.036,0,0,1,6.09.66c2,.18,4.03-.19,6,.1,3.33.48,3.85-4.71.52-5.19" fill="#cb6d29"/>
  </g>
  <g id="Group_77" data-name="Group 77" clip-path="url(#clip-path)">
    <path id="Path_76" data-name="Path 76" d="M701.1,1146.62c-1.98-.29-4,.06-6-.1a62.045,62.045,0,0,0-7.44-.62c-3.36.14-2.49,5.29.83,5.15a48.036,48.036,0,0,1,6.09.66c2,.18,4.03-.19,6,.1C703.91,1152.29,704.43,1147.1,701.1,1146.62Z" fill="none" stroke="#f3975f" stroke-miterlimit="10" stroke-width="1"/>
  </g>
  <g id="Group_78" data-name="Group 78" clip-path="url(#clip-path)">
    <path id="Path_77" data-name="Path 77" d="M724.42,1147.02c-1.33.64-3.28.57-4.75.77-.9.12-1.81.15-2.7.28-.55.08-1.8.62-2.32.42-3.15-1.17-5.04,3.7-1.88,4.87,2.3.85,4.7-.19,7.07-.36,2.14-.16,4.75-.27,6.7-1.2,3.02-1.47.92-6.24-2.12-4.78" fill="#cb6d29"/>
  </g>
  <g id="Group_79" data-name="Group 79" clip-path="url(#clip-path)">
    <path id="Path_78" data-name="Path 78" d="M724.42,1147.02c-1.33.64-3.28.57-4.75.77-.9.12-1.81.15-2.7.28-.55.08-1.8.62-2.32.42-3.15-1.17-5.04,3.7-1.88,4.87,2.3.85,4.7-.19,7.07-.36,2.14-.16,4.75-.27,6.7-1.2C729.56,1150.33,727.46,1145.56,724.42,1147.02Z" fill="none" stroke="#f3975f" stroke-miterlimit="10" stroke-width="1"/>
  </g>
  <g id="Group_80" data-name="Group 80" clip-path="url(#clip-path)">
    <path id="Path_79" data-name="Path 79" d="M712.35,1138.74a22.328,22.328,0,0,0-5.81-.76c-1.69,0-3.4.43-5.02-.16-3.16-1.14-5.05,3.73-1.88,4.87,3.53,1.27,7.22-.04,10.83.92,3.21.85,5.13-4.01,1.88-4.87" fill="#cb6d29"/>
  </g>
  <g id="Group_81" data-name="Group 81" clip-path="url(#clip-path)">
    <path id="Path_80" data-name="Path 80" d="M712.35,1138.74a22.328,22.328,0,0,0-5.81-.76c-1.69,0-3.4.43-5.02-.16-3.16-1.14-5.05,3.73-1.88,4.87,3.53,1.27,7.22-.04,10.83.92C713.68,1144.46,715.6,1139.6,712.35,1138.74Z" fill="none" stroke="#f3975f" stroke-miterlimit="10" stroke-width="1"/>
  </g>
  <g id="Group_82" data-name="Group 82" clip-path="url(#clip-path)">
    <path id="Path_81" data-name="Path 81" d="M634.86,1063.58c12.35,7.83,18.83,11.57,23.32,2.57,2.94-5.89-5.45-14.03-13.57-18.61,7.44,6.51,25.21,8.86,27.69-.65,1.27-4.86-39.15-25.5-126.07-88.02-57.66-41.47-61.62-95.37-94.36-93.69-19.56,1-14.77,45.84-9.25,65.02-4.1-18.16-46.52-24.02-47.31,29.7-.98,66.8,62.27,193.74,135.84,214.4,27.22,7.64,39.25-6.65,41.36-34.27,3.01-39.63-13.69-76.51-34.79-110.18,38.85,43.87,89.95,71.42,105.43,55.67,6.75-6.86-2.16-15.27-8.29-21.94" fill="#ab591e"/>
  </g>
  <g id="Group_83" data-name="Group 83" clip-path="url(#clip-path)">
    <path id="Path_82" data-name="Path 82" d="M649.03,1050.39c6.39,4.65,11.54,10.96,9.15,15.76-4.49,9-10.97,5.26-23.32-2.58,6.13,6.67,15.3,15.35,8.29,21.95l-.05.04c-8.89,2.01-33.21-13.6-44.25-21.58-19.02-13.76-36.05-29.92-53.83-45.18-15.2-13.04-30.59-26.02-44.33-40.62a276.708,276.708,0,0,1-30.38-39.32c-11.92-18.33-33.73-50.97-20.6-73.34a11.446,11.446,0,0,1,2.17-.34c32.74-1.68,36.71,52.22,94.36,93.69,86.92,62.52,127.34,83.16,126.07,88.02-2.07,7.95-14.8,7.61-23.28,3.5" fill="#cd762a"/>
  </g>
</svg>
