<svg version="1.1" id="Capa_1" xmlns="http://www.w3.org/2000/svg" x="0" y="0" viewBox="0 0 1984.25 1417.32" style="enable-background:new 0 0 1984.25 1417.32" xml:space="preserve"><style>.st1{fill:#f39655}.st2{fill:#c56b21}.st3{fill:#d85509}.st7{fill:#fff}.st8{fill:#ededed}.st10{fill:#b05007}.st11{fill:#be6b2c}.st12{fill:#cb6d29}.st13{stroke-width:1.038}.st13,.st14{fill:none;stroke:#f3975f;stroke-miterlimit:10}</style><path d="M781.77 882.09c5.96-13.85-36.93-24.91-66.07-42.79-29.14-17.88-110.94-84.89-130.22-84.99-8.21-.04-12.04 10.77-10.24 18.78 1.8 8.01 6.75 15.35 6.77 23.56.05 30.92-55.43 27.21-32.2 121.9 30.82 125.56 119.41 105.77 136.07 68.33 20.86-46.87-39.61-85.54-42.98-131.85 33.72 32.83 121.5 68.35 127.02 56.76 2.76-5.8-4.33-9.24-15.24-16.05 11.06.94 22.44 7.68 24.1 1.27 1.66-6.41-14.55-10.65-17-13.11 11.4 2.54 17.22 4.64 19.99-1.81" style="fill:#c96201"/><path class="st1" d="M754.68 895.74c8.69 5.42 14.94 8.71 15.73 12.75-5.86 9.03-45.76-13.53-64.94-24.06-23.26-12.77-45.39-26.26-65.36-43.92-23.18-20.5-58.22-47.71-64.68-76.53 1.34-5.28 4.79-9.7 10.04-9.67 19.28.09 101.08 67.11 130.22 84.99 29.14 17.88 72.03 28.94 66.07 42.79-2.77 6.45-8.59 4.34-19.99 1.81 2.45 2.46 18.66 6.7 17 13.11-1.65 6.41-13.02-.33-24.09-1.27"/><path class="st2" d="M1190.57 889.79c7.22-55.81 10.29-107.56 2.94-163.35 34.92-48.56 67.65-79.62 67.65-79.62l5.92-95.31s-20.89-32.39-1.87-68.23c2.03-3.82 4.06-7.84 7.6-10.32 3.54-2.48 18.26-3.62 19.73 7.22 1.91-5.41 5.77-7.05 11.49-7.37 5.73-.31 11.36 7.54 8.98 11.77.18-6.92 14.43-6.23 18.59-1.09 4.15 5.13-.82 18.03-.82 18.03s1.37 8.63 1.04 13.32c-1.5 20.84-9.04 37.53-9.04 37.53s7.45 69.07 7.89 74.17c1.49 17.05-2.59 51.64-14.14 80.08-29.4 72.39-95.68 165.68-125.96 183.17"/><path class="st1" d="M1286.25 504.65c-24.91 21.44 3.92 54.38 20.89 34.13 14.31-17.07-1.55-50.77-20.89-34.13M1283.9 493.34c6.87-4.49 2.1-17.17-3.04-15.5-7.86 2.55-8.38 22.97 3.04 15.5M1307.6 482.75c-2.23-5.97-7.58-4.46-9.85 1.34-6.19 15.79 15.13 12.77 9.85-1.34M1319.95 500.48c8.12-1.42 5.27-13.82.77-14.58-7.11-1.22-11.75 16.49-.77 14.58"/><path class="st3" d="M1216.28 455.31c-17.58-25.83-26.74-35.02-29.34-37.73-3.48-3.62 4.79 4.34 20.38-.46 7.61-2.34 17.47-9.34 31.94-3.96 14.54 5.41 13.54 14.94 9.48 23.56-5.82 12.34-20.22 15.88-32.46 18.59"/><path class="st1" d="M1234.3 420.64c-12.87-2.7-25.22 5.28-37.79 7.78 3.56 4.36 8.08 10.23 13.66 18.1 6.14-.1 12.34-.85 17.65-3.59 6.63-3.44 21.83-19.08 6.48-22.29"/><path class="st3" d="M940.7 456.98c22.8-20.34 35.39-27.57 40.32-29.89-9.55.87-5.38 7.26-24.79-2.93-5.7-2.99-27.92-27.49-43.61-6.25-5.32 7.2-.61 17.98 5.78 24.24 6.4 6.27 14.85 9.89 22.3 14.83"/><path class="st1" d="M929.94 421.14c-10 .06-5.38 12.03-1.44 16.56 3.59 4.13 7.81 7.49 12.67 10.02 2.17 1.13 4.38 2.14 6.62 3.08 6.91-5.9 12.71-10.43 17.48-13.89-3.88-1.02-7.61-2.66-11.21-4.76-7.15-4.16-15.4-11.06-24.12-11.01"/><path d="M1215.82 663.7c-3.56-26.64-14.1-56.52-11.19-81.29.23-14.72 21.61-49.28 25.28-66.42 5.3-24.72 4.15-44.99-5.92-68.09-16.5-37.84-59.68-54.42-99.63-63.3 4.41-3.39 21.75-12.68 26.16-16.07-10.92 3.22-41.09 10.23-52.29 8.17 3.19-2.14 5.91-5.42 6.3-7.03-5.5 1.71-12.5 5.28-18.26 5.39 3.5-2.19 5.36-6.37 7.13-10.1-16.75 9-34.76 8.48-52.57 14.57-91.66 9.78-124.56 84.65-114.99 137.23 7.25 39.88 24.74 51.01 34.04 90.46 2.55 10.8 4.76 21.45 6.53 32.05 2.29 32.45-3.5 64.2-9.69 97.62-12.09 65.35-73.58 186.01-98.28 222.79-20.52 30.55-218.59 25.2-308.25-65.47-52.31-52.9-79.54-144.63-64.86-252.61 1.68-9.5 3.61-19.57 4.8-28.16 6.15-29.95 15.84-61.31 29.67-93.88C373.86 644 364.77 834.75 363.39 857.75c-27.86 464.56 961.73 687.55 852.43-194.05" style="fill:#ec6608"/><path d="M1105.17 736.24c-12.23.13-24.46.56-36.68 1.31l-4.48.31c-1.6.12-3.2.25-4.81.38-3.19.27-6.38.56-9.56.88-5.78.58-11.56 1.24-17.32 2-24.14 3.18-48.08 8.03-71.35 15.26-1.45.45-2.89.61-4.3.55-9.49 103.03-72.3 190.29-95.07 223.04-16.48 23.72-166.08 31.39-277.72-43.88-85.54-57.68-145.84-207.64-79.7-386.27 1.48-3.99 3.74-9.94 6.42-15.5 2.32-4.81 1.1-5.41-2.08-2.07-245.02 257.55-99.16 653.98 258.54 674.1 352.21 19.81 460.72-310.45 445.44-511.54-37.19-3.99-69.94 41.03-107.33 41.43" style="fill:#f3975f"/><path d="M982.45 601.84c7.84 33.25.83 75.8-8.38 109.42-3.34 54.21 50.55 228.18 78.04 233.54 11.24 4.73 190.51-143.58 154.73-281.23-4.62-34.59-27.4-51.03-14.65-94.49 4.27-14.55 34.11-50.57 30.81-78.05-2.1-17.44-20.01-30.08-39.55-25.61-13.19 3.02-23.78 17.99-65.31 18.83-9.78.2-18.03-2.6-26.38-5.39-15.06-5.04-30.48-10.08-55.84 2.42-33.12 12.63-41.97-.71-66.05-8.85-17.76-6.01-47.91 5.75-30.66 50.87 10.07 26.34 39.43 53.25 43.24 78.54" style="fill:#fac075"/><path d="M1039.75 518.76c18.02 8.29 30.42 4.58 36.59-5.27 5.27-8.42 3.28-3.58 6.52 1.4 7.14 10.94 21.18 11.75 36.03 4.9.73-.34 1.11.45.56 1.11-11.07 13.06-34.03 9.47-42.36-3.4l3.51-.27c-11.16 13.89-29.16 16.22-41.9 3.25-1.04-1.1-.2-2.3 1.05-1.72"/><path class="st7" d="M1171.16 454.81c-.85 12.69-11.89 22.29-24.65 21.44-12.76-.86-22.42-11.84-21.57-24.53.85-12.69 11.89-22.29 24.65-21.43 12.76.85 22.42 11.83 21.57 24.52"/><path class="st7" d="M1171.38 454.93c-.85 12.69-11.89 22.29-24.65 21.44-12.76-.86-22.42-11.84-21.57-24.53.85-12.69 11.89-22.29 24.65-21.44 12.76.85 22.42 11.83 21.57 24.53"/><path d="M1132.74 462.61c10.78 11.7 34.69 2.88 27.96-14.69-7.11-18.57-44.86-3.64-27.96 14.69M1081.78 508.44c.34-5.05 2.4-10.06 1.63-15.11-.31-2.05-3.13-1.88-3.78-.18-2.36 6.16-2.44 25.6-1.69 25.22.46 1.87 3.12.79 3.84-9.93"/><path d="M1114.96 465.49c27.66 18.27-22.05 38.64-34.69 38.93-9.57.69-70.13-18.66-38.01-39.47 15.49-10.04 64.38-4.95 72.7.54"/><path class="st7" d="M1019.4 457.96c-.85 12.67-11.81 22.26-24.49 21.41-12.67-.85-22.26-11.81-21.41-24.49.85-12.67 11.81-22.26 24.48-21.41 12.69.85 22.27 11.81 21.42 24.49"/><path d="M986.5 445.97c-8.02 7.37-3.26 21.64 9.37 23.65 8.03 1.28 16.46-3.37 19.36-8.32 8.62-14.68-15.82-27.19-28.73-15.33"/><path class="st7" d="M1006.72 453.81c-1.44 1.1-2.49 3.11-1.64 4.71.89 1.68 3.4 1.84 5.01.83 1.16-.73 2.03-2 2.07-3.38.04-1.37-.89-2.78-2.23-3.09-1.13-.26-2.29.23-3.21.93"/><path class="st8" d="M1000.25 454.25c-.62 0-1.23-.24-1.6-.75-.12-.95.31-1.99 1.16-2.42.24-.12.5-.18.77-.18.69 0 1.39.38 1.61 1.03.15.43.08.92-.13 1.32-.35.65-1.08 1-1.81 1"/><path class="st7" d="M1136.78 450.47c-1.1-.16-2.35.07-3.07.92-.42.51-.6 1.17-.63 1.83-.07 2.1 1.77 4.15 3.87 4.1 2.1-.04 3.88-2.39 3.19-4.38-.48-1.37-1.91-2.26-3.36-2.47"/><path d="M1053.05 479.01c-2.99 0-5.57-2.91-5.47-5.9.03-.94.3-1.9.9-2.63.83-.99 2.15-1.4 3.46-1.4.32 0 .64.02.95.07 2.09.3 4.14 1.58 4.84 3.56 1 2.86-1.56 6.23-4.58 6.3h-.1" style="fill:#e9e9e8"/><path class="st8" d="M1146.59 451.54c-.07 0-.14 0-.2-.01-.79-.04-1.61-.29-2.1-.9-.85-1.06-.09-2.86 1.24-3.18.17-.04.33-.06.5-.06 1.17 0 2.31.93 2.56 2.09.08.39.08.81-.1 1.17-.33.65-1.14.89-1.9.89"/><path class="st10" d="M1001.5 418.12c-4.74-3.24-10.32-1.73-14.94 1.05-3.56 2.14-7.98 5.52-8.66 9.88-.17 1.09.59 1.98 1.5 2.42 2.83 1.38 7.34-.17 10.04-1.2 4.24-1.61 8.64.16 12.24-3.44 2.4-2.4 3-6.54-.18-8.71M1170.55 426c-2.2-8.21-16.43-16.45-23.65-9.7-1.86 1.74-2.84 5.09-.79 7.17 2.92 2.95 5.96 3.74 9.98 4.29 3.53.48 6.71 2.36 10.27 2.72 2.31.23 4.85-2.03 4.19-4.48"/><path class="st1" d="M1204.98 702.41c.45-4.37.27-8.85.37-13.24.07-2.76-4.22-4.2-5.03-1.18-.03.1-.06.21-.08.31-.03.13-.05.25-.07.37l-.01.1c-.02.16-.02.32-.01.47-.08 4.2.07 8.48-.37 12.67-.35 3.34 4.85 3.85 5.2.5M1202.78 733.7c.37-1.95.6-3.92.91-5.88.35-2.19.28-4.39.59-6.58.47-3.33-4.72-3.83-5.2-.5-.27 1.91-.15 3.84-.44 5.75-.34 2.24-.64 4.49-1.07 6.71-.62 3.3 4.58 3.78 5.21.5M1195.08 716.58c-.3-1.29.28-3.14.38-4.47.14-1.9.21-3.79.43-5.68.15-1.25-.64-2.15-1.67-2.69-.1-.06-.21-.11-.31-.17-2.14-1.13-3.68 1.09-3.28 3-.18 1.67-.27 3.35-.38 5.03-.12 1.89-.76 3.95-.34 5.82.77 3.27 5.92 2.45 5.17-.84M992.97 683.02c1.22-4.77.88-9.73 1.73-14.52.58-3.31-4.61-3.8-5.2-.5-.76 4.3-.32 8.87-1.41 13.15-.81 3.23 4.05 5.13 4.88 1.87M1000.28 648.1c1.21-5.01.86-10.28 2.04-15.33.76-3.27-4.44-3.74-5.2-.5-1.07 4.58-.62 9.45-1.72 13.97-.78 3.22 4.09 5.13 4.88 1.86M1006.82 668.48c.18-2.55.65-5.03 1.16-7.53.42-2.05.3-4.79 1.12-6.68 1.34-3.09-3.54-4.94-4.87-1.87-.81 1.86-.67 3.94-1.02 5.91-.57 3.23-1.35 6.39-1.59 9.67-.24 3.35 4.96 3.87 5.2.5M1014.29 623.66c.84-3.22-4.03-5.12-4.87-1.86-.51 1.96-.52 3.79-.33 5.8l.27 2.92c.06.62.38 1.43.14 2.02-1.31 3.1 3.57 4.96 4.87 1.87 1.42-3.37-.98-7.28-.08-10.75M998.76 607.36c-.35-1 0-2.35.09-3.37.13-1.71-.22-3.39.14-5.09.3-1.39-1.05-2.72-2.35-2.85-1.53-.15-2.55.96-2.85 2.35-.39 1.83-.03 3.7-.18 5.56-.15 1.92-.26 3.69.38 5.53 1.1 3.18 5.86 1.03 4.77-2.13"/><path class="st2" d="M1058.23 849.09c-14.28-14.8-33.19-19.39-50.02-20.25-21.6-1.51-51.86 3.37-64.59 9.82 77.69-139.91 38.38-164.52-.27-138.03-46.89 32.15-104.59 133.72-81.23 204.94 2.85 8.69 8.44 19.76 18.82 19.12 10.23-.64 63.45-30.94 86.2-42.8 6.47 5.21 15.81 13.05 18.62 15.63 13.88 12.75 43.85 20.88 52.32 14.41 8.47-6.47 7.49-15.51 1.94-19.31 4.56 3.26 11.38 2.53 14.92-3.19 3.54-5.72 2.61-11.9-2.64-14.06 6.45 2.32 22.04-9.58 5.93-26.28"/><path class="st11" d="m1037.28 505.08-.61-.23c-1.33-.51-2.86.18-3.37 1.5-.51 1.33.18 2.86 1.5 3.37l.61.23c1.33.51 2.86-.18 3.37-1.51.52-1.32-.17-2.85-1.5-3.36M1045.1 498.42c-3.14-1.2-5.01 3.67-1.87 4.87 3.14 1.21 5.01-3.67 1.87-4.87M1058.26 505.67c-.58-1.3-2.15-1.9-3.45-1.32-.28.12-.56.25-.84.38-1.3.58-1.9 2.15-1.32 3.45.58 1.3 2.15 1.9 3.45 1.32l.84-.38c1.3-.58 1.9-2.15 1.32-3.45M1104.57 505.71c-3.14-1.2-5.01 3.67-1.87 4.87 3.14 1.21 5.01-3.66 1.87-4.87M1116.16 495.48c-1.33-.51-2.86.18-3.37 1.5l-.23.61c-.51 1.33.18 2.86 1.51 3.37 1.33.51 2.86-.17 3.37-1.5l.23-.61c.51-1.32-.18-2.86-1.51-3.37M1121.2 507.89l-.61-.23c-1.33-.51-2.86.18-3.37 1.5-.51 1.33.18 2.86 1.5 3.37l.61.23c1.33.51 2.86-.18 3.37-1.5.51-1.33-.18-2.86-1.5-3.37"/><path class="st12" d="M519.89 884.07c-.07-.06-.71-1.62-1.04-2.09-.62-.87-1.2-1.7-1.72-2.64-.56-1.01-1.1-2.02-1.55-3.08-.33-.77-.41-1.53-.86-2.28-1.33-2.19-4.03-1.58-5.01.6l-.11.24c-.41.93-.01 1.96.68 2.65.17.47.3.96.49 1.42.51 1.28 1.21 2.46 1.87 3.66.53.96 1.17 1.84 1.85 2.69.63.8.58 1.82 1.4 2.59 2.52 2.37 6.53-1.39 4-3.76"/><path class="st13" d="M519.89 884.07c-.07-.06-.71-1.62-1.04-2.09-.62-.87-1.2-1.7-1.72-2.64-.56-1.01-1.1-2.02-1.55-3.08-.33-.77-.41-1.53-.86-2.28-1.33-2.19-4.03-1.58-5.01.6l-.11.24c-.41.93-.01 1.96.68 2.65.17.47.3.96.49 1.42.51 1.28 1.21 2.46 1.87 3.66.53.96 1.17 1.84 1.85 2.69.63.8.58 1.82 1.4 2.59 2.52 2.37 6.53-1.39 4-3.76z"/><path class="st12" d="M536.76 904.88c-1.92-1.1-3.29-3.03-4.66-4.72-1.37-1.7-2.72-3.92-4.54-5.12-2.9-1.91-5.77 2.78-2.88 4.68.69.46 1.26 1.71 1.79 2.36.72.87 1.49 1.69 2.2 2.57 1.48 1.84 3.13 3.74 5.2 4.92 3.02 1.71 5.91-2.97 2.89-4.69"/><path class="st13" d="M536.76 904.88c-1.92-1.1-3.29-3.03-4.66-4.72-1.37-1.7-2.72-3.92-4.54-5.12-2.9-1.91-5.77 2.78-2.88 4.68.69.46 1.26 1.71 1.79 2.36.72.87 1.49 1.69 2.2 2.57 1.48 1.84 3.13 3.74 5.2 4.92 3.02 1.71 5.91-2.97 2.89-4.69z"/><path class="st12" d="M518.26 901.62c-.79-1.58-2.11-2.77-2.99-4.3-1.09-1.9-2.23-3.55-2.85-5.69-.96-3.34-6.26-2.02-5.29 1.34.6 2.09 1.45 4.03 2.6 5.86.57.91 1.12 1.83 1.69 2.73.61.96 1.52 1.67 2.03 2.69 1.56 3.12 6.37.47 4.81-2.63"/><path class="st13" d="M518.26 901.62c-.79-1.58-2.11-2.77-2.99-4.3-1.09-1.9-2.23-3.55-2.85-5.69-.96-3.34-6.26-2.02-5.29 1.34.6 2.09 1.45 4.03 2.6 5.86.57.91 1.12 1.83 1.69 2.73.61.96 1.52 1.67 2.03 2.69 1.56 3.12 6.37.47 4.81-2.63z"/><path class="st12" d="M557.94 924.53c-.57-1.91-1.75-2.53-3.35-3.47-1.85-1.09-4.05-3.14-5.28-4.92-1.95-2.83-6.77-.22-4.81 2.64 1.18 1.72 2.58 3.11 4.14 4.48.79.7 1.61 1.36 2.43 2.02.32.27.67.5 1.03.71.79.45.81.82.54-.1 1 3.31 6.29 1.99 5.3-1.36"/><path class="st13" d="M557.94 924.53c-.57-1.91-1.75-2.53-3.35-3.47-1.85-1.09-4.05-3.14-5.28-4.92-1.95-2.83-6.77-.22-4.81 2.64 1.18 1.72 2.58 3.11 4.14 4.48.79.7 1.61 1.36 2.43 2.02.32.27.67.5 1.03.71.79.45.81.82.54-.1 1 3.31 6.29 1.99 5.3-1.36z"/><path class="st12" d="M538.76 922.15c-1.41-.87-2.64-1.9-3.86-3-.55-.49-1.1-.96-1.68-1.41-.21-.16-.82-.94-.72-.58-.87-3.38-6.16-2.05-5.29 1.34.46 1.8 1.73 2.84 3.13 3.93 1.89 1.45 3.5 3.14 5.55 4.41 2.93 1.82 5.81-2.87 2.87-4.69"/><path class="st13" d="M538.76 922.15c-1.41-.87-2.64-1.9-3.86-3-.55-.49-1.1-.96-1.68-1.41-.21-.16-.82-.94-.72-.58-.87-3.38-6.16-2.05-5.29 1.34.46 1.8 1.73 2.84 3.13 3.93 1.89 1.45 3.5 3.14 5.55 4.41 2.93 1.82 5.81-2.87 2.87-4.69z"/><path class="st12" d="M701.1 1146.62c-1.98-.29-4 .06-6-.1-2.52-.2-4.91-.72-7.44-.62-3.36.14-2.49 5.29.83 5.15 2.03-.08 4.08.48 6.09.66 2 .18 4.03-.19 6 .1 3.33.48 3.85-4.71.52-5.19"/><path class="st14" d="M701.1 1146.62c-1.98-.29-4 .06-6-.1-2.52-.2-4.91-.72-7.44-.62-3.36.14-2.49 5.29.83 5.15 2.03-.08 4.08.48 6.09.66 2 .18 4.03-.19 6 .1 3.33.48 3.85-4.71.52-5.19z"/><path class="st12" d="M724.42 1147.02c-1.33.64-3.28.57-4.75.77-.9.12-1.81.15-2.7.28-.55.08-1.8.62-2.32.42-3.15-1.17-5.04 3.7-1.88 4.87 2.3.85 4.7-.19 7.07-.36 2.14-.16 4.75-.27 6.7-1.2 3.02-1.47.92-6.24-2.12-4.78"/><path class="st14" d="M724.42 1147.02c-1.33.64-3.28.57-4.75.77-.9.12-1.81.15-2.7.28-.55.08-1.8.62-2.32.42-3.15-1.17-5.04 3.7-1.88 4.87 2.3.85 4.7-.19 7.07-.36 2.14-.16 4.75-.27 6.7-1.2 3.02-1.47.92-6.24-2.12-4.78z"/><path class="st12" d="M712.35 1138.74c-1.93-.51-3.81-.76-5.81-.76-1.69 0-3.4.43-5.02-.16-3.16-1.14-5.05 3.73-1.88 4.87 3.53 1.27 7.22-.04 10.83.92 3.21.85 5.13-4.01 1.88-4.87"/><path class="st14" d="M712.35 1138.74c-1.93-.51-3.81-.76-5.81-.76-1.69 0-3.4.43-5.02-.16-3.16-1.14-5.05 3.73-1.88 4.87 3.53 1.27 7.22-.04 10.83.92 3.21.85 5.13-4.01 1.88-4.87z"/><path d="M634.86 1063.58c12.35 7.83 18.83 11.57 23.32 2.57 2.94-5.89-5.45-14.03-13.57-18.61 7.44 6.51 25.21 8.86 27.69-.65 1.27-4.86-39.15-25.5-126.07-88.02-57.66-41.47-61.62-95.37-94.36-93.69-19.56 1-14.77 45.84-9.25 65.02-4.1-18.16-46.52-24.02-47.31 29.7-.98 66.8 62.27 193.74 135.84 214.4 27.22 7.64 39.25-6.65 41.36-34.27 3.01-39.63-13.69-76.51-34.79-110.18 38.85 43.87 89.95 71.42 105.43 55.67 6.75-6.86-2.16-15.27-8.29-21.94" style="fill:#ab591e"/><path d="M649.03 1050.39c6.39 4.65 11.54 10.96 9.15 15.76-4.49 9-10.97 5.26-23.32-2.58 6.13 6.67 15.3 15.35 8.29 21.95l-.05.04c-8.89 2.01-33.21-13.6-44.25-21.58-19.02-13.76-36.05-29.92-53.83-45.18-15.2-13.04-30.59-26.02-44.33-40.62-11.45-12.17-21.29-25.33-30.38-39.32-11.92-18.33-33.73-50.97-20.6-73.34.69-.17 1.4-.3 2.17-.34 32.74-1.68 36.71 52.22 94.36 93.69 86.92 62.52 127.34 83.16 126.07 88.02-2.07 7.95-14.8 7.61-23.28 3.5" style="fill:#cd762a"/></svg>