<?xml version="1.0" encoding="utf-8"?>
<!-- Generator: Adobe Illustrator 25.1.0, SVG Export Plug-In . SVG Version: 6.00 Build 0)  -->
<svg version="1.1" id="Capa_1" xmlns="http://www.w3.org/2000/svg" xmlns:xlink="http://www.w3.org/1999/xlink" x="0px" y="0px"
	 viewBox="0 0 1984.25 1417.32" style="enable-background:new 0 0 1984.25 1417.32;" xml:space="preserve">
<style type="text/css">
	.st0{clip-path:url(#SVGID_2_);fill:#005FA8;}
	.st1{clip-path:url(#SVGID_2_);fill:#50BAEB;}
	.st2{clip-path:url(#SVGID_2_);fill:#BDC0E2;}
	.st3{clip-path:url(#SVGID_2_);fill:#008CD0;}
	.st4{clip-path:url(#SVGID_2_);fill:#4BBECF;}
	.st5{clip-path:url(#SVGID_4_);fill:#E6007E;}
	.st6{clip-path:url(#SVGID_4_);fill:#F193BD;}
	.st7{clip-path:url(#SVGID_4_);fill:none;stroke:#F193BD;stroke-width:1.781;stroke-miterlimit:10;}
	.st8{clip-path:url(#SVGID_4_);fill:#E94190;}
	.st9{clip-path:url(#SVGID_4_);fill:#C96201;}
	.st10{clip-path:url(#SVGID_4_);fill:#F39655;}
	.st11{clip-path:url(#SVGID_4_);fill:#C56B21;}
	.st12{clip-path:url(#SVGID_4_);fill:#D85509;}
	.st13{clip-path:url(#SVGID_4_);fill:#EC6608;}
	.st14{clip-path:url(#SVGID_4_);fill:#F3975F;}
	.st15{clip-path:url(#SVGID_4_);fill:#FAC075;}
	.st16{clip-path:url(#SVGID_4_);}
	.st17{clip-path:url(#SVGID_4_);fill:#FFFFFF;}
	.st18{clip-path:url(#SVGID_4_);fill:#EDEDED;}
	.st19{clip-path:url(#SVGID_4_);fill:#E9E9E8;}
	.st20{clip-path:url(#SVGID_4_);fill:#B05007;}
	.st21{clip-path:url(#SVGID_4_);fill:#BE6B2C;}
	.st22{clip-path:url(#SVGID_4_);fill:#CB6D29;}
	.st23{clip-path:url(#SVGID_4_);fill:none;stroke:#F3975F;stroke-width:1.038;stroke-miterlimit:10;}
	.st24{clip-path:url(#SVGID_4_);fill:none;stroke:#F3975F;stroke-miterlimit:10;}
	.st25{clip-path:url(#SVGID_4_);fill:#AB591E;}
	.st26{clip-path:url(#SVGID_4_);fill:#CD762A;}
</style>
<g>
	<defs>
		<rect id="SVGID_1_" y="0" width="1984.25" height="1417.32"/>
	</defs>
	<clipPath id="SVGID_2_">
		<use xlink:href="#SVGID_1_"  style="overflow:visible;"/>
	</clipPath>
	<path class="st0" d="M3.74,584.03c0,0,443.83-73.41,576.45-76.81c98.18-2.52,178.94,18.92,250.53,40.35
		c70.39,21.07,131.9,42.15,192.38,40.46c152.98-4.27,159.15-82.32,329.5-81.01c156.19,1.2,208.79,69.7,292.06,67.62
		c45.99-1.15,227.12-88.51,347.33-88.51v931.19H3.74V584.03"/>
	<path class="st1" d="M1640.94,574.69c-75.98,0-127.59-58.28-260.12-66.68c26.45-10.62,54.18-18.12,83.58-18.12
		c5.12,0,10.28,0.23,15.5,0.7c58.66,5.36,110.8,52.92,173.32,83.14c-3.22,0.53-6.09,0.84-8.56,0.91
		C1643.41,574.68,1642.17,574.69,1640.94,574.69 M951.17,580.92c-29.22-5.91-59.35-14.85-91.17-24.49
		c39.05-6.04,44.02-12.65,72.16-16.25C937.74,555.34,944.89,566.4,951.17,580.92 M3.74,1417.32H0V526.51
		c0,0,140.1-15.09,286.55-15.09c27.46,0,55.14,0.53,82.17,1.79c25.96,1.21,51.16,3.4,75.69,6.21
		C262.98,541.15,3.74,584.03,3.74,584.03V1417.32"/>
	<path class="st2" d="M1640.94,574.69c-75.98,0-127.59-58.28-260.12-66.68c26.45-10.62,54.18-18.12,83.58-18.12
		c5.12,0,10.28,0.23,15.5,0.7c58.66,5.36,110.8,52.92,173.32,83.14c-3.22,0.53-6.09,0.84-8.56,0.91
		C1643.41,574.68,1642.17,574.69,1640.94,574.69 M951.17,580.92c-29.22-5.91-59.35-14.85-91.17-24.49
		c39.05-6.04,44.02-12.65,72.16-16.25C937.74,555.34,944.89,566.4,951.17,580.92 M3.74,1417.32H0V526.51
		c0,0,140.1-15.09,286.55-15.09c27.46,0,55.14,0.53,82.17,1.79c25.96,1.21,51.16,3.4,75.69,6.21
		C262.98,541.15,3.74,584.03,3.74,584.03V1417.32"/>
	<path class="st3" d="M785.86,976.43c-71.4,0-176.86-22.76-235.68-82.24c-52.31-52.9-79.54-144.63-64.86-252.61
		c1.68-9.5,3.61-19.57,4.79-28.16c5.53-26.94,13.93-55.03,25.62-84.1c93.93,14.95,177.79,34.24,256.2,34.24
		c10.71,0,21.31-0.36,31.83-1.14c24.59-1.83,42.51-3.88,56.22-6c31.82,9.64,61.95,18.59,91.17,24.49c3.24,7.49,6.25,15.91,8.7,26.28
		c2.55,10.8,4.77,21.45,6.53,32.04c2.29,32.45-3.5,64.2-9.69,97.63c-12.1,65.35-73.58,186.01-98.28,222.79
		C851.37,970.17,823.3,976.43,785.86,976.43 M1984.25,1417.32H3.74V584.03c0,0,259.24-42.88,440.67-64.62
		c22.34,2.56,44.11,5.64,65.37,8.96C373.44,652.82,364.74,835.29,363.39,857.75c-14.08,234.74,231.7,407.81,464.15,407.84
		c227.56,0.03,442.35-165.78,388.27-601.89c-3.56-26.64-14.1-56.52-11.19-81.29c0.02-1.28,0.2-2.71,0.51-4.26
		c2.46-0.12,4.96-0.27,7.5-0.45c52.58-3.83,106.98-45.11,168.18-69.68c132.53,8.4,184.15,66.68,260.12,66.68
		c1.23,0,2.46-0.01,3.71-0.05c2.47-0.06,5.34-0.37,8.56-0.91c15.01,7.26,30.61,13.51,47.06,17.95
		c42.99,11.6,83.24,15.96,119.47,15.96c76.46,0,135.11-19.41,164.51-31.15V1417.32"/>
	<path class="st0" d="M844.4,442.97c8.83-8.15,25.04-7.84,42.45,12.23c15.03,17.32,17.7,31.29,11.72,37.69
		c-7.13,7.64-29.05-0.16-46.35-14.26C824.71,456.22,844.4,442.97,844.4,442.97"/>
	<path class="st0" d="M1325.58,395.73c7.98,5.76,17.73,18.18-1.77,38.13c-19.51,19.95-40.35,21.38-46.11,16.45
		c-5.76-4.92-1.77-28.42,15.96-47.49C1311.39,383.76,1325.58,395.73,1325.58,395.73"/>
	<path class="st4" d="M1143.06,428.36c5.6-4.91,18.85-1.85,22.41,8.34c3.56,10.19,2.55,24.45-11.21,22.92
		c-13.75-1.53-18.34-11.21-17.32-20.89C1137.97,429.05,1143.06,428.36,1143.06,428.36"/>
	<path class="st4" d="M851.7,394.58c8.66-4.14,16.34-2.55,17.85,7.64c1.51,10.19-1.53,13.75-8.92,15.28
		c-7.4,1.53-11.47-5.18-14.02-12.52C844.06,397.64,851.7,394.58,851.7,394.58"/>
</g>
<g>
	<defs>
		<rect id="SVGID_3_" y="0" width="1984.25" height="1417.32"/>
	</defs>
	<clipPath id="SVGID_4_">
		<use xlink:href="#SVGID_3_"  style="overflow:visible;"/>
	</clipPath>
	<path class="st5" d="M1228.99,214.44l58.05,79.74c0,0,4.96,44.99-23.76,46.84c-28.71,1.85-28.42-55.04-28.42-55.04
		s-82.46,11.69-85.05-26.84C1146.27,206.62,1228.99,214.44,1228.99,214.44"/>
	<path class="st5" d="M1247.47,205.03l56.3,72.98c0,0,33.62,8.1,44.04-13.2c14.23-29.09-43.42-35.87-43.42-35.87
		s12.93-34.54,9.14-58.9c-4.32-27.71-26.24-45.29-41.37-38.21C1243.72,145.12,1247.47,205.03,1247.47,205.03"/>
	<path class="st6" d="M1179.23,162.71c-2.19,2.33,3.17,11.38,5.31,4.78C1186.68,160.89,1182.89,158.81,1179.23,162.71"/>
	<path class="st7" d="M1179.23,162.71c-2.19,2.33,3.17,11.38,5.31,4.78C1186.68,160.89,1182.89,158.81,1179.23,162.71z"/>
	<path class="st6" d="M1211.87,144.06c-4.7-0.2-7.41,6.05-2.11,5.88C1215.06,149.77,1219.08,144.37,1211.87,144.06"/>
	<path class="st7" d="M1211.87,144.06c-4.7-0.2-7.41,6.05-2.11,5.88C1215.06,149.77,1219.08,144.37,1211.87,144.06z"/>
	<path class="st6" d="M1225.47,191.83c0,0,70.9,91.29,77.19,98.5c6.29,7.22,2.05,15.89-6.24,5.54c0,0-63.59-88.33-70.14-96.9
		C1219.73,190.4,1216.13,181.12,1225.47,191.83"/>
	<path class="st7" d="M1220.71,183.05c0,0-6.05-7.4-7.75-19.29c-1.71-11.88-1.36-14.47-1.36-14.47"/>
	<path class="st7" d="M1184.54,167.49c0,0,11.85,5.05,20.16,10.34c8.31,5.29,11.17,8.53,11.17,8.53"/>
	<path class="st6" d="M1226.69,182.75c2.58,3.38,1.94,8.22-1.45,10.8c-3.38,2.58-8.22,1.94-10.8-1.44
		c-2.58-3.38-1.94-8.22,1.45-10.8C1219.27,178.73,1224.11,179.37,1226.69,182.75"/>
	<path class="st8" d="M1261.32,322.02c-3.79,0-7.53-1.7-10.01-4.95c-4.22-5.53-3.16-13.42,2.36-17.64c2.28-1.74,4.97-2.59,7.63-2.59
		c3.79,0,7.53,1.7,10.01,4.95c4.22,5.52,3.16,13.42-2.36,17.64C1266.67,321.17,1263.98,322.02,1261.32,322.02"/>
	<path class="st8" d="M1328.02,271.06c-3.79,0-7.53-1.7-10.01-4.95c-4.22-5.52-3.16-13.42,2.36-17.64c2.28-1.74,4.97-2.58,7.63-2.58
		c3.79,0,7.53,1.7,10.01,4.95c4.22,5.52,3.16,13.42-2.36,17.64C1333.37,270.22,1330.69,271.06,1328.02,271.06"/>
	<path class="st9" d="M781.77,882.09c5.96-13.85-36.93-24.91-66.07-42.79c-29.14-17.88-110.94-84.89-130.22-84.99
		c-8.21-0.04-12.04,10.77-10.24,18.78c1.8,8.01,6.75,15.35,6.77,23.56c0.05,30.92-55.43,27.21-32.2,121.9
		c30.82,125.56,119.41,105.77,136.07,68.33c20.86-46.87-39.61-85.54-42.98-131.85c33.72,32.83,121.5,68.35,127.02,56.76
		c2.76-5.8-4.33-9.24-15.24-16.05c11.06,0.94,22.44,7.68,24.1,1.27c1.66-6.41-14.55-10.65-17-13.11
		C773.18,886.44,779,888.54,781.77,882.09"/>
	<path class="st10" d="M754.68,895.74c8.69,5.42,14.94,8.71,15.73,12.75c-5.86,9.03-45.76-13.53-64.94-24.06
		c-23.26-12.77-45.39-26.26-65.36-43.92c-23.18-20.5-58.22-47.71-64.68-76.53c1.34-5.28,4.79-9.7,10.04-9.67
		c19.28,0.09,101.08,67.11,130.22,84.99c29.14,17.88,72.03,28.94,66.07,42.79c-2.77,6.45-8.59,4.34-19.99,1.81
		c2.45,2.46,18.66,6.7,17,13.11C777.12,903.42,765.75,896.68,754.68,895.74"/>
	<path class="st11" d="M1190.57,889.79c7.22-55.81,10.29-107.56,2.94-163.35c34.92-48.56,67.65-79.62,67.65-79.62l5.92-95.31
		c0,0-20.89-32.39-1.87-68.23c2.03-3.82,4.06-7.84,7.6-10.32c3.54-2.48,18.26-3.62,19.73,7.22c1.91-5.41,5.77-7.05,11.49-7.37
		c5.73-0.31,11.36,7.54,8.98,11.77c0.18-6.92,14.43-6.23,18.59-1.09c4.15,5.13-0.82,18.03-0.82,18.03s1.37,8.63,1.04,13.32
		c-1.5,20.84-9.04,37.53-9.04,37.53s7.45,69.07,7.89,74.17c1.49,17.05-2.59,51.64-14.14,80.08
		C1287.13,779.01,1220.85,872.3,1190.57,889.79"/>
	<path class="st10" d="M1286.25,504.65c-24.91,21.44,3.92,54.38,20.89,34.13C1321.45,521.71,1305.59,488.01,1286.25,504.65"/>
	<path class="st10" d="M1283.9,493.34c6.87-4.49,2.1-17.17-3.04-15.5C1273,480.39,1272.48,500.81,1283.9,493.34"/>
	<path class="st10" d="M1307.6,482.75c-2.23-5.97-7.58-4.46-9.85,1.34C1291.56,499.88,1312.88,496.86,1307.6,482.75"/>
	<path class="st10" d="M1319.95,500.48c8.12-1.42,5.27-13.82,0.77-14.58C1313.61,484.68,1308.97,502.39,1319.95,500.48"/>
	<path class="st12" d="M1216.28,455.31c-17.58-25.83-26.74-35.02-29.34-37.73c-3.48-3.62,4.79,4.34,20.38-0.46
		c7.61-2.34,17.47-9.34,31.94-3.96c14.54,5.41,13.54,14.94,9.48,23.56C1242.92,449.06,1228.52,452.6,1216.28,455.31"/>
	<path class="st10" d="M1234.3,420.64c-12.87-2.7-25.22,5.28-37.79,7.78c3.56,4.36,8.08,10.23,13.66,18.1
		c6.14-0.1,12.34-0.85,17.65-3.59C1234.45,439.49,1249.65,423.85,1234.3,420.64"/>
	<path class="st12" d="M940.7,456.98c22.8-20.34,35.39-27.57,40.32-29.89c-9.55,0.87-5.38,7.26-24.79-2.93
		c-5.7-2.99-27.92-27.49-43.61-6.25c-5.32,7.2-0.61,17.98,5.78,24.24C924.8,448.42,933.25,452.04,940.7,456.98"/>
	<path class="st10" d="M929.94,421.14c-10,0.06-5.38,12.03-1.44,16.56c3.59,4.13,7.81,7.49,12.67,10.02
		c2.17,1.13,4.38,2.14,6.62,3.08c6.91-5.9,12.71-10.43,17.48-13.89c-3.88-1.02-7.61-2.66-11.21-4.76
		C946.91,427.99,938.66,421.09,929.94,421.14"/>
	<path class="st13" d="M1215.82,663.7c-3.56-26.64-14.1-56.52-11.19-81.29c0.23-14.72,21.61-49.28,25.28-66.42
		c5.3-24.72,4.15-44.99-5.92-68.09c-16.5-37.84-59.68-54.42-99.63-63.3c4.41-3.39,21.75-12.68,26.16-16.07
		c-10.92,3.22-41.09,10.23-52.29,8.17c3.19-2.14,5.91-5.42,6.3-7.03c-5.5,1.71-12.5,5.28-18.26,5.39c3.5-2.19,5.36-6.37,7.13-10.1
		c-16.75,9-34.76,8.48-52.57,14.57c-91.66,9.78-124.56,84.65-114.99,137.23c7.25,39.88,24.74,51.01,34.04,90.46
		c2.55,10.8,4.76,21.45,6.53,32.05c2.29,32.45-3.5,64.2-9.69,97.62c-12.09,65.35-73.58,186.01-98.28,222.79
		c-20.52,30.55-218.59,25.2-308.25-65.47c-52.31-52.9-79.54-144.63-64.86-252.61c1.68-9.5,3.61-19.57,4.8-28.16
		c6.15-29.95,15.84-61.31,29.67-93.88C373.86,644,364.77,834.75,363.39,857.75C335.53,1322.31,1325.12,1545.3,1215.82,663.7"/>
	<path class="st14" d="M1105.17,736.24c-12.23,0.13-24.46,0.56-36.68,1.31c-0.59,0.04-4.06,0.28-4.48,0.31
		c-1.6,0.12-3.2,0.25-4.81,0.38c-3.19,0.27-6.38,0.56-9.56,0.88c-5.78,0.58-11.56,1.24-17.32,2c-24.14,3.18-48.08,8.03-71.35,15.26
		c-1.45,0.45-2.89,0.61-4.3,0.55c-9.49,103.03-72.3,190.29-95.07,223.04c-16.48,23.72-166.08,31.39-277.72-43.88
		c-85.54-57.68-145.84-207.64-79.7-386.27c1.48-3.99,3.74-9.94,6.42-15.5c2.32-4.81,1.1-5.41-2.08-2.07
		c-245.02,257.55-99.16,653.98,258.54,674.1c352.21,19.81,460.72-310.45,445.44-511.54
		C1175.31,690.82,1142.56,735.84,1105.17,736.24"/>
	<path class="st15" d="M982.45,601.84c7.84,33.25,0.83,75.8-8.38,109.42c-3.34,54.21,50.55,228.18,78.04,233.54
		c11.24,4.73,190.51-143.58,154.73-281.23c-4.62-34.59-27.4-51.03-14.65-94.49c4.27-14.55,34.11-50.57,30.81-78.05
		c-2.1-17.44-20.01-30.08-39.55-25.61c-13.19,3.02-23.78,17.99-65.31,18.83c-9.78,0.2-18.03-2.6-26.38-5.39
		c-15.06-5.04-30.48-10.08-55.84,2.42c-33.12,12.63-41.97-0.71-66.05-8.85c-17.76-6.01-47.91,5.75-30.66,50.87
		C949.28,549.64,978.64,576.55,982.45,601.84"/>
	<path class="st16" d="M1039.75,518.76c18.02,8.29,30.42,4.58,36.59-5.27c5.27-8.42,3.28-3.58,6.52,1.4
		c7.14,10.94,21.18,11.75,36.03,4.9c0.73-0.34,1.11,0.45,0.56,1.11c-11.07,13.06-34.03,9.47-42.36-3.4l3.51-0.27
		c-11.16,13.89-29.16,16.22-41.9,3.25C1037.66,519.38,1038.5,518.18,1039.75,518.76"/>
	<path class="st17" d="M1171.16,454.81c-0.85,12.69-11.89,22.29-24.65,21.44c-12.76-0.86-22.42-11.84-21.57-24.53
		c0.85-12.69,11.89-22.29,24.65-21.43C1162.35,431.14,1172.01,442.12,1171.16,454.81"/>
	<path class="st17" d="M1171.38,454.93c-0.85,12.69-11.89,22.29-24.65,21.44c-12.76-0.86-22.42-11.84-21.57-24.53
		c0.85-12.69,11.89-22.29,24.65-21.44C1162.57,431.25,1172.23,442.23,1171.38,454.93"/>
	<path class="st16" d="M1132.74,462.61c10.78,11.7,34.69,2.88,27.96-14.69C1153.59,429.35,1115.84,444.28,1132.74,462.61"/>
	<path class="st16" d="M1081.78,508.44c0.34-5.05,2.4-10.06,1.63-15.11c-0.31-2.05-3.13-1.88-3.78-0.18
		c-2.36,6.16-2.44,25.6-1.69,25.22C1078.4,520.24,1081.06,519.16,1081.78,508.44"/>
	<path class="st16" d="M1114.96,465.49c27.66,18.27-22.05,38.64-34.69,38.93c-9.57,0.69-70.13-18.66-38.01-39.47
		C1057.75,454.91,1106.64,460,1114.96,465.49"/>
	<path class="st17" d="M1019.4,457.96c-0.85,12.67-11.81,22.26-24.49,21.41c-12.67-0.85-22.26-11.81-21.41-24.49
		c0.85-12.67,11.81-22.26,24.48-21.41C1010.67,434.32,1020.25,445.28,1019.4,457.96"/>
	<path class="st16" d="M986.5,445.97c-8.02,7.37-3.26,21.64,9.37,23.65c8.03,1.28,16.46-3.37,19.36-8.32
		C1023.85,446.62,999.41,434.11,986.5,445.97"/>
	<path class="st17" d="M1006.72,453.81c-1.44,1.1-2.49,3.11-1.64,4.71c0.89,1.68,3.4,1.84,5.01,0.83c1.16-0.73,2.03-2,2.07-3.38
		c0.04-1.37-0.89-2.78-2.23-3.09C1008.8,452.62,1007.64,453.11,1006.72,453.81"/>
	<path class="st18" d="M1000.25,454.25c-0.62,0-1.23-0.24-1.6-0.75c-0.12-0.95,0.31-1.99,1.16-2.42c0.24-0.12,0.5-0.18,0.77-0.18
		c0.69,0,1.39,0.38,1.61,1.03c0.15,0.43,0.08,0.92-0.13,1.32C1001.71,453.9,1000.98,454.25,1000.25,454.25"/>
	<path class="st17" d="M1136.78,450.47c-1.1-0.16-2.35,0.07-3.07,0.92c-0.42,0.51-0.6,1.17-0.63,1.83c-0.07,2.1,1.77,4.15,3.87,4.1
		c2.1-0.04,3.88-2.39,3.19-4.38C1139.66,451.57,1138.23,450.68,1136.78,450.47"/>
	<path class="st19" d="M1053.05,479.01c-2.99,0-5.57-2.91-5.47-5.9c0.03-0.94,0.3-1.9,0.9-2.63c0.83-0.99,2.15-1.4,3.46-1.4
		c0.32,0,0.64,0.02,0.95,0.07c2.09,0.3,4.14,1.58,4.84,3.56c1,2.86-1.56,6.23-4.58,6.3
		C1053.11,479.01,1053.08,479.01,1053.05,479.01"/>
	<path class="st18" d="M1146.59,451.54c-0.07,0-0.14,0-0.2-0.01c-0.79-0.04-1.61-0.29-2.1-0.9c-0.85-1.06-0.09-2.86,1.24-3.18
		c0.17-0.04,0.33-0.06,0.5-0.06c1.17,0,2.31,0.93,2.56,2.09c0.08,0.39,0.08,0.81-0.1,1.17
		C1148.16,451.3,1147.35,451.54,1146.59,451.54"/>
	<path class="st20" d="M1001.5,418.12c-4.74-3.24-10.32-1.73-14.94,1.05c-3.56,2.14-7.98,5.52-8.66,9.88
		c-0.17,1.09,0.59,1.98,1.5,2.42c2.83,1.38,7.34-0.17,10.04-1.2c4.24-1.61,8.64,0.16,12.24-3.44
		C1004.08,424.43,1004.68,420.29,1001.5,418.12"/>
	<path class="st20" d="M1170.55,426c-2.2-8.21-16.43-16.45-23.65-9.7c-1.86,1.74-2.84,5.09-0.79,7.17c2.92,2.95,5.96,3.74,9.98,4.29
		c3.53,0.48,6.71,2.36,10.27,2.72C1168.67,430.71,1171.21,428.45,1170.55,426"/>
	<path class="st10" d="M1204.98,702.41c0.45-4.37,0.27-8.85,0.37-13.24c0.07-2.76-4.22-4.2-5.03-1.18c-0.03,0.1-0.06,0.21-0.08,0.31
		c-0.03,0.13-0.05,0.25-0.07,0.37l-0.01,0.1c-0.02,0.16-0.02,0.32-0.01,0.47c-0.08,4.2,0.07,8.48-0.37,12.67
		C1199.43,705.25,1204.63,705.76,1204.98,702.41"/>
	<path class="st10" d="M1202.78,733.7c0.37-1.95,0.6-3.92,0.91-5.88c0.35-2.19,0.28-4.39,0.59-6.58c0.47-3.33-4.72-3.83-5.2-0.5
		c-0.27,1.91-0.15,3.84-0.44,5.75c-0.34,2.24-0.64,4.49-1.07,6.71C1196.95,736.5,1202.15,736.98,1202.78,733.7"/>
	<path class="st10" d="M1195.08,716.58c-0.3-1.29,0.28-3.14,0.38-4.47c0.14-1.9,0.21-3.79,0.43-5.68c0.15-1.25-0.64-2.15-1.67-2.69
		c-0.1-0.06-0.21-0.11-0.31-0.17c-2.14-1.13-3.68,1.09-3.28,3c-0.18,1.67-0.27,3.35-0.38,5.03c-0.12,1.89-0.76,3.95-0.34,5.82
		C1190.68,720.69,1195.83,719.87,1195.08,716.58"/>
	<path class="st10" d="M992.97,683.02c1.22-4.77,0.88-9.73,1.73-14.52c0.58-3.31-4.61-3.8-5.2-0.5c-0.76,4.3-0.32,8.87-1.41,13.15
		C987.28,684.38,992.14,686.28,992.97,683.02"/>
	<path class="st10" d="M1000.28,648.1c1.21-5.01,0.86-10.28,2.04-15.33c0.76-3.27-4.44-3.74-5.2-0.5
		c-1.07,4.58-0.62,9.45-1.72,13.97C994.62,649.46,999.49,651.37,1000.28,648.1"/>
	<path class="st10" d="M1006.82,668.48c0.18-2.55,0.65-5.03,1.16-7.53c0.42-2.05,0.3-4.79,1.12-6.68c1.34-3.09-3.54-4.94-4.87-1.87
		c-0.81,1.86-0.67,3.94-1.02,5.91c-0.57,3.23-1.35,6.39-1.59,9.67C1001.38,671.33,1006.58,671.85,1006.82,668.48"/>
	<path class="st10" d="M1014.29,623.66c0.84-3.22-4.03-5.12-4.87-1.86c-0.51,1.96-0.52,3.79-0.33,5.8c0.09,0.97,0.18,1.95,0.27,2.92
		c0.06,0.62,0.38,1.43,0.14,2.02c-1.31,3.1,3.57,4.96,4.87,1.87C1015.79,631.04,1013.39,627.13,1014.29,623.66"/>
	<path class="st10" d="M998.76,607.36c-0.35-1,0-2.35,0.09-3.37c0.13-1.71-0.22-3.39,0.14-5.09c0.3-1.39-1.05-2.72-2.35-2.85
		c-1.53-0.15-2.55,0.96-2.85,2.35c-0.39,1.83-0.03,3.7-0.18,5.56c-0.15,1.92-0.26,3.69,0.38,5.53
		C995.09,612.67,999.85,610.52,998.76,607.36"/>
	<path class="st11" d="M1058.23,849.09c-14.28-14.8-33.19-19.39-50.02-20.25c-21.6-1.51-51.86,3.37-64.59,9.82
		c77.69-139.91,38.38-164.52-0.27-138.03c-46.89,32.15-104.59,133.72-81.23,204.94c2.85,8.69,8.44,19.76,18.82,19.12
		c10.23-0.64,63.45-30.94,86.2-42.8c6.47,5.21,15.81,13.05,18.62,15.63c13.88,12.75,43.85,20.88,52.32,14.41
		c8.47-6.47,7.49-15.51,1.94-19.31c4.56,3.26,11.38,2.53,14.92-3.19c3.54-5.72,2.61-11.9-2.64-14.06
		C1058.75,877.69,1074.34,865.79,1058.23,849.09"/>
	<path class="st21" d="M1037.28,505.08l-0.61-0.23c-1.33-0.51-2.86,0.18-3.37,1.5c-0.51,1.33,0.18,2.86,1.5,3.37l0.61,0.23
		c1.33,0.51,2.86-0.18,3.37-1.51C1039.3,507.12,1038.61,505.59,1037.28,505.08"/>
	<path class="st21" d="M1045.1,498.42c-3.14-1.2-5.01,3.67-1.87,4.87C1046.37,504.5,1048.24,499.62,1045.1,498.42"/>
	<path class="st21" d="M1058.26,505.67c-0.58-1.3-2.15-1.9-3.45-1.32c-0.28,0.12-0.56,0.25-0.84,0.38c-1.3,0.58-1.9,2.15-1.32,3.45
		c0.58,1.3,2.15,1.9,3.45,1.32l0.84-0.38C1058.24,508.54,1058.84,506.97,1058.26,505.67"/>
	<path class="st21" d="M1104.57,505.71c-3.14-1.2-5.01,3.67-1.87,4.87C1105.84,511.79,1107.71,506.92,1104.57,505.71"/>
	<path class="st21" d="M1116.16,495.48c-1.33-0.51-2.86,0.18-3.37,1.5l-0.23,0.61c-0.51,1.33,0.18,2.86,1.51,3.37
		c1.33,0.51,2.86-0.17,3.37-1.5l0.23-0.61C1118.18,497.53,1117.49,495.99,1116.16,495.48"/>
	<path class="st21" d="M1121.2,507.89l-0.61-0.23c-1.33-0.51-2.86,0.18-3.37,1.5c-0.51,1.33,0.18,2.86,1.5,3.37l0.61,0.23
		c1.33,0.51,2.86-0.18,3.37-1.5C1123.21,509.93,1122.52,508.4,1121.2,507.89"/>
	<path class="st22" d="M519.89,884.07c-0.07-0.06-0.71-1.62-1.04-2.09c-0.62-0.87-1.2-1.7-1.72-2.64c-0.56-1.01-1.1-2.02-1.55-3.08
		c-0.33-0.77-0.41-1.53-0.86-2.28c-1.33-2.19-4.03-1.58-5.01,0.6l-0.11,0.24c-0.41,0.93-0.01,1.96,0.68,2.65
		c0.17,0.47,0.3,0.96,0.49,1.42c0.51,1.28,1.21,2.46,1.87,3.66c0.53,0.96,1.17,1.84,1.85,2.69c0.63,0.8,0.58,1.82,1.4,2.59
		C518.41,890.2,522.42,886.44,519.89,884.07"/>
	<path class="st23" d="M519.89,884.07c-0.07-0.06-0.71-1.62-1.04-2.09c-0.62-0.87-1.2-1.7-1.72-2.64c-0.56-1.01-1.1-2.02-1.55-3.08
		c-0.33-0.77-0.41-1.53-0.86-2.28c-1.33-2.19-4.03-1.58-5.01,0.6l-0.11,0.24c-0.41,0.93-0.01,1.96,0.68,2.65
		c0.17,0.47,0.3,0.96,0.49,1.42c0.51,1.28,1.21,2.46,1.87,3.66c0.53,0.96,1.17,1.84,1.85,2.69c0.63,0.8,0.58,1.82,1.4,2.59
		C518.41,890.2,522.42,886.44,519.89,884.07z"/>
	<path class="st22" d="M536.76,904.88c-1.92-1.1-3.29-3.03-4.66-4.72c-1.37-1.7-2.72-3.92-4.54-5.12c-2.9-1.91-5.77,2.78-2.88,4.68
		c0.69,0.46,1.26,1.71,1.79,2.36c0.72,0.87,1.49,1.69,2.2,2.57c1.48,1.84,3.13,3.74,5.2,4.92
		C536.89,911.28,539.78,906.6,536.76,904.88"/>
	<path class="st23" d="M536.76,904.88c-1.92-1.1-3.29-3.03-4.66-4.72c-1.37-1.7-2.72-3.92-4.54-5.12c-2.9-1.91-5.77,2.78-2.88,4.68
		c0.69,0.46,1.26,1.71,1.79,2.36c0.72,0.87,1.49,1.69,2.2,2.57c1.48,1.84,3.13,3.74,5.2,4.92
		C536.89,911.28,539.78,906.6,536.76,904.88z"/>
	<path class="st22" d="M518.26,901.62c-0.79-1.58-2.11-2.77-2.99-4.3c-1.09-1.9-2.23-3.55-2.85-5.69c-0.96-3.34-6.26-2.02-5.29,1.34
		c0.6,2.09,1.45,4.03,2.6,5.86c0.57,0.91,1.12,1.83,1.69,2.73c0.61,0.96,1.52,1.67,2.03,2.69
		C515.01,907.37,519.82,904.72,518.26,901.62"/>
	<path class="st23" d="M518.26,901.62c-0.79-1.58-2.11-2.77-2.99-4.3c-1.09-1.9-2.23-3.55-2.85-5.69c-0.96-3.34-6.26-2.02-5.29,1.34
		c0.6,2.09,1.45,4.03,2.6,5.86c0.57,0.91,1.12,1.83,1.69,2.73c0.61,0.96,1.52,1.67,2.03,2.69
		C515.01,907.37,519.82,904.72,518.26,901.62z"/>
	<path class="st22" d="M557.94,924.53c-0.57-1.91-1.75-2.53-3.35-3.47c-1.85-1.09-4.05-3.14-5.28-4.92
		c-1.95-2.83-6.77-0.22-4.81,2.64c1.18,1.72,2.58,3.11,4.14,4.48c0.79,0.7,1.61,1.36,2.43,2.02c0.32,0.27,0.67,0.5,1.03,0.71
		c0.79,0.45,0.81,0.82,0.54-0.1C553.64,929.2,558.93,927.88,557.94,924.53"/>
	<path class="st23" d="M557.94,924.53c-0.57-1.91-1.75-2.53-3.35-3.47c-1.85-1.09-4.05-3.14-5.28-4.92
		c-1.95-2.83-6.77-0.22-4.81,2.64c1.18,1.72,2.58,3.11,4.14,4.48c0.79,0.7,1.61,1.36,2.43,2.02c0.32,0.27,0.67,0.5,1.03,0.71
		c0.79,0.45,0.81,0.82,0.54-0.1C553.64,929.2,558.93,927.88,557.94,924.53z"/>
	<path class="st22" d="M538.76,922.15c-1.41-0.87-2.64-1.9-3.86-3c-0.55-0.49-1.1-0.96-1.68-1.41c-0.21-0.16-0.82-0.94-0.72-0.58
		c-0.87-3.38-6.16-2.05-5.29,1.34c0.46,1.8,1.73,2.84,3.13,3.93c1.89,1.45,3.5,3.14,5.55,4.41
		C538.82,928.66,541.7,923.97,538.76,922.15"/>
	<path class="st23" d="M538.76,922.15c-1.41-0.87-2.64-1.9-3.86-3c-0.55-0.49-1.1-0.96-1.68-1.41c-0.21-0.16-0.82-0.94-0.72-0.58
		c-0.87-3.38-6.16-2.05-5.29,1.34c0.46,1.8,1.73,2.84,3.13,3.93c1.89,1.45,3.5,3.14,5.55,4.41
		C538.82,928.66,541.7,923.97,538.76,922.15z"/>
	<path class="st22" d="M701.1,1146.62c-1.98-0.29-4,0.06-6-0.1c-2.52-0.2-4.91-0.72-7.44-0.62c-3.36,0.14-2.49,5.29,0.83,5.15
		c2.03-0.08,4.08,0.48,6.09,0.66c2,0.18,4.03-0.19,6,0.1C703.91,1152.29,704.43,1147.1,701.1,1146.62"/>
	<path class="st24" d="M701.1,1146.62c-1.98-0.29-4,0.06-6-0.1c-2.52-0.2-4.91-0.72-7.44-0.62c-3.36,0.14-2.49,5.29,0.83,5.15
		c2.03-0.08,4.08,0.48,6.09,0.66c2,0.18,4.03-0.19,6,0.1C703.91,1152.29,704.43,1147.1,701.1,1146.62z"/>
	<path class="st22" d="M724.42,1147.02c-1.33,0.64-3.28,0.57-4.75,0.77c-0.9,0.12-1.81,0.15-2.7,0.28c-0.55,0.08-1.8,0.62-2.32,0.42
		c-3.15-1.17-5.04,3.7-1.88,4.87c2.3,0.85,4.7-0.19,7.07-0.36c2.14-0.16,4.75-0.27,6.7-1.2
		C729.56,1150.33,727.46,1145.56,724.42,1147.02"/>
	<path class="st24" d="M724.42,1147.02c-1.33,0.64-3.28,0.57-4.75,0.77c-0.9,0.12-1.81,0.15-2.7,0.28c-0.55,0.08-1.8,0.62-2.32,0.42
		c-3.15-1.17-5.04,3.7-1.88,4.87c2.3,0.85,4.7-0.19,7.07-0.36c2.14-0.16,4.75-0.27,6.7-1.2
		C729.56,1150.33,727.46,1145.56,724.42,1147.02z"/>
	<path class="st22" d="M712.35,1138.74c-1.93-0.51-3.81-0.76-5.81-0.76c-1.69,0-3.4,0.43-5.02-0.16c-3.16-1.14-5.05,3.73-1.88,4.87
		c3.53,1.27,7.22-0.04,10.83,0.92C713.68,1144.46,715.6,1139.6,712.35,1138.74"/>
	<path class="st24" d="M712.35,1138.74c-1.93-0.51-3.81-0.76-5.81-0.76c-1.69,0-3.4,0.43-5.02-0.16c-3.16-1.14-5.05,3.73-1.88,4.87
		c3.53,1.27,7.22-0.04,10.83,0.92C713.68,1144.46,715.6,1139.6,712.35,1138.74z"/>
	<path class="st25" d="M634.86,1063.58c12.35,7.83,18.83,11.57,23.32,2.57c2.94-5.89-5.45-14.03-13.57-18.61
		c7.44,6.51,25.21,8.86,27.69-0.65c1.27-4.86-39.15-25.5-126.07-88.02c-57.66-41.47-61.62-95.37-94.36-93.69
		c-19.56,1-14.77,45.84-9.25,65.02c-4.1-18.16-46.52-24.02-47.31,29.7c-0.98,66.8,62.27,193.74,135.84,214.4
		c27.22,7.64,39.25-6.65,41.36-34.27c3.01-39.63-13.69-76.51-34.79-110.18c38.85,43.87,89.95,71.42,105.43,55.67
		C649.9,1078.66,640.99,1070.25,634.86,1063.58"/>
	<path class="st26" d="M649.03,1050.39c6.39,4.65,11.54,10.96,9.15,15.76c-4.49,9-10.97,5.26-23.32-2.58
		c6.13,6.67,15.3,15.35,8.29,21.95l-0.05,0.04c-8.89,2.01-33.21-13.6-44.25-21.58c-19.02-13.76-36.05-29.92-53.83-45.18
		c-15.2-13.04-30.59-26.02-44.33-40.62c-11.45-12.17-21.29-25.33-30.38-39.32c-11.92-18.33-33.73-50.97-20.6-73.34
		c0.69-0.17,1.4-0.3,2.17-0.34c32.74-1.68,36.71,52.22,94.36,93.69c86.92,62.52,127.34,83.16,126.07,88.02
		C670.24,1054.84,657.51,1054.5,649.03,1050.39"/>
</g>
</svg>
