<?xml version="1.0" encoding="utf-8"?>
<!-- Generator: Adobe Illustrator 25.1.0, SVG Export Plug-In . SVG Version: 6.00 Build 0)  -->
<svg version="1.1" id="Capa_1" xmlns="http://www.w3.org/2000/svg" xmlns:xlink="http://www.w3.org/1999/xlink" x="0px" y="0px"
	 viewBox="0 0 1984.25 1417.32" style="enable-background:new 0 0 1984.25 1417.32;" xml:space="preserve">
<style type="text/css">
	.st0{fill:#0F4496;}
	.st1{clip-path:url(#SVGID_2_);fill:#E6007E;}
	.st2{clip-path:url(#SVGID_2_);fill:#EA90B0;}
	.st3{clip-path:url(#SVGID_2_);fill:none;stroke:#EA90B0;stroke-width:1.781;stroke-miterlimit:10;}
	.st4{clip-path:url(#SVGID_2_);fill:#E7418D;}
	.st5{clip-path:url(#SVGID_4_);fill-rule:evenodd;clip-rule:evenodd;fill:#76B82A;}
	.st6{clip-path:url(#SVGID_4_);fill-rule:evenodd;clip-rule:evenodd;fill:#009982;}
	.st7{clip-path:url(#SVGID_4_);fill:#00A754;}
	.st8{clip-path:url(#SVGID_4_);fill:#009870;}
	.st9{clip-path:url(#SVGID_4_);fill:#009746;}
	.st10{clip-path:url(#SVGID_4_);fill-rule:evenodd;clip-rule:evenodd;fill:#007E94;}
	.st11{clip-path:url(#SVGID_4_);fill-rule:evenodd;clip-rule:evenodd;fill:#00B2BB;}
	.st12{clip-path:url(#SVGID_4_);fill-rule:evenodd;clip-rule:evenodd;fill:#00A255;}
	.st13{clip-path:url(#SVGID_6_);fill:#E6007E;}
	.st14{clip-path:url(#SVGID_6_);fill:#562F27;}
	.st15{clip-path:url(#SVGID_6_);fill:#995745;}
	.st16{clip-path:url(#SVGID_8_);fill:url(#SVGID_9_);}
	.st17{clip-path:url(#SVGID_11_);fill:#8F98CC;}
	.st18{clip-path:url(#SVGID_13_);fill:url(#SVGID_14_);}
	.st19{clip-path:url(#SVGID_16_);fill:url(#SVGID_17_);}
	.st20{clip-path:url(#SVGID_19_);fill:#8F98CC;}
	.st21{clip-path:url(#SVGID_21_);fill:url(#SVGID_22_);}
	.st22{clip-path:url(#SVGID_24_);fill:url(#SVGID_25_);}
	
		.st23{clip-path:url(#SVGID_27_);fill:none;stroke:#000000;stroke-width:3.852;stroke-linecap:round;stroke-linejoin:round;stroke-miterlimit:10;}
	.st24{clip-path:url(#SVGID_29_);fill:#C3998A;}
	.st25{clip-path:url(#SVGID_29_);fill:#995745;}
	.st26{clip-path:url(#SVGID_29_);fill:#D5AB9C;}
	.st27{clip-path:url(#SVGID_29_);fill:#562F27;}
	.st28{clip-path:url(#SVGID_31_);fill:url(#SVGID_32_);}
	.st29{clip-path:url(#SVGID_34_);}
	.st30{clip-path:url(#SVGID_34_);fill:#FFFFFF;}
	.st31{clip-path:url(#SVGID_34_);fill:#EDEDED;}
	.st32{clip-path:url(#SVGID_34_);fill:#B2705C;}
	
		.st33{clip-path:url(#SVGID_34_);fill:none;stroke:#000000;stroke-width:7.232;stroke-linecap:round;stroke-linejoin:round;stroke-miterlimit:10;}
</style>
<rect y="1.41" class="st0" width="1984.25" height="1415.91"/>
<g>
	<defs>
		<rect id="SVGID_1_" y="0" width="1984.25" height="1417.32"/>
	</defs>
	<clipPath id="SVGID_2_">
		<use xlink:href="#SVGID_1_"  style="overflow:visible;"/>
	</clipPath>
	<path class="st1" d="M1142.25,169.6l58.05,79.75c0,0,4.96,44.99-23.76,46.83c-28.71,1.85-28.42-55.04-28.42-55.04
		s-82.46,11.69-85.05-26.84C1059.53,161.78,1142.25,169.6,1142.25,169.6"/>
	<path class="st1" d="M1160.73,160.2l56.3,72.98c0,0,33.62,8.1,44.04-13.2c14.23-29.09-43.42-35.87-43.42-35.87
		s12.93-34.54,9.14-58.9c-4.32-27.71-26.24-45.29-41.37-38.21C1156.99,100.29,1160.73,160.2,1160.73,160.2"/>
	<path class="st2" d="M1092.5,117.87c-2.19,2.33,3.17,11.38,5.31,4.78C1099.95,116.05,1096.15,113.98,1092.5,117.87"/>
	<path class="st3" d="M1092.5,117.87c-2.19,2.33,3.17,11.38,5.31,4.78C1099.95,116.05,1096.15,113.98,1092.5,117.87z"/>
	<path class="st2" d="M1125.13,99.23c-4.7-0.2-7.41,6.05-2.11,5.88C1128.33,104.93,1132.35,99.53,1125.13,99.23"/>
	<path class="st3" d="M1125.13,99.23c-4.7-0.2-7.41,6.05-2.11,5.88C1128.33,104.93,1132.35,99.53,1125.13,99.23z"/>
	<path class="st2" d="M1138.74,146.99c0,0,70.89,91.29,77.18,98.5c6.29,7.22,2.05,15.89-6.24,5.54c0,0-63.59-88.33-70.14-96.9
		C1133,145.56,1129.4,136.28,1138.74,146.99"/>
	<path class="st3" d="M1133.98,138.22c0,0-6.05-7.4-7.75-19.29c-1.71-11.88-1.36-14.47-1.36-14.47"/>
	<path class="st3" d="M1097.81,122.65c0,0,11.85,5.05,20.15,10.34c8.31,5.29,11.17,8.53,11.17,8.53"/>
	<path class="st2" d="M1139.96,137.92c2.58,3.38,1.94,8.22-1.45,10.8c-3.38,2.58-8.22,1.94-10.8-1.45
		c-2.58-3.38-1.94-8.22,1.45-10.8C1132.54,133.89,1137.37,134.54,1139.96,137.92"/>
	<path class="st4" d="M1174.59,277.18c-3.79,0-7.54-1.7-10.01-4.95c-4.22-5.52-3.16-13.42,2.36-17.64c2.28-1.74,4.97-2.58,7.63-2.58
		c3.79,0,7.53,1.7,10.01,4.95c4.22,5.52,3.16,13.42-2.36,17.64C1179.94,276.33,1177.25,277.18,1174.59,277.18"/>
	<path class="st4" d="M1241.29,226.23c-3.79,0-7.54-1.7-10.01-4.95c-4.22-5.52-3.16-13.42,2.36-17.64c2.28-1.74,4.97-2.58,7.63-2.58
		c3.79,0,7.54,1.7,10.01,4.95c4.22,5.52,3.16,13.42-2.36,17.64C1246.64,225.38,1243.95,226.23,1241.29,226.23"/>
</g>
<g>
	<defs>
		<rect id="SVGID_3_" y="1.41" width="1984.25" height="954.67"/>
	</defs>
	<clipPath id="SVGID_4_">
		<use xlink:href="#SVGID_3_"  style="overflow:visible;"/>
	</clipPath>
	<path class="st5" d="M460.75,538.19c0,0,18.41,7.67,50.46-2.89c32.04-10.6,106.56-63.13,106.56-63.13s-18.56-0.8-43.51,8.89
		c-24.97,9.74-60.63,36.71-96.52,36.91c-12.99,0.06-18.82,11.94-18.82,11.94L460.75,538.19z"/>
	<path class="st5" d="M442.67,611.51c0,0,14.92,7.04,43.34-0.93c28.4-7.98,99.19-49.38,99.19-49.38s-16.75-1.48-38.8,6.02
		c-22.09,7.51-74.46,25.42-85.36,28.47c-10.94,3.06-18.83,10.96-18.83,10.96L442.67,611.51z"/>
	<path class="st5" d="M434.16,672.54c0,0,12.39,7.51,37.91,3.1c25.48-4.41,90.98-34.19,90.98-34.19s-14.48-2.8-34.41,1.78
		c-19.94,4.57-67.25,15.46-77.04,17.15c-9.81,1.7-22.39,7.41-22.39,7.41L434.16,672.54z"/>
	<path class="st5" d="M525.99,460.41c20.55-15.82,66.27-73.38,66.27-73.38s-13.67,4.16-29.3,17.55
		c-15.62,13.41-52.65,45.28-60.55,51.37c-7.91,6.09-16.69,17.13-16.69,17.13S505.44,476.26,525.99,460.41"/>
	<path class="st5" d="M446.5,519.75c0,0-18.48,9.71-44.47-3.46c-25.98-13.18-81.11-73.28-81.11-73.28s15.99,1.7,36.04,13.23
		c20.06,11.54,47,39.2,77.64,44.02c11.07,1.72,14.52,12.62,14.52,12.62L446.5,519.75z"/>
	<path class="st5" d="M439.81,595.98c0,0-19.79,7.02-48.85-6.11c-29.06-13.13-95.29-70.76-95.29-70.76s18.12,1.12,40.48,12.71
		c22.35,11.63,75.42,39.21,86.6,44.27c11.17,5.06,18.34,14.75,18.34,14.75L439.81,595.98z"/>
	<path class="st5" d="M429.89,666.1c0,0-16.47,6.83-46.72-3.26c-30.26-10.08-104.52-58.47-104.52-58.47s18.16-0.74,41.58,8.52
		c23.43,9.24,79.03,31.26,90.66,35.13c11.64,3.88,25.89,13.18,25.89,13.18L429.89,666.1z"/>
	<path class="st5" d="M462.93,752.33c0,0-15.48,5.46-46.87-0.12c-43.92-7.84-103.07-61.84-103.07-61.84s16.38,4.06,43.35,18.32
		c22.31,11.81,74.54,23.8,86.44,26.91c11.87,3.1,26.7,11.4,26.7,11.4L462.93,752.33z"/>
	<path class="st5" d="M474.83,471.2c0,0-10.04,0.22-30.18-20.86c-20.14-21.07-61.26-92.73-61.26-92.73s14.48,6.95,29.58,24.45
		c15.1,17.53,48.9,54.89,53.89,64.93C473.16,459.65,474.83,471.2,474.83,471.2"/>
	<path class="st5" d="M482.37,496.58c0,0,16.17,8.52,42.95-3.02c26.75-11.52,83.54-63.63,83.54-63.63s-17.74,0.49-37.65,12.29
		c-21.05,12.44-25.42,20.98-62.52,31.28c-22.25,6.19-34.38,18.64-34.38,18.64L482.37,496.58z"/>
	<path class="st5" d="M453.73,578.31c0,0,9.77,4.9,37.46-4.25c27.67-9.1,110.73-47.59,110.73-47.59s-31.3-10.35-50.72,2.19
		c-24.12,15.6-72.74,28.34-83.38,31.87c-10.68,3.52-15.09,10.21-15.09,10.21L453.73,578.31z"/>
	<path class="st5" d="M438,643.14c0,0,14.65,12.97,43.04,5.03c28.43-8,99.48-55.32,99.48-55.32s-16.76-1.48-38.82,6.02
		c-22.06,7.51-74.42,25.4-85.35,28.47c-10.92,3.06-21.56,9.36-21.56,9.36L438,643.14z"/>
	<path class="st5" d="M418.47,482.39c-24.74-15.45-67.67-82.28-67.67-82.28s11.59,4.95,30.54,18.2
		c18.96,13.26,63.95,44.77,73.46,50.7c9.52,5.95,15.35,22.71,15.35,22.71S443.21,497.8,418.47,482.39"/>
	<path class="st5" d="M447.65,566c0,0-12.2,8.81-38.19-4.39c-18.01-9.11-14.95-12.46-100.56-69.14c0,0,32.49-5.5,49.81,9.84
		c21.52,19,67.67,38.92,77.63,44.02c10.01,5.04,13.4,12.36,13.4,12.36L447.65,566z"/>
	<path class="st5" d="M432.56,630.35c0,0-17.87,9.51-46.92-3.63c-29.07-13.12-97.23-73.28-97.23-73.28s18.13,1.14,40.5,12.71
		c22.38,11.62,75.41,39.23,86.58,44.25c11.17,5.08,21.52,13.55,21.52,13.55L432.56,630.35z"/>
	<path class="st5" d="M436.26,703.64c0,0-15.99,7.92-46.86-0.12c-30.85-8.05-108.2-51.39-108.2-51.39s18.12-1.95,42.1,5.72
		c24.01,7.67,80.94,25.97,92.79,29.02c11.86,3.12,26.72,11.43,26.72,11.43L436.26,703.64z"/>
	<path class="st5" d="M480.44,444.49c0,0-16.48-15.79-24.74-46.35c-8.26-30.54-15.13-72.15-15.13-72.15l-0.6-10.01
		c0,0,11.1,16.11,18.29,34.11c7.19,17.99,15.88,41.88,20.03,61.11c4.2,19.2,5.77,36.29,5.77,36.29L480.44,444.49z"/>
	<path class="st5" d="M490.52,447.92c0,0,12.69-23.56,24.27-39.67c11.57-16.11,18.69-24.44,30.29-32.66
		c11.58-8.19,23.99-12.34,23.99-12.34s-2.22,6.84-10.48,18.38c-8.24,11.53-17.25,26.94-30.46,39.22
		c-13.2,12.31-28.3,22.21-31.76,25.6c-3.47,3.39-9.22,7.19-9.22,7.19L490.52,447.92z"/>
	<path class="st5" d="M505.91,375.63c1.83-25.67,1.21-51.42,4.93-76.99c0.42-2.82-3.41-3.3-4.22-0.74
		c-0.22,0.69-0.42,1.36-0.65,2.04l-0.07,0.07c-4.26,10.15-9.29,19.89-12.65,30.42c-3.65,11.63-5.65,23.81-7.71,35.82
		c-0.84,4.84-3.93,18.34-3.04,28.7c0.1,14.3,2.91,29.08,6.36,41.29c0.61,2.2,3.48,1.51,4.01-0.36c3.17-11.83,7.76-23.28,9.88-35.41
		c0.26-1.47,0.36-2.97,0.53-4.47C505.38,388.4,505.64,379.37,505.91,375.63"/>
	<path class="st6" d="M1636.91,660.72c0,0-16.32-21.84-12.71-67.4c3.65-45.56,49.48-160.32,49.48-160.32s7.17,24.2,2.4,60.13
		c-4.83,35.97-29.21,91.47-17.68,138.81c4.19,17.13-9.79,28.56-9.79,28.56L1636.91,660.72z"/>
	<path class="st6" d="M1544.72,707.68c0,0-14.33-17.43-13-57.4c1.36-39.93,33.5-146.27,33.5-146.27s7.49,21.6,4.69,53.02
		c-2.8,31.48-9.55,106.13-10.05,121.45c-0.5,15.38-8.48,28.27-8.48,28.27L1544.72,707.68"/>
	<path class="st6" d="M1465.82,738.17c0,0-14.13-13.95-16.61-48.97c-2.47-34.97,15.86-130.65,15.86-130.65s8.5,18.2,8.93,45.89
		c0.44,27.71,1.41,93.48,2.37,106.92c0.95,13.47-2.56,31.83-2.56,31.83L1465.82,738.17"/>
	<path class="st6" d="M1719.57,550.22c14.43-32.07,76.43-110.47,76.43-110.47s-1.07,19.32-13.85,44.15
		c-12.82,24.82-43.3,83.67-48.86,96c-5.54,12.35-17.44,27.39-17.44,27.39S1705.12,582.29,1719.57,550.22"/>
	<path class="st6" d="M1666.28,673.68c0,0-6.93,27.42,19.24,57.5c26.17,30.07,124.73,83.73,124.73,83.73s-7.53-20.53-29.55-43.31
		c-22.04-22.79-67.91-49.56-84.44-88.4c-5.94-14.04-21.66-15.15-21.66-15.15L1666.28,673.68z"/>
	<path class="st6" d="M1566.44,706.55c0,0-2.9,28.29,24.23,62.43c27.12,34.14,126.03,103.21,126.03,103.21s-7.45-23.52-30.32-49.33
		c-22.91-25.77-77.27-86.99-87.71-100.12c-10.44-13.12-25.77-19.5-25.77-19.5L1566.44,706.55"/>
	<path class="st6" d="M1475.85,741.75c0,0-3.73,23.86,19.71,60.53c23.43,36.69,112.6,119.25,112.6,119.25s-4.98-24.15-25.07-52.1
		c-20.07-27.95-67.81-94.26-76.82-108.36c-9.02-14.1-26.15-29.95-26.15-29.95L1475.85,741.75"/>
	<path class="st6" d="M1349.57,725.44c0,0-2.23,22.12,15.56,61.72c24.92,55.4,116.65,116.28,116.65,116.28s-10.82-20.29-38.77-51.33
		c-23.14-25.66-56.35-90.7-64.42-105.39c-8.05-14.66-24.04-31.58-24.04-31.58L1349.57,725.44z"/>
	<path class="st6" d="M1721.94,621.03c0,0,3,13.29,37.83,33.17c34.83,19.89,144.25,51.44,144.25,51.44s-14.05-16.88-42.45-31.25
		c-28.43-14.36-89.54-47.1-104.61-50.5C1737.95,619.58,1721.94,621.03,1721.94,621.03"/>
	<path class="st6" d="M1685.5,619.1c0,0-16.71-18.62-10.07-57.54c6.63-38.88,57.71-130.15,57.71-130.15s5.17,23.53-4.07,53.49
		c-9.73,31.66-19.73,40.11-21.32,92.25c-0.97,31.26-13.65,51.17-13.65,51.17L1685.5,619.1z"/>
	<path class="st6" d="M1585.51,682.63c0,0-9.77-11.32-6.62-50.69c3.09-39.33,27.3-160.92,27.3-160.92s24.14,37.97,13.73,67.51
		c-12.95,36.7-14.03,104.78-15.26,119.92c-1.19,15.18-8.71,23.11-8.71,23.11L1585.51,682.63"/>
	<path class="st6" d="M1503.92,723.81c0,0-22.18-15.21-20.87-55.12c1.37-39.98,41.35-148.52,41.35-148.52s7.48,21.61,4.7,53.05
		c-2.8,31.44-9.54,106.07-10.06,121.43c-0.51,15.35-5.44,31.36-5.44,31.36L1503.92,723.81"/>
	<path class="st6" d="M1725.49,698.81c28.81,27.72,132.36,63.19,132.36,63.19s-10.43-13.71-34.39-34.5
		c-23.98-20.8-80.94-70.13-92-80.78c-11.09-10.67-35.45-13.05-35.45-13.05S1696.73,671.08,1725.49,698.81"/>
	<path class="st6" d="M1603.99,686.75c0,0-7.79,18.86,18.42,48.93c18.11,20.85,21.59,15.77,125.59,110.67
		c0,0-3.31-44.54-29.54-62.53c-32.5-22.36-74.33-76.87-84.42-88.39c-10.04-11.6-20.94-13.76-20.94-13.76L1603.99,686.75"/>
	<path class="st6" d="M1522.82,726.96c0,0-6.86,26.54,20.28,60.67c27.12,34.16,130.03,104.98,130.03,104.98s-7.49-23.53-30.32-49.35
		c-22.91-25.82-77.29-86.97-87.68-100.11c-10.48-13.12-25.21-24.08-25.21-24.08L1522.82,726.96"/>
	<path class="st6" d="M1423.5,745.2c0,0-5.35,23.57,15.56,61.7c20.92,38.1,104.34,126.33,104.34,126.33s-3.34-24.49-21.49-53.65
		c-18.16-29.21-61.35-98.44-69.34-113.09c-8.08-14.64-24.07-31.6-24.07-31.6L1423.5,745.2"/>
	<path class="st6" d="M1755.85,605.21c0,0,26.55,16.73,70.16,17.96c43.59,1.24,101.55-2.84,101.55-2.84l13.59-2.37
		c0,0-25.21-9.55-51.67-13.34c-26.45-3.8-61.27-7.7-88.38-7.1c-27.08,0.53-50.48,3.85-50.48,3.85L1755.85,605.21z"/>
	<path class="st6" d="M1747.94,593.01c0,0,27.36-24.16,45.12-44.5c17.76-20.33,26.58-32.33,33.76-50.22
		c7.15-17.83,8.64-35.5,8.64-35.5s-8.43,5.09-21.16,19.61c-12.73,14.49-30.39,31.23-42.49,52.52
		c-12.13,21.28-20.42,44.29-23.83,49.92c-3.4,5.64-6.59,14.42-6.59,14.42L1747.94,593.01z"/>
	<path class="st6" d="M1839.64,549.92c33.76-10.52,68.42-17.83,101.43-30.8c3.64-1.44,5.53,3.46,2.38,5.33
		c-0.86,0.51-1.69,0.99-2.52,1.5l-0.07,0.12c-12.19,8.81-23.57,18.52-36.56,26.26c-14.36,8.48-30.01,14.97-45.41,21.47
		c-6.21,2.63-23.26,10.96-37.41,13.06c-19.17,4.39-39.87,5.35-57.35,4.65c-3.14-0.12-3.16-4.11-0.84-5.4
		c14.8-7.91,28.61-17.57,44.15-24.2c1.89-0.81,3.86-1.41,5.81-2.1C1822.72,554.64,1834.72,551.44,1839.64,549.92"/>
	<path class="st7" d="M1267.89,1001.6c0,0,16.95-132.89,154.36-267.56c60.75-59.54,137.41-86.83,137.41-86.83l13.48,31.83
		l13.63-47.08c0,0,52.64-20.94,139.45-35.27c63.36-10.46,98.54-3.52,98.54-3.52s-47.9,139.78-133.38,241.78
		c-85.47,102-133.43,148.18-133.43,148.18l-24.9-26.03l-10.73,41.45c0,0-51.5,16.97-127.3,19.28
		C1319.23,1020.13,1267.89,1001.6,1267.89,1001.6"/>
	<path class="st8" d="M1792.4,610.46c-0.06,0.03-54.18,30.34-124.39,76.89c-70.22,46.56-156.52,109.31-221.05,174.44
		c-1.5,1.51-1.48,3.95,0.03,5.45c1.51,1.5,3.95,1.48,5.44-0.03c63.86-64.47,149.85-127.06,219.83-173.44
		c34.99-23.2,65.98-42.35,88.22-55.7c11.12-6.68,20.05-11.9,26.19-15.46c3.07-1.78,5.45-3.14,7.06-4.05c0.8-0.46,1.42-0.8,1.82-1.03
		c0.41-0.23,0.61-0.34,0.61-0.35c1.86-1.04,2.52-3.38,1.48-5.24C1796.6,610.08,1794.25,609.42,1792.4,610.46"/>
	<path class="st9" d="M1232.59,1044.8c0,0-39.79-210.75,37.8-373.78c54.43-114.37,113.34-162.1,113.34-162.1l33.44,11.93
		l-10.67-33.07c0,0,25.73-23.22,63.68-46.89c37.95-23.68,48.08-27.1,48.08-27.1l15,18.23l12.33-30.77c0,0,41.41-18.74,108.53-40.76
		c67.12-22.03,119.27-32.81,119.27-32.81s-91.47,180.67-118.45,235.73c-26.98,55.06-106.41,171.98-139.73,213.8
		c-33.33,41.82-30.17,33.7-30.17,33.7l-37.89-16.17l16.26,35.78c0,0-38.55,61.7-109.23,123.83
		C1283.48,1016.46,1232.59,1044.8,1232.59,1044.8"/>
	<path class="st8" d="M1736.25,351.24c-0.06,0.04-30.51,20.11-72.23,52.43c-41.72,32.33-94.71,76.89-139.91,126.01
		c-45.18,49.12-84.69,104.75-112.93,148.13c-28.24,43.38-45.21,74.5-45.24,74.56c-1.02,1.87-0.33,4.21,1.54,5.22
		c1.87,1.02,4.2,0.33,5.22-1.54c0,0,0.06-0.11,0.19-0.35c1.99-3.62,19.53-35.26,47.41-77.78c27.88-42.52,66.13-95.92,109.47-143.03
		c44.73-48.63,97.45-92.98,138.96-125.14c20.75-16.08,38.7-29.11,51.46-38.12c6.38-4.5,11.46-8,14.94-10.37
		c1.74-1.18,3.08-2.09,3.98-2.69c0.45-0.3,0.8-0.53,1.02-0.68c0.23-0.15,0.34-0.22,0.34-0.22c1.78-1.17,2.27-3.56,1.09-5.33
		C1740.41,350.56,1738.02,350.07,1736.25,351.24"/>
	<path class="st10" d="M1512.96,298.68c0,0-50.37,28.31-50.98,56.05c-0.61,27.73,16.31,55.76,16.31,55.76s37.63-22.22,41.11-53.83
		C1522.88,325.04,1512.96,298.68,1512.96,298.68"/>
	<path class="st6" d="M1379.07,371.45c0,0,25.76,51.73,53.42,53.72c27.67,2,56.51-13.49,56.51-13.49s-20.31-38.69-51.71-43.76
		C1405.9,362.86,1379.07,371.45,1379.07,371.45"/>
	<path class="st11" d="M367.53-91.05c0,0-233.44,50.75-209.01,147.23c25.36,100.19,161.43,88.61,157.27,68.81
		c0,0-2.11,63.22,53.06,82.37c57.75,20.04,114.37-35.5,114.37-35.5c-12.15,2.59,70.21,113.65,144.6,85.45
		c74.39-28.2,74.93-130.14,74.93-130.14s71,73.92,130.14,15.77c59.14-58.15-1.32-151.17-1.32-151.17L367.53-91.05z"/>
	<path class="st12" d="M300.65,731.86c0,0-74.9-170.23-6.6-186.97c76.73-18.79,135.12,168.3,135.04,168.32l4.76,2.85
		c0,0-6.54-14.39-8.49-32.03c-2.64-23.93-8.18-53.66-8.18-53.66s14.95,11.55,30.35,26.62c27.47,26.88,62.77,64.5,62.77,64.5
		s80.43-79.07,179.02-59.68s-69.08,385.11-69.08,385.11h-357.2c0,0-218.23-58.89-102.95-94.6
		c115.28-35.71,164.25-33.64,164.25-33.64s-215.81-39.22-261.17-88.02c-45.36-48.8,152.16-37.96,152.16-37.96
		S95.97,714.63,70.19,695.4c-22.55-16.83-33.06-53.27-21.49-75.45C112.93,496.73,300.65,731.86,300.65,731.86"/>
</g>
<g>
	<defs>
		<rect id="SVGID_5_" y="0" width="1984.25" height="1417.32"/>
	</defs>
	<clipPath id="SVGID_6_">
		<use xlink:href="#SVGID_5_"  style="overflow:visible;"/>
	</clipPath>
	<path class="st13" d="M1742.95,968.41c-4.08-4.28-9.53-10.76-12.01-14.4c-8.27-12.17-12.73-25.31-12.82-25.71
		c-0.5-2.28,3.36-0.38,5.74-0.17c2.38,0.21,8.8,3.52,9.31,5.79l-1.85,0.45c0.85,5.52,2.1,11.53,10.2,21.6
		c8.85,11.01,23.83,23.46,38.44,28.47c19.98,6.85,35.42,6.26,46.17,2.18c18.29-6.95,33.55-22.92,36.09-38.64
		c1.51-9.33-1.73-19.91-8.87-29.03c-6.44-8.22-15.32-14.22-24.36-16.46c-17.25-4.26-28.12,9.53-30.14,15.04
		c-1.52,4.18-2.26,10.42,0.91,15.67c3.07,5.07,7.69,9.08,12.68,11c2.49,0.96,5.92,2.7,5.49,4.83c-0.41,1.99-3.58,0.85-5.93-0.07
		c-7.51-2.94-13.47-6.92-17.93-14.28c-4.6-7.6-5.93-15.52-3.67-21.74c2.93-8.02,13.27-25.58,38.31-18.45
		c11.65,3.32,23.01,10.51,31.19,20.96c8.88,11.34,12.9,24.47,11.04,36.02c-2.85,17.64-17.17,35.86-37.28,43.49
		c-12.13,4.6-33.21,6.86-55.99-3.04C1760.49,984.46,1751.35,977.22,1742.95,968.41"/>
	<path class="st14" d="M1470.26,483.32c-2.1-1.87-4.4-3.51-6.82-4.93c-3.24-1.86-7.93-3.41-11.92-3.47
		c-0.74-0.08-3.49,0.24-4.58,0.57c2.56-0.43-0.25,0.14-1.06,0.52c-3.44,1.68-6.25,4.37-9.08,6.92
		c-9.03,8.67-16.81,20.34-22.01,32.41c25.9,19.98,51.17,40.79,75.72,62.41C1491.67,546.26,1493.84,507.38,1470.26,483.32"/>
	<path class="st14" d="M100.81,526.19c-8.25,9.64-9.21,22.73-10.53,35c-3.6,39.12,7.98,78.49,30.59,110.39
		c24.67,35.62,59.64,63.03,96.25,85.41c5.38,3.29,3.29,10.82-2.71,11.53c-12.76,1.51-25.64,1.03-38.29-1.22
		c-10.12-1.8-19.94-4.81-29.57-8.33c4.59,16.53,16.74,30.69,26.74,44.43c40.98,54.51,125.9,82.96,183.24,37.55
		c2.06-1.7,5.63-0.99,7.44,0.71c4.55,4.4-0.21,10.13-3.13,13.98c-17.99,22.4-49.16,24.75-72.72,37.84l-0.08,0.09
		c-2.63,2.02-0.2,3.25,0.34,3.72c9.1,7.97,26.49,9.51,37.9,11.5c36.31,3.83,73.96-4.23,106.2-20.89
		c21.39-11.17,47.36-33.35,62.72-51.91c-15.58-70.19-18.85-137.45,5.49-205.16C371.13,672.69,185.5,639.64,100.81,526.19"/>
	<path class="st14" d="M751.26,977.72c-1,1.29-1.61,2.83-1.75,4.46c-1.63,19.07-6.21,61.91-7.41,78.73
		c-0.34,9.84-1.94,20.36-0.05,30.14c0.67,3.48,3.56,6.08,7.06,6.59c20.12,2.92,40.52,4.07,60.87,3.97c5-0.03,8.86-4.4,8.31-9.37
		c-0.75-6.77-2.21-13.49-5.41-19.44c-1.97-3.42,3.2-6.69,5.18-3.27c3.92,7.23,5.62,15.41,6.45,23.62c0.46,4.57,4.43,7.95,9.01,7.62
		c4.78-0.34,9.57-0.8,14.32-1.4c5.5-0.69,8.85-6.47,6.69-11.57c-4.44-10.48-10.4-20.3-17.77-29.02c-2.52-2.98,1.63-7.49,4.18-4.48
		c8.95,10.58,16.03,22.56,20.94,35.45c1.51,3.98,5.73,6.24,9.86,5.22l0.18-0.04c5.36-1.33,8.05-7.34,5.41-12.2
		c-4.77-8.77-12.27-22.8-18.61-37.9c-9.42-22.41,12.08-46.97,25.11-66.27c32.73-48.49,66.08-58.01,98.03-89.81
		c4.15-4.13-12.92-12.52-18.25-14.94C890.48,840.6,794.86,921.71,751.26,977.72"/>
	<path class="st15" d="M1765.06,939.68c-0.1-0.25-3.79-14.21-13.94-26.5c-91.99-111.39-109.99-170.4-192.62-290.39
		c-43.79-63.59-110.23-110.33-176.92-149.36c-15.81-9.25-31.55-17.98-47.29-26.16l0.02,0.01l-0.03-0.01
		c-9.1-4.73-18.21-9.28-27.32-13.64c-46.33-23.84-144.28-71.76-267.36-91.34c10.09,7.38,13.61,17.07,13.61,17.07
		s-31.51-13.32-65.88-15.4c0,0,14.64,11.44,17.16,15.68c0.39,0.37-5.38-1.2-16.39-2.76c-25.66-3.64-79.77-7.28-150.68,13.46
		c-0.79,0.26,8.31,1.1,13.65,6.68c-4.62,0.79-9.27,1.6-13.95,2.46c-202.23,33.53-362.17,169.8-360.4,386.3
		c1.09,57.61,18.3,116.72,87.39,211.08c20.39,36.25,11.58,78.87,6.17,117.87c-1.97,18.76-5.55,38.79-0.6,57.31
		c0.38,0.99,0.41,0.98,0.95,1.96c0.14,0.24,1.1,0.98,0.49,0.66c0.12,0.07,0.19,0.11,0.23,0.14c20.8,3.88,42.12,6.61,63.78,7.08
		c4.05,0.09,7.36-3.22,7.3-7.27c-0.12-7.74-0.4-15.54-2.5-22.96c-1.2-3.78,4.65-5.58,5.84-1.83c2.27,7.96,2.63,16.34,2.77,24.64
		c0.07,4.1,3.55,7.28,7.64,7.03c6.99-0.42,13.92-1.17,20.76-2.28c4.27-0.69,6.95-5,5.7-9.15c-3.41-11.38-10.17-21.96-19.05-29.46
		c-3.02-2.55,1.17-7.02,4.18-4.48c10.01,8.45,17.48,20.53,21.07,33.41c1.11,3.96,5.27,6.21,9.16,4.86l4.87-1.69
		c3.95-1.37,5.91-5.85,4.16-9.65c-5.39-11.68-12.89-22.32-18.25-34.05c-0.12-0.27-0.23-0.55-0.33-0.83
		c-8.19-24.69,15.36-56.13,26.41-77.58c52.02-93.84,252.08-264.51,306.61-59.24c12.3-73.65,171.35-287.33,402.69-190.79
		c0,0,98.98,44.82,116.4,55.18c72.29,42.34,123.55,80.27,191.6,129.09c0.34,0.24,0.69,0.47,1.09,0.6c0.54,0.18,1.56,0.91,2.65,1.71
		c2.25,1.67,5.29,1.86,7.73,0.49C1765.18,955.6,1768.35,947.84,1765.06,939.68"/>
</g>
<g>
	<defs>
		<path id="SVGID_7_" d="M1637.4,897.82c42.27,28.9,76.87,54.22,77.93,54.99c0.6,0.43,1.21,0.85,1.81,1.28
			c3.04,2.15,6.11,4.33,9.24,6.57c0.03,0.01,0.05,0.03,0.07,0.04c-31.8-22.84-60.08-43.34-88.86-63.12
			C1637.53,897.67,1637.47,897.74,1637.4,897.82"/>
	</defs>
	<clipPath id="SVGID_8_">
		<use xlink:href="#SVGID_7_"  style="overflow:visible;"/>
	</clipPath>
	
		<linearGradient id="SVGID_9_" gradientUnits="userSpaceOnUse" x1="0" y1="1417.3516" x2="1" y2="1417.3516" gradientTransform="matrix(305.8867 368.5564 368.5564 -305.8867 -520952.625 434164.1875)">
		<stop  offset="0" style="stop-color:#9F847C"/>
		<stop  offset="4.796650e-05" style="stop-color:#9F847C"/>
		<stop  offset="1" style="stop-color:#C8A496"/>
	</linearGradient>
	<polygon class="st16" points="1690.13,853.82 1757.48,934.96 1673.72,1004.48 1606.38,923.33 	"/>
</g>
<g>
	<defs>
		<path id="SVGID_10_" d="M837.13,379.47C634.89,413,474.96,549.27,476.73,765.78c1.09,57.6,73.88,184.44,87.39,211.08
			c20.39,36.25,11.59,78.87,6.17,117.87c-1.98,18.76-5.55,38.79-0.6,57.31c0.38,0.99,0.41,0.98,0.95,1.96
			c0.14,0.24,1.1,0.98,0.49,0.66c0.12,0.07,0.19,0.11,0.23,0.14c20.8,3.88,42.12,6.61,63.78,7.08c4.05,0.09,7.36-3.22,7.3-7.27
			c-0.12-7.74-0.4-15.54-2.5-22.96c-1.2-3.78,4.65-5.58,5.84-1.83c2.27,7.96,2.63,16.34,2.77,24.64c0.07,4.1,3.55,7.28,7.64,7.03
			c6.99-0.43,13.92-1.17,20.76-2.28c4.27-0.69,6.95-5,5.7-9.15c-3.41-11.38-10.16-21.96-19.05-29.46c-3.02-2.55,1.17-7.02,4.18-4.48
			c10.01,8.45,17.48,20.53,21.07,33.41c1.11,3.96,5.27,6.21,9.16,4.86l4.87-1.69c3.95-1.37,5.91-5.85,4.16-9.65
			c-5.39-11.68-12.89-22.32-18.25-34.05c-0.12-0.27-0.23-0.55-0.33-0.83c-8.19-24.69,15.36-56.13,26.41-77.58
			c52.03-93.84,252.08-264.51,306.61-59.24c12.3-73.65,165.52-287.14,402.69-190.79c0,0,38.04,18.92,98.98,44.83
			c97.68,63.86,140.98,90.63,209.02,139.44c0.34,0.24,0.69,0.47,1.09,0.6c0.54,0.18,1.56,0.91,2.65,1.71
			c2.26,1.67,5.29,1.86,7.73,0.49c21.51-12.04,24.68-19.79,21.39-27.96c-4.06-14.66-11.9-24.91-21.55-37.61
			c-87.98-115.84-134.69-203.59-185.02-279.28c-42.75-64.3-110.23-110.33-176.91-149.36c-119.86-70.16-235.81-110.17-378.05-110.17
			C951.99,363.25,897.02,368.5,837.13,379.47"/>
	</defs>
	<clipPath id="SVGID_11_">
		<use xlink:href="#SVGID_10_"  style="overflow:visible;"/>
	</clipPath>
	<path class="st17" d="M1726.46,960.71c-0.03-0.01-0.05-0.03-0.07-0.04c-3.75-2.68-7.43-5.29-11.06-7.85
		c-1.07-0.78-35.66-26.1-77.93-55c0.07-0.08,0.14-0.15,0.21-0.23C1666.37,917.37,1694.65,937.86,1726.46,960.71"/>
</g>
<g>
	<defs>
		<path id="SVGID_12_" d="M1637.4,897.82c0.07-0.08,0.14-0.15,0.21-0.23c-24.97-17.17-50.32-33.79-78.67-50.93
			C1584.15,862.01,1612.14,880.56,1637.4,897.82"/>
	</defs>
	<clipPath id="SVGID_13_">
		<use xlink:href="#SVGID_12_"  style="overflow:visible;"/>
	</clipPath>
	
		<linearGradient id="SVGID_14_" gradientUnits="userSpaceOnUse" x1="0" y1="1417.2931" x2="1" y2="1417.2931" gradientTransform="matrix(305.8867 368.5564 368.5564 -305.8867 -520952.625 434164.1875)">
		<stop  offset="0" style="stop-color:#5D6C43"/>
		<stop  offset="4.796650e-05" style="stop-color:#5D6C43"/>
		<stop  offset="1" style="stop-color:#808750"/>
	</linearGradient>
	<polygon class="st18" points="1605.52,807.99 1662.75,876.95 1591.02,936.48 1533.79,867.52 	"/>
</g>
<g>
	<defs>
		<path id="SVGID_15_" d="M1765.06,939.68c-0.48-1.72-1.01-3.38-1.58-5c-0.01-0.02-0.02-0.04-0.02-0.06
			c-0.01-0.03-0.02-0.06-0.03-0.09c-0.02-0.04-0.03-0.09-0.05-0.13c0-0.01-0.01-0.02-0.01-0.02c0-0.01,0-0.01-0.01-0.02
			c-0.14-0.27-0.28-0.54-0.42-0.82C1764.38,937.17,1765.02,939.57,1765.06,939.68"/>
	</defs>
	<clipPath id="SVGID_16_">
		<use xlink:href="#SVGID_15_"  style="overflow:visible;"/>
	</clipPath>
	
		<linearGradient id="SVGID_17_" gradientUnits="userSpaceOnUse" x1="0" y1="1417.4735" x2="1" y2="1417.4735" gradientTransform="matrix(305.8867 368.5564 368.5564 -305.8867 -520952.625 434164.1875)">
		<stop  offset="0" style="stop-color:#9F847C"/>
		<stop  offset="4.796650e-05" style="stop-color:#9F847C"/>
		<stop  offset="1" style="stop-color:#C8A496"/>
	</linearGradient>
	<polygon class="st19" points="1764.19,932.49 1768.08,937.17 1763.8,940.72 1759.91,936.04 	"/>
</g>
<g>
	<defs>
		<path id="SVGID_18_" d="M837.13,379.47C634.89,413,474.96,549.27,476.73,765.78c1.09,57.6,73.88,184.44,87.39,211.08
			c20.39,36.25,11.59,78.87,6.17,117.87c-1.98,18.76-5.55,38.79-0.6,57.31c0.38,0.99,0.41,0.98,0.95,1.96
			c0.14,0.24,1.1,0.98,0.49,0.66c0.12,0.07,0.19,0.11,0.23,0.14c20.8,3.88,42.12,6.61,63.78,7.08c4.05,0.09,7.36-3.22,7.3-7.27
			c-0.12-7.74-0.4-15.54-2.5-22.96c-1.2-3.78,4.65-5.58,5.84-1.83c2.27,7.96,2.63,16.34,2.77,24.64c0.07,4.1,3.55,7.28,7.64,7.03
			c6.99-0.43,13.92-1.17,20.76-2.28c4.27-0.69,6.95-5,5.7-9.15c-3.41-11.38-10.16-21.96-19.05-29.46c-3.02-2.55,1.17-7.02,4.18-4.48
			c10.01,8.45,17.48,20.53,21.07,33.41c1.11,3.96,5.27,6.21,9.16,4.86l4.87-1.69c3.95-1.37,5.91-5.85,4.16-9.65
			c-5.39-11.68-12.89-22.32-18.25-34.05c-0.12-0.27-0.23-0.55-0.33-0.83c-8.19-24.69,15.36-56.13,26.41-77.58
			c52.03-93.84,252.08-264.51,306.61-59.24c12.3-73.65,165.52-287.14,402.69-190.79c0,0,38.04,18.92,98.98,44.83
			c97.68,63.86,140.98,90.63,209.02,139.44c0.34,0.24,0.69,0.47,1.09,0.6c0.54,0.18,1.56,0.91,2.65,1.71
			c2.26,1.67,5.29,1.86,7.73,0.49c21.51-12.04,24.68-19.79,21.39-27.96c-4.06-14.66-11.9-24.91-21.55-37.61
			c-87.98-115.84-134.69-203.59-185.02-279.28c-42.75-64.3-110.23-110.33-176.91-149.36c-119.86-70.16-235.81-110.17-378.05-110.17
			C951.99,363.25,897.02,368.5,837.13,379.47"/>
	</defs>
	<clipPath id="SVGID_19_">
		<use xlink:href="#SVGID_18_"  style="overflow:visible;"/>
	</clipPath>
	<path class="st20" d="M1765.06,939.68c-0.04-0.1-0.68-2.5-2.12-6.15c0.15,0.28,0.28,0.55,0.42,0.82
		C1763.98,936.06,1764.55,937.84,1765.06,939.68"/>
</g>
<g>
	<defs>
		<path id="SVGID_20_" d="M1546.07,838.96c-1.81-1.07-3.63-2.14-5.47-3.22c-1.05-0.62-2.4-1.37-4.01-2.23
			C1539.68,835.25,1542.84,837.07,1546.07,838.96"/>
	</defs>
	<clipPath id="SVGID_21_">
		<use xlink:href="#SVGID_20_"  style="overflow:visible;"/>
	</clipPath>
	
		<linearGradient id="SVGID_22_" gradientUnits="userSpaceOnUse" x1="0" y1="1417.2495" x2="1" y2="1417.2495" gradientTransform="matrix(305.8867 368.5564 368.5564 -305.8867 -520952.625 434164.1875)">
		<stop  offset="0" style="stop-color:#5D6C43"/>
		<stop  offset="4.796650e-05" style="stop-color:#5D6C43"/>
		<stop  offset="1" style="stop-color:#808750"/>
	</linearGradient>
	<polygon class="st21" points="1542.2,828.85 1548.75,836.74 1540.46,843.62 1533.91,835.73 	"/>
</g>
<g>
	<defs>
		<path id="SVGID_23_" d="M1406.04,700.43c-6.88-26.2,10.83-44.41,29.92-44.41c10.56,0,21.54,5.58,29.01,18.47
			c6.88,26.2-10.83,44.41-29.92,44.41C1424.48,718.89,1413.51,713.32,1406.04,700.43 M1387.09,665.62
			c-17.05,73.98,82.25,132.41,125.67,155.3c3.39,1.46,6.87,2.95,10.42,4.46c2.31,1.51,4.6,3.01,6.85,4.48c0,0,0.01,0.01,0.01,0.01
			c2.14,1.17,4.33,2.38,6.55,3.64c1.61,0.86,2.95,1.61,4.01,2.23c1.84,1.08,3.66,2.15,5.47,3.22c4.19,2.45,8.48,5.02,12.87,7.69
			c28.35,17.15,53.69,33.77,78.67,50.93c28.77,19.78,57.05,40.28,88.86,63.12c4.47,2.4,9.89,4.43,15.43,4.43
			c3.88,0,7.83-0.99,11.56-3.54c0.14-0.1,0.28-0.19,0.42-0.29c1.51-1.06,2.86-2.09,4.06-3.09c5.94-5.04,8.59-10.13,7.91-16.1
			c-0.18-0.79-0.43-1.57-0.75-2.36c0,0,0,0,0-0.01c-0.01-0.02-0.02-0.05-0.03-0.07c-0.04-0.1-0.68-2.5-2.12-6.15
			c-12.36-23.34-62.84-60.79-152.76-143.68c-58.35-53.79-88.92-142.91-131.23-166.22c-11.45-6.31-24.2-10.09-36.57-10.09
			C1418.36,613.54,1395.8,627.82,1387.09,665.62"/>
	</defs>
	<clipPath id="SVGID_24_">
		<use xlink:href="#SVGID_23_"  style="overflow:visible;"/>
	</clipPath>
	
		<linearGradient id="SVGID_25_" gradientUnits="userSpaceOnUse" x1="0" y1="1417.3553" x2="1" y2="1417.3553" gradientTransform="matrix(305.8867 368.5564 368.5564 -305.8867 -520952.625 434164.1875)">
		<stop  offset="0" style="stop-color:#764136"/>
		<stop  offset="4.796650e-05" style="stop-color:#764136"/>
		<stop  offset="1" style="stop-color:#995745"/>
	</linearGradient>
	<polygon class="st22" points="1604.81,418.69 1939.31,821.73 1531.76,1159.98 1197.25,756.94 	"/>
</g>
<g>
	<defs>
		<path id="SVGID_26_" d="M837.13,379.47C634.89,413,474.96,549.27,476.73,765.78c1.09,57.6,73.88,184.44,87.39,211.08
			c20.39,36.25,11.59,78.87,6.17,117.87c-1.98,18.76-5.55,38.79-0.6,57.31c0.38,0.99,0.41,0.98,0.95,1.96
			c0.14,0.24,1.1,0.98,0.49,0.66c0.12,0.07,0.19,0.11,0.23,0.14c20.8,3.88,42.12,6.61,63.78,7.08c4.05,0.09,7.36-3.22,7.3-7.27
			c-0.12-7.74-0.4-15.54-2.5-22.96c-1.2-3.78,4.65-5.58,5.84-1.83c2.27,7.96,2.63,16.34,2.77,24.64c0.07,4.1,3.55,7.28,7.64,7.03
			c6.99-0.43,13.92-1.17,20.76-2.28c4.27-0.69,6.95-5,5.7-9.15c-3.41-11.38-10.16-21.96-19.05-29.46c-3.02-2.55,1.17-7.02,4.18-4.48
			c10.01,8.45,17.48,20.53,21.07,33.41c1.11,3.96,5.27,6.21,9.16,4.86l4.87-1.69c3.95-1.37,5.91-5.85,4.16-9.65
			c-5.39-11.68-12.89-22.32-18.25-34.05c-0.12-0.27-0.23-0.55-0.33-0.83c-8.19-24.69,15.36-56.13,26.41-77.58
			c52.03-93.84,252.08-264.51,306.61-59.24c12.3-73.65,165.52-287.14,402.69-190.79c0,0,38.04,18.92,98.98,44.83
			c97.68,63.86,140.98,90.63,209.02,139.44c0.34,0.24,0.69,0.47,1.09,0.6c0.54,0.18,1.56,0.91,2.65,1.71
			c2.26,1.67,5.29,1.86,7.73,0.49c21.51-12.04,24.68-19.79,21.39-27.96c-4.06-14.66-11.9-24.91-21.55-37.61
			c-87.98-115.84-134.69-203.59-185.02-279.28c-42.75-64.3-110.23-110.33-176.91-149.36c-119.86-70.16-235.81-110.17-378.05-110.17
			C951.99,363.25,897.02,368.5,837.13,379.47"/>
	</defs>
	<clipPath id="SVGID_27_">
		<use xlink:href="#SVGID_26_"  style="overflow:visible;"/>
	</clipPath>
	<path class="st23" d="M1686.59,921.99c0,0-1.29-1.42,11.83-3.7c8.14-1.42,13.82,2.03,13.82,2.03"/>
	<path class="st23" d="M1697.56,918.79c0,0,1.05,13.59,9.71,24.16c8.09,9.89,17.36,16.45,17.36,16.45"/>
</g>
<g>
	<defs>
		<rect id="SVGID_28_" y="0" width="1984.25" height="1417.32"/>
	</defs>
	<clipPath id="SVGID_29_">
		<use xlink:href="#SVGID_28_"  style="overflow:visible;"/>
	</clipPath>
	<path class="st24" d="M1108.41,1106.34c97.09,4.44,141.51-13.98,151.58-133.64c5.24-62.22,8.65-124.6,13.92-186.82
		c0.54-5.98,0.41-30.49,1.13-36.47C1062.85,747.18,1109.02,1102.98,1108.41,1106.34"/>
	<path class="st25" d="M1160.41,1007.6c0.01,5.2,0.78,16.16,0.7,21.35c-0.14,10.23-0.91,14.97-1.97,25.37
		C1205.72,1055.94,1216.37,1002.02,1160.41,1007.6"/>
	<path class="st26" d="M906.76,586.1c-24.95,3.04-57.79-0.09-72.77,24.47c-27.69,50.08,85.9,142.83,115.69,183.69
		c47.13,60.95,53.89,93.77,71.82,177.09c4.3,21.59,6.27,43.11,7.07,64.92c0.28,27.39,1.03,41.47-1.57,69.67
		c-3.9,17.99-16.78,28.21-42.86,43.55c-3.86,3.37-11.49,9.45-11.74,14.01c3.39,7.03,16.96,9.62,24.22,11.61
		c5.53,0.69,13.04,3.45,18.13,3.14c130.49,11.94,148.08-38.87,146.09-157.5c2.15-38.81,5.57-70.8,13.32-108.9
		c16.34-90.93,56.08-186.17,200.54-146.3c4.64,0.69,23.59,6.7,30.9,9.06c10.3,3.32,8.09,2.98,18.58,5.95
		C1299.41,651.61,1079.36,575.08,906.76,586.1"/>
	<path class="st27" d="M877.89,625.42c45.25-10.53,137.75-0.99,137.64-2.56c-0.69-9.96-12.84-15.45-11.84-15.42
		c105.43,5.73,161.95,47.01,161.13,45.43c-0.98-4.83-10.98-20.49-10.98-20.49c31.72,13.39,57.02,36.42,57.02,36.42
		s-0.1-10.32-7.17-20.63c0,0,86.93,50.67,137.73,82.37c47.77,29.8,68.67,45.69,68.67,45.69s-103.9-40.14-159.43-3.83
		c-44.57,29.15-61.8,86.71-63.39,87.48c-19.84-34.86-49.7-113.36-164.01-179.72c-57.85-33.58-142.17-48.71-150.67-53.43
		C874.37,626.28,876.13,625.86,877.89,625.42"/>
	<path class="st25" d="M1062.8,1040.46c-11.31-0.29-22.75,0.9-34.06,1.9c0.45,19.12-0.08,38.29-1.14,57.35
		c21.65-3.54,46.67-5.1,63.42-20.81C1108.62,1058.59,1083.44,1039.26,1062.8,1040.46"/>
	<path class="st27" d="M1381.44,609.05c-5.36-26.08-8.89-62.95-34.96-86.65c-19.82-16.32-47.13-14.77-54.79,12.72
		c-5.1,24.93,5.19,53.89,40.58,81.49c7.82,5.67,20.52,13.58,24.72,11.19c1.42-2.07,12.82-10.2,17.97-13.46
		C1379.12,612.59,1381.44,609.05,1381.44,609.05"/>
</g>
<g>
	<defs>
		<path id="SVGID_30_" d="M1319.83,532.47c-10.45,2.76-10.41,10.66-10.09,20.32c3.32,26.8,32,53.73,51.65,71.2
			c3.02-2.29,5.23-4.09,8.43-6.39c-3.55-9.86-8.27-28.98-12.27-40.1c-3.58-8.33-16.74-45.47-34.42-45.47
			C1322.05,532.03,1320.95,532.17,1319.83,532.47"/>
	</defs>
	<clipPath id="SVGID_31_">
		<use xlink:href="#SVGID_30_"  style="overflow:visible;"/>
	</clipPath>
	
		<linearGradient id="SVGID_32_" gradientUnits="userSpaceOnUse" x1="0" y1="1417.33" x2="1" y2="1417.33" gradientTransform="matrix(-53.0778 -85.295 -85.295 53.0778 122257.5234 -74607.8125)">
		<stop  offset="0" style="stop-color:#995745"/>
		<stop  offset="0.1407" style="stop-color:#995745"/>
		<stop  offset="1" style="stop-color:#DA9D90"/>
	</linearGradient>
	<polygon class="st28" points="1326.25,651.1 1268.13,557.7 1352.95,504.92 1411.07,598.32 	"/>
</g>
<g>
	<defs>
		<rect id="SVGID_33_" y="0" width="1984.25" height="1417.32"/>
	</defs>
	<clipPath id="SVGID_34_">
		<use xlink:href="#SVGID_33_"  style="overflow:visible;"/>
	</clipPath>
	<path class="st29" d="M1410.54,644.72c-10.25-0.67-16.55,11.33-17.06,22.74c-0.34,7.51,0.8,9.59,3.75,9.79
		c2.33,0.16,5.49-5.65,10.7-14.18C1413.14,654.56,1420.79,645.39,1410.54,644.72"/>
	<path class="st30" d="M1447.6,687.3c-2.47-6.13-7.37-9.92-10.95-8.47c-3.58,1.45-4.48,7.59-2.02,13.71
		c2.47,6.13,7.37,9.92,10.95,8.47C1449.16,699.57,1450.07,693.43,1447.6,687.3"/>
	<path class="st30" d="M1464.96,674.48c10.69,40.7-37.97,62.13-58.92,25.95C1395.35,659.73,1444.01,638.3,1464.96,674.48"/>
	<path class="st29" d="M1427.3,669.72c-13.33,6.27-13.35,26.82,1.84,34.68c9.66,5,22.35,2.44,28.14-2.79
		C1474.47,686.07,1448.75,659.63,1427.3,669.72"/>
	<path class="st30" d="M1449.66,688.31c-2.3,0.83-4.48,3.01-4.09,5.45c0.41,2.56,3.53,3.81,6.01,3.16c1.79-0.47,3.44-1.76,4.06-3.54
		c0.63-1.77,0.05-3.99-1.51-4.95C1452.81,687.63,1451.11,687.79,1449.66,688.31"/>
	<path class="st31" d="M1442.19,686.35c-1.14,0-2.31-0.67-2.65-1.79c0.25-1.28,1.24-2.47,2.5-2.67c0.11-0.02,0.22-0.03,0.34-0.03
		c1.16,0,2.31,0.94,2.32,2.13c0,0.62-0.29,1.23-0.73,1.67C1443.49,686.13,1442.84,686.35,1442.19,686.35"/>
	<path class="st32" d="M1690.81,844.28c-0.35,0-0.71-0.15-0.98-0.52c-18.62-25.56-41-49.49-59.34-74.49
		c2.04,4.77,4.12,9.51,6.31,14.19c0.38,0.81,0.48,2.39-0.36,2.39c-0.2,0-0.46-0.09-0.78-0.31c-5.46-3.59-31.32-39.14-39.2-51.71
		c-5.32-8.52-10.97-17.63-16.13-27.08c0.88,4.91,1.35,9.76,0.92,14.45c-0.02,0.12-0.08,0.16-0.18,0.16c-0.03,0-0.06,0-0.09-0.01
		c-12.49-29.82-33.99-57.85-55.1-81.85c-13.25-15.05-28.05-28.58-42.8-42.16c-3.64-3.57-8.5-8.06-13.44-12.51
		c-6.34-5.98-12.57-12.07-18.57-18.38c16.18,6.81,29.01,16.78,41.34,29.4c1.72,1.77,3.33,3.58,4.91,5.45
		c-4.78-8.4-10.78-16.01-15.99-24.11c-0.47-0.75-0.91-3.05,0.07-3.05c0.21,0,0.48,0.1,0.82,0.34
		c20.53,14.13,35.88,32.83,49.57,52.99c-1.35-2.9-2.76-5.79-4.19-8.66c-4.26-8.51-7.18-18.36-12.1-26.49
		c-1.04-1.73-0.65-2.84,0.21-2.84c0.56,0,1.32,0.47,2.01,1.55c0.17,0.28,0.4,0.55,0.58,0.89c17.9,21.54,37.01,41.87,53.67,64.48
		c17.78,24.08,34.56,50.12,51.03,74.97c16.6,25.08,51.68,81.03,68.91,111.02C1692.47,843.37,1691.66,844.28,1690.81,844.28"/>
	<path class="st33" d="M1033.51,1129.24c0,0-5.26,12.48-23.11,16.81c-17.85,4.32-27.29-0.7-27.29-0.7"/>
	<path class="st33" d="M1047.86,1150.83c0,0-4.84,8.67-21.41,19.56c-8.66,5.69-22.58,8.37-22.58,8.37"/>
	<path class="st33" d="M833.38,1048.56c0,0,10.43,11.05,20.24,29.81c5.35,10.25,7.94,21.71,7.94,21.71"/>
	<path class="st33" d="M811.81,1063.31c0,0,5.9,8.63,7.86,19.39c1.96,10.76,0.78,23.64,0.78,23.64"/>
	<path class="st33" d="M659.81,1111.65c0,0,15.3,13.93,20.49,25.39c5.19,11.46,7.99,23.47,7.99,23.47"/>
	<path class="st33" d="M639.32,1122.75c0,0,5.29,14.3,6.47,25.85c1.38,13.46,0.65,19.63,0.65,19.63"/>
</g>
</svg>
