<?xml version="1.0" encoding="utf-8"?>
<!-- Generator: Adobe Illustrator 25.1.0, SVG Export Plug-In . SVG Version: 6.00 Build 0)  -->
<svg version="1.1" id="Capa_1" xmlns="http://www.w3.org/2000/svg" xmlns:xlink="http://www.w3.org/1999/xlink" x="0px" y="0px"
	 viewBox="0 0 1984.25 1417.32" style="enable-background:new 0 0 1984.25 1417.32;" xml:space="preserve">
<style type="text/css">
	.st0{fill:#0F4496;}
	.st1{clip-path:url(#SVGID_2_);fill-rule:evenodd;clip-rule:evenodd;fill:#6FBC85;}
	.st2{clip-path:url(#SVGID_2_);fill-rule:evenodd;clip-rule:evenodd;fill:#00A255;}
	.st3{clip-path:url(#SVGID_4_);fill-rule:evenodd;clip-rule:evenodd;fill:#00945E;}
	.st4{clip-path:url(#SVGID_6_);fill:url(#SVGID_7_);}
	.st5{clip-path:url(#SVGID_9_);fill:#F39200;}
	.st6{clip-path:url(#SVGID_11_);fill:#F39200;}
	.st7{clip-path:url(#SVGID_13_);fill:url(#SVGID_14_);}
	.st8{clip-path:url(#SVGID_16_);fill:#F59C00;}
	.st9{clip-path:url(#SVGID_16_);}
	.st10{clip-path:url(#SVGID_18_);}
	.st11{clip-path:url(#SVGID_20_);}
	.st12{clip-path:url(#SVGID_22_);}
	.st13{clip-path:url(#SVGID_24_);fill:#B96B00;}
	.st14{clip-path:url(#SVGID_24_);fill:#F7A600;}
	.st15{clip-path:url(#SVGID_24_);fill:#FFFAD2;}
	.st16{clip-path:url(#SVGID_24_);fill:#F18700;}
	.st17{clip-path:url(#SVGID_24_);fill:#F5B3BD;}
	.st18{clip-path:url(#SVGID_24_);fill:#FACEB9;}
	.st19{clip-path:url(#SVGID_24_);}
	.st20{clip-path:url(#SVGID_24_);fill:none;stroke:#000000;stroke-width:0.53;stroke-miterlimit:10;}
	.st21{clip-path:url(#SVGID_24_);fill:#EF798A;}
	.st22{clip-path:url(#SVGID_26_);}
	.st23{clip-path:url(#SVGID_26_);fill:#F7A600;}
	.st24{clip-path:url(#SVGID_26_);fill:#FFFFFF;}
	.st25{clip-path:url(#SVGID_28_);fill:#FFFFFF;}
	.st26{clip-path:url(#SVGID_30_);}
	.st27{clip-path:url(#SVGID_30_);fill:#F7A600;}
	.st28{clip-path:url(#SVGID_30_);fill:#FFFFFF;}
	.st29{clip-path:url(#SVGID_32_);fill:#E6007E;}
	.st30{clip-path:url(#SVGID_32_);fill:#F192B0;}
	.st31{clip-path:url(#SVGID_32_);fill:none;stroke:#F192B0;stroke-width:1.781;stroke-miterlimit:10;}
	.st32{clip-path:url(#SVGID_32_);fill:#E9418D;}
</style>
<rect y="1.41" class="st0" width="1984.25" height="1415.91"/>
<g>
	<defs>
		<rect id="SVGID_1_" y="0" width="1984.25" height="1417.32"/>
	</defs>
	<clipPath id="SVGID_2_">
		<use xlink:href="#SVGID_1_"  style="overflow:visible;"/>
	</clipPath>
	<path class="st1" d="M93.89,605.25c72.71-55.22,347.55,146.48,347.55,146.48l-83.06-339.08L573.72,695.7
		c0.04,0.42,403.15,108.01,681.17-49.44c189.51-107.33,580.88-131.71,580.88-131.71s-308.65,162.5-281.62,206.89
		c8.63,14.18,70.74-2.67,143.65-19.51c117.6-27.17,263.26-54.35,257.75,48.69c-7.98,149.23-422.7,234.59-422.7,234.59
		S950.98,982,241.91,982C205.94,982,26.42,656.49,93.89,605.25"/>
	<path class="st2" d="M449.79,594.83c0,0-92.04-209.18-8.11-229.74C535.97,342,607.71,571.9,607.61,571.93l5.85,3.51
		c0,0-8.04-17.68-10.43-39.36c-3.24-29.4-10.05-65.94-10.05-65.94s18.38,14.2,37.29,32.71c33.75,33.03,77.13,79.26,77.13,79.26
		s98.83-97.16,219.98-73.33C1048.53,532.6,842.5,982,842.5,982H403.57c0,0-268.17-72.36-126.51-116.24
		c141.66-43.88,201.83-41.34,201.83-41.34S213.7,776.23,157.96,716.26c-55.74-59.97,186.98-46.65,186.98-46.65
		s-146.66-95.94-178.34-119.58c-27.71-20.68-40.62-65.46-26.41-92.72C219.12,305.91,449.79,594.83,449.79,594.83"/>
	<path class="st2" d="M1170.3,469.86c59.68,124.47,22.74,115,53.29,77.6c0,0,35.61-44.28,72.3-79.53
		c35.68-34.3,72.45-59.6,72.45-59.6l-47.91,154.25c0,0,151.21-260.17,296.91-218.72c142.41,40.51-85.56,287.27-85.56,287.27
		s113.26-44.46,212.94,19.28c112.56,71.99-266.8,332.42-268.85,332.14l-457.11,0.01c0,0-201-233.74-52.91-226.93
		c148.09,6.8,203.81,29.61,203.81,29.61s-227.71-85.19-259.78-160.51c-32.08-75.32,186.32-30.57,186.32-30.57
		s-78.38-77.91-100.15-110.89c-19.05-28.86-12.07-55.23,7.45-78.98C1038.3,361.93,1115.53,355.63,1170.3,469.86"/>
</g>
<g>
	<defs>
		<rect id="SVGID_3_" y="1.41" width="1984.25" height="1415.91"/>
	</defs>
	<clipPath id="SVGID_4_">
		<use xlink:href="#SVGID_3_"  style="overflow:visible;"/>
	</clipPath>
	<path class="st3" d="M125.94-10.27c-6.22,1.26-143,15.95-132.41,90.41C4.11,154.6,144.08,66.78,144.08,66.78
		s-48.89,64.21-62.45,167.58c-13.56,103.37,63.01,175.16,90.56,94.37c27.55-80.79,33.01-219.31,33.01-219.31
		c-0.17,0.13,42.83,124.1,86.02,189.52c43.24,65.49,107.2-3.59,102.34-47.23C388.7,208.08,270.74,88.34,270.74,88.34
		s121.95,85.25,215.04,118.94c93.1,33.7,115.63-27.18,115.9-65.32C601.95,103.83,301.4,8.57,301.4,8.57
		c-0.1,0.35,275.26,73.96,320.6,50.59c44.18-22.77,51.15-107.19-20.73-113.32c-71.88-6.12-471.45,41.92-471.45,41.92"/>
</g>
<g>
	<defs>
		<path id="SVGID_5_" d="M1203.81,1081.74l-0.04,0.09c-1.09,23.51-10.46,44.62-7.9,44.63c32.27-6.64,46.68,14.63,46.11,39.79
			l0.21,0.1c12.81-2.67,26.22-0.97,37.86,5.06c10.44,5.41,19.4,16.92,19.33,28.93c-0.06,10.79-11.19,17.43-19.99,21.78
			c-19.71,9.73-42.77,10.66-64.04,13.26c-39.74,4.84-79.79,7.08-119.84,6.72c-38-0.34-74.89-11.88-112.49-16.09
			c-12.85-1.44-20.91,0.06-31.02,8.71c-8.18,6.99-14.21,17.46-12.26,28.5c3.86,21.93,31.54,32.41,49.57,37.95
			c29.82,9.17,60.28,13.71,91.52,16.03c58.56,4.34,117.75,0.34,176.16-4.14c46.66-3.57,108.96-19.84,129.73-67.1
			c14.24-32.4,6.82-72.68-10.45-101.41c-15.79-26.27-40.13-48.05-68.89-60c-20.67-8.59-39.96-11.33-56.14-11.33
			C1222.72,1073.24,1203.81,1081.74,1203.81,1081.74"/>
	</defs>
	<clipPath id="SVGID_6_">
		<use xlink:href="#SVGID_5_"  style="overflow:visible;"/>
	</clipPath>
	
		<linearGradient id="SVGID_7_" gradientUnits="userSpaceOnUse" x1="0" y1="1417.3173" x2="1" y2="1417.3173" gradientTransform="matrix(454.8532 0 0 -454.8532 939.3715 645868.625)">
		<stop  offset="0" style="stop-color:#FFDC88"/>
		<stop  offset="0.0601" style="stop-color:#FFD77E"/>
		<stop  offset="0.3596" style="stop-color:#FBBE4D"/>
		<stop  offset="0.6267" style="stop-color:#F8AC25"/>
		<stop  offset="0.8493" style="stop-color:#F6A000"/>
		<stop  offset="1" style="stop-color:#F59C00"/>
	</linearGradient>
	<rect x="937.79" y="1073.24" class="st4" width="463.16" height="248.3"/>
</g>
<g>
	<defs>
		<rect id="SVGID_8_" y="0" width="1984.25" height="1417.32"/>
	</defs>
	<clipPath id="SVGID_9_">
		<use xlink:href="#SVGID_8_"  style="overflow:visible;"/>
	</clipPath>
	<path class="st5" d="M768.73,1021.01c0,0-51.14,40.58-19.78,104.44c-0.66-1.33-6.25-1.54-7.44-1.65
		c-6.63-0.61-11.56-0.11-17.87,2.25c-6.87,2.56-11.94,7.36-15.56,13.65c-0.99,1.72-1.86,3.52-2.61,5.36
		c-4.45,10.89-5.05,23.33-2.66,34.79c1.89,9.08,5.84,18.07,12.47,24.73c12.32,12.35,36.92,18.16,53.02,10.74
		c9.29-4.28,140.21-20.55,164.76-17.09c24.55,3.46,57.34,3.63,87.09-2.64c49.29-13.44,123.61,13.05,145.43,14.46
		c21.82,1.42,53.19,8.96,64.1-5.26c23.44-30.55,15.68-88.85-33.41-78.75c-4.77-0.01,32.05-67.85-21.14-103.28
		c0,0-59.33-56.45-203.2-59.55C828.06,960.1,768.73,1021.01,768.73,1021.01"/>
</g>
<g>
	<defs>
		<path id="SVGID_10_" d="M768.73,1021.01c0,0-51.14,40.58-19.78,104.44c-0.65-1.33-6.25-1.54-7.44-1.65
			c-6.63-0.62-11.56-0.11-17.87,2.25c-6.87,2.56-11.94,7.36-15.55,13.65c-0.99,1.72-1.86,3.52-2.61,5.36
			c-4.45,10.89-5.05,23.33-2.66,34.79c1.89,9.08,5.83,18.07,12.47,24.73c12.32,12.35,36.92,18.16,53.02,10.74
			c9.29-4.28,140.21-20.55,164.76-17.09c24.55,3.46,57.34,3.63,87.09-2.65c49.28-13.44,123.61,13.05,145.43,14.46
			c21.82,1.42,53.19,8.96,64.1-5.26c23.44-30.55,15.68-88.85-33.41-78.75c-4.77-0.01,32.05-67.85-21.14-103.28
			c0,0-59.33-56.45-203.2-59.55c-3.57-0.08-7.1-0.11-10.56-0.11C825.14,963.08,768.73,1021.01,768.73,1021.01"/>
	</defs>
	<clipPath id="SVGID_11_">
		<use xlink:href="#SVGID_10_"  style="overflow:visible;"/>
	</clipPath>
	<polygon class="st6" points="1253.13,963.86 700.42,962.38 700.42,959.75 1253.13,961.24 	"/>
	<polygon class="st6" points="1253.13,975 700.42,973.51 700.42,962.38 1253.13,963.86 	"/>
	<polygon class="st6" points="1253.13,986.13 700.42,984.65 700.42,973.51 1253.13,975 	"/>
	<polygon class="st6" points="1253.13,997.27 700.42,995.78 700.42,984.65 1253.13,986.13 	"/>
	<polygon class="st6" points="1253.13,1008.4 700.42,1006.92 700.42,995.78 1253.13,997.27 	"/>
	<polygon class="st6" points="1253.13,1019.53 700.42,1018.05 700.42,1006.91 1253.13,1008.4 	"/>
	<polygon class="st6" points="1253.13,1030.67 700.42,1029.18 700.42,1018.05 1253.13,1019.53 	"/>
	<polygon class="st6" points="1253.13,1041.8 700.42,1040.32 700.42,1029.18 1253.13,1030.67 	"/>
	<polygon class="st6" points="1253.13,1052.94 700.42,1051.45 700.42,1040.32 1253.13,1041.8 	"/>
	<polygon class="st6" points="1253.13,1064.07 700.42,1062.58 700.42,1051.45 1253.13,1052.94 	"/>
	<polygon class="st6" points="1253.13,1075.2 700.42,1073.72 700.42,1062.58 1253.13,1064.07 	"/>
	<polygon class="st6" points="1253.13,1086.34 700.42,1084.85 700.42,1073.72 1253.13,1075.2 	"/>
	<polygon class="st6" points="1253.13,1097.47 700.42,1095.99 700.42,1084.85 1253.13,1086.34 	"/>
	<polygon class="st6" points="1253.13,1108.61 700.42,1107.12 700.42,1095.99 1253.13,1097.47 	"/>
	<polygon class="st6" points="1253.13,1119.74 700.42,1118.25 700.42,1107.12 1253.13,1108.61 	"/>
	<polygon class="st6" points="1253.13,1130.87 700.42,1129.39 700.42,1118.25 1253.13,1119.74 	"/>
	<polygon class="st6" points="1253.13,1142.01 700.42,1140.52 700.42,1129.39 1253.13,1130.87 	"/>
	<polygon class="st6" points="1253.13,1153.14 700.42,1151.66 700.42,1140.52 1253.13,1142.01 	"/>
	<polygon class="st6" points="1253.13,1164.28 700.42,1162.79 700.42,1151.66 1253.13,1153.14 	"/>
	<polygon class="st6" points="1253.13,1175.41 700.42,1173.92 700.42,1162.79 1253.13,1164.27 	"/>
	<polygon class="st6" points="1253.13,1186.54 700.42,1185.06 700.42,1173.92 1253.13,1175.41 	"/>
	<polygon class="st6" points="1253.13,1197.68 700.42,1196.19 700.42,1185.06 1253.13,1186.54 	"/>
	<polygon class="st6" points="1253.13,1208.81 700.42,1207.33 700.42,1196.19 1253.13,1197.68 	"/>
	<polygon class="st6" points="1253.13,1219.94 700.42,1218.46 700.42,1207.32 1253.13,1208.81 	"/>
	<polygon class="st6" points="700.42,1218.46 1253.13,1219.94 1253.13,1224.08 700.42,1222.59 	"/>
</g>
<g>
	<defs>
		<path id="SVGID_12_" d="M910.57,984.1c-5.09,9.04-5.26,193.7-2.89,200.94c2.38,7.24,13.07,12.03,13.07,12.03s9.17,5.74,49.9,5.37
			c40.74-0.37,38.7-3.23,51.43-7.01c12.73-3.78,26.48-13.27,26.48-30.89c0-17.63,4.07-177.68-11.2-179.62
			c-9.94-1.27-58.52-5.06-92.62-5.06C926.46,979.85,912.35,980.94,910.57,984.1"/>
	</defs>
	<clipPath id="SVGID_13_">
		<use xlink:href="#SVGID_12_"  style="overflow:visible;"/>
	</clipPath>
	
		<linearGradient id="SVGID_14_" gradientUnits="userSpaceOnUse" x1="0" y1="1417.314" x2="1" y2="1417.314" gradientTransform="matrix(0 -222.547 -223.6357 -0.6013 317940.9375 2054.7625)">
		<stop  offset="0" style="stop-color:#FFDC88"/>
		<stop  offset="0.0601" style="stop-color:#FFD77E"/>
		<stop  offset="0.3596" style="stop-color:#FBBE4D"/>
		<stop  offset="0.6267" style="stop-color:#F8AC25"/>
		<stop  offset="0.8493" style="stop-color:#F6A000"/>
		<stop  offset="1" style="stop-color:#F59C00"/>
	</linearGradient>
	<polygon class="st7" points="905.31,1202.81 905.31,979.46 1052.64,979.85 1052.64,1203.2 	"/>
</g>
<g>
	<defs>
		<rect id="SVGID_15_" y="0" width="1984.25" height="1417.32"/>
	</defs>
	<clipPath id="SVGID_16_">
		<use xlink:href="#SVGID_15_"  style="overflow:visible;"/>
	</clipPath>
	<path class="st8" d="M1173.7,1168.14c-11.74-15.79-19.69-32.38-15.89-52.5c1.82-9.62,5.84-18.92,8.31-28.42
		c9.08-34.98,12.2-71.31,11.18-107.39c-0.83-29.18-4.37-58.23-9.78-86.92c-9.75-51.8-45.52-121.46-49.58-135.22
		c-4.06-13.76,9.95-53.65,9.95-53.65l0.27-1c-2.77,1.77-5.79,3.63-8.48,5.31c-23.49,14.61-46.29,29.68-67.69,47.27
		c-16.44,13.52-35.95,32.03-57.4,31.97c-34.51-0.09-61.15-22.19-90.1-37.57c-26.44-14.04-48.18-26.15-76.34-37.72l-2.55,3.9
		c0,0,8.35,38.13,4.29,51.87c-4.06,13.74-41.64,72.05-51.4,123.79c-5.4,28.66-8.95,57.7-9.78,86.87
		c-1.02,36.07,2.1,72.43,11.18,107.45c2.46,9.51,6.49,18.83,8.31,28.46c3.8,20.14-4.15,36.69-15.89,52.42
		c-4.55,6.1-7.89,13.14-9.31,20.64c-1.82,9.57-0.24,19.64,5.61,27.61c9.23,12.55,26.62,13.2,39.14,8.27c0,0,21.9,26.73,54.82,4.15
		c0.17-0.11,3.32,1.93,3.59,2.07c3.02,1.57,6.2,2.86,9.46,3.82c8.97,2.62,18.76,2.39,26.77-2.8c3.68-2.38,6.73-5.6,9.23-9.17
		c1.45-2.07,2.92-4.36,3.97-6.66c0.46-1,0.99-2.69,1.41-4.18c0.47-1.62,0.82-3,0.82-3s4.24,1.22,5.63,1.35
		c8.21,0.77,15.93-3.2,19.51-10.7c3.48-7.29,1.71-15.49-2.09-22.31c-4.03-7.24-10.05-13.3-16.35-18.61c0,0-9.58-8.18-8.75-23.94
		s18.95-80.25,3.95-148.83c0,0,28.1,9.5,53.23,9.57c25.13,0.07,53.31-9.28,53.31-9.28c-15,68.5,3.12,133.09,3.95,148.85
		c0.83,15.76-8.75,23.89-8.75,23.89c-6.3,5.27-12.32,11.31-16.35,18.52c-3.79,6.79-5.57,14.99-2.09,22.3
		c3.59,7.52,11.3,11.53,19.51,10.81c1.39-0.12,5.63-1.32,5.63-1.32s1.28,5.1,2.23,7.2c1.05,2.31,2.52,4.6,3.96,6.68
		c2.49,3.58,5.55,6.82,9.23,9.22c8.01,5.23,17.8,5.51,26.77,2.94c3.27-0.94,6.44-2.21,9.46-3.77c0.27-0.14,3.42-2.16,3.59-2.05
		c32.92,22.76,54.82-3.85,54.82-3.85c12.52,4.99,29.92,4.44,39.14-8.06c5.86-7.94,7.43-18.01,5.61-27.58
		C1181.59,1181.33,1178.25,1174.27,1173.7,1168.14"/>
	<path class="st9" d="M934.76,1082.36c0.76-0.39,1.93,0.18,3.26,1.31c1.35,1.14,2.94,2.88,4.43,5.17c1.49,2.31,2.46,4.81,2.68,6.76
		c0.19,1.98-0.25,3.27-1.05,3.47c-0.84,0.22-1.86-0.57-2.95-1.81c-1.13-1.25-2.46-2.98-3.84-5.13c-1.41-2.15-2.51-4.39-2.97-6.21
		C933.85,1084.07,934.01,1082.73,934.76,1082.36"/>
	<path class="st9" d="M965.36,1097.54c1.69,0.02,3.22,3.92,3.39,8.72c0.12,5.05-1.17,9.09-2.86,9.02c-1.69-0.07-3.16-3.98-3.27-8.73
		C962.44,1101.56,963.67,1097.52,965.36,1097.54"/>
	<path class="st9" d="M1007.15,1080.17c0.7,0.48,0.54,2.02-0.28,4.13c-0.83,2.1-2.28,4.7-4,7.37c-0.74,1.34-1.72,2.63-2.33,3.68
		c-0.32,0.51-0.66,1.02-0.99,1.61c-0.34,0.56-0.64,1.03-1.02,1.54c-0.36,0.49-0.71,0.91-1.04,1.26c-0.37,0.36-0.76,0.65-1.08,0.84
		c-0.66,0.39-1.16,0.44-1.5,0.19c-0.34-0.25-0.5-0.78-0.54-1.44c-0.02-0.33,0-0.67,0.03-1.08c0.01-0.44,0.05-0.92,0.12-1.44
		c0.07-0.49,0.17-1.13,0.3-1.76c0.11-0.62,0.33-1.36,0.61-2.15c0.54-1.6,1.36-2.93,2.23-4.5c1.88-2.93,3.95-5.2,5.67-6.65
		C1005.04,1080.35,1006.45,1079.69,1007.15,1080.17"/>
	<path class="st9" d="M1015.4,1100.58c0.81,0.31,1.35,1.09,1.7,2.11c0.35,1.04,0.52,2.48,0.28,4.18c-0.29,1.73-0.92,3.37-2.05,4.46
		c-0.45,0.51-1.16,0.86-1.64,0.95c-0.51,0.1-0.91-0.03-1.22-0.31c-0.32-0.28-0.53-0.68-0.71-1.09c-0.18-0.43-0.28-0.73-0.41-1.27
		c-0.18-0.86-0.29-2.17-0.04-3.66c0.22-1.54,0.75-3.05,1.54-4.11C1013.64,1100.76,1014.63,1100.28,1015.4,1100.58"/>
	<path class="st9" d="M986.12,1118.51c1.73,0.26,2.61,4.81,2.78,10.52c0.22,5.8-1.1,10.72-2.78,10.67
		c-1.71-0.05-3.12-4.62-3.35-10.52C982.58,1123.16,984.5,1118.26,986.12,1118.51"/>
	<path class="st9" d="M937.95,1116.8c0.63-0.55,2.03,0.06,3.89,1.71c0.86,0.84,1.65,1.94,2.54,3.22c0.81,1.26,1.54,2.7,2.25,4.19
		c0.7,1.43,1.23,2.91,1.76,4.14c0.25,0.67,0.49,1.31,0.72,1.92c0.22,0.62,0.4,1.23,0.52,1.85c0.12,0.6,0.22,1.14,0.25,1.63
		c-0.01,0.53-0.05,0.98-0.13,1.35c-0.16,0.74-0.47,1.14-0.88,1.22c-0.42,0.08-0.91-0.17-1.42-0.58c-0.25-0.21-0.51-0.47-0.76-0.76
		c-0.3-0.3-0.64-0.64-0.97-1.02c-0.34-0.4-0.7-0.84-1.09-1.31c-0.39-0.48-0.78-1.01-1.22-1.66c-0.9-1.26-1.59-2.69-2.35-4.23
		c-0.71-1.49-1.25-2.93-1.74-4.23c-0.51-1.23-0.85-2.45-1.16-3.44C937.48,1118.91,937.32,1117.35,937.95,1116.8"/>
	<path class="st9" d="M967.49,1152.1c1.58-0.51,4.27,3.26,5.45,8.69c0.42,2.77,0.6,5.29,0.04,7.2c-0.46,1.88-1.18,2.95-2.02,2.93
		c-0.85-0.03-1.67-1.1-2.31-2.69c-0.53-1.58-1.35-3.77-1.72-6.25C965.86,1157.04,965.85,1152.63,967.49,1152.1"/>
	<path class="st9" d="M1001.03,1148.48c0.7,0.51,0.52,2.1-0.08,4.23c-0.54,2.18-1.39,5.01-2.42,8.28c-1.01,3.29-2.23,6.34-3.5,8.43
		c-1.3,2.1-2.54,3.18-3.32,2.87c-0.8-0.32-1-1.92-0.81-4.22c0.18-2.32,0.7-5.45,1.77-8.94c1.1-3.5,2.79-6.59,4.46-8.5
		C998.88,1148.76,1000.36,1148,1001.03,1148.48"/>
	<path class="st9" d="M972.82,1071.86c1.73-0.06,3.29,3.07,4.12,7.02c0.89,3.95,0.69,7.5-0.93,8.09c-1.56,0.57-4.09-2.42-5.07-6.82
		C970.01,1075.72,971.16,1071.91,972.82,1071.86"/>
	<path class="st9" d="M933.69,1139.3c0.7-0.46,1.77-0.1,2.99,0.99c1.32,1.1,2.31,2.86,3.16,4.92c0.76,1.93,1.08,3.84,1.19,5.17
		c0.07,1.4-0.23,2.54-0.95,2.97c-0.73,0.43-1.78,0.02-2.95-1.09c-1.24-1.13-2.22-2.86-3.03-4.9c-0.77-1.88-1.08-3.77-1.25-5.06
		C932.74,1140.92,932.99,1139.76,933.69,1139.3"/>
	<path class="st9" d="M1015.4,1124.95c0.7,0.49,0.96,1.5,0.99,2.6c0.08,1.14-0.01,2.4-0.28,3.92c-0.44,3.08-1.91,6.12-3.64,5.93
		c-1.64-0.19-2.98-2.96-2.41-6.97c0.34-2.01,1.34-3.82,2.44-4.79C1013.65,1124.66,1014.72,1124.47,1015.4,1124.95"/>
	<path class="st9" d="M848.97,904.22c-3.34,0.35-6.9,0.03-10.6-1.08c-13.98-4.18-16.07-20.34-18.97-32.5
		c-2.13-8.96,0.26-19.6,2.25-26.82c4.41-16.04,14.37-17.74,18.45-17.73c1.19,0,2.4,0.14,3.6,0.4c10.33,2.24,13.64,13.5,15.61,20.23
		c0.29,0.98,0.56,1.91,0.83,2.73c0.6,1.81,1.3,3.64,2.01,5.5c3.64,9.51,11,18.49,8.11,29.49
		C867.34,895.6,859.24,903.14,848.97,904.22 M840.1,840.21c-1.61,0-3.57,3.03-4.76,7.38c-0.91,3.3-3.67,13.35-2.13,19.84
		c2.37,9.94,6.97,17.81,11.19,19.13l0.16,0.02c2.05,0.01,6.53-4.59,7.67-8.57c1.54-5.37-0.82-11.54-3.32-18.07
		c-0.79-2.06-1.57-4.11-2.23-6.11c-0.32-0.96-0.63-2.04-0.97-3.19c-0.87-2.96-2.9-9.91-4.97-10.35
		C840.5,840.24,840.29,840.22,840.1,840.21"/>
	<path class="st9" d="M1167.77,1026.71c7.55,7.46,7.59,18.72,2.52,27.56c-7.16,12.5-31.52,34.54-47.16,23.57
		c-11.44-8.03-4.67-20.76,0.77-29.93C1132.33,1033.69,1148.86,1008.04,1167.77,1026.71 M1129.85,1067.08
		c6.17,8.3,22.92-11.53,25.74-15.47c1.96-2.74,3.53-6.06,2.95-9.38c-2.56-14.81-18,4.09-20.62,8.6
		c-1.79,3.08-10.68,12.43-8.17,16.12L1129.85,1067.08z"/>
	<path class="st9" d="M1052.5,963.43c8.89-0.95,16.31,5.01,19.45,13.01c4.43,11.31,6.06,38.88-9.41,43.23
		c-11.32,3.18-16.11-7.99-19.27-16.41C1038.37,990.21,1030.24,965.81,1052.5,963.43 M1059.01,1009.57
		c8.72,0.4,4.52-21.05,3.42-24.98c-0.76-2.73-2.12-5.52-4.61-6.91c-11.09-6.2-6.82,13.89-5.24,17.99c1.08,2.8,2.53,13.56,6.28,13.89
		L1059.01,1009.57z"/>
	<path class="st9" d="M1133.13,1140.46l-0.24,0.16c-8.35,5.5-19.76,1.57-26.27-5.05c-9.89-10.07-21.75-48.37-7.25-60.01
		c10.6-8.52,18.35,10.84,25.56,18.4c6.21,6.51,15.74,11.32,19.22,20.02C1147.87,1123.3,1140.92,1135.17,1133.13,1140.46
		 M1105.27,1094.34c-9.47,3.52,4.79,24.52,7.76,28.23c2.06,2.57,4.78,4.93,8.06,5.29c14.65,1.61,0.92-17.91-2.63-21.58
		c-2.43-2.5-8.89-13.33-13.04-11.99L1105.27,1094.34z"/>
	<path class="st9" d="M900.93,917.94c-2.4-9.31-13.29-18.56-23.18-16.02c-7.78,2-14.82,8.76-19.01,15.34
		c-4.57,7.18-5.23,16.2-6.35,24.42c-1.09,7.96-1.54,16.89,3.07,23.95c3.35,5.13,12.25,5.31,17.37,3.4c1.84-0.69,3.56-1.76,5.16-3.09
		c6.3-5.22,10.91-14.47,14.85-20.61C897.76,937.69,903.4,927.54,900.93,917.94 M875.14,948.86c-1.77,1.26-3.63,1.84-5.47,1.39
		c-4.8-1.18-4.97-8.35-4.39-12.19c0.94-6.31,8.02-23.26,17.08-17.48C891.33,926.32,881.15,944.57,875.14,948.86"/>
	<path class="st9" d="M867.19,1058.57c-0.51,8.54,6.2,19.32,15.28,19.85c7.14,0.41,14.97-3.41,20.32-7.84
		c5.85-4.84,8.86-12.3,12.06-18.97c3.1-6.45,5.92-13.89,3.94-21.11c-1.44-5.25-8.94-7.82-13.81-7.58c-1.75,0.09-3.5,0.53-5.22,1.22
		c-6.77,2.72-13.21,9.3-18.23,13.43C875.28,1042.7,867.71,1049.77,867.19,1058.57 M897.52,1039.37c1.85-0.59,3.58-0.58,5.02,0.3
		c3.75,2.3,1.93,8.41,0.39,11.51c-2.53,5.09-13.16,17.53-19.27,10.18C877.62,1054.08,891.25,1041.37,897.52,1039.37"/>
	<path class="st9" d="M817.93,957.73c7.54-0.31,20.81-8.4,20.42-16.34c-0.3-6.25-1.45-14.64-5.84-18.9
		c-4.8-4.65-14.57-4.69-20.71-6.88c-5.95-2.12-12.75-3.92-18.9-1.56c-4.48,1.71-6.03,8.46-5.37,12.68c0.24,1.51,0.79,3,1.56,4.43
		c3.02,5.65,8.52,12.27,12.61,16.27C806.8,952.41,810.16,958.05,817.93,957.73 M802.67,931.76c-0.69-1.56-0.84-3.07-0.21-4.39
		c1.67-3.47,7.21-2.42,10.07-1.36c4.71,1.75,16.61,9.89,10.73,15.85C817.45,947.76,805.02,937.04,802.67,931.76"/>
	<path class="st9" d="M897.89,1132.58c7.61-4.17,15-16.76,12.7-26.11c-1.8-7.35-7.51-13.07-13.01-15.98
		c-6-3.18-13.43-2.1-20.22-1.65c-6.57,0.44-13.93,1.69-19.64,7.62c-4.15,4.31-4.12,13.19-2.44,17.93c0.6,1.7,1.52,3.2,2.65,4.54
		c4.43,5.27,12.13,8.08,17.26,10.83C881.58,1133.2,890.05,1136.87,897.89,1132.58 M871.93,1112.83c-1.08-1.52-1.59-3.26-1.26-5.17
		c0.87-5,6.77-6.53,9.94-6.69c5.21-0.27,19.3,3.53,14.73,13.65C890.81,1124.63,875.58,1118,871.93,1112.83"/>
	<path class="st9" d="M1099.66,889.71c-19.57-11.63-40.81,15.14-36.4,33.82c1.55,6.54,3.67,11.23,10.66,12.29
		c11.6,1.77,24.94-6.62,29.92-16.91C1108.17,909.97,1109.65,895.65,1099.66,889.71 M1091.95,912.99c-1.98,4.08-8.91,9.17-13.68,7.39
		c-11.67-4.38,1.13-26.51,11.85-20.14C1094.48,902.84,1093.84,909.09,1091.95,912.99"/>
	<path class="st9" d="M1105.21,1047.41c25.91-3.81,31.26-40.38,16.13-52.74c-5.3-4.33-10.09-6.73-17.56-2.82
		c-12.4,6.49-20.62,22.51-19.56,34.39C1085.15,1036.57,1091.98,1049.36,1105.21,1047.41 M1099.31,1022.97
		c-0.42-4.71,3.43-13.65,9.14-15.44c13.97-4.38,14.22,22.6,0.03,24.68C1102.7,1033.07,1099.72,1027.48,1099.31,1022.97"/>
	<path class="st9" d="M1080.78,1114.99c6.34-7.88,0.26-19.98-7.76-27.35c-11.08-10.17-42.79-15.7-39.71,7.15
		c1.12,8.3,9.64,17.04,16.58,21.79c5.56,3.8,15.53,12.82,22.41,11.28C1076.51,1126.93,1078.74,1117.52,1080.78,1114.99
		 M1057.5,1106.81c-1.25-0.82-2.33-1.78-3.11-2.77c-5.88-7.42-1.29-17.36,8.18-13.07c5.45,2.47,11.5,9.9,6.98,15.71
		C1066.61,1110.46,1061.29,1109.3,1057.5,1106.81"/>
	<path class="st9" d="M792.93,960.28c-27.58,2.81-31.02,43.36-13.99,58.01c5.97,5.13,11.26,8.09,19.03,4.14
		c12.91-6.55,20.72-23.99,18.83-37.32C815.16,973.52,807.01,958.84,792.93,960.28 M800.81,987.91c0.75,5.29-2.82,15.05-8.84,16.73
		c-14.73,4.11-16.7-26.04-1.59-27.58C796.53,976.44,800.09,982.85,800.81,987.91"/>
	<path class="st9" d="M841.31,1095.88c-7.27-10.61-35.51-16.92-42.72-3.01c-0.71,1.37-1.1,2.86-1.08,4.44
		c0.06,6.17,3.46,11.84,4.95,17.8c1.42,5.72-0.88,9.74-3.5,14.97c-0.8,1.59-1.47,3.28-1.28,4.99c0.26,2.36,2.16,4.44,4.51,5.88
		c7.69,4.7,16.21,3.2,24.99,2.22c12.18-1.35,18.92-12.25,20.64-21.2C849.55,1113.01,846.62,1103.62,841.31,1095.88 M833.88,1119.49
		c-0.82,4.97-3.29,9.7-6.8,12.57c-5.27,4.32-12.6,2.49-12.31-4.2c0.09-2.1,0.94-4.11,1.57-6.15c1.34-4.3-2.89-18.06,2.55-20.44
		c1.96-0.86,4.46-0.58,6.44,0.26C832.83,1104.7,835.07,1112.33,833.88,1119.49"/>
	<path class="st9" d="M1127.46,962.1c7.91-9.39,5.45-33.07-9.93-33.44c-1.52-0.04-3.05,0.22-4.54,0.81
		c-5.85,2.3-10.21,6.95-15.43,10.26c-5,3.17-9.52,2.9-15.27,2.83c-1.75-0.02-3.55,0.09-5.12,0.86c-2.16,1.06-3.58,3.26-4.24,5.57
		c-2.16,7.54,1.81,13.44,5.37,19.73c4.93,8.72,17.3,9.84,26.32,7.86C1113.65,974.6,1121.69,968.95,1127.46,962.1 M1102.8,965.12
		c-4.96,1.19-10.21,1.06-13.98-0.54c-5.68-2.41-6.14-8.63,0.3-10.86c2.02-0.7,4.19-0.8,6.31-1.06c4.49-0.56,16.3-8.8,20.18-5.55
		c1.4,1.17,1.89,3.16,1.68,4.97C1116.54,958.91,1109.96,963.39,1102.8,965.12"/>
	<path class="st9" d="M847.49,972.94c-5.17-0.02-10.04,1.52-14.65,5.07c-6.7,5.17-12.08,14.51-6.46,22.44
		c4.25,6,11.55,6.27,17.76,9.18c4.79,2.25,9.26,5.2,13.18,8.74c3.67,3.31,6.41,7.84,12.09,5.74c7.38-2.73,9.78-9.4,12.75-15.98
		c7.57-16.76-12.69-30.24-26.49-34.01C852.86,973.37,850.14,972.95,847.49,972.94 M864.47,990.84c3.26,2.4,5.99,5.43,7.39,8.8
		c3.04,7.27-2.8,11.74-9.17,8.5c-5.22-2.66-8.73-7.79-13.83-10.54c-1.49-0.8-3.03-1.57-4.27-2.71c-1.25-1.14-2.19-2.74-2.1-4.42
		c0.29-5.41,5.68-5.71,9.92-4.97C856.37,986.19,860.76,988.11,864.47,990.84"/>
	<path class="st9" d="M1055.27,1029.25c-5.17-0.02-10.04,1.52-14.65,5.07c-6.7,5.17-12.08,14.51-6.46,22.44
		c4.25,6,11.55,6.27,17.76,9.18c4.79,2.25,9.26,5.2,13.18,8.74c3.67,3.31,6.42,7.85,12.09,5.74c7.38-2.73,9.78-9.41,12.75-15.98
		c7.57-16.76-12.69-30.24-26.49-34.01C1060.64,1029.67,1057.92,1029.25,1055.27,1029.25 M1072.25,1047.15
		c3.26,2.4,5.98,5.43,7.39,8.8c3.04,7.27-2.8,11.74-9.17,8.5c-5.22-2.66-8.73-7.79-13.83-10.54c-1.49-0.8-3.03-1.57-4.27-2.71
		c-1.25-1.14-2.19-2.74-2.1-4.42c0.29-5.41,5.68-5.71,9.92-4.97C1064.14,1042.5,1068.54,1044.42,1072.25,1047.15"/>
	<path class="st9" d="M854.35,1035.47l-0.03-0.05c-3.66-5.91-10.17-3.73-15.91-5.04c-7.6-1.73-14.34-6.19-22.28-6.31
		c-7.23-0.11-14.59,2.56-19.66,7.76c-11.46,11.73-9.02,33.1,5.36,41.29c11.42,6.51,27.13,3.51,37.49-3.53
		C848.51,1063.34,861.51,1047.15,854.35,1035.47 M802.5,1058.9c-2.24-4.48,1.58-10.88,5.4-13.22c4.66-2.85,9.45-2.2,14.56-2.15
		c0.19,0,0.38,0,0.56,0c4.27,0.01,15.26-1.98,14.6,5.52C836.52,1061.6,809.13,1072.15,802.5,1058.9"/>
	<path class="st9" d="M919.87,958.8c-1.28-0.41-2.8-0.32-4.57,0c-5.37,0.97-10.66,1.5-15.74,3.64c-4.74,2-9,4.95-11.37,9.63
		c-4.76,9.39,0.26,23.61,12.16,23.76c7.95,0.1,15.9-6.47,19.88-13.65c2.94-5.3,5.17-13.95,2.9-19.85
		C922.35,960.3,921.26,959.25,919.87,958.8 M897.17,987.64c-1.65-0.95-2.42-2.94-1.27-6.4c1.07-3.2,15.79-17.35,18.27-10.08
		c1.74,5.09-2.69,11.22-6.31,14.35C905.12,987.87,899.92,989.22,897.17,987.64"/>
	<path class="st9" d="M837.27,734.22c1.63,1.03,3.2,2.51,4.07,3.64c4.06,5.25,11.05,11.93,10.57,19.32
		c-0.79,12.23-11.71,4.76-14.41-2.04c-2.11-5.32-6.09-12.41-6.1-18.21C831.38,731.95,834.43,732.42,837.27,734.22"/>
	<path class="st9" d="M906.14,761.28c1.63,1.03,3.2,2.51,4.07,3.64c4.06,5.25,11.05,11.93,10.57,19.32
		c-0.79,12.23-11.71,4.76-14.41-2.04c-2.11-5.32-6.09-12.41-6.1-18.21C900.25,759,903.3,759.47,906.14,761.28"/>
	<path class="st9" d="M943.86,789.85c1.67,1.43,3.19,3.34,3.99,4.75c3.71,6.56,10.48,15.21,8.74,23.44
		c-2.89,13.63-13.96,3.46-15.89-4.63c-1.51-6.32-4.82-14.94-3.9-21.47C937.6,786.33,940.95,787.36,943.86,789.85"/>
	<path class="st9" d="M950.41,841.54c1.96,1.24,3.84,3.01,4.89,4.37c4.87,6.3,13.26,14.32,12.68,23.18
		c-0.95,14.68-14.05,5.72-17.3-2.45c-2.54-6.38-7.3-14.89-7.33-21.85C943.34,838.81,947,839.38,950.41,841.54"/>
	<path class="st9" d="M1043.29,952.45c0.16-1.43,0.63-2.96,1.1-3.92c2.2-4.44,4.38-11.3,9.53-13.41c8.52-3.49,7.1,6.26,3.41,10.3
		c-2.89,3.16-6.35,8.15-10.26,10.06C1043.71,957.13,1043.02,954.94,1043.29,952.45"/>
	<path class="st9" d="M949.34,921.72c-0.94-1.1-1.72-2.5-2.09-3.5c-1.72-4.65-5.22-10.98-3.21-16.14c3.32-8.55,9.44-0.79,9.84,4.67
		c0.32,4.26,1.56,10.21,0.27,14.36C953.04,924.65,950.97,923.63,949.34,921.72"/>
	<path class="st9" d="M924.33,821.08c-0.94-1.1-1.72-2.5-2.09-3.5c-1.72-4.65-5.22-10.98-3.21-16.14c3.32-8.55,9.44-0.79,9.84,4.67
		c0.32,4.26,1.56,10.21,0.27,14.36C928.03,824.02,925.96,823,924.33,821.08"/>
	<path class="st9" d="M991.09,931.56c-0.36-1.69-0.39-3.61-0.21-4.87c0.84-5.87,0.77-14.51,5.84-18.81
		c8.4-7.13,10.42,4.51,7.72,10.49c-2.11,4.67-4.19,11.63-7.93,15.27C993.32,936.74,991.71,934.5,991.09,931.56"/>
	<path class="st9" d="M998.55,1034.85c-0.36-1.69-0.39-3.61-0.21-4.87c0.84-5.87,0.77-14.51,5.84-18.81
		c8.4-7.13,10.42,4.51,7.72,10.49c-2.11,4.67-4.19,11.63-7.93,15.27C1000.78,1040.04,999.17,1037.79,998.55,1034.85"/>
	<path class="st9" d="M941.49,1029.93c-1.84-1.48-3.54-3.48-4.44-4.97c-4.21-6.92-11.77-15.97-10.17-24.87
		c2.64-14.73,14.86-4.19,17.21,4.44c1.83,6.74,5.68,15.88,4.91,22.92C948.33,1033.49,944.69,1032.5,941.49,1029.93"/>
	<path class="st9" d="M946.71,978.26c-1.81-1.43-3.47-3.37-4.36-4.81c-4.13-6.7-11.55-15.47-10-24.07
		c2.57-14.25,14.55-4.03,16.87,4.32c1.8,6.52,5.59,15.37,4.84,22.17C953.42,981.72,949.86,980.75,946.71,978.26"/>
	<path class="st9" d="M970.99,1020.81c-0.99-1.67-1.72-3.67-1.98-5.05c-1.22-6.4-4.42-15.43-0.56-21.37
		c6.39-9.84,12.76,1.8,12.04,8.82c-0.56,5.49-0.27,13.38-2.95,18.24C975.25,1025.62,972.72,1023.72,970.99,1020.81"/>
	<path class="st9" d="M961.31,1059.83c-0.99-1.67-1.72-3.67-1.98-5.05c-1.22-6.4-4.42-15.43-0.56-21.37
		c6.39-9.84,12.76,1.8,12.04,8.82c-0.56,5.49-0.27,13.38-2.95,18.24C965.57,1064.65,963.04,1062.74,961.31,1059.83"/>
	<path class="st9" d="M981.24,1066.59c-0.5-1.31-0.78-2.82-0.8-3.83c-0.09-4.7-1.28-11.51,2.19-15.27c5.74-6.23,8.87,2.81,7.5,7.72
		c-1.07,3.84-1.82,9.49-4.31,12.62C983.69,1070.53,982.12,1068.87,981.24,1066.59"/>
	<path class="st9" d="M1005.79,1060.55c-0.01-1.4,0.26-2.91,0.6-3.86c1.56-4.43,2.85-11.21,7.43-13.53
		c7.58-3.83,7.32,5.72,4.32,9.84c-2.35,3.22-5.04,8.24-8.48,10.31C1006.7,1065.08,1005.81,1062.99,1005.79,1060.55"/>
	<path class="st9" d="M940.38,1068.43c-0.99-1-1.85-2.28-2.27-3.2c-1.98-4.27-5.8-10.05-4.14-14.88c2.75-8.01,9.24-0.96,9.97,4.09
		c0.57,3.94,2.16,9.43,1.14,13.3C944.2,1071.06,942.1,1070.17,940.38,1068.43"/>
	<path class="st9" d="M974.09,901.62c-0.73-1.58-1.19-3.44-1.3-4.69c-0.5-5.82-2.51-14.18,1.48-19.13c6.62-8.2,11.23,2.78,9.93,8.98
		c-1.01,4.85-1.49,11.92-4.33,16.02C977.44,906.31,975.36,904.38,974.09,901.62"/>
	<path class="st9" d="M1108.84,798.01c0.02-1.59,0.38-3.31,0.79-4.41c1.93-5.1,3.6-12.86,9.01-15.71c8.97-4.73,8.45,6.11,4.83,10.94
		c-2.83,3.77-6.09,9.6-10.17,12.12C1109.81,803.1,1108.81,800.77,1108.84,798.01"/>
	<path class="st9" d="M1094.14,778.87c0.02-2.02,0.48-4.22,1.01-5.62c2.47-6.5,4.59-16.4,11.49-20.03
		c11.44-6.03,10.78,7.8,6.16,13.95c-3.6,4.8-7.77,12.24-12.97,15.45C1095.37,785.37,1094.1,782.39,1094.14,778.87"/>
	<path class="st9" d="M1098.28,740.2c0.02-1.8,0.43-3.77,0.9-5.02c2.2-5.8,4.1-14.63,10.26-17.88c10.21-5.38,9.62,6.96,5.5,12.45
		c-3.22,4.29-6.93,10.93-11.58,13.79C1099.37,746,1098.24,743.34,1098.28,740.2"/>
	<path class="st9" d="M860.35,772.28c6.22-0.69,14.33,6.83,18.06,11.6c6.64,8.52,16.19,32.27,2.24,39.3
		c-5.05,2.54-13.5-2.03-17.17-5.23c-6.25-5.45-6.64-12.31-8.11-19.78c-1.19-6.09-3.62-12.61-1.73-18.8
		C855.09,774.61,857.52,772.6,860.35,772.28"/>
	<path class="st9" d="M907.65,826.26c-4.09,7.61,1.52,26.04,2.75,30.89c1.87,7.37,10.96,15.59,17.14,6.98
		c4.51-6.28-1.96-23.11-4.64-29.55C920.9,829.77,912.5,817.22,907.65,826.26"/>
	<path class="st9" d="M910.97,885.38c-4.09,7.61,1.52,26.04,2.75,30.89c1.86,7.37,10.96,15.59,17.14,6.98
		c4.51-6.28-1.96-23.11-4.64-29.55C924.21,888.89,915.82,876.34,910.97,885.38"/>
	<path class="st9" d="M1062.16,889.57c8.39-2.21,18.07-18.85,20.78-23.04c4.13-6.37,3.93-18.59-6.62-17.21
		c-7.69,1-15.62,17.16-18.51,23.51C1055.67,877.55,1052.21,892.2,1062.16,889.57"/>
	<path class="st9" d="M1083.95,838.05c8.65-2.93,14.62-21.63,16.44-26.36c2.75-7.19-0.94-20.47-12.23-18.32
		c-8.23,1.57-12.39,19.65-13.79,26.73C1073.34,825.38,1073.68,841.53,1083.95,838.05"/>
	<path class="st9" d="M890.24,842.09c2.73,4.87,3.2,10.35,4.37,15.69c1.24,5.64,7.64,16.23-0.64,19.02
		c-13.29,4.48-21.96-24.91-18.31-33.77c1.86-4.51,7.49-6.57,11.78-4.01C888.59,839.72,889.5,840.78,890.24,842.09"/>
	<path class="st9" d="M1033.24,869.35c-3.69-7.04-2.51-15.54,0.45-22.59c1.58-3.78,9.37-18.64,14.98-15.42
		c4.91,2.82,4.19,13.05,3.3,17.6c-0.82,4.23-8.83,31.77-17.09,22.78C1034.23,871,1033.69,870.21,1033.24,869.35"/>
	<path class="st9" d="M1057.4,777.03c4.76,7.66,4.15,17.37,1.41,25.59c-1.47,4.41-9.02,21.87-15.63,18.71
		c-5.79-2.77-5.84-14.41-5.22-19.63c0.57-4.86,7.29-36.68,17.4-27.2C1056.13,775.24,1056.82,776.09,1057.4,777.03"/>
	<path class="st9" d="M1012.05,844.34c6.14,8.32,6.19,18.35,3.64,26.67c-1.36,4.46-8.77,21.99-16.7,18.19
		c-6.95-3.33-7.92-15.4-7.61-20.77c0.28-5,5.59-37.49,18.09-26.86C1010.45,842.39,1011.3,843.32,1012.05,844.34"/>
	<path class="st9" d="M1009.64,957.92c4.29,7.17,3.54,15.71,0.83,22.77c-1.45,3.78-8.8,18.63-14.89,15.29
		c-5.34-2.93-5.17-13.23-4.5-17.8c0.62-4.25,7.46-31.88,16.7-22.66C1008.49,956.24,1009.11,957.05,1009.64,957.92"/>
	<path class="st9" d="M876.6,740.09c5.67,2.3,11.79,16.36,9.73,21.98c-1.72,4.7-6.91,7.09-11.31,4.41
		c-6.22-3.79-10.73-9.68-13.8-16.18c-1.25-2.65-7.27-16.86-3.41-17.26C861.69,732.64,876.6,740.09,876.6,740.09"/>
	<path class="st9" d="M978.36,918.64c4.9,8.78,4.8,18.94,3.24,28.79c-0.93,5.89-3.62,18.53-11.09,15.66
		c-13.1-5.02-12.58-33.78-7.31-45.38C966.65,910.12,975.11,912.82,978.36,918.64"/>
	<path class="st9" d="M1041.25,894.94c1.85,9.86-1.49,19.46-6.11,28.3c-2.77,5.29-9.35,16.41-15.53,11.33
		c-10.83-8.9-1.17-35.98,7.54-45.3C1032.86,883.17,1040.02,888.41,1041.25,894.94"/>
	<path class="st9" d="M982.64,807.5c2.23,9.77,6.95,22.28,3.38,32.2c-1.94,5.39-7.37,8.86-12.27,5.02
		c-6.88-5.4-6.94-13.21-7.32-21.02c-0.33-6.8-2.87-15.37,1.03-21.63C972.62,793.77,981.02,800.41,982.64,807.5"/>
	<path class="st9" d="M1016.84,798.35c4.71,8.22,1.98,19.97-3.6,27.07c-4.94,6.29-12.17,8.58-12.52-1.78
		c-0.43-12.67,3.59-27.74,8.68-28.54C1012.95,794.55,1015.44,795.92,1016.84,798.35"/>
	<path class="st9" d="M1088.73,750.24c4.79,9.28,2.01,22.56-3.66,30.58c-5.02,7.11-12.37,9.69-12.73-2.01
		c-0.44-14.31,3.65-31.34,8.83-32.24C1084.77,745.95,1087.31,747.5,1088.73,750.24"/>
	<path class="st9" d="M748.28,1047.03c-3.34,5.89-5.95,13.47-7.71,21.03c6.12-3.84,11.54,0.15,13.94,6.53
		c2.12,7.47-0.21,19.7-9.84,20.08c-2.17,0.09-3.97-0.62-5.44-1.81c0.5,4.21,1.59,10.92,3.95,18.44
		c12.69-1.13,22.89-15.44,23.48-29.14C767.18,1069.52,759.36,1051.88,748.28,1047.03"/>
	<path class="st9" d="M789.03,1128.15c0.21-2.86,0.05-7.06-0.21-9.12c-0.06-0.48-0.17-1.19-0.31-2.01c-2,0.33-3.85,0.36-5.23,0.05
		c-1.82-0.41-3.37-1.36-4.42-3.01c-2.72-4.3,0.61-9.37,2.85-11.61c0.63-0.63,1.54-1.34,2.62-2.04c-0.05-0.15-0.11-0.3-0.16-0.45
		c-1.05-2.72-3.2-10.03-4.05-12.99c-3.26,2.48-6.13,5.7-8.97,8.62c-4.57,4.71-9.17,10.55-9.41,18.77
		c-0.17,5.97,5.84,12.56,10.27,14.96c1.59,0.86,3.28,1.37,5.02,1.61c3.88,0.55,7.99-0.2,11.87-1.2
		C788.94,1129.33,788.98,1128.82,789.03,1128.15"/>
</g>
<g>
	<defs>
		<path id="SVGID_17_" d="M1119.67,708.35c-23.49,14.61-46.29,29.68-67.69,47.27c-16.44,13.51-35.95,32.03-57.4,31.97
			c-34.51-0.09-61.14-22.19-90.1-37.57c-26.44-14.04-48.18-26.15-76.34-37.72l-2.55,3.9c0,0,8.35,38.13,4.29,51.86
			c-4.06,13.74-41.64,72.05-51.4,123.79c-5.4,28.66-8.95,57.7-9.78,86.87c-1.02,36.07,2.1,72.43,11.18,107.45
			c2.47,9.51,6.49,18.83,8.31,28.46c3.8,20.14-4.15,36.69-15.89,52.42c-4.55,6.1-7.89,13.14-9.31,20.64
			c-1.82,9.57-0.24,19.64,5.62,27.61c9.23,12.55,26.62,13.2,39.14,8.27c0,0,21.91,26.73,54.83,4.15c0.16-0.11,3.32,1.93,3.59,2.07
			c3.02,1.57,6.2,2.87,9.46,3.82c8.97,2.62,18.76,2.39,26.77-2.8c3.67-2.38,6.73-5.6,9.23-9.17c1.45-2.07,2.92-4.36,3.96-6.65
			c0.46-1,0.99-2.69,1.42-4.18c0.47-1.62,0.81-3,0.81-3s4.24,1.22,5.63,1.35c8.22,0.77,15.93-3.2,19.52-10.71
			c3.48-7.29,1.71-15.49-2.09-22.31c-4.03-7.24-10.05-13.3-16.35-18.61c0,0-9.58-8.18-8.75-23.94
			c0.83-15.76,18.96-80.25,3.96-148.83c0,0,28.1,9.5,53.23,9.57c25.13,0.07,53.31-9.28,53.31-9.28c-15,68.5,3.12,133.09,3.95,148.85
			c0.83,15.76-8.75,23.89-8.75,23.89c-6.3,5.27-12.32,11.3-16.35,18.52c-3.8,6.79-5.57,14.99-2.09,22.3
			c3.59,7.52,11.3,11.53,19.51,10.81c1.39-0.12,5.63-1.32,5.63-1.32s1.28,5.11,2.23,7.2c1.05,2.31,2.52,4.6,3.96,6.68
			c2.49,3.58,5.55,6.82,9.23,9.22c8.01,5.23,17.8,5.51,26.77,2.94c3.27-0.94,6.44-2.21,9.46-3.77c0.27-0.14,3.43-2.16,3.59-2.05
			c32.92,22.76,54.82-3.85,54.82-3.85c12.52,4.99,29.92,4.44,39.14-8.06c5.86-7.94,7.43-18.01,5.61-27.58
			c-1.43-7.5-4.76-14.56-9.31-20.69c-11.74-15.79-19.69-32.38-15.89-52.5c1.82-9.62,5.84-18.92,8.31-28.42
			c9.08-34.97,12.2-71.31,11.18-107.39c-0.83-29.18-4.38-58.23-9.78-86.92c-9.76-51.79-45.52-121.46-49.58-135.22
			c-4.06-13.76,9.95-53.65,9.95-53.65l0.27-1C1125.38,704.82,1122.36,706.68,1119.67,708.35"/>
	</defs>
	<clipPath id="SVGID_18_">
		<use xlink:href="#SVGID_17_"  style="overflow:visible;"/>
	</clipPath>
	<path class="st10" d="M837.98,782.38c-0.71-5.25-3.55-9.38-8.22-11.93c-1.49-0.82-2.98-1.33-4.45-1.58
		c-4.25,7.87-20.64,38.33-29.22,55.85l0.92,0.47c1.3,0.67,2.75,1.07,4.3,1.17c8.85,0.63,19.37-8.59,22.38-11.43
		C829.47,809.5,839.61,794.35,837.98,782.38 M816.09,807.26c-3.19,3.01-7.03,5.71-10.04,7.23c2.15-4.51,4.37-9.08,6.63-13.69
		c2.41-4.89,4.99-10.1,7.74-15.24c0.35-0.66,0.7-1.36,1.05-2.07c0.59-1.19,1.63-3.31,2.36-4.05c0.15,0.05,0.36,0.14,0.64,0.3
		c1.63,0.89,2.43,2.08,2.69,3.98C828.15,790.93,820.55,803.06,816.09,807.26"/>
	<path class="st10" d="M1110.93,867.36c4.97,8.25,22.23,18.18,30.97,12.94c6.87-4.13,15.66-10.5,17.78-18
		c2.32-8.19-3.63-19.14-4.92-27.35c-1.25-7.94-3.38-16.64-9.82-22.1c-4.68-3.97-13.25-1.61-17.61,1.69c-1.56,1.18-2.9,2.7-4.06,4.43
		c-4.53,6.8-8.64,16.98-10.65,23.98C1110.11,851.68,1105.8,858.86,1110.93,867.36 M1130.91,834.53c1.33-1.71,2.95-2.8,4.84-2.89
		c4.94-0.23,7.15,6.59,7.71,10.44c0.91,6.32-0.99,24.59-11.33,21.62C1121.89,860.76,1126.39,840.36,1130.91,834.53"/>
	<path class="st10" d="M1157.3,887.69c-8.36-2.4-22.54,1.33-27.54,9.55c-3.93,6.46-3.92,14.51-2.08,20.42
		c2.01,6.46,8.06,10.92,13.21,15.36c4.98,4.3,11.1,8.58,19.36,8.39c6-0.13,12.28-6.44,14.44-10.96c0.77-1.63,1.19-3.33,1.34-5.07
		c0.59-6.83-2.89-14.23-4.59-19.77C1169.33,898.7,1165.91,890.16,1157.3,887.69 M1161.76,919.88c-0.31,1.83-1.18,3.42-2.77,4.54
		c-4.17,2.92-9.44-0.13-11.81-2.24c-3.9-3.47-11.21-16.04-0.79-19.99C1156.7,898.29,1162.82,913.67,1161.76,919.88"/>
</g>
<g>
	<defs>
		<rect id="SVGID_19_" y="0" width="1984.25" height="1417.32"/>
	</defs>
	<clipPath id="SVGID_20_">
		<use xlink:href="#SVGID_19_"  style="overflow:visible;"/>
	</clipPath>
	<path class="st11" d="M808.79,872.82c-1.94-7.32-7.76-12.92-13.3-15.73c-2.28-1.15-4.75-1.69-7.3-1.89
		c-0.8,2.67-2.47,8.29-3.94,13.28c5.89,1.39,12.66,5.28,9.44,12.77c-2.46,5.72-8.43,6.15-13.84,4.53c-0.9,4.33-1.87,9.18-2.55,12.65
		c5.88,2.61,12.84,4.41,19.29,0.73C804.11,894.86,811.26,882.12,808.79,872.82"/>
	<path class="st11" d="M1175.93,955.72c-5.97-3.23-13.08-3.52-18.54-2.16c-6.59,1.64-11.36,7.39-16.08,12.26
		c-4.57,4.71-9.17,10.55-9.41,18.77c-0.17,5.97,5.84,12.56,10.27,14.96c1.59,0.86,3.28,1.37,5.02,1.61
		c6.83,0.97,14.43-2.08,20.07-3.45c3.28-0.8,6.89-1.9,10.14-3.66C1177.65,977.89,1176.52,962.51,1175.93,955.72 M1153.43,987.29
		c-1.82-0.41-3.37-1.36-4.42-3.01c-2.72-4.3,0.61-9.37,2.85-11.61c3.68-3.68,16.67-10.24,20.1,0.33
		C1175.36,983.48,1159.61,988.7,1153.43,987.29"/>
	<path class="st11" d="M1200.68,1105.84c0.03-0.14,0.06-0.27,0.09-0.41c-1.56,0.38-3.24,0.59-4.86,0.34
		c-6.18-0.97-8.22-7.74-7.77-13.61c0.15-1.93,0.57-3.77,1.21-5.26c3.01-7.12,8.39-8.95,14.97-7.88c0.02-9.2-1.81-18.62-3.07-21.89
		c-3.94-0.19-8.42,1.22-13.4,4.89c-8.81,6.47-14.67,16.77-15.73,27.63c-0.85,8.69-0.29,18,5.83,24.85
		c3.74,4.19,7.88,6.43,12.07,7.16c2.39,0.41,4.62,0.59,6.34-0.13C1197.42,1117.44,1199.87,1109.36,1200.68,1105.84"/>
</g>
<g>
	<defs>
		<path id="SVGID_21_" d="M1203.81,1081.74l-0.04,0.09c-1.09,23.51-10.46,44.62-7.9,44.63c32.28-6.64,46.68,14.63,46.11,39.79
			l0.21,0.1c12.81-2.67,26.22-0.97,37.86,5.06c10.44,5.41,19.4,16.92,19.33,28.93c-0.06,10.79-11.19,17.43-19.99,21.78
			c-19.71,9.73-42.77,10.66-64.04,13.26c-39.74,4.84-79.79,7.08-119.84,6.72c-38-0.34-74.89-11.88-112.49-16.09
			c-12.85-1.44-20.91,0.06-31.02,8.71c-8.18,6.99-14.21,17.46-12.26,28.5c3.86,21.93,31.54,32.41,49.57,37.95
			c29.82,9.17,60.28,13.71,91.52,16.03c58.56,4.34,117.75,0.34,176.16-4.14c46.66-3.57,108.96-19.84,129.73-67.1
			c14.24-32.4,6.82-72.68-10.45-101.41c-15.79-26.27-40.13-48.05-68.89-60c-20.67-8.59-39.96-11.33-56.14-11.33
			C1222.72,1073.24,1203.81,1081.74,1203.81,1081.74"/>
	</defs>
	<clipPath id="SVGID_22_">
		<use xlink:href="#SVGID_21_"  style="overflow:visible;"/>
	</clipPath>
	<path class="st12" d="M1146.42,1309.87c-2.43,2.29-5.46,4.19-9.06,5.54c-13.64,5.11-25.15-6.51-34.85-14.45
		c-7.15-5.85-11.73-15.77-14.56-22.73c-4.53-11.16-3.29-23.9,10.35-27.03c6.61-1.52,13.64,0.25,19.6,3.48
		C1135.81,1264.37,1168.91,1288.66,1146.42,1309.87 M1101.5,1265.6c-0.34,0.27-0.64,0.58-0.92,0.96c-1.76,2.44-1.55,5.88-0.25,8.61
		c5.1,10.71,14.37,19.46,25.76,23.14c14.24,4.59,4.48-15.43,0.67-19.51C1122.62,1274.36,1108.58,1260.04,1101.5,1265.6"/>
	<path class="st12" d="M1226.9,1263.35c-0.2-3.33,0.29-6.86,1.56-10.48c4.82-13.69,21.15-14.94,33.48-17.2
		c9.09-1.66,19.66,1.26,26.82,3.6c15.9,5.2,17.16,15.19,16.96,19.24c-0.06,1.18-0.25,2.38-0.57,3.56
		c-2.71,10.16-14.17,12.87-21.01,14.49c-1,0.24-1.94,0.46-2.78,0.69c-1.84,0.5-3.71,1.11-5.61,1.72
		c-9.71,3.13-19.05,9.99-29.97,6.56C1234.72,1282.05,1227.53,1273.62,1226.9,1263.35 M1291.55,1257.79c0.08-1.6-2.88-3.7-7.19-5.11
		c-3.27-1.07-13.24-4.33-19.81-3.12c-10.09,1.85-18.19,6.03-19.71,10.15l-0.03,0.16c-0.1,2.04,4.31,6.72,8.25,8.06
		c5.32,1.81,11.62-0.23,18.29-2.39c2.11-0.68,4.19-1.35,6.24-1.91c0.98-0.27,2.08-0.53,3.25-0.81c3.02-0.71,10.07-2.38,10.62-4.41
		C1291.51,1258.18,1291.54,1257.98,1291.55,1257.79"/>
	<path class="st12" d="M1275.98,1091.56c2.67,10.24-3.08,19.92-11.99,24.93c-12.59,7.08-44.88,13.6-52.71-3.77
		c-5.73-12.71,6.64-20.19,16.04-25.29C1241.88,1079.52,1269.29,1065.92,1275.98,1091.56 M1222.6,1106.9
		c1.05,10.27,25.65,1.77,30.11-0.18c3.09-1.35,6.15-3.41,7.36-6.55c5.4-14.01-17.6-5.65-22.16-3.11
		c-3.12,1.73-15.58,5.23-15.32,9.68L1222.6,1106.9z"/>
	<path class="st12" d="M1232.29,1297.86c-0.35,8.89-7.36,15.29-15.77,17.17c-11.88,2.65-39.52,0.08-41.59-15.8
		c-1.51-11.62,10.29-14.65,19.12-16.48C1207.74,1279.9,1233.18,1275.59,1232.29,1297.86 M1185.49,1297.28
		c-1.67,8.52,20.25,7.64,24.33,7.15c2.83-0.34,5.79-1.25,7.53-3.49c7.78-9.97-12.81-8.81-17.11-7.88
		c-2.94,0.64-13.84,0.44-14.72,4.08L1185.49,1297.28z"/>
	<path class="st12" d="M1023.8,1274.26c6.18-7.63,7.09-22.14-1.07-28.63c-6.42-5.11-16.3-6.72-24.28-6.12
		c-8.71,0.66-16.52,5.63-23.97,9.73c-7.21,3.97-14.83,9.05-17.8,17.1c-2.16,5.85,3.15,13.21,7.88,16.21
		c1.7,1.08,3.63,1.82,5.71,2.32c8.16,1.94,18.59,0.05,26.05-0.48C1005.63,1283.72,1017.44,1282.12,1023.8,1274.26 M982.55,1272.12
		c-2.13-0.67-3.75-1.83-4.5-3.6c-1.98-4.63,3.81-9.13,7.32-11.01c5.77-3.08,24.04-7.66,24.85,3.24
		C1011.03,1271.55,989.77,1274.4,982.55,1272.12"/>
	<path class="st12" d="M1357.06,1270.33c7.61-4.17,15-16.76,12.7-26.11c-1.8-7.35-7.51-13.07-13.01-15.98
		c-6-3.18-13.44-2.1-20.22-1.65c-6.57,0.44-13.93,1.69-19.64,7.62c-4.15,4.31-4.12,13.19-2.44,17.93c0.6,1.7,1.52,3.2,2.65,4.54
		c4.43,5.27,12.13,8.08,17.26,10.83C1340.75,1270.95,1349.22,1274.62,1357.06,1270.33 M1331.1,1250.58
		c-1.08-1.52-1.59-3.26-1.26-5.17c0.87-5,6.77-6.53,9.94-6.69c5.21-0.27,19.3,3.53,14.73,13.65
		C1349.98,1262.38,1334.75,1255.75,1331.1,1250.58"/>
	<path class="st12" d="M1042.5,1258.36c-19.94,16.86-5.07,50.78,14.32,53.33c6.79,0.9,12.12,0.42,16.38-6.83
		c7.07-12.03,5.53-29.99-1.68-39.53C1065.27,1257.04,1052.69,1249.75,1042.5,1258.36 M1060.48,1276.04
		c2.86,3.78,4.34,13.41,0.44,17.94c-9.52,11.07-24.05-11.74-13.12-20.98C1052.25,1269.23,1057.74,1272.42,1060.48,1276.04"/>
	<path class="st12" d="M1305.48,1094.17c-5.17-0.02-10.04,1.52-14.65,5.07c-6.7,5.17-12.08,14.51-6.46,22.44
		c4.25,6,11.55,6.27,17.76,9.18c4.79,2.25,9.26,5.2,13.18,8.74c3.67,3.31,6.42,7.84,12.09,5.74c7.38-2.73,9.78-9.41,12.75-15.98
		c7.56-16.76-12.69-30.24-26.49-34.01C1310.85,1094.6,1308.12,1094.18,1305.48,1094.17 M1322.45,1112.08
		c3.26,2.4,5.99,5.43,7.39,8.8c3.04,7.27-2.8,11.74-9.17,8.5c-5.22-2.66-8.73-7.79-13.83-10.54c-1.49-0.8-3.03-1.57-4.27-2.7
		c-1.25-1.14-2.19-2.74-2.1-4.42c0.29-5.41,5.68-5.71,9.92-4.97C1314.35,1107.43,1318.75,1109.35,1322.45,1112.08"/>
	<path class="st12" d="M1358.35,1152.08c-1.63-1.29-3.62-2.44-5.79-3.33c-7.1-2.91-16.1-3.04-20.42,3.7
		c-4.35,6.8-15.27,12.22-18.46,20.83c-3.19,8.61-3.65,16.33,0,25.1c3.65,8.78,15.51,13.06,26.45,14.91
		c10.95,1.84,24.17-8.1,31.19-28.13C1375.5,1173.24,1367.7,1159.51,1358.35,1152.08 M1355.9,1188.22
		c-3.35,6.43-19.13,9.18-19.87-0.36c-0.46-5.89,3.17-17.41,9.74-19.66c1.8-0.62,3.82-0.54,6.04,0.54
		C1358.55,1172.02,1358.95,1182.37,1355.9,1188.22"/>
	<path class="st12" d="M1290.73,1137.84c-17.49-10.4-36.3,9.62-36.95,27.39c2.46,0.09,5.44-0.19,13.52,1.49
		c-7.89-6.13,3.9-24.29,13.89-18.35c4.36,2.59,3.72,8.85,1.83,12.75c-1.54,3.19-5.57,6.67-9.77,7.33c4.02,1.43,10.34,4.42,14.3,7.96
		c3.13-2.69,5.71-5.96,7.37-9.38C1299.25,1158.09,1300.73,1143.78,1290.73,1137.84"/>
	<path class="st12" d="M1393.2,1223.04c-2.85,0.52-4.74,0.4-6.72-0.74c-2.57-1.47-3.77-4.57-1.97-9.95c0.7-2.1,4.17-7.24,9.41-11.62
		c-0.38-5.39-1.23-12.57-2.67-17.98c-0.45,0.17-0.59,0.21-1.04,0.4c-7.37,3.1-13.98,7.69-17.67,14.96
		c-7.36,14.52-0.12,36.48,18.2,36.91C1391.63,1231.92,1392.43,1228.37,1393.2,1223.04"/>
	<path class="st12" d="M1211.85,1255.02c-2.27-6.54-7.4-12.46-13.66-16.44c-13.35,1.27-35.41,2.9-45.17,3.46
		c-2.78,2.96-4.64,6.64-4.88,11.12c-1.48,27.21,39.04,34.98,56.54,19.97C1210.81,1267.87,1214.63,1263.04,1211.85,1255.02
		 M1164.73,1257.48c0.33-6.07,7.38-8.84,12.61-8.99c5.47-0.16,14.8,4.39,15.56,10.45
		C1194.75,1273.75,1163.92,1272.39,1164.73,1257.48"/>
	<path class="st12" d="M1314.02,1302.58c2.35-0.6,7.46-2.2,17.09-6.48c-1.34-5.87-4.89-11.34-10.27-13.44
		c-7.49-2.92-17.19-1.57-24.46,1.3c-7.95,3.14-13.79,10.04-19.55,16.04c-3.16,3.29-6.72,7.89-9.02,12.13
		c4.54-0.55,10.84-1.48,18.76-3.05c0.84-1.54,2.09-3.71,2.85-4.49c4.49-4.55,20.21-14.12,24.16-4.16
		C1313.8,1301,1313.94,1301.83,1314.02,1302.58"/>
</g>
<g>
	<defs>
		<rect id="SVGID_23_" y="0" width="1984.25" height="1417.32"/>
	</defs>
	<clipPath id="SVGID_24_">
		<use xlink:href="#SVGID_23_"  style="overflow:visible;"/>
	</clipPath>
	<path class="st13" d="M807.9,1223.71c-0.5,0-1-0.19-1.4-0.56c-0.17-0.16-17.01-16.36,0.29-37.93c0.71-0.88,1.99-1.02,2.87-0.32
		c0.88,0.7,1.03,1.99,0.33,2.86c-14.91,18.58-1.28,31.87-0.69,32.42c0.82,0.78,0.86,2.06,0.08,2.88
		C808.98,1223.5,808.44,1223.72,807.9,1223.71"/>
	<path class="st13" d="M862.93,1227.23c-0.32,0-0.65-0.08-0.96-0.24c-0.19-0.1-19.1-10.49-8.77-34.26c0.45-1.03,1.65-1.51,2.69-1.06
		c1.04,0.45,1.52,1.65,1.07,2.68c-8.8,20.26,6.3,28.7,6.94,29.05c0.99,0.54,1.37,1.77,0.83,2.76
		C864.37,1226.84,863.66,1227.23,862.93,1227.23"/>
	<path class="st13" d="M918.62,1207.91c-0.23,0.01-0.47-0.02-0.7-0.09c-1.08-0.34-1.68-1.48-1.34-2.55
		c3.94-12.49-9.16-22.44-9.29-22.54c-0.9-0.67-1.09-1.95-0.42-2.85c0.67-0.9,1.95-1.09,2.86-0.41c0.64,0.47,15.57,11.76,10.75,27.03
		C920.22,1207.33,919.46,1207.88,918.62,1207.91"/>
	<path class="st13" d="M1029.09,1208.77c-0.91,0-1.74-0.61-1.98-1.53c-6.44-24.8,18.93-36.04,19.18-36.15
		c1.03-0.45,2.24,0.03,2.69,1.06c0.45,1.03-0.02,2.23-1.05,2.68c-0.92,0.4-22.41,10-16.86,31.41c0.28,1.09-0.38,2.2-1.47,2.47
		C1029.43,1208.75,1029.26,1208.77,1029.09,1208.77"/>
	<path class="st13" d="M1082.57,1228.44c-0.41,0-0.82-0.12-1.17-0.37c-0.35-0.24-8.5-6.08-9.99-16.31
		c-1.04-7.19,1.46-14.63,7.45-22.1c0.7-0.88,1.99-1.02,2.88-0.32c0.88,0.7,1.03,1.99,0.33,2.86c-5.26,6.56-7.48,12.95-6.6,18.99
		c1.23,8.51,8.22,13.5,8.29,13.55c0.92,0.65,1.15,1.92,0.5,2.84C1083.85,1228.14,1083.22,1228.44,1082.57,1228.44"/>
	<path class="st13" d="M1138.26,1224.86c-0.46,0-0.92-0.16-1.3-0.47c-0.87-0.72-0.99-2-0.27-2.87c4.81-5.77,6.96-11.69,6.38-17.6
		c-0.95-9.66-8.92-16.24-9-16.31c-0.88-0.71-1.01-1.99-0.3-2.86c0.71-0.87,2-1,2.87-0.29c0.38,0.31,9.35,7.67,10.49,19.04
		c0.71,7.04-1.75,13.99-7.29,20.64C1139.43,1224.61,1138.84,1224.86,1138.26,1224.86"/>
	<path class="st13" d="M734.91,1215.71c-0.36,0-0.72-0.1-1.05-0.29c-0.18-0.11-17.61-10.81-8.31-31.85c0.46-1.03,1.66-1.49,2.7-1.04
		c1.03,0.45,1.51,1.66,1.05,2.68c-7.82,17.7,6.07,26.36,6.66,26.72c0.96,0.59,1.28,1.83,0.7,2.8
		C736.28,1215.36,735.6,1215.72,734.91,1215.71"/>
	<path class="st13" d="M1197.57,1212.43c-0.7,0-1.38-0.36-1.76-1c-0.58-0.97-0.26-2.21,0.71-2.79c0.62-0.37,14.48-8.96,6.66-26.68
		c-0.46-1.03,0.02-2.23,1.05-2.68c1.04-0.45,2.24,0.02,2.7,1.05c9.3,21.09-8.13,31.7-8.31,31.81
		C1198.29,1212.33,1197.93,1212.43,1197.57,1212.43"/>
	<path class="st14" d="M719.8,590.09c-2.27-7.88-3.78-16.12-6.46-24.33c-22.97-70.29,13.08-136.34,64.34-183.57
		c50.34-46.37,116.16-66.84,184.2-66.06c106.55,1.23,244.08,54.62,249.92,176.73c1.26,26.3,0.73,60.42-5.29,94.68
		c-8.04,45.79,15.7,131.54-71.01,162.25c-50.58,17.91-88.5,22.53-88.5,22.53s-53.68,22.65-76.49,22.65
		c-24.15,0-50.42-7.64-75.16-19.59c-22.86-11.04-99.21-8.44-143.5-51.89C723.49,695.67,729.09,622.36,719.8,590.09"/>
	<path class="st15" d="M754.2,674.16c3.84,70.9,73.89,83.95,137.12,85.86c26.89,0.81,41.5,12.73,78.44,12.73
		c34.07,0,52.07-14.41,82.22-17.13c59.58-5.37,117.56-20.6,123.33-78.7c1.83-18.47-3.27-49.52-24.85-63.55
		c-38.91-25.31-114.95-27.08-183.81-25.69C887.71,589.26,749.53,588.08,754.2,674.16"/>
	<path class="st13" d="M967.91,628.41c-16.83-0.14-61.65-25.97-62.69-27.57c-3.29-5.03,1.93-33.54,1.99-43.12
		c0.04-6.95-0.01-13.03,0.05-16.1c0.39-17.89-15.76-33.3-15.92-33.46c-0.72-0.68,20.37,14.14,20.02,33.4
		c-0.05,2.98,0,8.66-0.02,15.21c-0.03,9.89-5.13,37.61-2.38,41.78c1.01,1.13,108.77,4.79,112.77,1.09c4.83-4.47,2.06-4.9-1.42-23.82
		c-1.64-8.91-2.47-25.17-2.95-29.95c-1.68-16.68,19.65-35.72,19.02-34.98c-0.16,0.19-16.5,19.48-14.89,34.83
		c0.49,4.64,1.33,20.84,2.98,29.67c5.82,31.05,6.37,21.81,0.46,27.31C1020.25,607.07,996,628.65,967.91,628.41"/>
	<path class="st13" d="M970.1,641.64c-0.14-1.24-1.28-2.16-2.59-2.03c-1.29,0.11-2.22,1.21-2.08,2.45
		c1.36,12.35-1.09,22.25-12.64,28.1c-6.37,3.23-15.66,2.73-23.3-1.19c-0.25-0.13-1.28,0.71-1.48,1.3c-0.57,1.66,0.24,3.48,1.86,4.15
		c4.13,1.71,8.51,2.61,12.75,2.66c4.47,0.06,8.76-0.83,12.4-2.68C968.71,667.45,971.75,656.08,970.1,641.64"/>
	<path class="st13" d="M1003.43,673.62c-0.54-0.88-1.56-1.34-2.57-1.16c-5.55,0.98-11.18,0.36-15.5-1.91
		c-11.64-6.13-14.28-16.09-13.06-28.42c0.12-1.24-0.82-2.35-2.11-2.49c-1.31-0.15-2.44,0.74-2.57,1.98
		c-1.49,14.4,1.76,25.84,15.55,33.14c3.67,1.94,7.99,2.93,12.48,2.99c1.98,0.02,3.99-0.07,5.99-0.32c1.78-0.23,2.75-2.22,1.81-3.76
		L1003.43,673.62z"/>
	<path class="st16" d="M1211.8,492.87c0.4,8.48,0.11,16.86-0.43,25.22c16.36-18.39,117.81-137.24,58.18-191.83
		c-59.24-54.24-143.31,14.24-157.07,26.18C1166.95,380.89,1208.64,426.82,1211.8,492.87"/>
	<path class="st17" d="M1248.39,351.68c-26.02,1.45-59.45,25.4-73.69,47.09l1.42,3.18c17.93,21.33,30.3,46.89,34.38,76.96
		C1258.23,439.92,1285.42,351.78,1248.39,351.68"/>
	<path class="st16" d="M707.08,507.04c5.08-47.69,33.94-91.08,70.6-124.85c11.42-10.52,23.63-19.69,36.49-27.59l0.01-0.01
		c0,0-94.33-87.66-159.02-28.77c-64.69,58.89,51.91,181.24,51.91,181.24L707.08,507.04z"/>
	<path class="st17" d="M713.43,477.11c8.36-26.26,23.48-50.71,42.29-72.35l0.57-1.26c-14.24-21.77-56.16-54.36-82.17-55.95
		C638.67,347.45,662.02,428.39,713.43,477.11"/>
	<path class="st18" d="M833.9,713.22c-25.31,0-45.84-20.52-45.84-45.83c0-25.31,20.52-45.84,45.84-45.84
		c25.31,0,45.83,20.52,45.83,45.84C879.74,692.69,859.22,713.22,833.9,713.22"/>
	<path class="st19" d="M658.8,616.16c0.03-0.21,2.7-0.02,7.51,0.49c4.81,0.52,11.76,1.36,20.34,2.48
		c17.14,2.39,40.72,6.37,66.57,11.65c6.48,1.24,12.75,2.73,18.83,4.03c6.07,1.36,11.94,2.59,17.5,3.93
		c11.11,2.67,21.13,5.04,29.48,7.28c8.37,2.16,15.1,4.04,19.73,5.43c4.64,1.36,7.16,2.27,7.1,2.47c-0.06,0.21-2.69-0.31-7.41-1.32
		c-4.72-1.06-11.54-2.59-19.96-4.48c-8.4-1.97-18.46-4.12-29.59-6.64c-5.56-1.26-11.44-2.43-17.51-3.75
		c-6.08-1.26-12.34-2.73-18.81-3.96c-25.81-5.27-49.27-9.57-66.28-12.5c-8.52-1.38-15.41-2.55-20.17-3.43
		C661.39,616.96,658.78,616.37,658.8,616.16"/>
	<path class="st20" d="M658.8,616.16c0.03-0.21,2.7-0.02,7.51,0.49c4.81,0.52,11.76,1.36,20.34,2.48
		c17.14,2.39,40.72,6.37,66.57,11.65c6.48,1.24,12.75,2.73,18.83,4.03c6.07,1.36,11.94,2.59,17.5,3.93
		c11.11,2.67,21.13,5.04,29.48,7.28c8.37,2.16,15.1,4.04,19.73,5.43c4.64,1.36,7.16,2.27,7.1,2.47c-0.06,0.21-2.69-0.31-7.41-1.32
		c-4.72-1.06-11.54-2.59-19.96-4.48c-8.4-1.97-18.46-4.12-29.59-6.64c-5.56-1.26-11.44-2.43-17.51-3.75
		c-6.08-1.26-12.34-2.73-18.81-3.96c-25.81-5.27-49.27-9.57-66.28-12.5c-8.52-1.38-15.41-2.55-20.17-3.43
		C661.39,616.96,658.78,616.37,658.8,616.16z"/>
	<path class="st19" d="M675.18,675.94c-0.03-0.21,2.6-0.7,7.38-1.41c4.78-0.71,11.72-1.64,20.3-2.72c17.18-2,40.99-4.07,67.36-5.46
		c6.59-0.43,13.03-0.56,19.25-0.83c6.22-0.21,12.21-0.49,17.93-0.59c11.44-0.21,21.73-0.43,30.38-0.36
		c8.65-0.01,15.65,0.12,20.49,0.29c4.84,0.15,7.51,0.4,7.51,0.6c0,0.22-2.67,0.38-7.5,0.59c-4.84,0.16-11.82,0.39-20.45,0.68
		c-8.64,0.21-18.91,0.66-30.32,1.02c-5.71,0.17-11.69,0.52-17.9,0.77c-6.2,0.31-12.64,0.46-19.21,0.9
		c-26.31,1.39-50.1,3.12-67.3,4.56c-8.59,0.8-15.55,1.4-20.38,1.75C677.89,676.05,675.21,676.15,675.18,675.94"/>
	<path class="st20" d="M675.18,675.94c-0.03-0.21,2.6-0.7,7.38-1.41c4.78-0.71,11.72-1.64,20.3-2.72c17.18-2,40.99-4.07,67.36-5.46
		c6.59-0.43,13.03-0.56,19.25-0.83c6.22-0.21,12.21-0.49,17.93-0.59c11.44-0.21,21.73-0.43,30.38-0.36
		c8.65-0.01,15.65,0.12,20.49,0.29c4.84,0.15,7.51,0.4,7.51,0.6c0,0.22-2.67,0.38-7.5,0.59c-4.84,0.16-11.82,0.39-20.45,0.68
		c-8.64,0.21-18.91,0.66-30.32,1.02c-5.71,0.17-11.69,0.52-17.9,0.77c-6.2,0.31-12.64,0.46-19.21,0.9
		c-26.31,1.39-50.1,3.12-67.3,4.56c-8.59,0.8-15.55,1.4-20.38,1.75C677.89,676.05,675.21,676.15,675.18,675.94z"/>
	<path class="st19" d="M656.16,721.79c-0.07-0.2,2.42-1.15,6.98-2.71c4.56-1.56,11.2-3.72,19.42-6.32
		c16.5-5.05,39.5-11.38,65.13-17.49c6.39-1.61,12.69-2.9,18.75-4.29c6.07-1.33,11.91-2.68,17.51-3.81
		c11.2-2.26,21.27-4.34,29.78-5.82c8.49-1.57,15.4-2.7,20.18-3.4c4.78-0.72,7.45-0.96,7.49-0.76c0.04,0.22-2.56,0.85-7.26,1.93
		c-4.72,1.03-11.54,2.51-19.96,4.35c-8.44,1.76-18.45,4.05-29.59,6.46c-5.57,1.2-11.39,2.61-17.43,3.98
		c-6.04,1.42-12.33,2.73-18.7,4.34c-25.58,6.1-48.62,12.08-65.25,16.59c-8.29,2.34-15.01,4.18-19.69,5.39
		C658.84,721.41,656.22,721.99,656.16,721.79"/>
	<path class="st20" d="M656.16,721.79c-0.07-0.2,2.42-1.15,6.98-2.71c4.56-1.56,11.2-3.72,19.42-6.32
		c16.5-5.05,39.5-11.38,65.13-17.49c6.39-1.61,12.69-2.9,18.75-4.29c6.07-1.33,11.91-2.68,17.51-3.81
		c11.2-2.26,21.27-4.34,29.78-5.82c8.49-1.57,15.4-2.7,20.18-3.4c4.78-0.72,7.45-0.96,7.49-0.76c0.04,0.22-2.56,0.85-7.26,1.93
		c-4.72,1.03-11.54,2.51-19.96,4.35c-8.44,1.76-18.45,4.05-29.59,6.46c-5.57,1.2-11.39,2.61-17.43,3.98
		c-6.04,1.42-12.33,2.73-18.7,4.34c-25.58,6.1-48.62,12.08-65.25,16.59c-8.29,2.34-15.01,4.18-19.69,5.39
		C658.84,721.41,656.22,721.99,656.16,721.79z"/>
	<path class="st19" d="M866.42,683.49c1.26,1.16,1.68,2.96,0.89,3.98c-0.55,1.17-2.38,1.65-4.02,1.1c-1.64-0.55-2.27-2.47-1.35-4.26
		C863.12,682.68,865.16,682.33,866.42,683.49"/>
	<path class="st19" d="M817.74,671c1.26,1.16,1.68,2.96,0.89,3.98c-0.55,1.17-2.38,1.65-4.02,1.1c-1.64-0.55-2.27-2.47-1.35-4.26
		C814.44,670.19,816.48,669.85,817.74,671"/>
	<path class="st19" d="M795.38,655.49c1.26,1.16,1.68,2.96,0.89,3.98c-0.55,1.17-2.38,1.65-4.02,1.1c-1.64-0.55-2.27-2.47-1.35-4.26
		C792.09,654.68,794.12,654.33,795.38,655.49"/>
	<path class="st19" d="M874.77,671.3c-1.73,0-3.13-1.38-3.13-3.06c0-1.69,1.4-3.05,3.13-3.04c1.73,0,3.13,1.38,3.13,3.06
		C877.9,669.94,876.49,671.31,874.77,671.3"/>
	<path class="st19" d="M831.74,644.37c-1.73,0-3.13-1.38-3.13-3.06c0-1.69,1.4-3.05,3.13-3.04c1.73,0,3.13,1.38,3.13,3.06
		C834.87,643.01,833.47,644.37,831.74,644.37"/>
	<path class="st19" d="M826.57,703.02c-0.63,0.58-1.4,0.96-1.96,1.22c-0.51,0.23-1.07,0.4-1.45,0.17c-0.96-0.38-1.74-2.05-1.17-3.64
		c0.56-1.58,2.01-2.61,3.7-1.94c0.88,0.44,1.51,1.13,1.67,2.03C827.52,701.7,827.2,702.44,826.57,703.02"/>
	<path class="st19" d="M802.89,690.65c-0.63,0.58-1.4,0.96-1.96,1.22c-0.51,0.23-1.08,0.4-1.45,0.17c-0.96-0.38-1.74-2.05-1.18-3.64
		c0.56-1.58,2.01-2.61,3.7-1.94c0.88,0.44,1.51,1.13,1.67,2.03C803.84,689.33,803.52,690.07,802.89,690.65"/>
	<path class="st19" d="M841.29,660.04c-0.63,0.58-1.4,0.96-1.96,1.22c-0.51,0.23-1.08,0.4-1.45,0.18c-0.96-0.38-1.74-2.05-1.18-3.64
		c0.56-1.58,2.01-2.61,3.7-1.94c0.88,0.44,1.51,1.13,1.67,2.03C842.24,658.73,841.92,659.47,841.29,660.04"/>
	<path class="st19" d="M812.06,659.96c-0.63,0.58-1.4,0.96-1.96,1.22c-0.51,0.24-1.07,0.4-1.45,0.18c-0.96-0.38-1.74-2.05-1.18-3.65
		c0.56-1.58,2.01-2.61,3.7-1.94c0.88,0.44,1.51,1.13,1.67,2.03C813,658.65,812.68,659.39,812.06,659.96"/>
	<path class="st19" d="M841.03,688.51c-0.63,0.58-1.4,0.96-1.96,1.22c-0.51,0.23-1.07,0.4-1.45,0.17c-0.96-0.38-1.74-2.05-1.18-3.64
		c0.56-1.58,2.01-2.61,3.7-1.94c0.88,0.44,1.51,1.13,1.67,2.03C841.98,687.2,841.66,687.94,841.03,688.51"/>
	<path class="st19" d="M850.82,703.08c-0.63,0.58-1.4,0.96-1.96,1.22c-0.51,0.24-1.07,0.4-1.45,0.18c-0.96-0.38-1.74-2.05-1.17-3.64
		c0.56-1.58,2.01-2.61,3.7-1.94c0.88,0.44,1.51,1.13,1.67,2.03C851.76,701.77,851.44,702.51,850.82,703.08"/>
	<path class="st19" d="M859.79,653.96c-0.63,0.58-1.4,0.96-1.96,1.22c-0.51,0.24-1.07,0.4-1.45,0.18c-0.96-0.38-1.74-2.05-1.18-3.64
		c0.56-1.58,2.01-2.61,3.7-1.94c0.88,0.44,1.51,1.13,1.67,2.03C860.74,652.64,860.42,653.38,859.79,653.96"/>
	<path class="st18" d="M1096.72,707.92c-25.31,0-45.84-20.52-45.84-45.83c0-25.32,20.52-45.83,45.84-45.83
		c25.31,0,45.83,20.52,45.83,45.83C1142.55,687.4,1122.03,707.92,1096.72,707.92"/>
	<path class="st19" d="M1283.51,621.81c-0.02-0.21-2.7-0.08-7.52,0.32c-4.82,0.41-11.78,1.09-20.38,2.01
		c-17.17,1.99-40.82,5.43-66.76,10.12c-6.5,1.09-12.79,2.43-18.9,3.6c-6.09,1.22-11.98,2.32-17.56,3.53
		c-11.16,2.42-21.21,4.56-29.6,6.61c-8.4,1.97-15.17,3.7-19.82,4.98c-4.66,1.26-7.2,2.11-7.14,2.3c0.06,0.21,2.69-0.25,7.43-1.15
		c4.74-0.95,11.58-2.33,20.03-4.03c8.44-1.78,18.53-3.69,29.7-5.96c5.58-1.14,11.48-2.17,17.57-3.35c6.1-1.12,12.39-2.44,18.88-3.53
		c25.89-4.67,49.42-8.44,66.48-10.98c8.54-1.19,15.45-2.2,20.22-2.97C1280.9,622.54,1283.53,622.02,1283.51,621.81"/>
	<path class="st20" d="M1283.51,621.81c-0.02-0.21-2.7-0.08-7.52,0.32c-4.82,0.41-11.78,1.09-20.38,2.01
		c-17.17,1.99-40.82,5.43-66.76,10.12c-6.5,1.09-12.79,2.43-18.9,3.6c-6.09,1.22-11.98,2.32-17.56,3.53
		c-11.16,2.42-21.21,4.56-29.6,6.61c-8.4,1.97-15.17,3.7-19.82,4.98c-4.66,1.26-7.2,2.11-7.14,2.3c0.06,0.21,2.69-0.25,7.43-1.15
		c4.74-0.95,11.58-2.33,20.03-4.03c8.44-1.78,18.53-3.69,29.7-5.96c5.58-1.14,11.48-2.17,17.57-3.35c6.1-1.12,12.39-2.44,18.88-3.53
		c25.89-4.67,49.42-8.44,66.48-10.98c8.54-1.19,15.45-2.2,20.22-2.97C1280.9,622.54,1283.53,622.02,1283.51,621.81z"/>
	<path class="st19" d="M1268.73,680.67c0.03-0.21-2.59-0.76-7.35-1.58c-4.77-0.82-11.69-1.9-20.25-3.18
		c-17.14-2.39-40.91-5.01-67.24-7.01c-6.58-0.58-13.02-0.86-19.23-1.28c-6.21-0.35-12.2-0.77-17.92-1
		c-11.43-0.47-21.72-0.93-30.37-1.06c-8.65-0.21-15.65-0.24-20.49-0.17c-4.84,0.04-7.52,0.23-7.52,0.43c0,0.22,2.67,0.44,7.49,0.76
		c4.83,0.27,11.81,0.66,20.43,1.15c8.63,0.4,18.9,1.09,30.3,1.71c5.7,0.31,11.68,0.79,17.88,1.18c6.2,0.45,12.62,0.75,19.19,1.34
		c26.28,1.99,50.03,4.27,67.2,6.1c8.57,1,15.53,1.76,20.34,2.22C1266.02,680.72,1268.7,680.87,1268.73,680.67"/>
	<path class="st20" d="M1268.73,680.67c0.03-0.21-2.59-0.76-7.35-1.58c-4.77-0.82-11.69-1.9-20.25-3.18
		c-17.14-2.39-40.91-5.01-67.24-7.01c-6.58-0.58-13.02-0.86-19.23-1.28c-6.21-0.35-12.2-0.77-17.92-1
		c-11.43-0.47-21.72-0.93-30.37-1.06c-8.65-0.21-15.65-0.24-20.49-0.17c-4.84,0.04-7.52,0.23-7.52,0.43c0,0.22,2.67,0.44,7.49,0.76
		c4.83,0.27,11.81,0.66,20.43,1.15c8.63,0.4,18.9,1.09,30.3,1.71c5.7,0.31,11.68,0.79,17.88,1.18c6.2,0.45,12.62,0.75,19.19,1.34
		c26.28,1.99,50.03,4.27,67.2,6.1c8.57,1,15.53,1.76,20.34,2.22C1266.02,680.72,1268.7,680.87,1268.73,680.67z"/>
	<path class="st19" d="M1281.9,725.04c0.07-0.2-2.4-1.21-6.94-2.87c-4.54-1.66-11.13-3.97-19.31-6.77
		c-16.4-5.43-39.29-12.28-64.81-18.98c-6.36-1.76-12.64-3.19-18.67-4.71c-6.04-1.47-11.86-2.96-17.43-4.21
		c-11.15-2.52-21.18-4.82-29.67-6.51c-8.46-1.76-15.34-3.05-20.12-3.86c-4.77-0.83-7.44-1.13-7.48-0.93
		c-0.04,0.22,2.54,0.91,7.23,2.09c4.7,1.14,11.49,2.78,19.88,4.8c8.41,1.95,18.38,4.47,29.47,7.13c5.55,1.33,11.34,2.87,17.36,4.38
		c6.01,1.56,12.28,3.01,18.62,4.77c25.47,6.69,48.4,13.19,64.94,18.09c8.24,2.53,14.94,4.52,19.59,5.84
		C1279.22,724.61,1281.82,725.24,1281.9,725.04"/>
	<path class="st20" d="M1281.9,725.04c0.07-0.2-2.4-1.21-6.94-2.87c-4.54-1.66-11.13-3.97-19.31-6.77
		c-16.4-5.43-39.29-12.28-64.81-18.98c-6.36-1.76-12.64-3.19-18.67-4.71c-6.04-1.47-11.86-2.96-17.43-4.21
		c-11.15-2.52-21.18-4.82-29.67-6.51c-8.46-1.76-15.34-3.05-20.12-3.86c-4.77-0.83-7.44-1.13-7.48-0.93
		c-0.04,0.22,2.54,0.91,7.23,2.09c4.7,1.14,11.49,2.78,19.88,4.8c8.41,1.95,18.38,4.47,29.47,7.13c5.55,1.33,11.34,2.87,17.36,4.38
		c6.01,1.56,12.28,3.01,18.62,4.77c25.47,6.69,48.4,13.19,64.94,18.09c8.24,2.53,14.94,4.52,19.59,5.84
		C1279.22,724.61,1281.82,725.24,1281.9,725.04z"/>
	<path class="st19" d="M1074.76,684.36c-1.28,1.13-1.74,2.92-0.96,3.96c0.53,1.19,2.35,1.7,4,1.19c1.65-0.51,2.31-2.42,1.43-4.22
		C1078.07,683.63,1076.04,683.23,1074.76,684.36"/>
	<path class="st19" d="M1123.65,672.99c-1.28,1.13-1.74,2.92-0.96,3.96c0.53,1.19,2.35,1.7,4,1.19c1.65-0.51,2.31-2.42,1.43-4.22
		C1126.96,672.26,1124.93,671.86,1123.65,672.99"/>
	<path class="st19" d="M1146.27,657.99c-1.28,1.13-1.74,2.92-0.96,3.96c0.53,1.18,2.35,1.7,4,1.19c1.65-0.51,2.31-2.42,1.43-4.22
		C1149.58,657.26,1147.55,656.86,1146.27,657.99"/>
	<path class="st19" d="M1066.63,671.98c1.73,0.04,3.15-1.3,3.18-2.99c0.03-1.69-1.35-3.08-3.08-3.12c-1.73-0.04-3.15,1.3-3.18,2.99
		C1063.52,670.55,1064.9,671.95,1066.63,671.98"/>
	<path class="st19" d="M1110.12,646.04c1.73,0.03,3.15-1.3,3.18-2.99c0.03-1.69-1.35-3.08-3.08-3.12c-1.73-0.04-3.15,1.3-3.18,2.99
		C1107.01,644.61,1108.39,646,1110.12,646.04"/>
	<path class="st19" d="M1114.26,704.8c0.62,0.59,1.38,0.99,1.94,1.27c0.51,0.25,1.07,0.42,1.45,0.21c0.96-0.36,1.78-2.01,1.24-3.62
		c-0.53-1.59-1.96-2.66-3.66-2.02c-0.89,0.42-1.53,1.09-1.7,1.99C1113.33,703.46,1113.64,704.21,1114.26,704.8"/>
	<path class="st19" d="M1138.14,692.97c0.62,0.59,1.38,0.99,1.94,1.27c0.51,0.25,1.07,0.42,1.45,0.21c0.96-0.36,1.78-2.01,1.24-3.62
		c-0.53-1.59-1.96-2.66-3.66-2.02c-0.89,0.42-1.53,1.09-1.7,1.99C1137.22,691.63,1137.53,692.38,1138.14,692.97"/>
	<path class="st19" d="M1100.29,661.49c0.62,0.59,1.38,0.99,1.94,1.27c0.51,0.25,1.07,0.42,1.44,0.21c0.96-0.36,1.78-2.01,1.24-3.62
		c-0.53-1.59-1.96-2.66-3.66-2.02c-0.89,0.42-1.53,1.09-1.7,1.99C1099.36,660.15,1099.67,660.9,1100.29,661.49"/>
	<path class="st19" d="M1129.52,662.08c0.62,0.59,1.38,0.99,1.94,1.27c0.51,0.25,1.07,0.42,1.45,0.21c0.96-0.36,1.78-2.01,1.24-3.62
		c-0.53-1.59-1.96-2.66-3.66-2.02c-0.89,0.42-1.53,1.09-1.7,1.99C1128.6,660.74,1128.9,661.49,1129.52,662.08"/>
	<path class="st19" d="M1100.05,689.96c0.62,0.59,1.38,0.99,1.94,1.27c0.51,0.25,1.07,0.42,1.44,0.21c0.96-0.36,1.78-2.01,1.24-3.62
		c-0.53-1.59-1.96-2.66-3.66-2.02c-0.89,0.42-1.53,1.09-1.7,1.99C1099.13,688.63,1099.44,689.37,1100.05,689.96"/>
	<path class="st19" d="M1090.01,704.31c0.62,0.59,1.38,0.99,1.94,1.27c0.51,0.25,1.07,0.42,1.44,0.21c0.96-0.36,1.78-2.01,1.24-3.62
		c-0.53-1.59-1.96-2.66-3.66-2.02c-0.89,0.42-1.53,1.09-1.7,1.99C1089.09,702.97,1089.4,703.72,1090.01,704.31"/>
	<path class="st19" d="M1081.9,654.98c0.62,0.59,1.38,0.99,1.94,1.27c0.51,0.25,1.07,0.42,1.45,0.21c0.96-0.36,1.78-2.01,1.24-3.62
		c-0.53-1.59-1.96-2.66-3.66-2.02c-0.89,0.42-1.53,1.09-1.7,1.99C1080.98,653.65,1081.28,654.39,1081.9,654.98"/>
	<path class="st19" d="M776.99,606.15c-2.78,1.87-6.08,3.24-9.86,3.99c-14.3,2.83-23.75-10.5-32.03-19.9
		c-6.1-6.93-9-17.46-10.65-24.77c-3.66-16.25,4.32-22.4,7.92-24.29c1.05-0.55,2.18-1,3.37-1.33c10.17-2.84,18.38,5.58,23.29,10.61
		c0.72,0.74,1.39,1.43,2.02,2.03c1.38,1.32,2.86,2.61,4.36,3.92c7.69,6.71,18.41,11.22,21.05,22.31
		C789.14,589.96,785.55,600.4,776.99,606.15 M739.03,553.66c-1.42,0.75-1.72,4.35-0.73,8.75c0.75,3.35,3.05,13.53,7.46,18.54
		c6.77,7.69,14.54,12.5,18.88,11.7l0.15-0.05c1.82-0.95,3.6-7.1,2.73-11.15c-1.17-5.47-6.16-9.83-11.44-14.43
		c-1.67-1.46-3.32-2.9-4.85-4.37c-0.73-0.7-1.52-1.51-2.36-2.37c-2.16-2.22-7.23-7.41-9.26-6.84
		C739.39,553.5,739.19,553.58,739.03,553.66"/>
	<path class="st19" d="M1210.59,510.38c-0.08-2.56-0.13-5.11-0.17-7.67c-2.91,4.16-17.13,21.4-23.2,13.3l-0.1-0.14
		c-2.53-3.67,5.33-12.19,6.86-15.05c1.83-3.43,11.23-15.68,16.3-12.15c-0.06-4.59-0.17-9.18-0.43-13.76
		c-14.18-6.99-23.01,11.08-29.18,22.42c-4.64,8.53-10.36,20.4,0.78,28.67c10.02,7.44,21.36,2.81,29.68-4.55
		C1210.9,517.77,1210.71,514.07,1210.59,510.38"/>
	<path class="st19" d="M1209.89,560.19c0,0-1.59-3.3-1.79-3.63c-4.34-7.21-12.19-13.5-19.56-13.09
		c-7.65,0.43-14.65,5.63-18.84,11.21c-4.58,6.1-5.34,14.74-6.55,22.53c-1.17,7.53-1.73,16.14,2.69,23.9
		c3.22,5.65,11.94,7.56,16.99,6.7c1.82-0.31,3.51-1.02,5.1-2c6.25-3.85,10.89-11.96,14.83-17.15c2.16-2.84,5.62-11.81,5.62-11.81
		L1209.89,560.19z M1185.36,588.64c-1.75,0.88-3.59,1.09-5.38,0.29c-4.69-2.09-4.76-9.09-4.14-12.72
		c1.01-5.96,8.17-21.07,16.98-13.67C1201.54,569.86,1191.32,585.64,1185.36,588.64"/>
	<path class="st19" d="M747.19,491.38c-1.41-0.46-3.1-0.35-5.05,0c-5.93,1.07-11.78,1.66-17.39,4.03
		c-5.24,2.21-9.95,5.47-12.57,10.64c-5.26,10.37,0.29,26.09,13.44,26.26c8.79,0.11,17.57-7.15,21.97-15.09
		c3.25-5.86,5.72-15.42,3.21-21.94C749.93,493.04,748.72,491.87,747.19,491.38 M722.09,523.26c-1.82-1.04-2.68-3.25-1.4-7.08
		c1.18-3.53,17.45-19.18,20.2-11.14c1.92,5.62-2.98,12.41-6.98,15.86C730.88,523.51,725.14,525.01,722.09,523.26"/>
	<path class="st19" d="M848.35,480.07c-1.73,0.01-3.62-0.36-4.83-0.79c-5.6-2.02-14.09-3.7-17.28-9.52
		c-5.28-9.64,6.57-9.25,11.89-5.4c4.15,3,10.57,6.46,13.38,10.84C853.9,478.95,851.36,480.06,848.35,480.07"/>
	<path class="st19" d="M999.78,557.84c-0.36-1.69-0.39-3.61-0.21-4.87c0.84-5.87,0.77-14.51,5.84-18.81
		c8.4-7.13,10.42,4.52,7.72,10.49c-2.11,4.67-4.19,11.63-7.93,15.27C1002.01,563.03,1000.4,560.78,999.78,557.84"/>
	<path class="st19" d="M1055.07,521.25c0.65-1.6,1.69-3.21,2.55-4.15c3.98-4.4,8.76-11.6,15.38-12.37
		c10.97-1.26,6.15,9.51,0.56,12.98c-4.36,2.7-10,7.33-15.14,8.27C1054.03,526.79,1053.94,524.04,1055.07,521.25"/>
	<path class="st19" d="M1115.89,521.42c0.65-1.6,1.69-3.21,2.55-4.15c3.98-4.4,8.76-11.61,15.38-12.37
		c10.97-1.26,6.15,9.52,0.56,12.98c-4.36,2.7-9.99,7.33-15.13,8.27C1114.84,526.96,1114.76,524.2,1115.89,521.42"/>
	<path class="st19" d="M759.18,385.9c-1.94-0.72-3.91-1.9-5.07-2.88c-5.4-4.55-14.19-9.95-15.25-17.68
		c-1.76-12.81,11.35-7.43,15.65-0.99c3.36,5.04,9.06,11.51,10.31,17.5C765.89,386.98,762.57,387.15,759.18,385.9"/>
	<path class="st19" d="M790.26,361.3c-0.96-1.07-1.78-2.43-2.17-3.41c-1.83-4.54-5.46-10.69-3.58-15.77
		c3.11-8.42,9.4-0.88,9.93,4.47c0.41,4.17,1.8,9.98,0.61,14.06C794.03,364.14,791.93,363.16,790.26,361.3"/>
	<path class="st19" d="M1160.61,474.94c0.22-1.43,0.76-2.94,1.27-3.87c2.38-4.33,4.86-11.1,10.07-12.92
		c8.62-3.01,6.78,6.7,2.92,10.55c-3.01,3.01-6.68,7.81-10.65,9.51C1160.82,479.68,1160.23,477.43,1160.61,474.94"/>
	<path class="st19" d="M1143.46,364c-0.61-2.06-0.85-4.44-0.75-6.03c0.45-7.38-0.52-18.09,5.34-23.95
		c9.7-9.69,13.39,4.56,10.65,12.25c-2.14,6.01-4.02,14.87-8.29,19.75C1146.76,370.22,1144.53,367.59,1143.46,364"/>
	<path class="st19" d="M1072.92,364.54c-0.35-1.69-0.37-3.61-0.18-4.87c0.88-5.87,0.86-14.5,5.95-18.77
		c8.44-7.08,10.4,4.57,7.66,10.54c-2.13,4.65-4.26,11.61-8.02,15.22C1075.12,369.74,1073.53,367.48,1072.92,364.54"/>
	<path class="st19" d="M1257.51,347.63c0.34-1.26,1.01-2.6,1.59-3.42c2.72-3.84,5.76-9.82,11.02-11.45c8.72-2.69,6.04,5.9,1.92,9.31
		c-3.22,2.66-7.24,6.92-11.29,8.44C1257.29,351.81,1256.91,349.83,1257.51,347.63"/>
	<path class="st19" d="M928.29,515.06c-1.84-1.48-3.54-3.47-4.44-4.97c-4.21-6.92-11.77-15.97-10.17-24.87
		c2.64-14.73,14.86-4.19,17.21,4.44c1.83,6.73,5.68,15.88,4.91,22.92C935.14,518.62,931.49,517.63,928.29,515.06"/>
	<path class="st19" d="M731.66,348.15c-2-1.25-3.92-3.04-4.99-4.42c-4.99-6.39-13.56-14.5-13.02-23.52
		c0.89-14.94,14.26-5.89,17.61,2.41c2.61,6.48,7.51,15.11,7.57,22.19C738.87,350.89,735.14,350.33,731.66,348.15"/>
	<path class="st19" d="M906.97,458.7c-1.8-1.43-3.47-3.37-4.36-4.81c-4.13-6.7-11.55-15.47-10-24.07
		c2.57-14.25,14.55-4.03,16.87,4.32c1.81,6.52,5.59,15.37,4.84,22.17C913.68,462.15,910.12,461.19,906.97,458.7"/>
	<path class="st19" d="M955.78,565.4c-1.63-1.62-3.07-3.73-3.79-5.26c-3.36-7.11-9.75-16.65-7.25-25.02
		c4.15-13.87,14.92-2.39,16.28,6.16c1.07,6.67,3.84,15.89,2.33,22.57C962.07,569.57,958.63,568.22,955.78,565.4"/>
	<path class="st19" d="M890.34,529.37c-1.85-0.6-3.73-1.62-4.85-2.48c-5.18-3.99-13.59-8.65-14.67-15.66
		c-1.79-11.6,10.72-7.08,14.87-1.33c3.24,4.49,8.72,10.22,9.97,15.62C896.73,530.17,893.57,530.41,890.34,529.37"/>
	<path class="st19" d="M985.78,569.44c-0.5-1.31-0.78-2.82-0.8-3.83c-0.09-4.7-1.28-11.51,2.19-15.27c5.74-6.23,8.87,2.81,7.5,7.72
		c-1.07,3.84-1.82,9.49-4.31,12.62C988.23,573.38,986.66,571.72,985.78,569.44"/>
	<path class="st19" d="M920.85,555.82c-1.18-1.28-2.19-2.91-2.68-4.07c-2.27-5.4-6.76-12.75-4.48-18.68
		c3.78-9.83,11.54-0.78,12.21,5.53c0.53,4.93,2.26,11.81,0.82,16.58C925.49,559.26,922.91,558.05,920.85,555.82"/>
	<path class="st19" d="M782.38,442.35c5.36-1.52,13.54,3.03,17.48,6.14c7.03,5.55,18.75,22.47,7.5,30.13
		c-4.08,2.77-12.14,0.56-15.81-1.35c-6.26-3.24-7.57-8.5-9.9-14.06c-1.91-4.53-4.96-9.2-4.17-14.31
		C778.09,444.99,779.94,443.04,782.38,442.35"/>
	<path class="st19" d="M1099.15,470.62c-0.81-2.38,2.09-6.23,4.04-8.12c3.48-3.36,13.88-9.21,18.25-4.36
		c1.58,1.76,0.09,5.48-1.13,7.21c-2.07,2.94-8.62,5.43-12.11,4.55c-2.85-0.72-2.16,2.92-5.21,2.73
		C1100.65,472.48,1099.52,471.7,1099.15,470.62"/>
	<path class="st19" d="M862.82,427.44c-5.95,1.92-15.41-3.83-20.02-7.76c-8.22-7.02-22.35-28.4-10.11-38.08
		c4.43-3.5,13.63-0.71,17.87,1.7c7.22,4.09,8.99,10.74,11.93,17.77c2.4,5.73,6.09,11.63,5.48,18.08
		C867.5,424.1,865.53,426.57,862.82,427.44"/>
	<path class="st19" d="M949.76,456.9c-4.09,7.61,1.52,26.04,2.75,30.89c1.86,7.37,10.96,15.59,17.14,6.98
		c4.51-6.28-1.96-23.11-4.65-29.55C963,460.41,954.61,447.87,949.76,456.9"/>
	<path class="st19" d="M806.51,416.57c-1.61,8.49,9.29,24.41,11.92,28.67c4,6.48,15.14,11.62,18.44,1.55
		c2.41-7.34-8.82-21.48-13.32-26.84C820.19,415.97,808.41,406.5,806.51,416.57"/>
	<path class="st19" d="M1048.51,489.47c8.66,0.53,23.07-12.23,26.96-15.36c5.92-4.76,9.56-16.41-0.89-18.42
		c-7.62-1.46-20.21,11.4-24.95,16.52C1046.11,476.02,1038.23,488.84,1048.51,489.47"/>
	<path class="st19" d="M1141.11,465.45c8.39-2.21,18.07-18.85,20.78-23.04c4.13-6.37,3.93-18.58-6.62-17.21
		c-7.69,1-15.62,17.16-18.51,23.51C1134.61,453.43,1131.15,468.08,1141.11,465.45"/>
	<path class="st19" d="M975.89,534.63c-3.69-7.04-2.51-15.54,0.45-22.59c1.58-3.78,9.37-18.64,14.98-15.43
		c4.91,2.82,4.19,13.05,3.3,17.6c-0.82,4.23-8.83,31.77-17.09,22.78C976.89,536.29,976.34,535.49,975.89,534.63"/>
	<path class="st19" d="M997.94,386.17c4.76,7.66,4.15,17.37,1.41,25.6c-1.47,4.41-9.02,21.87-15.63,18.71
		c-5.79-2.77-5.84-14.41-5.22-19.63c0.57-4.86,7.28-36.68,17.39-27.2C996.68,384.38,997.36,385.23,997.94,386.17"/>
	<path class="st19" d="M1016.08,433.99c6.14,8.32,6.19,18.35,3.64,26.67c-1.37,4.46-8.77,21.99-16.7,18.19
		c-6.95-3.33-7.92-15.4-7.61-20.77c0.28-5,5.59-37.49,18.09-26.86C1014.47,432.04,1015.33,432.97,1016.08,433.99"/>
	<path class="st19" d="M947.28,399.01c7.55,7.07,9.44,16.93,8.45,25.58c-0.53,4.63-4.6,23.22-13.09,20.92
		c-7.44-2.02-10.6-13.72-11.28-19.06c-0.63-4.97-1.36-37.9,12.87-29.7C945.34,397.38,946.36,398.15,947.28,399.01"/>
	<path class="st19" d="M1114.11,421.43c2.29,8.02-0.65,16.08-5.1,22.2c-2.38,3.28-13.34,15.73-18.36,10.94
		c-4.4-4.2-1.56-14.1,0.27-18.34c1.71-3.95,15.48-28.86,22.02-17.59C1113.44,419.51,1113.83,420.45,1114.11,421.43"/>
	<path class="st19" d="M1031.09,486.27c4.29,7.17,3.54,15.72,0.83,22.77c-1.45,3.78-8.8,18.63-14.89,15.29
		c-5.34-2.93-5.17-13.23-4.5-17.8c0.62-4.25,7.46-31.88,16.69-22.66C1029.95,484.59,1030.57,485.39,1031.09,486.27"/>
	<path class="st19" d="M676.64,314.59c8.31-1,15.87,3.16,21.27,8.49c2.89,2.86,13.6,15.58,8.08,19.77
		c-4.83,3.67-14.24-0.67-18.17-3.14c-3.66-2.29-26.32-19.74-14.14-24.4C674.63,314.94,675.62,314.71,676.64,314.59"/>
	<path class="st19" d="M1106.99,370.58c1.85,9.86-1.49,19.46-6.11,28.3c-2.77,5.29-9.35,16.41-15.53,11.33
		c-10.83-8.9-1.17-35.98,7.54-45.3C1098.6,358.81,1105.76,364.05,1106.99,370.58"/>
	<path class="st19" d="M1200.21,351.96c-1.75,9.87-8.27,17.68-15.73,24.33c-4.46,3.98-14.56,12.07-18.55,5.16
		c-7.01-12.11,11.62-34.06,23.07-39.72C1196.51,338.01,1201.37,345.41,1200.21,351.96"/>
	<path class="st19" d="M1050.2,381.91c2.68,7.4,0.3,14.14-3.38,20.21c-2.21,3.63-7.59,11.19-14.04,6.92
		c-11.31-7.5-4.36-26.49,3.24-32.54C1041,372.53,1048.42,377.01,1050.2,381.91"/>
	<path class="st19" d="M904.41,381.59c6.96,3.73,9.73,10.33,11.08,17.31c0.8,4.17,1.9,13.4-5.76,14.51
		c-13.42,1.94-21.05-16.83-19.48-26.41C891.29,380.72,899.8,379.12,904.41,381.59"/>
	<path class="st19" d="M872.04,448.97c6.96,7.23,17.48,15.52,19.54,25.87c1.12,5.62-1.73,11.39-7.91,10.61
		c-8.68-1.09-12.77-7.75-17.14-14.26c-3.79-5.66-10.4-11.7-10.3-19.07C856.36,442.35,866.99,443.72,872.04,448.97"/>
	<path class="st19" d="M768.26,326.86c4.57,8.93,12.24,19.91,11.22,30.41c-0.55,5.7-4.95,10.4-10.64,7.87
		c-8-3.55-9.99-11.11-12.28-18.6c-2-6.51-6.57-14.2-4.35-21.24C755.16,315.99,764.95,320.38,768.26,326.86"/>
	<path class="st19" d="M1059.1,421.88c4.79,9.28,2.01,22.56-3.66,30.58c-5.02,7.11-12.37,9.69-12.73-2.01
		c-0.44-14.31,3.65-31.34,8.83-32.24C1055.15,417.59,1057.68,419.14,1059.1,421.88"/>
	<path class="st19" d="M1246.77,322.22c-0.52,10.41-9.62,20.49-18.58,24.59c-7.94,3.63-15.61,2.2-10.02-8.09
		c6.83-12.58,18.96-25.25,23.9-23.44C1245.51,316.54,1246.93,319.14,1246.77,322.22"/>
	<path class="st19" d="M1143.76,371.88c-14.24,3.2-25.64,22-22.29,36.16c1.55,6.54,3.66,11.23,10.66,12.29
		c11.6,1.77,24.94-6.62,29.92-16.91c1.82-3.77,3.13-8.49,3.29-13.14C1158.68,383.68,1151.45,377.56,1143.76,371.88 M1150.16,397.5
		c-1.98,4.08-8.91,9.17-13.68,7.39c-11.67-4.38,1.13-26.51,11.85-20.14C1152.69,387.34,1152.05,393.6,1150.16,397.5"/>
	<path class="st19" d="M1201.76,460.12c1.45-1.12,2.73-2.47,3.87-3.95c-2.04-6.84-4.53-13.42-7.45-19.73c-0.13,4-1.6,8.39-4.7,9.89
		c-11.2,5.4-18.56-19.11-6.55-22.45c1.83-0.51,3.56-0.16,5.08,0.7c-2.76-4.78-5.77-9.39-9.01-13.84
		c-18.61,8.13-13.41,39.34,2.49,48.6C1191.32,462.74,1196.19,464.44,1201.76,460.12"/>
	<path class="st19" d="M1059.59,331.13c-21.06-6.33-42.73-10.59-63.89-12.91c-0.84,3.13-0.88,6.57-0.28,9.18
		c0.44,1.91,1.27,3.75,2.38,5.52c4.35,6.94,11.96,14.91,17.53,19.65c6.95,5.92,11.74,12.81,21.62,11.72
		c9.59-1.06,25.8-12.54,24.6-22.65C1061.17,338.39,1060.57,334.7,1059.59,331.13 M1042.35,343.56c-6.91,8.04-23.71-4.55-27.17-11.08
		c-1.02-1.92-1.35-3.84-0.65-5.59c1.82-4.57,8.98-3.72,12.72-2.62C1033.41,326.09,1049.33,335.44,1042.35,343.56"/>
	<path class="st19" d="M972.27,320.59c-0.27-0.82-0.54-1.74-0.83-2.73c-0.14-0.47-0.29-0.97-0.44-1.49c-3.06-0.12-6.1-0.2-9.11-0.23
		c-1.97-0.02-3.94-0.03-5.91-0.01c0.79,2.04,1.45,4.28,1.85,5.65c0.34,1.15,0.66,2.23,0.97,3.19c0.66,2.01,1.45,4.05,2.24,6.12
		c2.5,6.53,4.87,12.7,3.32,18.07c-1.14,3.98-5.61,8.57-7.67,8.57l-0.16-0.02c-4.22-1.33-8.82-9.19-11.19-19.13
		c-1.54-6.48,1.22-16.54,2.13-19.84c0.24-0.88,0.52-1.69,0.82-2.45c-5.04,0.15-10.07,0.44-15.07,0.83
		c-1.83,7.08-3.62,16.56-1.68,24.68c2.9,12.15,4.98,28.32,18.97,32.49c3.69,1.1,7.26,1.43,10.6,1.08
		c10.28-1.09,18.37-8.62,21.3-19.78c2.89-11.01-4.47-19.99-8.11-29.5C973.57,324.23,972.86,322.39,972.27,320.59"/>
	<path class="st19" d="M898.87,321.83c-15,2.99-29.66,7.19-43.83,12.63c-1.72,2.44-3.04,5.24-3.9,8.51
		c-2.37,8.95-0.8,20.65,9.36,23.85c7.7,2.43,14.22-2.17,21.57-3.73c5.67-1.21,11.52-1.58,17.29-1.09c5.4,0.46,10.81,2.6,14.34-2.98
		c4.59-7.27,2.22-14.67,0.41-22.37C912.14,328.29,906.18,323.79,898.87,321.83 M897.19,349.52c-6.31,1.13-12.78-1.02-19.05-0.05
		c-1.83,0.28-3.68,0.63-5.52,0.46c-1.84-0.17-3.73-0.94-4.78-2.47c-3.35-4.91,1.13-8.74,5.3-10.9c3.89-2.01,9-3.24,14.04-3.31
		c4.44-0.06,8.83,0.78,12.3,2.79C906.97,340.38,904.89,348.14,897.19,349.52"/>
	<path class="st19" d="M813.72,354.87c3.8,11.19-3.03,30.8-15.34,28.97c-4.97-0.74-8.07-7.53-7.82-12c0.02-0.26,0.07-0.49,0.09-0.74
		c-4.42,3.52-8.76,7.21-12.97,11.09c-0.27,0.25-0.53,0.5-0.8,0.75c7.16,10.06,21.21,15.08,32.84,9.6
		c11.87-5.6,18.34-20.14,18.44-32.64c0.03-3.51-0.56-7.91-1.8-12.31C822.08,349.89,817.87,352.31,813.72,354.87"/>
	<path class="st19" d="M770.95,388.61c-3.31,3.24-6.54,6.56-9.68,9.96c2.59,8.18,9.03,17.68,10.97,20.83
		c4,6.48,15.14,11.62,18.44,1.56c2.41-7.34-8.82-21.49-13.32-26.84C776.1,392.62,773.63,390.34,770.95,388.61"/>
	<path class="st19" d="M756.49,416.55c-1.63-1.29-3.62-2.44-5.79-3.33c-0.51-0.21-1.03-0.4-1.55-0.57
		c-13.87,17.29-25.28,36.21-32.84,56.27c5.41,4.8,13.93,7.48,21.97,8.84c10.95,1.84,24.17-8.1,31.19-28.13
		C773.63,437.72,765.83,423.98,756.49,416.55 M754.04,452.69c-3.35,6.43-19.13,9.18-19.87-0.36c-0.46-5.89,3.17-17.41,9.75-19.66
		c1.8-0.62,3.82-0.54,6.04,0.54C756.69,436.49,757.09,446.84,754.04,452.69"/>
	<path class="st19" d="M730.16,594.21c-2.54-1.47-5.82-2.59-9.38-3.29c0.59,3.1,1.12,6.2,1.61,9.29c5.49,1.89,11.4,7.32,8.55,13.35
		c-1.2,2.55-3.76,3.29-6.39,3.39c0.6,5.15,1.31,10.38,1.63,15.98c4.4,1.54,4.23,2.18,7.42,0.72c3.98-1.83,8.68-11.5,10.11-14.41
		C748.17,610.17,739.6,599.67,730.16,594.21"/>
	<path class="st19" d="M659.09,343.19c-1.02-4.88-4.61-9.75-7.8-13.57c-1.14,1.33-4.2,4.6-7.16,9.38c1.8,1.83,4.06,3.43,6.05,5.14
		c0.97,0.84,2.61,1.85,4.23,2.47C657.23,347.69,660,347.56,659.09,343.19"/>
	<path class="st19" d="M1165.6,318.07c-0.41,1.73-0.47,5.97-0.56,6.59c-0.89,6.5,4.36,17.1,10.39,7.89
		c3.45-5.27,1.36-12.97,0.4-18.77C1172.21,315.21,1167.34,317.31,1165.6,318.07"/>
	<path class="st19" d="M1193.29,308.37c-0.48,0.68-0.89,1.56-1.21,2.73c-1.84,6.69-1.41,14.74,4.94,18.95
		c6.45,4.28,11.83-3.29,14.04-6.92c3.24-5.32,5.41-11.17,4.09-17.52C1203.61,305.96,1195.61,307.78,1193.29,308.37"/>
	<path class="st19" d="M1283.03,344.85c-2.07,2.36-3.74,5.17-5.27,7.32c-0.59,0.83-1.25,2.16-1.59,3.42
		c-0.6,2.2-0.22,4.18,3.25,2.88c2.32-0.87,4.63-2.65,6.79-4.5C1285.29,350.32,1283.88,346.81,1283.03,344.85"/>
	<path class="st21" d="M968.18,643.79c10.19-0.12,20.07-5.43,28.49-9.83c16.3-8.53,36.12-24.21,32.39-41.57
		c-3.41-15.85-18.46-11.69-33.49-10.04c-15.03,1.65-49.86,2.08-69.44-0.37c-10.93-1.37-25.52-0.06-23.7,13.46
		C905.84,620.69,947.27,644.04,968.18,643.79"/>
</g>
<g>
	<defs>
		<path id="SVGID_25_" d="M820.56,491.58c-27.66,6.56-57.28,11.4-58.7,14.81c-2.07,4.97,9.54,45.52,15.58,65.02
			c8.63,27.88,42.55,54.59,79.51,43.7c34.99-10.31,53.67-45.91,43.62-80.02c-8.79-29.82-35.11-45.53-62.83-45.53
			C832.03,489.56,826.25,490.23,820.56,491.58"/>
	</defs>
	<clipPath id="SVGID_26_">
		<use xlink:href="#SVGID_25_"  style="overflow:visible;"/>
	</clipPath>
	<path class="st22" d="M900.57,535.09c10.05,34.11-8.63,69.71-43.62,80.02c-36.97,10.89-70.88-15.82-79.51-43.7
		c-6.04-19.5-15.58-57.91-13.5-62.87c1.42-3.41,29.66-9.01,56.62-16.96C853.38,481.91,889.98,499.12,900.57,535.09"/>
	<path class="st23" d="M909.02,554.34c0,36.56-29.91,66.19-66.8,66.19c-36.89,0-66.8-29.63-66.8-66.19
		c0-36.56,29.91-66.19,66.8-66.19C879.11,488.15,909.02,517.78,909.02,554.34"/>
	<path class="st24" d="M902.38,554.64c0,34.01-27.37,61.59-61.14,61.59c-33.77,0-61.14-27.57-61.14-61.59
		c0-34.01,27.37-61.58,61.14-61.58C875.01,493.05,902.38,520.63,902.38,554.64"/>
	<path class="st22" d="M890.95,555.96c0,24.08-19.38,43.6-43.28,43.6c-23.9,0-43.28-19.52-43.28-43.6c0-24.08,19.38-43.6,43.28-43.6
		C871.57,512.36,890.95,531.88,890.95,555.96"/>
</g>
<g>
	<defs>
		<rect id="SVGID_27_" y="0" width="1984.25" height="1417.32"/>
	</defs>
	<clipPath id="SVGID_28_">
		<use xlink:href="#SVGID_27_"  style="overflow:visible;"/>
	</clipPath>
	<path class="st25" d="M876.43,544.11c0,5.3-4.3,9.6-9.6,9.6c-5.3,0-9.6-4.3-9.6-9.6c0-5.3,4.3-9.6,9.6-9.6
		C872.13,534.51,876.43,538.81,876.43,544.11"/>
</g>
<g>
	<defs>
		<path id="SVGID_29_" d="M1033.51,528.11c-10.21,34.07,8.31,69.75,43.25,80.22c36.92,11.06,70.95-15.5,79.71-43.34
			c6.13-19.47,15.19-58.78,13.14-63.76c-1.41-3.41-27.99-9.51-55.89-16.27c-5.8-1.41-11.7-2.1-17.52-2.1
			C1068.61,482.86,1042.39,498.45,1033.51,528.11"/>
	</defs>
	<clipPath id="SVGID_30_">
		<use xlink:href="#SVGID_29_"  style="overflow:visible;"/>
	</clipPath>
	<path class="st26" d="M1036.05,527.09c-10.21,34.07,8.31,69.75,43.25,80.22c36.92,11.06,70.95-15.5,79.71-43.33
		c6.13-19.47,12.98-55.77,10.93-60.75c-1.41-3.41-26.75-11.21-53.68-19.28C1083.48,474.12,1046.81,491.16,1036.05,527.09"/>
	<path class="st27" d="M1028.6,549.64c0,36.24,29.55,65.5,66.01,65.37c36.46-0.14,66.01-29.63,66.01-65.86
		c0-36.24-29.55-65.5-66.01-65.36C1058.15,483.91,1028.6,513.4,1028.6,549.64"/>
	<path class="st28" d="M1031.37,548.22c0,34.01,27.37,61.59,61.14,61.59c33.77,0,61.14-27.57,61.14-61.59s-27.37-61.59-61.14-61.59
		C1058.74,486.63,1031.37,514.2,1031.37,548.22"/>
	<path class="st26" d="M1043.34,554.51c3.45,23.83,25.42,40.37,49.08,36.94c23.65-3.42,40.03-25.52,36.58-49.35
		c-3.45-23.83-25.43-40.37-49.08-36.94C1056.27,508.58,1039.89,530.68,1043.34,554.51"/>
	<path class="st28" d="M1072.9,540.04c0,5.3-4.3,9.6-9.6,9.6c-5.3,0-9.6-4.3-9.6-9.6c0-5.3,4.3-9.6,9.6-9.6
		C1068.6,530.44,1072.9,534.74,1072.9,540.04"/>
</g>
<g>
	<defs>
		<rect id="SVGID_31_" y="0" width="1984.25" height="1417.32"/>
	</defs>
	<clipPath id="SVGID_32_">
		<use xlink:href="#SVGID_31_"  style="overflow:visible;"/>
	</clipPath>
	<path class="st29" d="M1221.51,169.6l58.05,79.75c0,0,4.96,44.99-23.76,46.83c-28.71,1.85-28.42-55.04-28.42-55.04
		s-82.46,11.69-85.05-26.84C1138.79,161.78,1221.51,169.6,1221.51,169.6"/>
	<path class="st29" d="M1239.99,160.2l56.3,72.98c0,0,33.62,8.1,44.04-13.21c14.23-29.09-43.42-35.87-43.42-35.87
		s12.93-34.54,9.14-58.9c-4.32-27.71-26.24-45.29-41.37-38.21C1236.25,100.28,1239.99,160.2,1239.99,160.2"/>
	<path class="st30" d="M1171.76,117.87c-2.19,2.33,3.17,11.38,5.31,4.78C1179.21,116.05,1175.41,113.98,1171.76,117.87"/>
	<path class="st31" d="M1171.76,117.87c-2.19,2.33,3.17,11.38,5.31,4.78C1179.21,116.05,1175.41,113.98,1171.76,117.87z"/>
	<path class="st30" d="M1204.39,99.23c-4.7-0.2-7.41,6.05-2.11,5.88C1207.59,104.93,1211.61,99.53,1204.39,99.23"/>
	<path class="st31" d="M1204.39,99.23c-4.7-0.2-7.41,6.05-2.11,5.88C1207.59,104.93,1211.61,99.53,1204.39,99.23z"/>
	<path class="st30" d="M1218,146.99c0,0,70.9,91.29,77.18,98.5c6.29,7.22,2.05,15.89-6.24,5.54c0,0-63.59-88.33-70.14-96.9
		C1212.26,145.56,1208.66,136.28,1218,146.99"/>
	<path class="st31" d="M1213.24,138.22c0,0-6.04-7.4-7.75-19.29c-1.71-11.88-1.36-14.47-1.36-14.47"/>
	<path class="st31" d="M1177.07,122.65c0,0,11.85,5.05,20.15,10.34c8.31,5.29,11.17,8.53,11.17,8.53"/>
	<path class="st30" d="M1219.22,137.92c2.58,3.38,1.94,8.22-1.45,10.8c-3.38,2.58-8.22,1.94-10.8-1.45
		c-2.58-3.38-1.94-8.22,1.45-10.8C1211.8,133.89,1216.63,134.54,1219.22,137.92"/>
	<path class="st32" d="M1253.85,277.18c-3.79,0-7.53-1.7-10.01-4.95c-4.22-5.53-3.16-13.42,2.36-17.64
		c2.28-1.74,4.97-2.58,7.63-2.58c3.79,0,7.53,1.7,10.01,4.95c4.22,5.52,3.16,13.42-2.36,17.64
		C1259.2,276.33,1256.51,277.18,1253.85,277.18"/>
	<path class="st32" d="M1320.55,226.23c-3.79,0-7.53-1.7-10.01-4.95c-4.22-5.52-3.16-13.42,2.36-17.64
		c2.28-1.74,4.97-2.58,7.63-2.58c3.79,0,7.54,1.7,10.01,4.95c4.22,5.52,3.16,13.42-2.36,17.64
		C1325.9,225.38,1323.21,226.23,1320.55,226.23"/>
</g>
</svg>
