<?xml version="1.0" encoding="utf-8"?>
<!-- Generator: Adobe Illustrator 25.1.0, SVG Export Plug-In . SVG Version: 6.00 Build 0)  -->
<svg version="1.1" id="Capa_1" xmlns="http://www.w3.org/2000/svg" xmlns:xlink="http://www.w3.org/1999/xlink" x="0px" y="0px"
	 viewBox="0 0 1984.25 1417.32" style="enable-background:new 0 0 1984.25 1417.32;" xml:space="preserve">
<style type="text/css">
	.st0{fill:#785184;}
	.st1{fill:#C2C2C2;}
	.st2{fill:#0F4496;}
	.st3{fill:#5D3E66;}
	.st4{fill:#D19679;}
	.st5{fill:#FFFFFF;}
	.st6{fill:#8A6295;}
	.st7{fill-rule:evenodd;clip-rule:evenodd;fill:#B28DC0;}
	.st8{fill-rule:evenodd;clip-rule:evenodd;}
	.st9{fill-rule:evenodd;clip-rule:evenodd;fill:#8A6295;}
	.st10{fill-rule:evenodd;clip-rule:evenodd;fill:#785184;}
	.st11{fill-rule:evenodd;clip-rule:evenodd;fill:#E78EBB;}
	.st12{fill:#673F6D;}
	.st13{fill:#B28DC0;}
	.st14{clip-path:url(#SVGID_2_);fill:#FFFFFF;}
	.st15{clip-path:url(#SVGID_2_);}
	.st16{clip-path:url(#SVGID_4_);fill-rule:evenodd;clip-rule:evenodd;fill:#673F6D;}
	.st17{clip-path:url(#SVGID_4_);fill:#D19679;}
	.st18{clip-path:url(#SVGID_4_);fill:#D7C1B4;}
</style>
<g>
	<path class="st0" d="M1043.88,891.32c-17.11-39.82-87.87-55.95-149.85-59.92c-34.58-2.19-74.96-0.71-108.84,3.69
		c-23.91,3.14-46.09,12.8-57.18,25.64c-4.62,5.3-10.55,14.84,1,19.2l0.25,0.08c-2-0.31-4.06-0.66-6.11-0.96
		c-0.13-0.02-0.33,0.13-0.2,0.17c15.78,3.78,30.63,7.35,44.31,11.81c6.32,3.1,12.23,6.69,18.12,8.96c1.26,0.48,2.79,0.23,3.98-0.34
		c9.21,4.35,17.62,9.49,25.11,15.95c25.21,21.66,29.52,51.22,28.29,76.86c-2.44,51.47-20.76,104.87-42.64,154.53
		c-5.46,12.31-25.4,21.7-28.01,34.37c-3.41,16.14,23.72,15.72,44.99,16.2c25.39,0.59,56.25,2.06,76.71-8.72
		c15.86-8.38,9.96-24.22,8.19-34.93c-4.2-25.27,13.86-50.98,27.78-74.41c14.92-25.1,33.9-49.12,57.23-71.85
		C1022.09,973.46,1061.73,932.76,1043.88,891.32"/>
	<path class="st1" d="M772.12,1181.36c0.1-0.51,0.24-1.02,0.4-1.51C772.36,1180.35,772.22,1180.85,772.12,1181.36"/>
	<path class="st2" d="M772.12,1181.36c0.1-0.51,0.24-1.02,0.4-1.51C772.36,1180.35,772.22,1180.85,772.12,1181.36"/>
	<path class="st3" d="M840.12,1197.98c-7.87,0-15.67-0.24-23-0.41c-0.95-0.02-1.92-0.04-2.89-0.06c-10.96-0.22-23-0.41-31.44-2.81
		c-6.57-1.87-10.96-5.09-10.96-10.7c0-0.82,0.1-1.7,0.29-2.63c0.11-0.51,0.24-1.01,0.4-1.51c0.49-1.53,1.23-2.99,2.13-4.42
		c0.72,0.06,1.45,0.09,2.21,0.09c1.33,0,2.73-0.09,4.23-0.31c4.3-0.63,7.54-1.98,11.12-3.47c5.07-2.1,10.8-2.92,16.67-2.92
		c2.88,0,5.8,0.2,8.69,0.53c8.68,1.05,16.34,3.09,24.79,3.09c2.29,0,4.63-0.15,7.07-0.51c32.86-4.78,22.78-33.69,13.86-49.17
		c4.36,2.39,7.92,5.12,11.15,8.21c0.46,0.43,1.2,0.63,1.94,0.63c1.14,0,2.25-0.47,2.25-1.29c-0.23-10-3.21-19.55-9.14-28.73
		c4.79,2.78,9.49,5.61,14.23,8.44c0.48,0.29,1,0.41,1.51,0.41c1.31,0,2.47-0.82,2.27-1.71c-3.71-14.19-8.15-28.19-3.33-42.49
		c5.32-15.97,19.21-30.55,24.86-46.56c7.65-21.88-4.72-47.62-20.75-67.32c-0.07-0.08-0.13-0.16-0.2-0.24
		c31.23,16.21,57.64,40.25,65.26,93.02c-8.75,11.21-16.59,22.68-23.55,34.38c-12.52,21.08-28.39,43.99-28.4,66.77
		c0,2.55,0.2,5.09,0.62,7.64c0.83,4.99,2.55,11.09,2.55,17.03c0,6.82-2.26,13.42-10.74,17.89
		C879.28,1196.5,859.48,1197.98,840.12,1197.98"/>
	<path class="st4" d="M800.86,1179.21c-1.35-1.51-3.21-2.79-6.3-3.14c-5.92-0.69-11.03-0.65-16.43,1.08
		c-12.56,4-20.88,11.36-24.53,19.37c-0.06,0.21-0.08,0.63,0.27,0.78c4.8,2.46,14.92,3.14,20.99,3.08c7.56-0.1,17.23-0.9,23.49-3.58
		C807.68,1192.8,809.76,1183.52,800.86,1179.21"/>
	<path class="st4" d="M830.3,1183.09c-3.99-3.22-10.12-5.63-15.84-5.69c-12.86-0.18-25.75,6.04-32.95,11.96
		c-5.82,4.77-13.08,12.24,0.81,15c10.78,2.15,29.28,0.07,39.06-3.1c5.59-1.79,10.88-5.12,12.78-8.73
		C835.79,1189.44,833.9,1185.93,830.3,1183.09"/>
	<path class="st4" d="M855.1,1181.36c-6.85-2.06-14.32-1.2-20.59,1.29c-5.18,2.02-11.54,3.6-13.13,7.53
		c-1.61,4.2,1.82,9.24,6.15,12.45c3.8,2.87,12.32,6.36,18.45,6.77c5.87,0.43,7.75-1.43,10.19-4.37
		C860.55,1199.53,867.23,1185.01,855.1,1181.36"/>
	<path class="st0" d="M1412.42,968.31c-17.19-29.94-10.61-57.14-12.38-88.19c-1.23-21.06-20.52-39.4-52.2-42.9
		c-39.91-4.4-74.61,3.62-109.71,16.23c-15.57,5.63-28.5,12.59-39.24,22.06c-11.9,10.47-13.15,21.02-16.14,33.82
		c-0.28,1.18-5.17,31.32-3.44,46.06c3.26,27.73,27.33,49.49,58.08,65.61c15.76,8.29,36.5,13.22,50.74,22.4
		c15.76,10.22,14.91,19.47,8.84,33.51c-3.4,8.06-7.69,15.82-11.99,23.66c-8.37,15.32-18.42,30.61-31.25,44.46
		c-9.14,9.86-22.29,18.39-30.54,28.41c-0.93,1.11-1.81,2.78-0.72,4.02c11.34,12.84,91.88,2.43,108.32-1.86
		c32.35-8.45,8.33-38.53,22.29-57.12c10.07-13.43,21.46-26.51,32.15-39.7c9.35-11.65,23.45-21.65,31.1-33.85
		C1431.62,1020.41,1426.31,992.49,1412.42,968.31"/>
	<path class="st1" d="M1228.75,1167.48c6.04-5.83,13.21-11.33,19.51-17.13c0.02,0,0.05,0,0.07,0
		C1242.01,1156.15,1234.8,1161.64,1228.75,1167.48"/>
	<path class="st2" d="M1228.75,1167.48c6.04-5.83,13.21-11.33,19.51-17.13c0.02,0,0.05,0,0.07,0
		C1242.01,1156.15,1234.8,1161.64,1228.75,1167.48"/>
	<path class="st3" d="M1254.9,1183.65c-15.58,0-28.4-1.62-32.44-6.2c-0.36-0.41-0.51-0.87-0.51-1.33c0-0.94,0.6-1.94,1.22-2.68
		c1.68-2.04,3.56-4.02,5.57-5.96c6.05-5.84,13.26-11.33,19.57-17.13c12.26-0.89,25.6,0.37,37.67-3.25
		c17.88-5.31,26-21.99,32.86-33.41c13.38-22.34,26.83-50.85,1-70.16c8.22,2.8,15.69,6.47,23.16,10.29c0.33,0.17,0.66,0.24,0.98,0.24
		c1.15,0,2.09-0.95,1.84-1.73c-5.09-17.49-19.36-32.45-30.88-48.16c-8.43-11.42-12.83-22.66-11.35-33.89
		c39.22-10.41,42.05-10.41,42.05-10.41c35.41,16.45,61.63,31.18,79.59,45.98c0.22,2.21,0.33,4.42,0.33,6.62
		c0,11.07-2.78,22.07-9.26,32.46c-2.7,4.3-6.2,8.33-10.02,12.26c-6.99,7.2-15.04,14.05-21.09,21.59
		c-4.53,5.59-9.18,11.16-13.8,16.74c-6.29,7.6-12.54,15.22-18.35,22.96c-1.3,1.73-2.27,3.56-2.99,5.47
		c-1.47,3.9-1.88,8.11-1.88,12.4c0,5.33,0.63,10.77,0.63,15.89c0,10.32-2.58,19.32-18.06,23.36c-4.23,1.1-12.7,2.61-23.15,4.03
		c-5.76,0.78-12.11,1.53-18.68,2.17C1277.61,1182.88,1265.6,1183.65,1254.9,1183.65"/>
	<path class="st4" d="M1316,1168.05c-4-3.9-10.57-8.67-18.72-9.37c-11.74-1.01-19.29,4.45-25.61,10.24
		c-0.29,0.09-0.6,0.21-0.89,0.35c-3.29,1.92-4.81,3.69-5.05,5.26c-0.73,0.68-1.48,1.35-2.22,1.97c-0.29,0.25,0.23,0.36,0.52,0.17
		c0.61-0.4,1.16-0.79,1.73-1.23c0.71,4.19,10.51,6.99,18.86,8.88c9.18,2.05,33.14,4.57,38.2-2.62
		C1325.32,1178.15,1318.72,1170.71,1316,1168.05"/>
	<path class="st4" d="M1234.53,1155.07c-1.84,0.19-3.65,0.48-5.53,0.94c-9.74,2.38-19.97,7.45-25.54,12.85
		c-3.93,3.84-10.93,11.8,1.08,13.7c4.04,0.62,8.16,1.1,12.27,1.32c10.33,0.71,22.84,0.7,33.7-1.2c0.86-0.25,1.75-0.52,2.61-0.87
		c11.15-4.23,12.09-13.8,3.82-20.39c-0.06-0.08-0.15-0.14-0.25-0.22C1250.66,1156.51,1243.01,1154.24,1234.53,1155.07"/>
	<path class="st4" d="M1292.37,1171.01c-3.71-10.23-22.77-12.5-36.07-8.03c-8.94,3.02-17.03,8.57-22.73,13.93
		c-2.57,2.42-9.24,9.83-4.83,12.91c4.28,2.95,18.5,2.75,23.82,2.69c9.76-0.12,24.23-0.68,32.55-4.4
		C1292.96,1184.65,1296.18,1176.71,1292.37,1171.01"/>
	<path class="st5" d="M1390.65,986.09c-0.14,0-0.26-0.02-0.4-0.02l-0.21-0.01C1390.26,986.07,1390.45,986.07,1390.65,986.09"/>
	<path class="st6" d="M791.4,387.77c-4.16-11.44-10.82-20.41-18.85-26.65c-8.11-6.29-17.63-9.79-27.42-10.21
		c-11.63-0.49-23.59,3.34-33.99,11.97c-8.98,7.44-14.99,16.03-18.75,25.18c-4.32,10.47-5.66,21.62-5.14,32.6
		c0.33,7.05,1.01,13.47,1.99,19.33c0.99,5.93,2.29,11.25,3.84,16.02l1.04,3.21l3.35-0.31c15.33-1.45,30.38-2.12,45.04-1.96
		c14.22,0.16,28.16,1.11,41.67,2.91l3.43,0.46l1.11-3.29C798.3,428.8,797.79,405.35,791.4,387.77"/>
	<path class="st7" d="M695.39,391.94c3.43-9.37,9.27-18.18,18.41-25.77c33.96-28.17,85.4-0.8,77.17,63.15
		c-4.21-34.33-27.63-68.26-55.04-65.34c-10.87,1.17-23.58,9.23-34.13,23.71C698.02,392.9,696.08,393.76,695.39,391.94"/>
	<path class="st8" d="M733.6,379.42c43.11,0.36,40.57,55.17,31.58,86.49c-13.83-1.31-44.73,3.1-59.07,2.91
		C692.67,433.27,690.48,379.06,733.6,379.42"/>
	<path class="st0" d="M1135.12,393.5c-112.76-18.38-196.17-14.54-195.92-16.1c1.56-9.85,13.38-14.51,12.44-14.56
		c-98.67-1.2-155.1,36.13-154.19,34.62c1.36-4.74,12.11-19.65,12.11-19.65c-30.77,11.23-56.44,32.48-56.44,32.48
		s1.05-10.25,8.58-20.03c0,0-46.32,6.02-109.43,41.5c-9.02,5.07,5.34-23.49-3.78-17.42c-45.08,30-112.09,121.63-112.09,121.63
		s277.74-43.63,390.28-102.11c56.96-29.6,215.88-31.6,224.23-35.73C1149.32,397.56,1136.78,393.77,1135.12,393.5"/>
	<path class="st6" d="M1628.21,758.93c-31.79-247.23-310.9-357.61-529.99-366.51c-56.56-2.29-109.06,2.56-147.96,11.74
		c-0.32-11.95-3.59-24.26-11.1-36.51c-30.58-49.92-111-33.11-116.22,63c-41.23-12.91-87.51-15.2-133.74-2.9
		c-231.92,61.67-397.68,556.64-291.02,699.25c-1.64-2.2-0.23-10.02,0.73-12.9c2.8-8.34,9.97-17.13,22.76-25.7
		c22.84-17.25,62.98-23.17,95.24-20.46c10.9,0.92,20.95,2.83,29.16,5.61c4.89,1.66,9.81,8.98,12.53,5.91
		c91.68-103.86,161.27-139.98,161.27-139.98s18.9-6.52,24.43-8.77c5.53-2.25,39.57-18.4,39.57-18.4s15.39-0.92,31.98,7.85
		c54.1,28.59,125.85,32.87,137.95,128.25c0.2,9.17,0.27,18.32,0.5,27.33c0.76,29.55-1.09,61.8-12.74,90.18
		c-5.89,14.4-18.61,24.82-32.25,35.26c-3.59,2.74-7.38,7.74-6.6,11.91c2.7,14.62,37.29,14.85,50.53,14.97
		c7.8,0.04,15.6-0.35,23.4-0.74c8.02-0.4,16.04-0.8,24.09-0.74c9.36,0.06,23.71,1.84,32.83-1.26c5.26-1.76,8.78-4.08,10.82-6.81
		c1.33-0.27,2.69-1.45,2.31-2.44c-0.22-0.56-0.33-1.13-0.52-1.68c0.46-2.73-0.31-5.85-2.21-9.27c-3.36-23.51,7.66-48.84,13.18-71.46
		c7.43-30.31,24.57-70.6,33.48-100.7c4.41-10.65,8.83-22.39,13.06-35.72c0,0,84.35,4.54,160.92-16.42
		c76.56-20.95,81.07-20.96,81.07-20.96c110.12,51.16,131.41,85.66,91.66,157.51c-30.14,54.47-64.6,70.52-4.03,80.61
		c33.23,5.54,72.9-5.44,72.9-5.44c8.73-3.7,15.85-5.99,18.64-14.6c5.57-17.14-10.4-17.14,5.77-54.17
		c24.84-56.92,58.58-99.07,48.73-135.2c-10.16-37.31-17.31-69.81-11.55-105.8c3.43-21.44,9.54-70.69,3.19-118.51
		c0,0,12.12,39.3,33.11,74.68c12.55,21.17,22.91,11.34,25.32-14.8C1631.42,801.89,1630.93,780.12,1628.21,758.93"/>
	<path class="st9" d="M1102.1,998.72l0.15,0.01c0.48-1.65,1.48-5.4,3.51-13.03c4.15-15.79,5.87-58.79-0.18-98.03
		c-2.23-14.6-7.62-33.35-17.55-54.93c-8.06-17.56-19.5-48.86-28.73-80.41c-39-133,32.24-251.69-111.28-346.73
		c36.87-7.05,98.51-13.74,147.96-11.74c163.21,6.63,359.74,69.6,462.49,203.5c-209.25-57.01-414.78,36.14-308.09,284.15
		c23.11,53.76,89.31,80.48,89.36,80.5c-6.72,1.48-25.53,6.07-77.39,20.25c-68.29,18.69-142.78,17.1-158.07,16.54l-1.9-1.26
		L1102.1,998.72z"/>
	<path class="st7" d="M1345.66,959.86c-101.47-28.91-118.18-195.7-119.1-247.1c-0.22-12.21,0.2-19.64,0.2-19.64
		c-4.04,4.97-30.3,55.95-32.02,103.89c-1.49,41.09-50,53.58-59.98,28.85c-9.91-24.62-41.4,9.26-41.4,9.26s10,33.04,13.56,63.06
		c4.93,41.57-1.16,87.53-4.53,99.37c18.02,0.59,93.55,2.9,159.96-15.28c51.86-14.19,70.66-18.77,77.39-20.25
		c3.21-0.7,3.69-0.71,3.69-0.71C1339.74,962.01,1345.66,959.86,1345.66,959.86"/>
	<path class="st10" d="M913.68,797.27c-4.6,6.24-9.54,12.49-14.85,18.73c-8.56,29.99-114.91,99.6-116.73,100.6
		c-63.92,34.97-120.88,92.85-161.66,129.8c-11.43,10.36-22.02-5.88-22.02-5.88c-13.14,14.2-29.89,44.55-38.99,58.13
		c-2.28,3.4-10.73-22.01-15.61-23.67c-8.21-2.78-18.26-4.69-29.16-5.61c-15.24-1.28-32.25-0.64-48.35,2.23
		c-13.33-211.53,66.01-300.11,124.68-396.31c76.39-125.23,206.1-149.81,289.95-104.08C948.98,608.32,951.11,706.31,913.68,797.27"/>
	<path class="st7" d="M948.05,408.54c0.17-12.87-2.99-26.19-11.13-39.44c-27.28-44.51-94.11-35.97-112.03,34.48
		c2.81-1.39,5.5-4.5,7.8-10.12c10.9-26.65,39.91-44.12,69.08-35.92C930.89,365.71,947.97,408.35,948.05,408.54 M686.95,429.19
		c-156.11,41.52-280.59,280.84-314.06,474c4.04-8.61,7.65-19.04,10.74-31.57c42.5-171.97,192.77-469.76,411.13-441.56l0.82-4.37
		C761.1,418.84,724.01,419.33,686.95,429.19"/>
	<path class="st11" d="M419.59,1086.79c47.67-36.3,175.77-21.04,134.05,18.97c-33.32,31.95-59.46,49.35-104.06,48.03
		C404.99,1152.48,372.28,1118.48,419.59,1086.79"/>
	<path class="st8" d="M476.19,1089.26c19.53-0.7,48.55,4.44,31.78,18.16c-16.77,13.71-36.16-2.11-46.77-4.8
		C437.94,1096.73,459.5,1089.85,476.19,1089.26"/>
	<path class="st8" d="M426.05,1125.16c4.46,9.62,22.77,22.09,43.76,9.94c20.99-12.14-14.69-16.8-22.91-21.12
		C428.87,1104.51,422.24,1116.94,426.05,1125.16"/>
	<path d="M598.6,1041.52c31.09-28.69,95.61-94.91,116.36-167.5c0,0,1.53-4.7,5.26-3.28c4.32,1.63,0.83,14.36-0.69,18.61
		c-20.05,55.94-52.83,103.07-87.59,134.7c-9.97,9.08-20.37,16.22-29.12,21.47"/>
	<path class="st8" d="M910.77,396.86c-24.38-37.04-88.81-13.88-77.89,73.35C884.64,500.9,936.96,436.63,910.77,396.86"/>
	<path class="st12" d="M867.41,854.75c3.22-2.93,6.36-5.86,9.4-8.81l0.07-0.09c2.28-2.26,26.8-27.12,41.74-61.33
		c0.87-1.96,1.72-3.99,2.57-6.07c-14.93,23.25-34.48,46.67-59.79,69.68c-20.38,18.52-50.04,43.45-84.21,70.62l7.04-1.69
		C784.23,917.07,852.2,868.58,867.41,854.75"/>
	<path class="st12" d="M952.35,402.67c-0.76-11.8-4.28-23.88-11.64-35.88c-8.04-13.12-19.32-21.98-31.9-26.35
		c-11.29-3.93-23.55-4.24-35.39-0.78c-11.71,3.45-23.74,10.01-32.41,21.58c-25.2,33.64-25.49,67.36-25.49,67.36l9.32,9.44l0.29-5.69
		c1.61-29.42,10.43-51.04,22.63-65.28c8.28-9.64,18.07-15.88,28.22-18.86c10.05-2.95,20.46-2.71,29.98,0.61
		c10.64,3.71,20.26,11.29,27.16,22.57c6.55,10.67,9.68,21.36,10.33,31.77c0.77,12.11-1.76,23.93-6.16,34.96
		c-4.23,10.64-8.72,19.6-13.4,27.09c-8.9,14.23-20.14,26.7-36.82,31.35c-8.03,2.23-22.71,3.36-33.33,1.27
		c9.06,11.54,46.34,6.13,58.81-4.97l6.28-6.28c4.36-4.65,8.57-10.14,12.62-16.6c4.95-7.93,9.68-17.35,14.11-28.5
		C950.41,429.32,953.2,416.21,952.35,402.67"/>
	<path class="st6" d="M825.13,432.36c1.61-29.42,10.43-51.04,22.63-65.28c8.28-9.64,27.76-29.07,59.77-21.47
		c41.72,9.9,41.88,58.81,44.87,58.85c-0.02-0.6-0.02-1.18-0.05-1.78c-0.76-11.8-4.28-23.88-11.63-35.88
		c-8.04-13.12-19.33-21.98-31.91-26.35c-11.29-3.93-23.55-4.24-35.38-0.77c-11.71,3.45-23.74,10.01-32.41,21.58
		c-25.2,33.64-25.49,67.36-25.49,67.36l9.32,9.44L825.13,432.36z"/>
	<path class="st13" d="M956.76,551.3c0.03-2.18-1.12-4.06-3.08-4.6c-0.72-1.05-1.71-1.99-2.8-2.45c-1.57-0.71-3.58-0.17-4.85,0.93
		c-2.84,2.37-4.39,5.05-5.31,8.61c-0.71,2.6-1.16,5.97,0.07,8.46c1.35,2.77,5.59,1.55,7.67,0.71c0.77-0.33,1.49-0.87,2.19-1.36
		c0.46-0.38,0.87-0.76,1.32-1.13c-0.16,0.1-0.26,0.18-0.35,0.24c1.14-0.88,2.09-1.92,2.85-3.13
		C955.68,555.77,956.7,553.5,956.76,551.3"/>
	<path class="st13" d="M1014.56,514.51c15.93,1.85,32.29-1.7,48.02-4.15c10.02-1.53,21.41-1.41,31.42-1.57
		c10.14-0.18,18.1,4.3,28.33,4.27c19.84-0.13,40.39,4.2,59.74,8.18c20.75,4.28,39.94,13.55,60.42,18.73
		c20.27,5.09,39.57,11.48,57.88,21.69c18.21,10.18,40.34,15.34,57.24,27.44c16.47,11.8,35.61,20.55,54.22,28.38
		c7.77,3.27,15.5,6.59,23.78,8.34c1.92,0.41,10.75,5.38,10.55,5.16c1.28,1.41,3.53,1.05,10.5,0c0.66-0.1,5.02-3.52,0-8.71
		c-0.59-0.61-16.55-7.43-23.15-11.46c-8.63-5.3-18.44-9.15-27.36-14c-17.5-9.58-34.12-19.93-49.47-32.69
		c-14.58-12.12-36.48-14.17-53.32-23c-18.35-9.63-38.45-14.79-58.38-19.9c-18.68-4.8-35.92-13.44-54.92-17.49
		c-19.34-4.09-39.42-3.34-59.19-3.93c-18.59-0.53-35.13-5.93-52.57-0.6c-20.03,6.1-41.14,4.9-61.54,8.89
		C1015.41,508.35,1011.55,514.16,1014.56,514.51"/>
	<path class="st13" d="M1201.32,666.36c-39.07-2.43-71.83-14.86-106.86-30.8c-47.7-21.7-96.59-26.36-105.27-22.49
		c-1.09,0.49-3.21,1.21-2.57,2.56c6.07,12.04,22.78,12.99,35.05,14.84c10.52,1.56,20.52,5.38,31.11,6.85
		c12.23,1.73,21.93,5.67,32.61,11.66c16.82,9.42,34.44,18.2,52.86,23.86c20.11,6.24,40.36,4.83,60.56-0.66
		C1200.46,671.76,1205.21,666.61,1201.32,666.36"/>
	<path class="st13" d="M1498.83,757.84c-32.35-16.76-62.04-38.46-97.54-48.72c-8.36-2.41-16.44-5.39-25.07-6.73
		c-10.44-1.54-21.52-1.39-32.04-2.4c-24.17-2.38-48.83,0.14-73.08-1.03c-1.38-0.06-5.87,2.76-3.39,4.07
		c34.52,18.25,76.43,9.98,112.64,21.98c19.87,6.56,39.14,14.46,59.4,19.76c11.38,3.01,22.56,3.45,33.31,9
		c7.2,3.72,13.57,7.49,21.61,9.08C1496.6,763.22,1501.66,759.32,1498.83,757.84"/>
	<path class="st13" d="M1243.5,465.68c0.12-3.16-1.55-5.31-3.73-7.39c-4.3-4.04-9.59-5.34-14.77-3.83
		c-0.22-0.14-0.45-0.33-0.71-0.48c-4.68-2.95-9.88,1.06-11.84,5.43c-2.96,6.52,6.81,13.41,11.41,16.09
		c4.66,2.69,10.2,1.55,14.41-1.41C1240.95,472.2,1243.35,469.01,1243.5,465.68"/>
	<path class="st13" d="M1433.29,546.42c-0.03-2.19-0.77-4.07-2.27-5.69c-1.51-1.62-3.42-2.98-5.71-3.17
		c-2.61-0.16-4.99,0.27-7.32,1.49c-2.27,1.18-4.32,2.84-5.78,4.92c-1.01,1.43-2.02,3.62-1.52,5.41c0.32,1.19,0.98,1.91,1.75,2.35
		l-0.03,0.04c0.18,0.07,0.35,0.15,0.52,0.2c0.17,0.06,0.36,0.14,0.57,0.2c0.29,0.12,0.59,0.21,0.9,0.25
		c0.65,0.76,1.48,1.36,2.44,1.86c2.56,1.24,4.82,2.42,7.79,1.46C1428.39,554.5,1433.28,550.93,1433.29,546.42"/>
	<path class="st13" d="M999.41,442.27c-4.27-2.92-9.59-1.98-13.89,0.59c-3.56,0.3-6.98,1.85-9.82,4.11
		c-4.31,3.4-7.99,8.86-5.02,14.27c2.47,4.47,8.62,4.41,12.94,4.07c6.5-0.58,13.67-3.44,17.41-9.02
		C1004.33,451.47,1004.5,445.77,999.41,442.27"/>
	<path class="st13" d="M1019.43,704.28c-9.67-18.14-29.47-46.13-52.98-43.58c-3.75-0.73-9.72,3.74-8.49,7.25l0.08,0.23
		c0.33,1,0.99,1.85,2.18,1.97c11.08,0.98,17.87,9.66,25.8,16.42c9.14,7.82,20.38,12.97,29.76,20.79
		C1017.18,708.53,1020.26,705.86,1019.43,704.28"/>
	<path class="st13" d="M1067.74,719.28c-0.12-4.3-3.3-6.25-7.01-6.86c-7.02-9.02-23.17,2.98-28.47,9.57
		c-3.21,3.99-5.29,10.16-0.92,14.18c6.19,5.68,16.7,4.91,23.48,0.83c3.01-1.79,6.69-4.45,9.81-8.3
		C1066.77,726.09,1067.85,722.62,1067.74,719.28"/>
	<path class="st13" d="M1015.6,763.93c-6.91-8.86-16.87-15.74-21.88-25.9c-5.24-10.6-7.74-20.89-19.94-25.28
		c-2.53-0.92-6.91,1.56-6.4,4.6c1.99,11.88,7.15,24.01,12,34.99c5.33,12.09,19.55,13.53,30.59,17.22
		C1012.23,770.34,1017.53,766.43,1015.6,763.93"/>
	<path class="st13" d="M1309.14,772.44c0.59-4.17-3.99-5.52-7.26-4.33c-2.13,0.79-4.03,0.34-6.23-0.02
		c-2.99-0.46-6.45,0.59-9.44,0.82c-7.82,0.71-15.7,0.44-23.5,1.77c-0.92,0.16-3.9,1.84-2.66,3.17c4.46,4.88,13.21,6.06,19.39,7.14
		c6.55,1.1,14.06,2.76,20.53,0.54C1303.97,780.17,1308.49,776.97,1309.14,772.44"/>
	<path class="st13" d="M1362.95,813.33c-1.93-4.76-10.97-5.26-15.37-5.06c-6.19,0.21-13.91-1.91-20.31-1.67
		c-7.91,0.23-14.59,2.17-23.83-1.46c-4.08-1.59-11.47,0.83-6.98,3.96c8.36,5.83,18.32,6.43,27.62,7.6c4.27,0.57,9.02,2.34,13.45,3.3
		c7.14,1.5,12.82,1.43,18.46,0.21C1359.92,819.31,1364.41,816.93,1362.95,813.33"/>
	<path class="st13" d="M1127.18,577.78c-13.48-7.3-31.9-10.09-46.91-12.54c-5.28-0.86-9.69-4.92-13.85-7.96
		c-3.34-2.51-8.12-3.75-11.96-5.4c-6.84-2.87-36.67-1.61-35.17,2.47c2.03,5.45,10.39,6.68,15.23,7.63
		c11.46,2.27,19.61,9.29,28.94,15.71c6.91,4.76,18.29,6.11,26.45,7.99c10.31,2.35,22.64,0.8,33.05-0.38
		C1125.41,585.02,1130.91,579.8,1127.18,577.78"/>
	<path class="st13" d="M1436.12,670.9c-9.39-6.43-20.42-9.72-30.03-15.41c-4.23-2.5-7.37-6.1-11.82-8.5
		c-5.94-3.22-37.74-18.06-47.64-20.28c-9.51-2.16-33.11-20.83-36.4-10.98c-2.04,6.14,6.84,12.63,12.65,17.16
		c8.45,6.57,18.71,13.03,28.83,16.69c13.65,4.91,27.25,7.29,40.98,11.38c13.07,3.93,24.01,12.18,37.15,15.51
		C1432.32,677.08,1440.33,673.77,1436.12,670.9"/>
	<path class="st13" d="M1266.53,634.48c-0.58-0.76-1.37-0.99-2.25-0.98c-1.05-0.91-2.6-0.63-3.74-0.05
		c-1.37,0.65-3.77,2.65-3.21,4.5l0.07,0.12c-0.44,0.99-0.56,2.01,0.08,2.92c1.5,2.08,4.92,0.61,6.48-0.5
		C1265.54,639.37,1268,636.58,1266.53,634.48"/>
	<path class="st13" d="M1492.58,669.16c-2.99-1.47-5.86-1.1-8.65,0.1c-0.78,0.06-1.59,0.23-2.3,0.51c-3.82,1.43-8.19,4.96-8.21,9.46
		c-0.02,2.1,0.43,3.42,2.06,4.74c1.19,0.93,3.31,0.99,4.73,0.81c5.88-0.73,10.97-4.56,13.62-9.81
		C1494.75,673.15,1494.67,670.17,1492.58,669.16"/>
	<path class="st13" d="M898.33,556.64l-0.03-0.07C898.18,556.37,898.12,556.3,898.33,556.64"/>
	<path class="st13" d="M1375.57,908.75c-0.1-0.03-0.17-0.07-0.26-0.09l-0.14-0.05C1375.31,908.65,1375.44,908.69,1375.57,908.75"/>
	<path class="st7" d="M975.5,401.11c35.87-5.07,81.89-8.81,120.48-7.24c147.84,6,323.03,58.24,431.09,167.55
		c-62.86-52.07-198.24-107.49-323.8-136.92c-87.54-20.52-167.68-25.54-226.12-20.04C971.99,404.94,971.83,403.62,975.5,401.11"/>
	<path class="st13" d="M1336.22,505.2c-32.35-16.76-62.04-38.46-97.54-48.72c-8.36-2.41-16.44-5.39-25.07-6.73
		c-10.44-1.54-21.52-1.39-32.04-2.4c-24.17-2.38-48.83,0.14-73.08-1.03c-1.38-0.06-5.87,2.76-3.39,4.07
		c34.52,18.25,76.43,9.98,112.64,21.98c19.87,6.56,39.14,14.46,59.4,19.76c11.38,3.01,22.56,3.45,33.31,9
		c7.2,3.72,13.57,7.49,21.61,9.08C1333.99,510.57,1339.04,506.67,1336.22,505.2"/>
	<path class="st0" d="M1102.1,998.72c13.73-69.61,2.99-134.3-8.41-157.94c-6.4-13.4-13.32-27.02-23.37-39.14
		c-5.08-6.14-11.45-12.71-19.61-16.82c29.66,37.23,36.26,83.1,33.54,126.1c-1.68,26.13-7.85,51.57-12.31,77.45
		c-4.77,27.51-8.09,55.94-22.87,81.68c-0.73,1.29-2.93,0.66-3.44-0.34c-2.05-3.82-3.62-7.75-5.33-11.65
		c0,13.85,1.43,27.8-3.63,41.31c-0.47,1.27-3.3,1.47-3.65,0c-1.82-7.97-3.21-15.99-6.08-23.71c0.54,16.92,0.69,33.88-1.65,50.74
		c-2.67,19.45-7.39,41.33-23.75,57.15c-12.07,11.71-41.64,24.25-59.59,12.03c-5.52-3.73-8.67-8.7-10.31-14.17
		c-6.28,7.15-14.16,13.45-22.36,19.75c-3.59,2.74-7.38,7.74-6.6,11.91c2.7,14.62,37.29,14.85,50.53,14.97
		c15.82,0.09,31.6-1.61,47.49-1.48c9.36,0.06,23.71,1.84,32.83-1.26c5.26-1.76,8.78-4.08,10.82-6.81c1.33-0.27,2.69-1.44,2.31-2.44
		c-0.22-0.56-0.33-1.13-0.52-1.68c0.46-2.73-0.32-5.85-2.21-9.27c-3.36-23.51,7.66-48.84,13.18-71.46
		c7.43-30.31,18.2-53.28,27.83-83.16C1093.22,1024.88,1097.39,1020.24,1102.1,998.72"/>
	<path class="st4" d="M936.19,1213.49c-3.5-8.04-13.62-11.11-26.1-7.97c-13.98,3.55-27.08,16.22-24.91,27.99
		c0.94,5.07,10.38,4.09,15.1,4.09c9.14,0,16.23-1.24,24.72-3.46C938.61,1230.49,943.6,1221.24,936.19,1213.49"/>
	<path class="st4" d="M1015.77,1217.8c-3.4-3.97-8.99-8.89-15.6-9.67c-9.59-1.13-15.45,4.34-20.26,10.16
		c-0.24,0.06-0.47,0.17-0.67,0.34c-2.59,1.96-3.74,3.7-3.88,5.28c-0.53,0.7-1.15,1.38-1.68,2c-0.23,0.23,0.16,0.37,0.41,0.19
		c0.49-0.43,0.87-0.81,1.35-1.23c0.78,4.24,8.88,7.19,15.72,9.14c7.55,2.17,27.1,4.99,30.82-2.29
		C1023.84,1228.13,1018.12,1220.52,1015.77,1217.8"/>
	<path class="st4" d="M977.91,1215.6c-9.07-7.34-30.24-9.57-38.83-1.29c-5.24,5.02-8.35,14.23-6.49,20.47
		c2.71,9.26,14.77,10.26,24.85,7.27c6.42-1.84,17.54-5.96,21.67-10.22C983.75,1227.01,983.27,1219.94,977.91,1215.6"/>
	<path class="st0" d="M1575.81,732.27c-40.72-55.71-32.16,18.99-41.92,100.42c-2.53,21.11-1.42,40.39,1.72,57.96
		c-0.35-0.25-0.35-0.13,0.07,0.39c1.82,10.09,4.31,19.61,7.17,28.6c15.62,45.38,15.62,58.68-12.72,100.02
		c-9.6,14.01-19.54,30.59-24.86,46.56c-4.81,14.3-0.38,28.3,3.33,42.49c0.28,1.24-2.07,2.34-3.78,1.3
		c-4.74-2.83-5.33,10.29-5.09,20.29c0,1.35,3.66,36.84-29.2,41.62c-11.45,1.69-20.83-1.25-31.86-2.58
		c-8.76-1.02-17.8-0.75-25.36,2.39c-3.58,1.49-6.82,2.84-11.12,3.47c-2.36,0.34-4.48,0.38-6.44,0.22c-1.19,1.9-2.11,3.86-2.53,5.94
		c-3.41,16.14,23.72,15.72,44.99,16.2c25.39,0.59,56.25,2.06,76.71-8.73c15.87-8.38,10.76-24.38,8.19-34.93
		c-2.91-11.97,13.9-48.08,27.78-74.41c13.32-25.27,19.8-38.71,25.42-52.37c13.5-32.85-6.05-52.72-8.39-89.58
		c-2.83-26.57-2.83-33.72,0.83-61.24c2.86-21.52,8.56-64.24,2.21-112.06c0,0,12.12,39.3,33.11,74.68
		c6.1,10.28,12.23,13.7,16.66,10.19C1619.51,832.74,1610.08,779.16,1575.81,732.27"/>
</g>
<g>
	<defs>
		<path id="SVGID_1_" d="M720.29,789.86c5.76,8.94,13.93,15.71,23.75,20.29c8.76,4.08-7.26-17.83-32.41-50.73
			C711.67,770.4,714.46,780.8,720.29,789.86 M836.25,646.14c43.51,23.86,72.48,39.01,64.88,27.21c-11.72-18.19-33.41-27.4-58.6-27.4
			C840.46,645.95,838.36,646.02,836.25,646.14 M579.97,542.12c-25.57,16.47,75.69,144.08,131.66,217.3
			c-0.1-31.05,21.74-66.84,58.62-90.6c21.59-13.91,44.8-21.42,65.99-22.67c-20.77-11.39-44.85-24.76-69.84-38.14
			c-64.88-34.72-135.93-69.43-171.17-69.44C588.91,538.57,583.75,539.68,579.97,542.12"/>
	</defs>
	<clipPath id="SVGID_2_">
		<use xlink:href="#SVGID_1_"  style="overflow:visible;"/>
	</clipPath>
	<path class="st14" d="M783.07,636.7c18.13,28.14,10.01,65.65-18.12,83.78c-28.14,18.13-65.65,10.02-83.77-18.12
		c-18.13-28.14-10.02-65.65,18.12-83.78C727.44,600.44,764.94,608.56,783.07,636.7"/>
	<path class="st15" d="M762.06,648.21c12.77,19.82,7.05,46.23-12.76,59c-19.82,12.77-46.23,7.05-59-12.76
		c-12.77-19.82-7.05-46.23,12.76-59C722.87,622.68,749.29,628.39,762.06,648.21"/>
	<path class="st14" d="M711.76,674.38c3.06,4.76,1.69,11.1-3.06,14.16c-4.76,3.06-11.09,1.69-14.16-3.06
		c-3.07-4.76-1.69-11.09,3.06-14.16C702.36,668.25,708.69,669.62,711.76,674.38"/>
</g>
<g>
	<defs>
		<rect id="SVGID_3_" y="0" width="1984.25" height="1417.32"/>
	</defs>
	<clipPath id="SVGID_4_">
		<use xlink:href="#SVGID_3_"  style="overflow:visible;"/>
	</clipPath>
	<path class="st16" d="M709.4,763.26c-1.13-7.06,1.14-26.22,21.97-58.73c23.26-36.31,68.53-55.68,91.07-57.28
		c8.02-0.57,12.13,8.75-0.35,10.49c-12.76,1.78-32.45,3.2-62.7,30.62c-41.2,37.35-35.11,75.58-45.66,78.85
		C713.72,767.23,709.98,766.9,709.4,763.26"/>
	<path class="st17" d="M1477.72,1185.62c-3.61-4.36-9.74-9.9-17.84-11.44c-11.72-2.2-19.97,2.58-26.97,7.85
		c-0.31,0.06-0.6,0.11-0.94,0.29c-3.51,1.63-5.24,3.28-5.68,4.85c-0.8,0.62-1.65,1.21-2.44,1.77c-0.36,0.2,0.19,0.41,0.5,0.25
		c0.62-0.37,1.26-0.75,1.89-1.08c0.24,4.33,9.79,8.22,18.02,10.95c9.08,3.03,32.92,8.06,38.86,1.23
		C1486,1196.89,1480.18,1188.62,1477.72,1185.62"/>
	<path class="st17" d="M1405.14,1170.66c-1.83,0.15-3.74,0.49-5.64,0.92c-9.92,2.38-20.36,7.43-26.12,12.95
		c-4.09,3.95-11.29,12.03,0.87,14.04c4.11,0.68,8.22,1.16,12.41,1.49c10.46,0.76,23.16,0.88,34.22-0.93
		c0.86-0.3,1.78-0.58,2.68-0.89c11.39-4.27,12.47-14.1,4.21-20.89l-0.23-0.24C1421.5,1172.28,1413.81,1169.9,1405.14,1170.66"/>
	<path class="st17" d="M1452.67,1184.66c-2.87-10.48-18.9-12.73-30.27-8.07c-7.6,3.13-14.57,8.83-19.53,14.31
		c-2.26,2.52-8.08,10.17-4.41,13.3c3.51,2.99,15.51,2.73,20.03,2.62c8.24-0.13,20.42-0.77,27.61-4.58
		C1452.8,1198.65,1455.75,1190.49,1452.67,1184.66"/>
	<path class="st18" d="M1479.25,1196.95c-0.32,0-0.63-0.09-0.85-0.31c-1.81-1.75-2.08-4.01-2.94-5.96c-0.75-1.8-1.48-3.59-2.23-5.39
		c-0.06-0.11,0.1-0.23,0.27-0.23c0.06,0,0.12,0.02,0.17,0.06c3.34,3.24,8.19,7.07,7.13,11
		C1480.68,1196.55,1479.93,1196.95,1479.25,1196.95"/>
</g>
</svg>
